<svg width="196" height="199" viewBox="0 0 196 199" fill="none" xmlns="http://www.w3.org/2000/svg">
<g opacity="0.66">
<path d="M24.8788 152.668C23.9272 150.765 39.5487 143.152 47.4784 139.584V145.531L65.3201 149.099L85.5408 144.342V139.584H86.7302L91.488 140.773L90.2986 155.047L91.488 156.236L106.951 157.426L128.361 151.478L146.203 150.289C149.375 151.875 156.194 155.047 158.097 155.047C160.476 155.047 158.097 160.994 166.423 160.994C174.75 160.994 190.213 159.804 193.781 165.752C197.349 171.699 194.97 172.888 160.476 180.025C125.982 187.162 56.9939 195.488 55.8045 196.677C54.8529 197.629 43.5135 197.074 39.1521 197.867L36.7732 185.972C30.4295 183.594 17.2663 178.836 15.3634 178.836C13.4605 178.836 11.3985 185.179 10.6053 188.351C9.01946 188.351 5.13413 187.4 2.27944 183.594C-1.28891 178.836 12.9845 166.941 15.3634 165.752C17.2665 164.8 28.8439 161.39 34.3946 159.804C31.6192 158.219 25.8303 154.571 24.8788 152.668Z" fill="url(#paint0_linear_49_431)" stroke="url(#paint1_linear_49_431)"/>
<path d="M54.6147 191.92L59.3726 187.162L124.792 177.646L125.982 180.025L54.6147 191.92Z" fill="#0C0C0C"/>
<path d="M134.308 177.646L133.119 174.078L158.097 172.888L134.308 177.646Z" fill="#0C0C0C"/>
<path d="M54.6147 191.92L59.3726 187.162L124.792 177.646L125.982 180.025L54.6147 191.92Z" stroke="url(#paint2_linear_49_431)"/>
<path d="M134.308 177.646L133.119 174.078L158.097 172.888L134.308 177.646Z" stroke="url(#paint3_linear_49_431)"/>
<path d="M103.382 163.373C103.382 162.183 100.765 160.28 90.2981 162.183C69.3639 166.941 44.3061 162.58 34.3938 159.805C28.843 161.39 17.266 164.8 15.3629 165.752C12.984 166.941 2.27862 177.646 1.08917 181.215C0.13761 184.069 7.03643 187.162 10.6048 188.351L12.9837 181.215C13.9353 178.36 15.7591 178.439 16.552 178.836L36.7727 185.972L40.3411 197.867H53.425L54.6145 191.92L59.3723 184.783C56.9934 183.594 52.2356 180.977 52.2356 180.025C52.2356 179.074 86.3332 168.527 103.382 163.373Z" fill="url(#paint4_linear_49_431)"/>
<path d="M34.3938 159.805C34.3939 159.805 34.3937 159.804 34.3938 159.805ZM34.3938 159.805C44.3061 162.58 69.3639 166.941 90.2981 162.183C100.765 160.28 103.382 162.183 103.382 163.373C86.3332 168.527 52.2356 179.074 52.2356 180.025C52.2356 180.977 56.9934 183.594 59.3723 184.783L54.6145 191.92L53.425 197.867H40.3411L36.7727 185.972L16.552 178.836C15.7591 178.439 13.9353 178.36 12.9837 181.215C12.0321 184.069 11.0013 187.162 10.6048 188.351C7.03643 187.162 0.13761 184.069 1.08917 181.215C2.27862 177.646 12.984 166.941 15.3629 165.752C17.266 164.8 28.843 161.39 34.3938 159.805Z" stroke="url(#paint5_linear_49_431)"/>
<path d="M47 149.776L60.1029 6.5997H70.8235H73.2059C77.0176 6.5997 81.1471 7.68437 82.7353 8.22671L85.1176 148.963C81.1471 149.776 72.2529 151.403 68.4412 151.403C66.5099 151.843 63.9807 151.924 61.2941 151.796C56.027 151.546 50.1553 150.495 47 149.776Z" fill="url(#paint6_linear_49_431)"/>
<path d="M120.853 1.71868C124.665 3.02029 126.412 3.3457 126.809 3.3457L128 153.844C123.64 154.895 115.767 156.557 108.941 157.426C105.2 157.903 101.773 158.142 99.4118 157.911C92.7412 157.261 90.2794 157.098 89.8824 157.098L105.368 1.71868C107.293 1.42652 110.532 1.07139 113.706 1.00944C116.424 0.956385 119.095 1.11828 120.853 1.71868Z" fill="url(#paint7_linear_49_431)"/>
<path d="M70.8235 6.5997C67.0869 6.5997 62.362 6.5997 60.1029 6.5997L47 149.776C50.1553 150.495 56.027 151.546 61.2941 151.796M70.8235 6.5997C71.6841 6.5997 72.4923 6.5997 73.2059 6.5997C77.0176 6.5997 81.1471 7.68437 82.7353 8.22671L85.1176 148.963C81.1471 149.776 72.2529 151.403 68.4412 151.403C66.5099 151.843 63.9807 151.924 61.2941 151.796M70.8235 6.5997L61.2941 151.796M113.706 1.00944C110.532 1.07139 107.293 1.42652 105.368 1.71868L89.8824 157.098C90.2794 157.098 92.7412 157.261 99.4118 157.911C101.773 158.142 105.2 157.903 108.941 157.426M113.706 1.00944C116.424 0.956385 119.095 1.11828 120.853 1.71868C124.665 3.02029 126.412 3.3457 126.809 3.3457L128 153.844C123.64 154.895 115.767 156.557 108.941 157.426M113.706 1.00944L108.941 157.426" stroke="url(#paint8_linear_49_431)"/>
<path opacity="0.66" d="M33 185.345L11 189V186.563C12.1579 184.127 12.1579 182.908 13.3158 180.472C14.1429 178.731 14.4726 178.847 15.6256 179.251L15.6316 179.253L33 185.345Z" fill="#D9D9D9" stroke="url(#paint9_linear_49_431)"/>
</g>
<defs>
<linearGradient id="paint0_linear_49_431" x1="98.3551" y1="139.584" x2="98.3551" y2="197.867" gradientUnits="userSpaceOnUse">
<stop offset="1" stop-color="#0D0F25"/>
</linearGradient>
<linearGradient id="paint1_linear_49_431" x1="98.3551" y1="139.584" x2="98.3551" y2="197.867" gradientUnits="userSpaceOnUse">
<stop offset="1" stop-color="#576B97"/>
</linearGradient>
<linearGradient id="paint2_linear_49_431" x1="106.356" y1="172.888" x2="106.356" y2="191.92" gradientUnits="userSpaceOnUse">
<stop offset="1" stop-color="#576B97"/>
</linearGradient>
<linearGradient id="paint3_linear_49_431" x1="106.356" y1="172.888" x2="106.356" y2="191.92" gradientUnits="userSpaceOnUse">
<stop offset="1" stop-color="#576B97"/>
</linearGradient>
<linearGradient id="paint4_linear_49_431" x1="52.191" y1="159.805" x2="52.191" y2="197.867" gradientUnits="userSpaceOnUse">
<stop offset="1" stop-color="#0D0F25"/>
</linearGradient>
<linearGradient id="paint5_linear_49_431" x1="52.191" y1="159.805" x2="52.191" y2="197.867" gradientUnits="userSpaceOnUse">
<stop offset="1" stop-color="#576B97"/>
</linearGradient>
<linearGradient id="paint6_linear_49_431" x1="87.5" y1="1" x2="87.5" y2="158" gradientUnits="userSpaceOnUse">
<stop offset="1" stop-color="#0D0F25"/>
</linearGradient>
<linearGradient id="paint7_linear_49_431" x1="87.5" y1="1" x2="87.5" y2="158" gradientUnits="userSpaceOnUse">
<stop offset="1" stop-color="#0D0F25"/>
</linearGradient>
<linearGradient id="paint8_linear_49_431" x1="87.5" y1="1" x2="87.5" y2="158" gradientUnits="userSpaceOnUse">
<stop offset="1" stop-color="#576B97"/>
</linearGradient>
<linearGradient id="paint9_linear_49_431" x1="22" y1="179" x2="22" y2="189" gradientUnits="userSpaceOnUse">
<stop offset="1" stop-color="#576B97"/>
</linearGradient>
</defs>
</svg>
