<svg width="320" height="517" viewBox="0 0 320 517" fill="none" xmlns="http://www.w3.org/2000/svg">
<g opacity="0.32">
<path d="M66.3894 474.517C62.1818 467.642 52.1538 471.521 47.6657 474.321C50.4712 476.511 50.5064 480.692 50.1734 482.508C48.3923 484.803 47.0439 481.626 45.3169 483.495C43.9353 484.991 45.8914 489.315 47.0422 491.289C48.0318 489.478 50.4155 486.186 52.0341 487.513C53.6526 488.841 52.69 490.739 52.0064 491.522C55.7614 494.514 59.6144 492.552 61.0715 491.198C61.676 490.302 63.0322 490.477 63.6347 490.676C64.5194 491.711 62.636 493.134 61.5837 493.716C67.9728 491.975 70.0207 485.927 70.246 483.12C72.7069 480.852 73.2146 478.375 73.1608 477.419C68.6498 477.343 66.767 475.452 66.3894 474.517Z" fill="#116589" fill-opacity="0.68"/>
<path d="M38.5227 492.376C34.3151 485.501 24.2871 489.381 19.799 492.18C22.6045 494.371 22.6397 498.551 22.3067 500.367C20.5256 502.662 19.1772 499.485 17.4502 501.355C16.0686 502.851 18.0247 507.174 19.1755 509.149C20.1651 507.337 22.5488 504.045 24.1674 505.373C25.7859 506.7 24.8233 508.599 24.1397 509.382C27.8947 512.373 31.7477 510.412 33.2048 509.057C33.8093 508.161 35.1655 508.336 35.768 508.536C36.6527 509.571 34.7693 510.994 33.717 511.576C40.1061 509.835 42.154 503.786 42.3793 500.979C44.8402 498.712 45.3479 496.234 45.2941 495.279C40.7831 495.202 38.9003 493.312 38.5227 492.376Z" fill="#116589" fill-opacity="0.68"/>
<path d="M38.0148 472.439C35.8721 468.927 30.7739 470.903 28.4926 472.331C29.9203 473.45 29.94 475.584 29.7714 476.512C28.8666 477.682 28.1795 476.06 27.302 477.014C26.6 477.777 27.5966 479.985 28.1827 480.994C28.6852 480.069 29.8961 478.39 30.7198 479.068C31.5434 479.746 31.0547 480.715 30.7074 481.115C32.6183 482.644 34.577 481.644 35.3174 480.953C35.6245 480.496 36.3142 480.586 36.6207 480.688C37.0711 481.216 36.1139 481.942 35.579 482.239C38.8274 481.353 39.8664 478.265 39.9798 476.833C41.2303 475.676 41.4875 474.411 41.4597 473.923C39.1656 473.882 38.2072 472.916 38.0148 472.439Z" fill="#116589" fill-opacity="0.68"/>
<path d="M13.5627 489.604C11.42 486.092 6.32174 488.068 4.04046 489.496C5.46814 490.615 5.48783 492.749 5.31921 493.677C4.41441 494.848 3.72732 493.225 2.84982 494.179C2.14782 494.942 3.14447 497.15 3.73054 498.159C4.23303 497.234 5.44393 495.555 6.26761 496.233C7.09129 496.911 6.60256 497.88 6.25523 498.28C8.16614 499.809 10.1248 498.809 10.8653 498.118C11.1723 497.661 11.8621 497.751 12.1686 497.853C12.6189 498.382 11.6617 499.107 11.1268 499.404C14.3753 498.518 15.4142 495.43 15.5276 493.998C16.7782 492.841 17.0353 491.576 17.0076 491.088C14.7134 491.047 13.7551 490.081 13.5627 489.604Z" fill="#116589" fill-opacity="0.68"/>
<path d="M20.7754 479.433C19.4248 477.241 16.1944 478.485 14.748 479.381C15.6499 480.079 15.6589 481.414 15.5506 481.994C14.976 482.727 14.5437 481.714 13.9867 482.312C13.5411 482.79 14.1684 484.169 14.5377 484.799C14.8573 484.22 15.6265 483.168 16.1468 483.591C16.6671 484.014 16.3562 484.62 16.1356 484.871C17.3428 485.824 18.5842 485.195 19.0541 484.762C19.2492 484.475 19.6856 484.531 19.8795 484.594C20.1637 484.924 19.5566 485.379 19.2175 485.566C21.2753 485.006 21.9379 483.074 22.0121 482.178C22.8056 481.452 22.9704 480.661 22.9536 480.356C21.5015 480.334 20.8964 479.732 20.7754 479.433Z" fill="#116589" fill-opacity="0.68"/>
</g>
<g opacity="0.32">
<path d="M114.678 357.124C108.256 352.254 100.33 359.52 97.1699 363.762C100.581 364.78 102.136 368.66 102.488 370.473C101.665 373.259 99.2518 370.792 98.3246 373.162C97.5828 375.058 100.979 378.372 102.771 379.792C103.032 377.744 104.053 373.81 106.044 374.457C108.035 375.104 107.83 377.222 107.478 378.201C112.065 379.619 114.939 376.388 115.802 374.596C116.039 373.541 117.366 373.21 118 373.177C119.201 373.818 117.965 375.83 117.197 376.755C122.513 372.806 122.217 366.427 121.404 363.731C122.87 360.723 122.44 358.231 122.042 357.361C117.813 358.932 115.371 357.858 114.678 357.124Z" fill="#116589" fill-opacity="0.68"/>
<path d="M95.2317 383.908C88.8088 379.038 80.8831 386.304 77.7231 390.546C81.1338 391.564 82.6894 395.444 83.0408 397.257C82.2181 400.043 79.805 397.576 78.8778 399.946C78.136 401.842 81.5327 405.156 83.3237 406.576C83.5853 404.528 84.6062 400.594 86.5971 401.241C88.588 401.888 88.383 404.006 88.0317 404.984C92.6184 406.402 95.4921 403.172 96.3557 401.38C96.5923 400.325 97.919 399.994 98.5529 399.961C99.7538 400.602 98.5181 402.613 97.7502 403.539C103.066 399.59 102.77 393.211 101.957 390.515C103.423 387.507 102.993 385.015 102.595 384.144C98.3662 385.716 95.9241 384.642 95.2317 383.908Z" fill="#116589" fill-opacity="0.68"/>
<path d="M87.496 365.525C84.2212 363.035 80.1933 366.733 78.5887 368.893C80.3261 369.416 81.1219 371.396 81.3026 372.321C80.8865 373.741 79.6555 372.48 79.1858 373.688C78.81 374.655 80.5426 376.348 81.4558 377.074C81.587 376.03 82.1028 374.025 83.1171 374.356C84.1313 374.688 84.029 375.768 83.8511 376.267C86.1877 376.995 87.6475 375.35 88.0854 374.437C88.2048 373.899 88.88 373.732 89.2026 373.715C89.8147 374.044 89.1876 375.068 88.7975 375.539C91.5 373.531 91.3429 370.277 90.9265 368.901C91.6698 367.369 91.4485 366.097 91.245 365.653C89.0936 366.45 87.8492 365.9 87.496 365.525Z" fill="#116589" fill-opacity="0.68"/>
<path d="M70.9769 390.418C67.7021 387.928 63.6742 391.626 62.0696 393.786C63.807 394.309 64.6028 396.289 64.7836 397.214C64.3675 398.634 63.1365 397.373 62.6668 398.581C62.291 399.548 64.0235 401.241 64.9368 401.967C65.0679 400.923 65.5838 398.918 66.598 399.249C67.6122 399.581 67.51 400.661 67.3321 401.16C69.6686 401.888 71.1285 400.243 71.5664 399.33C71.6858 398.792 72.3609 398.625 72.6836 398.608C73.2956 398.937 72.6685 399.961 72.2785 400.432C74.9809 398.424 74.8238 395.17 74.4075 393.794C75.1508 392.262 74.9295 390.99 74.726 390.546C72.5745 391.343 71.3302 390.793 70.9769 390.418Z" fill="#116589" fill-opacity="0.68"/>
<path d="M73.9897 378.319C71.9332 376.769 69.378 379.105 68.3575 380.466C69.4516 380.788 69.9461 382.027 70.0566 382.607C69.7887 383.499 69.0169 382.713 68.716 383.473C68.4752 384.081 69.5618 385.137 70.1352 385.589C70.222 384.933 70.555 383.673 71.1936 383.877C71.8322 384.081 71.7636 384.76 71.6495 385.073C73.1208 385.521 74.048 384.483 74.3277 383.909C74.4051 383.571 74.8317 383.463 75.0353 383.452C75.4202 383.655 75.0207 384.301 74.7728 384.598C76.4854 383.327 76.3986 381.286 76.1411 380.425C76.6159 379.46 76.4811 378.663 76.3544 378.385C74.9941 378.894 74.2111 378.553 73.9897 378.319Z" fill="#116589" fill-opacity="0.68"/>
</g>
<g opacity="0.32">
<path d="M219.994 271.766C215.296 265.216 205.578 269.817 201.306 272.936C204.263 274.916 204.603 279.082 204.404 280.918C202.795 283.337 201.218 280.267 199.632 282.257C198.363 283.85 200.629 288.019 201.921 289.905C202.776 288.025 204.913 284.569 206.624 285.775C208.335 286.981 207.514 288.944 206.889 289.775C210.852 292.485 214.552 290.247 215.906 288.79C216.444 287.852 217.809 287.928 218.425 288.083C219.382 289.051 217.608 290.608 216.601 291.265C222.846 289.063 224.447 282.881 224.467 280.065C226.756 277.624 227.082 275.116 226.959 274.167C222.454 274.42 220.439 272.672 219.994 271.766Z" fill="#116589" fill-opacity="0.68"/>
<path d="M193.503 291.61C188.805 285.06 179.087 289.661 174.815 292.78C177.773 294.76 178.113 298.926 177.913 300.762C176.304 303.181 174.727 300.11 173.141 302.101C171.872 303.694 174.139 307.863 175.43 309.748C176.285 307.869 178.422 304.413 180.134 305.619C181.845 306.824 181.023 308.788 180.398 309.619C184.361 312.328 188.061 310.091 189.416 308.634C189.953 307.696 191.318 307.772 191.934 307.927C192.892 308.895 191.117 310.451 190.11 311.109C196.355 308.907 197.957 302.725 197.977 299.909C200.266 297.468 200.591 294.96 200.468 294.011C195.963 294.263 193.948 292.515 193.503 291.61Z" fill="#116589" fill-opacity="0.68"/>
<path d="M191.543 271.762C189.15 268.416 184.21 270.759 182.038 272.349C183.544 273.361 183.719 275.488 183.619 276.426C182.802 277.659 181.998 276.091 181.192 277.106C180.548 277.919 181.703 280.048 182.361 281.012C182.795 280.053 183.88 278.289 184.751 278.906C185.622 279.522 185.205 280.524 184.888 280.948C186.905 282.334 188.786 281.194 189.474 280.45C189.747 279.972 190.441 280.012 190.754 280.091C191.242 280.586 190.34 281.379 189.828 281.714C193.004 280.594 193.815 277.439 193.823 276.001C194.986 274.757 195.15 273.476 195.087 272.992C192.796 273.118 191.77 272.225 191.543 271.762Z" fill="#116589" fill-opacity="0.68"/>
<path d="M168.408 290.665C166.015 287.318 161.074 289.661 158.903 291.251C160.409 292.264 160.584 294.391 160.483 295.328C159.666 296.561 158.863 294.993 158.057 296.009C157.413 296.821 158.568 298.95 159.226 299.914C159.659 298.955 160.745 297.192 161.616 297.808C162.487 298.425 162.07 299.427 161.752 299.85C163.77 301.236 165.65 300.096 166.338 299.353C166.611 298.874 167.306 298.914 167.619 298.993C168.107 299.488 167.205 300.281 166.693 300.616C169.868 299.496 170.679 296.341 170.688 294.903C171.851 293.659 172.015 292.379 171.952 291.894C169.661 292.021 168.635 291.127 168.408 290.665Z" fill="#116589" fill-opacity="0.68"/>
<path d="M174.86 279.995C173.353 277.907 170.222 279.384 168.844 280.383C169.795 281.013 169.901 282.344 169.835 282.93C169.316 283.704 168.811 282.724 168.299 283.361C167.889 283.871 168.615 285.201 169.03 285.802C169.306 285.201 169.997 284.095 170.546 284.479C171.096 284.863 170.83 285.491 170.629 285.757C171.902 286.619 173.094 285.902 173.531 285.435C173.705 285.135 174.144 285.159 174.342 285.208C174.65 285.516 174.078 286.014 173.753 286.225C175.764 285.517 176.284 283.542 176.293 282.642C177.032 281.861 177.138 281.06 177.099 280.757C175.649 280.841 175.002 280.284 174.86 279.995Z" fill="#116589" fill-opacity="0.68"/>
</g>
<g opacity="0.32">
<path d="M260.317 123.443C252.771 120.609 247.249 129.835 245.432 134.802C248.991 134.804 251.589 138.079 252.444 139.716C252.45 142.621 249.433 140.945 249.221 143.481C249.052 145.51 253.253 147.717 255.375 148.566C255.041 146.529 254.896 142.467 256.989 142.519C259.082 142.57 259.49 144.659 259.432 145.697C264.233 145.747 266.065 141.831 266.381 139.867C266.307 138.788 267.484 138.093 268.082 137.88C269.416 138.152 268.806 140.432 268.334 141.538C272.302 136.236 270.197 130.207 268.649 127.855C269.195 124.554 268.072 122.288 267.442 121.567C263.837 124.281 261.19 123.948 260.317 123.443Z" fill="#116589" fill-opacity="0.68"/>
<path d="M249.324 154.663C241.779 151.829 236.257 161.055 234.439 166.022C237.998 166.024 240.597 169.299 241.451 170.936C241.458 173.841 238.441 172.165 238.229 174.701C238.059 176.731 242.26 178.937 244.382 179.787C244.048 177.749 243.904 173.688 245.996 173.739C248.089 173.791 248.497 175.88 248.44 176.918C253.24 176.967 255.073 173.051 255.389 171.087C255.314 170.009 256.491 169.313 257.089 169.1C258.423 169.372 257.813 171.652 257.341 172.758C261.309 167.456 259.204 161.427 257.656 159.075C258.202 155.774 257.079 153.508 256.449 152.788C252.845 155.501 250.197 155.168 249.324 154.663Z" fill="#116589" fill-opacity="0.68"/>
<path d="M236.663 139.253C232.814 137.801 230.009 142.495 229.088 145.023C230.902 145.028 232.23 146.699 232.667 147.534C232.674 149.014 231.134 148.157 231.029 149.448C230.944 150.482 233.088 151.61 234.171 152.045C233.998 151.007 233.92 148.938 234.987 148.966C236.054 148.995 236.264 150.059 236.236 150.588C238.683 150.619 239.613 148.626 239.772 147.625C239.733 147.076 240.332 146.723 240.637 146.615C241.317 146.755 241.008 147.916 240.769 148.479C242.786 145.782 241.706 142.709 240.915 141.509C241.19 139.828 240.615 138.673 240.293 138.305C238.458 139.684 237.109 139.511 236.663 139.253Z" fill="#116589" fill-opacity="0.68"/>
<path d="M227.937 167.825C224.087 166.373 221.282 171.067 220.361 173.596C222.175 173.601 223.503 175.271 223.941 176.106C223.947 177.586 222.408 176.729 222.302 178.021C222.218 179.054 224.362 180.183 225.444 180.618C225.272 179.58 225.194 177.51 226.261 177.539C227.327 177.567 227.538 178.632 227.509 179.161C229.956 179.191 230.886 177.198 231.045 176.198C231.006 175.649 231.605 175.295 231.91 175.188C232.59 175.328 232.282 176.488 232.042 177.051C234.059 174.355 232.98 171.281 232.188 170.082C232.463 168.401 231.888 167.245 231.566 166.878C229.732 168.256 228.382 168.084 227.937 167.825Z" fill="#116589" fill-opacity="0.68"/>
<path d="M227.371 155.37C224.957 154.471 223.175 157.439 222.586 159.035C223.726 159.031 224.554 160.078 224.825 160.602C224.823 161.534 223.859 161 223.787 161.814C223.73 162.465 225.073 163.167 225.751 163.437C225.647 162.784 225.607 161.481 226.277 161.494C226.948 161.508 227.075 162.178 227.055 162.511C228.593 162.52 229.186 161.261 229.29 160.63C229.268 160.284 229.646 160.059 229.838 159.99C230.265 160.076 230.066 160.808 229.913 161.164C231.192 159.457 230.526 157.526 230.033 156.773C230.213 155.714 229.857 154.988 229.656 154.758C228.497 155.634 227.65 155.531 227.371 155.37Z" fill="#116589" fill-opacity="0.68"/>
</g>
<g opacity="0.32">
<path d="M317.998 12.0851C312.352 6.33187 303.453 12.3666 299.709 16.1032C302.935 17.6069 303.909 21.6723 303.993 23.517C302.774 26.1535 300.745 23.3609 299.483 25.571C298.473 27.339 301.351 31.1121 302.916 32.7776C303.473 30.7898 305.056 27.0464 306.931 27.9761C308.807 28.9057 308.296 30.9718 307.806 31.8887C312.137 33.9593 315.451 31.1819 316.566 29.5343C316.953 28.5254 318.314 28.3913 318.946 28.4503C320.041 29.2598 318.526 31.0697 317.631 31.8735C323.465 28.7409 324.101 22.3866 323.69 19.601C325.578 16.8384 325.515 14.31 325.248 13.3912C320.836 14.3305 318.576 12.9119 317.998 12.0851Z" fill="#116589" fill-opacity="0.68"/>
<path d="M294.859 35.752C289.213 29.9987 280.314 36.0335 276.57 39.77C279.796 41.2738 280.77 45.3391 280.854 47.1839C279.634 49.8203 277.606 47.0278 276.344 49.2379C275.334 51.0059 278.212 54.779 279.777 56.4445C280.334 54.4566 281.917 50.7133 283.792 51.6429C285.668 52.5726 285.157 54.6387 284.667 55.5556C288.998 57.6262 292.311 54.8488 293.427 53.2012C293.814 52.1923 295.175 52.0581 295.807 52.1172C296.902 52.9267 295.386 54.7366 294.492 55.5404C300.326 52.4078 300.962 46.0534 300.55 43.2679C302.439 40.5053 302.376 37.9769 302.109 37.0581C297.696 37.9974 295.437 36.5787 294.859 35.752Z" fill="#116589" fill-opacity="0.68"/>
<path d="M289.882 16.4388C287.004 13.4985 282.481 16.5705 280.579 18.4741C282.222 19.2441 282.721 21.3193 282.765 22.2606C282.147 23.6049 281.112 22.1783 280.472 23.305C279.959 24.2064 281.427 26.134 282.225 26.9851C282.506 25.9713 283.309 24.0625 284.264 24.5384C285.219 25.0142 284.96 26.0681 284.712 26.5355C286.918 27.5957 288.601 26.1811 289.167 25.3414C289.364 24.8268 290.056 24.7595 290.378 24.7901C290.936 25.2041 290.166 26.1264 289.711 26.5358C292.678 24.9421 292.996 21.7002 292.784 20.2785C293.743 18.8704 293.709 17.5802 293.572 17.1111C291.328 17.5868 290.177 16.8611 289.882 16.4388Z" fill="#116589" fill-opacity="0.68"/>
<path d="M269.915 38.6613C267.037 35.721 262.514 38.7931 260.612 40.6967C262.255 41.4666 262.754 43.5418 262.798 44.4832C262.179 45.8275 261.145 44.4009 260.504 45.5276C259.992 46.4289 261.459 48.3565 262.257 49.2077C262.539 48.1938 263.341 46.285 264.296 46.7609C265.252 47.2368 264.993 48.2906 264.745 48.7581C266.95 49.8182 268.634 48.4037 269.2 47.5639C269.397 47.0494 270.089 46.982 270.411 47.0127C270.968 47.4266 270.199 48.3489 269.744 48.7583C272.71 47.1646 273.029 43.9228 272.817 42.501C273.776 41.0929 273.742 39.8027 273.605 39.3337C271.36 39.8094 270.209 39.0836 269.915 38.6613Z" fill="#116589" fill-opacity="0.68"/>
<path d="M274.657 27.1298C272.848 25.297 269.98 27.2356 268.772 28.4341C269.808 28.9112 270.116 30.2096 270.141 30.7992C269.746 31.6433 269.097 30.7528 268.689 31.4607C268.362 32.0269 269.283 33.2298 269.785 33.7605C269.966 33.1245 270.479 31.9262 271.081 32.2213C271.683 32.5164 271.517 33.1774 271.358 33.471C272.749 34.1282 273.817 33.2368 274.177 32.7089C274.303 32.386 274.741 32.3416 274.944 32.3598C275.295 32.6174 274.806 33.1976 274.517 33.4555C276.397 32.4478 276.608 30.416 276.479 29.526C277.089 28.6409 277.072 27.8328 276.987 27.5394C275.567 27.8445 274.842 27.3935 274.657 27.1298Z" fill="#116589" fill-opacity="0.68"/>
</g>
</svg>
