<svg width="1440" height="540" viewBox="0 0 1440 540" fill="none" xmlns="http://www.w3.org/2000/svg">
<path d="M1440 354.025V388.84V390H0V340.099V270.469V202C61.676 209.35 192.268 224.281 221.229 225.21C250.19 226.138 418.324 265.827 498.771 285.556C516.201 291.745 563.129 302.267 611.397 294.84C671.732 285.556 703.911 297.16 736.089 297.16C768.268 297.16 828.603 315.728 836.648 315.728C844.693 315.728 836.648 301.802 840.67 296C844.693 290.198 885.974 291.269 890.182 279.128C893.4 269.844 914.182 270.692 925.091 273.103C936 275.513 938.816 271.63 945.251 280.914C953.296 292.519 1013.63 312.247 1037.77 313.407C1061.9 314.568 1154.41 314.568 1198.66 320.37C1242.91 326.173 1343.46 354.025 1367.6 357.506C1386.91 360.291 1423.91 356.346 1440 354.025Z" fill="#023554"/>
<path d="M1178.78 47.0051C1204.67 42.6597 1355.05 18.1057 1440 0L1440 463H0.00012207V373.377C98.427 354.819 299.326 318.517 315.505 321.776C335.73 325.85 582.472 332.639 602.696 332.639C622.921 332.639 707.865 300.049 740.225 287.828C772.584 275.606 845.393 271.533 893.933 260.669C942.472 249.806 930.337 217.216 930.337 209.068C930.337 202.55 960 199.11 974.832 198.205C970.787 182.362 962.697 149.591 962.697 145.246C962.697 139.814 1007.19 141.172 1007.19 118.087C1007.19 95.0025 1104.27 89.5708 1096.18 85.497C1088.09 81.4232 1146.42 52.4368 1178.78 47.0051Z" fill="#001E30"/>
<path d="M1222.98 124.904C1249.64 120.568 1404.52 96.0666 1492 78L1492 540H9.00012V450.571C110.366 432.052 317.264 395.829 333.927 399.081C354.755 403.146 608.865 409.921 629.694 409.921C650.522 409.921 738.003 377.401 771.328 365.206C804.654 353.011 879.638 348.946 929.627 338.106C979.615 327.266 967.118 294.747 967.118 286.617C967.118 280.113 997.667 276.68 1012.94 275.777C1008.78 259.968 1000.44 227.268 1000.44 222.932C1000.44 217.512 1046.27 218.867 1046.27 195.832C1046.27 172.797 1146.24 167.377 1137.91 163.312C1129.58 159.247 1189.65 130.324 1222.98 124.904Z" fill="#00263D"/>
</svg>
