<svg width="1440" height="1024" viewBox="0 0 1440 1024" fill="none" xmlns="http://www.w3.org/2000/svg">
<g clip-path="url(#clip0_39_20)">
<rect width="1440" height="1024" fill="white"/>
<path d="M1040.59 793.029C1178.98 776.089 1375.88 677.628 1440 680.805V-100H0V644.808C27.6067 698.803 146.404 793.875 400.742 742.21C655.08 690.545 777.217 737.269 803.488 742.21C838.219 749.268 902.204 809.968 1040.59 793.029Z" fill="#7DDEEA"/>
<path d="M376.414 -6.52449L473.662 13.5842L357.624 720C306.455 666.295 245.42 654.962 207.124 643.789L376.414 -6.52449Z" fill="url(#paint0_linear_39_20)"/>
<path d="M1234.8 -39.5245L1137.55 -19.4158L1253.59 687C1304.76 633.295 1365.79 621.962 1404.09 610.789L1234.8 -39.5245Z" fill="url(#paint1_linear_39_20)"/>
<path d="M752.047 1H588L594.378 685.696C678.778 691.481 795.409 706.61 861 703.61L752.047 1Z" fill="url(#paint2_linear_39_20)"/>
<path d="M184.956 614.96L142.463 538.041C139.952 538.041 136.115 536.75 140.849 531.586L106.962 472.955C104.631 474.21 99.6469 475.967 98.356 472.955C96.7423 469.19 101.045 467.038 102.659 466.5L132.243 449.288C134.932 448.212 139.666 448.104 137.084 456.28L132.243 458.97L162.903 517.063C166.489 516.346 172.907 516.202 169.895 521.366L166.668 524.055L214.003 611.195L238.746 607.429L245.739 514.911C242.153 513.835 236.056 511.146 240.36 508.994H247.352C248.213 508.994 249.862 468.473 250.58 448.212L239.822 447.674L238.746 439.068H222.071V430.999H229.602L230.678 405.718L208.624 404.105V387.43H222.071L271.558 367.528L291.998 377.21L318.892 376.134C330.009 369.679 359.02 356.77 386.129 356.77C413.239 356.77 452.291 333.461 468.428 321.807L501.239 306.745L722.314 430.462H731.997V447.136H706.178V472.955H712.632V479.948H692.73V485.865H680.359L676.593 545.033C680.179 546.288 685.953 549.121 680.359 550.412C677.39 551.097 676.007 551.207 675.469 551.078L665.126 694.307C678.741 695.326 691.027 696.378 698.647 696.378L692.73 638.627H698.647L710.481 620.339L745.982 607.429V600.437H760.505L787.938 514.911C786.145 513.835 783.097 511.038 785.248 508.456C787.4 505.875 790.089 507.381 791.165 508.456L809.454 451.439L803.537 449.288L806.226 443.371L842.803 455.205L841.189 461.122H832.045L813.757 514.911L818.598 518.139C817.522 520.29 814.617 524.163 811.605 522.442L787.938 593.982H797.62V612.808L786.324 613.884L790.627 682.735C815.191 667.315 868.515 622.168 885.297 564.936L874.001 455.205H869.16V445.523L871.312 443.371C871.67 417.552 865.502 366.237 837.962 367.528L835.81 342.785H829.894V333.64H858.402C866.471 331.13 885.082 328.046 894.979 335.792H956.299L996.104 318.041L1078.4 309.973V318.041H1074.64V342.247C1065.49 347.626 1048.71 364.516 1054.73 389.044L1058.5 425.083H1063.34V433.689H1058.5L1064.95 502.002C1072.84 505.588 1089.27 514.588 1091.85 521.904C1094.43 529.219 1092.92 383.665 1091.85 309.973C1090.77 304.056 1083.89 290.609 1064.95 284.154V257.797H1058.5V251.342H1074.64V238.433H1091.85V224.447H1153.71V211L1181.68 216.917C1186.52 228.213 1204.27 252.203 1236.54 257.797C1268.82 263.391 1281.91 265.148 1284.42 265.327C1288.9 259.769 1301.09 249.191 1314 251.342V257.797H1309.16V284.154C1300.01 287.919 1281.73 299.107 1281.73 313.738C1281.73 328.369 1283.16 465.425 1283.88 532.124L1290.52 553.102C1283.97 551.686 1289.75 637.944 1282.04 656.314C1281.99 656.509 1281.92 656.693 1281.81 656.866C1281.85 656.909 1281.82 656.954 1281.73 657C1280.31 659.9 1278.91 660.789 1277.47 660.193C1272.41 662.369 1264.23 662.646 1254.15 661.576C1193.01 672.785 1051.84 701.592 1047.39 713.933C1029.82 715.905 912.375 752.661 844.955 746.206C762.45 738.307 736.658 721.48 698.647 696.378C691.027 696.378 678.741 695.326 665.126 694.307C652.32 693.348 638.337 692.417 625.955 692.417L592.461 692.417C580.54 696.378 578.837 696.378 554.426 696.378L564.173 542.882C561.842 542.702 557.396 541.483 558.256 538.041H565.249L569.552 477.258L558.256 476.183V468.114H546.96V475.107L531.899 476.183L529.748 534.813L535.665 535.889C535.306 537.682 533.405 540.945 528.672 539.654L514.12 701.487C504.469 704.326 493.236 710.618 477.341 710.618C410.232 715.112 374.932 754.084 265 724.5C214.101 759.863 148.2 721.284 132.243 692.417L184.956 614.96Z" fill="#6FD4E0"/>
<path d="M638.785 553.29L625.954 692.972H591.325C596.169 629.559 601.973 547.202 603.265 548.941C604.556 550.681 607.75 548.217 609.185 546.767C609.615 543.289 605.417 543.144 603.265 543.506L607.032 483.173H619.41V475.02H632.865V484.26H644.167L640.4 545.68H632.865C631.573 548.724 636.274 552.022 638.785 553.29Z" fill="#7DDEEA"/>
<path d="M490.245 540.788L478.404 689.174C465.918 687 455.98 694.066 452.571 697.871C451.28 693.088 429.429 683.558 418.665 679.391L431.044 532.635H437.502V528.831H431.044L434.811 468.498H447.728V461.432L485.401 464.149V472.303H495.627L492.397 534.809H485.401C484.54 538.723 488.271 540.426 490.245 540.788Z" fill="#7DDEEA"/>
<path d="M392.832 532.635L380.992 681.565L343.319 685.913C347.624 632.828 356.558 527.091 357.85 528.831C359.464 531.005 365.384 526.656 364.846 525.026C364.416 523.721 360.003 523.033 357.85 522.852L361.617 461.432H375.072V455.453H387.45V464.149L399.29 465.78L392.832 526.656H387.45V531.005L392.832 532.635Z" fill="#7DDEEA"/>
<path d="M318.562 525.026L307.798 685.913C307.798 683.304 283.4 672.144 271.201 666.889L283.041 521.221C289.069 519.916 289.5 516.329 288.961 514.699H284.118L288.961 455.453H301.34V450.017H313.18V458.171H324.482L320.177 520.134H313.18C313.18 522.308 316.768 524.301 318.562 525.026Z" fill="#7DDEEA"/>
<path d="M1121.54 342.94V545.137L1130.69 551.116L1160.29 410.883L1154.91 409.796V402.73L1182.36 409.796V413.6H1178.05L1147.91 559.812L1166.21 568.415C1172.78 563.009 1179.28 558.079 1185.05 553.939V501.11H1172.13V486.435L1215.19 483.173V492.413C1234.56 492.413 1249.45 498.211 1254.48 501.11V345.658C1252.86 326.091 1237.9 286.412 1190.97 284.238C1144.04 282.064 1125.13 322.467 1121.54 342.94Z" fill="#7DDEEA"/>
<path d="M900.346 454.909L908.419 533.179C908.957 527.2 914.769 517.09 933.714 524.482C952.658 531.874 977.486 525.026 987.533 520.677L931.023 413.057L925.641 415.775L921.873 409.252L949.321 396.207L951.474 400.555L945.554 405.991L1005.29 515.242C1010.89 510.894 1029.87 504.734 1038.66 502.197L1031.66 439.69H1028.44V429.363H1031.66L1028.44 403.817C1021.98 384.974 997.112 349.245 949.321 357.072C901.53 364.899 896.758 416.862 900.346 441.864H904.113V453.279L900.346 454.909Z" fill="#7DDEEA"/>
<path d="M311.243 972.467C215.065 995.909 61.2245 986.613 0 978.53V1024H1440V967.415C1403.69 958.658 1382.15 961.489 1371.4 966.056C1366.27 968.234 1360.43 970.184 1355.01 968.896C1295.28 954.71 1164.92 938.897 1055.29 975.498C939.874 1014.03 753.395 1000.98 674.583 989.645C593.544 974.151 407.421 949.024 311.243 972.467Z" fill="#02385A"/>
<path d="M311.243 972.467C215.065 995.909 61.2245 986.613 0 978.53V1024H1440V967.415C1403.69 958.658 1382.15 961.489 1371.4 966.056C1366.27 968.234 1360.43 970.184 1355.01 968.896C1295.28 954.71 1164.92 938.897 1055.29 975.498C939.874 1014.03 753.395 1000.98 674.583 989.645C593.544 974.151 407.421 949.024 311.243 972.467Z" fill="url(#paint3_linear_39_20)" fill-opacity="0.2"/>
<path d="M311.243 972.401C215.065 995.673 61.2245 986.444 0 978.42V735C17.5881 738.678 58.9091 752.387 54.1002 783.149C49.2913 813.911 145.603 835.422 194.36 842.332C246.456 845.564 368.816 847.816 441.484 830.963C514.152 814.111 632.505 823.942 682.597 830.963C769.202 843.001 978.746 863.464 1124.08 849.019C1139.65 847.281 1166.49 843.601 1194.21 838.406C1218.02 833.943 1242.48 828.363 1261 821.936C1311.09 804.548 1413.28 791.508 1440 792.511V967.385C1390.84 955.616 1368.76 964.933 1363.86 971.063C1309.09 956.574 1170.7 937.159 1055.29 975.41C939.874 1013.66 753.395 1000.71 674.583 989.454C593.544 974.073 407.421 949.129 311.243 972.401Z" fill="#116589"/>
<path d="M311.243 972.401C215.065 995.673 61.2245 986.444 0 978.42V735C17.5881 738.678 58.9091 752.387 54.1002 783.149C49.2913 813.911 145.603 835.422 194.36 842.332C246.456 845.564 368.816 847.816 441.484 830.963C514.152 814.111 632.505 823.942 682.597 830.963C769.202 843.001 978.746 863.464 1124.08 849.019C1139.65 847.281 1166.49 843.601 1194.21 838.406C1218.02 833.943 1242.48 828.363 1261 821.936C1311.09 804.548 1413.28 791.508 1440 792.511V967.385C1390.84 955.616 1368.76 964.933 1363.86 971.063C1309.09 956.574 1170.7 937.159 1055.29 975.41C939.874 1013.66 753.395 1000.71 674.583 989.454C593.544 974.073 407.421 949.129 311.243 972.401Z" fill="url(#paint4_linear_39_20)" fill-opacity="0.2"/>
<path d="M44.8121 827.313C49.7732 810.593 7.14467 803.142 -11 801.143V715C15.8725 725.541 166.772 731.356 242.566 732.81C273.616 733.406 298.19 735.13 322.494 738.47C357.518 743.283 391.981 751.451 444.454 764.432C515.563 782.024 718.921 791.269 811.711 793.692C840.421 795.752 916.859 804.778 992.928 824.405C1069 844.033 1173.67 854.142 1218 856.944C1189.4 859.768 1169.56 862.387 1153.5 863.332C1003.57 871.183 782.542 859.844 693.197 853.302C641.519 849.485 519.421 844.142 444.454 853.302C369.487 862.461 243.255 861.237 189.51 859.481C139.21 855.725 39.851 844.033 44.8121 827.313Z" fill="#2081A1"/>
<path d="M1440 844.34C1411.34 843.691 1301.71 852.119 1247.98 863.356C1228.11 867.51 1201.87 871.116 1176.33 874C1130.23 870.668 1018.26 858.169 939.161 834.831C860.059 811.493 780.575 800.761 750.72 798.312C654.23 795.43 442.765 784.438 368.822 763.521C314.257 748.085 278.42 738.373 242 732.65C350.67 733.936 597.101 732.403 713.462 715.98C829.823 699.557 985.018 703.519 1048.07 707.552C1123.78 725.92 1308.16 757.989 1440 739.318V844.34Z" fill="url(#paint5_linear_39_20)"/>
<path d="M-29 731.465C-2.42718 751.574 146.789 762.669 221.738 765.443C252.442 766.579 276.742 769.868 300.776 776.24C404.114 778.304 638.455 775.844 749.107 749.494C859.759 723.143 1007.34 729.5 1067.3 735.972C1139.3 765.443 1314.63 816.895 1440 786.939V587.577C1374.59 585.497 1194.17 638.197 1052.99 649.292C911.814 660.387 805.659 667.784 770.229 663.161C743.429 659.925 740.93 623.982 389.352 655.187C125.489 678.606 -0.837355 599.365 -29 564V731.465Z" fill="#61C8D7"/>
<path d="M-29 731.465C-2.42718 751.574 146.789 762.669 221.738 765.443C252.442 766.579 276.742 769.868 300.776 776.24C404.114 778.304 638.455 775.844 749.107 749.494C859.759 723.143 1007.34 729.5 1067.3 735.972C1139.3 765.443 1314.63 816.895 1440 786.939V587.577C1374.59 585.497 1194.17 638.197 1052.99 649.292C911.814 660.387 805.659 667.784 770.229 663.161C743.429 659.925 740.93 623.982 389.352 655.187C125.489 678.606 -0.837355 599.365 -29 564V731.465Z" fill="url(#paint6_linear_39_20)" fill-opacity="0.2"/>
<path d="M1279.17 895.132C1284.7 879.916 1305.99 883.539 1315.94 887.252C1311.3 892.687 1312.9 900.929 1314.28 904.371C1318.71 908.175 1320.09 901.382 1324.24 904.371C1327.56 906.762 1325.44 916.055 1323.96 920.403C1321.29 917.233 1315.28 911.707 1312.62 914.968C1309.97 918.229 1312.62 921.58 1314.28 922.848C1308.09 930.239 1299.72 927.92 1296.31 925.837C1294.76 924.316 1292.16 925.203 1291.06 925.837C1289.73 928.228 1294.01 930.275 1296.31 931C1283.04 930.13 1276.59 919.044 1275.02 913.61C1269.27 910.131 1267.28 905.458 1267 903.556C1275.85 901.599 1278.8 897.125 1279.17 895.132Z" fill="#033656" fill-opacity="0.5"/>
<path d="M1341.17 919.132C1346.7 903.916 1367.99 907.539 1377.94 911.252C1373.3 916.687 1374.9 924.929 1376.28 928.371C1380.71 932.175 1382.09 925.382 1386.24 928.371C1389.56 930.762 1387.44 940.055 1385.96 944.403C1383.29 941.233 1377.28 935.707 1374.62 938.968C1371.97 942.229 1374.62 945.58 1376.28 946.848C1370.09 954.239 1361.72 951.92 1358.31 949.837C1356.76 948.316 1354.16 949.203 1353.06 949.837C1351.73 952.228 1356.01 954.275 1358.31 955C1345.04 954.13 1338.59 943.044 1337.02 937.61C1331.27 934.131 1329.28 929.458 1329 927.556C1337.85 925.599 1340.8 921.125 1341.17 919.132Z" fill="#033656" fill-opacity="0.5"/>
<path d="M1334.19 879.685C1337 871.914 1347.82 873.764 1352.89 875.661C1350.52 878.436 1351.34 882.645 1352.04 884.402C1354.29 886.345 1355 882.876 1357.1 884.402C1358.79 885.623 1357.71 890.369 1356.96 892.589C1355.6 890.97 1352.55 888.149 1351.2 889.814C1349.85 891.479 1351.2 893.19 1352.04 893.837C1348.89 897.611 1344.64 896.427 1342.9 895.364C1342.12 894.587 1340.79 895.04 1340.23 895.364C1339.56 896.585 1341.73 897.63 1342.9 898C1336.15 897.556 1332.87 891.895 1332.08 889.12C1329.15 887.344 1328.14 884.957 1328 883.986C1332.5 882.987 1334 880.702 1334.19 879.685Z" fill="#033656" fill-opacity="0.5"/>
<path d="M1389.19 903.685C1392 895.914 1402.82 897.764 1407.89 899.661C1405.52 902.436 1406.34 906.645 1407.04 908.402C1409.29 910.345 1410 906.876 1412.1 908.402C1413.79 909.623 1412.71 914.369 1411.96 916.589C1410.6 914.97 1407.55 912.149 1406.2 913.814C1404.85 915.479 1406.2 917.19 1407.04 917.837C1403.89 921.611 1399.64 920.427 1397.9 919.364C1397.12 918.587 1395.79 919.04 1395.23 919.364C1394.56 920.585 1396.73 921.63 1397.9 922C1391.15 921.556 1387.87 915.895 1387.08 913.12C1384.15 911.344 1383.14 908.957 1383 907.986C1387.5 906.987 1389 904.702 1389.19 903.685Z" fill="#033656" fill-opacity="0.5"/>
<path d="M1370.92 886.553C1372.7 881.696 1379.56 882.853 1382.76 884.038C1381.27 885.772 1381.78 888.403 1382.23 889.501C1383.65 890.715 1384.1 888.547 1385.43 889.501C1386.5 890.264 1385.82 893.23 1385.34 894.618C1384.48 893.606 1382.55 891.843 1381.69 892.883C1380.84 893.924 1381.69 894.994 1382.23 895.398C1380.23 897.757 1377.54 897.017 1376.44 896.352C1375.94 895.867 1375.1 896.15 1374.75 896.352C1374.32 897.115 1375.7 897.769 1376.44 898C1372.16 897.722 1370.09 894.184 1369.58 892.45C1367.73 891.34 1367.09 889.848 1367 889.241C1369.85 888.617 1370.8 887.189 1370.92 886.553Z" fill="#033656" fill-opacity="0.5"/>
</g>
<defs>
<linearGradient id="paint0_linear_39_20" x1="405.514" y1="-0.507126" x2="257.583" y2="872.49" gradientUnits="userSpaceOnUse">
<stop stop-color="#88E9F4"/>
<stop offset="1" stop-color="#68D4E1"/>
</linearGradient>
<linearGradient id="paint1_linear_39_20" x1="1205.7" y1="-33.5071" x2="1353.63" y2="839.49" gradientUnits="userSpaceOnUse">
<stop stop-color="#88E9F4"/>
<stop offset="1" stop-color="#68D4E1"/>
</linearGradient>
<linearGradient id="paint2_linear_39_20" x1="702.958" y1="1" x2="703.143" y2="807.483" gradientUnits="userSpaceOnUse">
<stop stop-color="#88E9F4"/>
<stop offset="0.816382" stop-color="#6FD9E6"/>
</linearGradient>
<linearGradient id="paint3_linear_39_20" x1="667.236" y1="851.549" x2="643.03" y2="1056.86" gradientUnits="userSpaceOnUse">
<stop offset="0.14" stop-opacity="0"/>
<stop offset="0.995"/>
</linearGradient>
<linearGradient id="paint4_linear_39_20" x1="667.904" y1="624.659" x2="550.61" y2="1130.63" gradientUnits="userSpaceOnUse">
<stop offset="0.485" stop-opacity="0"/>
<stop offset="0.810679"/>
</linearGradient>
<linearGradient id="paint5_linear_39_20" x1="841" y1="704" x2="842.499" y2="1050.03" gradientUnits="userSpaceOnUse">
<stop stop-color="#52B9CB"/>
<stop offset="1" stop-color="#295C65"/>
</linearGradient>
<linearGradient id="paint6_linear_39_20" x1="975.316" y1="564" x2="1080.87" y2="1058.79" gradientUnits="userSpaceOnUse">
<stop offset="0.152242" stop-opacity="0"/>
<stop offset="1"/>
</linearGradient>
<clipPath id="clip0_39_20">
<rect width="1440" height="1024" fill="white"/>
</clipPath>
</defs>
</svg>
