<svg width="320" height="164" viewBox="0 0 320 164" fill="none" xmlns="http://www.w3.org/2000/svg">
<path d="M42.9569 78.7762C43.9006 76.5458 45.2271 68.6471 45.7724 64.9766C46.2143 64.2431 47.4806 62.3072 49.0109 60.4305C50.9238 58.0848 56.6529 56.0409 61.4984 55.4639C66.344 54.8869 88.475 73.7337 91.2524 79.9082C94.0299 86.0827 85.9556 86.2121 83.4647 83.71C81.472 81.7083 73.4607 69.3443 69.7041 63.4125C68.5793 63.0674 66.7686 63.1418 68.5244 66.2004C70.2802 69.2591 76.957 83.4512 80.076 90.1649C85.6953 94.3873 98.076 104.421 102.644 110.775C107.212 117.13 102.188 118.999 99.1049 119.139C97.8328 119.038 95.376 119.19 95.7257 120.601C96.1627 122.364 96.0027 129.266 92.3321 129.552C88.6616 129.838 86.0346 121.755 85.5975 119.991C85.1605 118.228 81.3871 95.4551 79.3333 94.7163C77.6902 94.1253 67.3225 80.64 62.3439 73.9712L65.248 90.7205C66.4604 96.451 69.0901 108.236 69.9098 109.53C70.9343 111.148 83.9617 131.003 87.0353 135.856C90.1088 140.709 90.9686 151.726 87.7351 153.776C84.5016 155.825 82.3164 147.008 82.0345 140.839C81.8091 135.904 72.9706 121.041 68.5796 114.227L75.5722 142.441C77.6118 150.67 69.8336 149.478 67.6341 148.151C65.4346 146.825 60.9852 93.6487 58.6353 94.2312C56.2853 94.8136 53.9068 110.377 55.9368 123.599C57.9668 136.822 53.126 134.902 50.4895 131.812C47.853 128.722 49.644 113.305 48.1729 114.917C46.7018 116.529 43.0313 116.815 41.1277 114.168C39.6049 112.049 41.7032 94.6843 42.9427 86.2664L36.1746 94.1828C32.7906 98.141 30.3046 93.1421 30.8968 90.4997C31.489 87.8573 41.7771 81.5641 42.9569 78.7762Z" fill="#001E30"/>
<path d="M325 39.3086V24.4938V24H-5V45.2346V74.8642V104C9.13408 100.872 39.0615 94.5185 45.6983 94.1235C52.3352 93.7284 90.8659 76.8395 109.302 68.4445C113.296 65.8107 124.05 61.3333 135.112 64.4938C148.939 68.4445 156.313 63.5062 163.687 63.5062C171.061 63.5062 184.888 55.6049 186.732 55.6049C188.575 55.6049 186.732 61.5309 187.654 64C188.575 66.4691 198.036 66.0133 199 71.1795C199.737 75.1301 204.5 74.7692 207 73.7436C209.5 72.718 210.145 74.3704 211.62 70.4198C213.464 65.4815 227.291 57.0864 232.821 56.5926C238.352 56.0988 259.553 56.0988 269.693 53.6296C279.832 51.1605 302.877 39.3086 308.408 37.8272C312.832 36.642 321.313 38.321 325 39.3086Z" fill="#001E30"/>
<path d="M320 0H-1.09804L-2 82.8075C-1.39869 82.9528 1.42745 83.1562 7.92157 82.8075C16.0392 82.3717 62.9412 72.7834 64.7451 67.9893C66.549 63.1952 73.7647 54.0428 83.6863 51.8636C93.6078 49.6845 101.725 41.4037 108.039 38.7888C114.353 36.1738 130.588 40.0963 145.922 41.4037C161.255 42.7112 179.294 37.9171 185.608 37.9171C191.922 37.9171 225.294 41.4037 228.902 41.4037C231.788 41.4037 236.719 37.9171 238.824 36.1738C243.033 36.9002 252.714 38.4401 257.765 38.7888C264.078 39.2246 270.392 33.5588 278.51 30.508C285.004 28.0674 308.876 23.9706 320 22.2273V0Z" fill="#023554"/>
<path d="M280.679 16.6192C281.057 15.9473 279.579 13.8197 278.793 12.8399L278.321 12H294.828C295.142 12.5599 295.488 14.0997 294.356 15.7794C292.941 17.879 292.941 22.9182 292.941 24.178C292.941 25.4378 295.771 28.3773 296.714 31.3168C297.657 34.2563 299.544 39.7154 300.015 40.5553C300.393 41.2272 306.146 45.3145 308.976 47.2741C310.705 47.6941 314.541 48.6179 316.05 48.9539C317.559 49.2898 315.107 51.0535 313.692 51.8934C313.22 52.3133 312.56 53.4051 313.692 54.413C315.107 55.6727 314.163 57.3525 312.749 56.9326C311.334 56.5126 308.976 54.8329 305.675 51.4735C303.034 48.7859 301.43 48.114 300.958 48.114C300.801 49.6538 300.487 53.0692 300.487 54.413C300.487 56.0927 306.618 63.2315 308.033 64.0714C309.447 64.9112 316.993 74.9896 319.351 76.6693C321.238 78.0131 318.565 78.629 316.993 78.769C315.578 77.6491 312.654 75.4935 312.277 75.8294C311.805 76.2494 312.749 77.9291 315.578 80.0288C318.408 82.1284 317.936 82.9683 316.522 83.8081C315.107 84.648 309.919 80.0288 308.504 78.769C307.089 77.5092 307.089 73.3099 306.618 70.7903C306.146 68.2707 299.072 62.8116 296.714 62.3917C294.356 61.9717 295.771 65.7511 296.714 69.5305C297.469 72.554 300.487 73.5898 301.902 73.7298C300.801 73.8698 298.412 74.1497 297.657 74.1497C296.714 74.1497 296.714 75.4095 296.714 77.0892C296.714 78.769 307.089 83.8081 307.561 84.648C308.033 85.4879 305.203 85.0679 302.604 85.4879C300.006 85.9078 301.43 88.8473 301.43 90.947C301.43 92.6267 299.544 91.9268 298.6 91.3669V84.648L292.941 79.1889C292.941 78.0691 292.847 75.6615 292.47 74.9896C291.998 74.1497 290.112 75.4095 289.168 76.2494C288.225 77.0893 289.64 84.2281 291.055 85.4879C292.47 86.7477 291.055 88.8473 290.583 89.2672C290.112 89.6872 287.753 86.7477 286.339 85.9078C284.924 85.0679 284.924 85.9078 283.981 87.5875C283.037 89.2672 280.679 88.4273 280.208 87.5875C279.736 86.7476 281.623 82.9682 282.094 81.2885C282.566 79.6088 285.867 73.7298 286.339 71.6301C286.81 69.5305 285.867 66.171 285.867 64.0714C285.867 61.9717 289.168 58.6123 291.526 54.413C293.413 51.0535 293.256 48.254 292.941 47.2741C291.998 48.3939 289.829 50.8016 288.697 51.4735C287.565 52.1453 287.282 50.6336 287.282 49.7937C288.854 47.8341 292.281 43.6627 293.413 42.6549C294.828 41.3951 289.64 32.9965 288.225 32.9965C286.81 32.9965 288.225 38.8755 288.225 39.2955C288.225 39.7154 284.924 43.9147 283.037 44.7546C281.151 45.5944 282.094 43.9147 282.094 41.3951C282.094 38.8755 285.395 29.6371 284.924 27.9573C284.547 26.6136 281.937 27.1175 280.679 27.5374C279.422 31.8767 276.718 41.0592 275.963 43.0748C275.02 45.5944 276.435 57.3525 278.321 58.6123C280.208 59.8721 280.679 66.591 280.208 68.6906C279.736 70.7902 274.548 62.8116 274.077 61.5518C273.605 60.292 273.605 64.0713 273.134 67.8507C272.662 71.6301 269.832 70.3703 267.946 68.6906C266.437 67.3468 267.632 61.9717 268.418 59.4521C267.474 58.7523 265.494 57.5204 265.116 58.1923C264.645 59.0322 256.627 66.171 254.741 66.171C252.855 66.171 253.798 63.6514 255.684 62.8116C257.571 61.9717 260.4 59.0322 260.4 56.9325C260.4 54.8329 264.173 53.5731 267.474 52.3133C270.776 51.0535 268.889 48.114 266.531 47.2741C264.173 46.4343 257.571 53.1532 255.684 54.413C253.798 55.6728 247.667 59.8721 247.195 59.4521C246.724 59.0322 247.195 56.9326 247.667 56.0927C248.139 55.2528 268.418 41.3951 271.247 38.0357C274.077 34.6762 267.946 33.4164 267.003 33.4164C266.06 33.4164 265.116 31.7367 267.003 30.8969C268.889 30.057 280.208 17.4591 280.679 16.6192Z" fill="#02385A" stroke="#02385A"/>
</svg>
