<svg width="345" height="740" viewBox="0 0 345 740" fill="none" xmlns="http://www.w3.org/2000/svg">
<path d="M166.955 615.78C162.915 622.754 171.103 629.723 175.702 632.336C176.292 628.826 179.95 626.803 181.706 626.231C184.572 626.704 182.421 629.403 184.888 630.031C186.861 630.533 189.731 626.753 190.919 624.801C188.854 624.794 184.825 624.266 185.221 622.21C185.617 620.155 187.744 620.097 188.759 620.325C189.6 615.598 186.04 613.145 184.155 612.509C183.079 612.405 182.587 611.129 182.476 610.504C182.964 609.233 185.112 610.211 186.125 610.859C181.551 606.071 175.257 607.152 172.682 608.291C169.516 607.207 167.096 607.941 166.282 608.443C168.363 612.446 167.598 615.002 166.955 615.78Z" fill="#116589" fill-opacity="0.68"/>
<path d="M195.933 631.774C191.892 638.748 200.08 645.717 204.68 648.33C205.269 644.82 208.928 642.797 210.684 642.225C213.55 642.698 211.399 645.397 213.865 646.025C215.839 646.527 218.708 642.747 219.896 640.795C217.832 640.788 213.802 640.26 214.198 638.205C214.594 636.149 216.722 636.091 217.736 636.319C218.578 631.593 215.018 629.139 213.132 628.503C212.057 628.399 211.565 627.123 211.453 626.498C211.942 625.227 214.09 626.205 215.103 626.853C210.529 622.065 204.235 623.146 201.66 624.285C198.494 623.201 196.073 623.935 195.259 624.437C197.341 628.44 196.575 630.996 195.933 631.774Z" fill="#116589" fill-opacity="0.68"/>
<path d="M178.645 641.718C176.578 645.275 180.744 648.816 183.086 650.142C183.39 648.353 185.257 647.319 186.153 647.026C187.613 647.264 186.514 648.641 187.771 648.958C188.776 649.212 190.243 647.284 190.85 646.288C189.798 646.286 187.745 646.022 187.949 644.974C188.153 643.927 189.237 643.895 189.754 644.01C190.188 641.602 188.376 640.356 187.416 640.034C186.867 639.982 186.618 639.332 186.562 639.014C186.812 638.366 187.906 638.862 188.422 639.191C186.095 636.757 182.886 637.315 181.572 637.897C179.959 637.349 178.725 637.725 178.309 637.982C179.366 640.019 178.973 641.321 178.645 641.718Z" fill="#116589" fill-opacity="0.68"/>
<path d="M205.385 655.04C203.318 658.597 207.484 662.138 209.826 663.464C210.13 661.676 211.997 660.642 212.893 660.348C214.354 660.586 213.254 661.963 214.511 662.28C215.516 662.534 216.983 660.606 217.591 659.61C216.538 659.609 214.485 659.344 214.689 658.297C214.893 657.249 215.978 657.217 216.494 657.332C216.928 654.924 215.116 653.678 214.156 653.356C213.608 653.304 213.358 652.655 213.302 652.337C213.552 651.689 214.646 652.185 215.162 652.514C212.836 650.08 209.626 650.637 208.312 651.22C206.7 650.671 205.465 651.047 205.049 651.304C206.106 653.341 205.713 654.644 205.385 655.04Z" fill="#116589" fill-opacity="0.68"/>
<path d="M193.007 653.543C191.722 655.775 194.355 658.023 195.832 658.868C196.016 657.742 197.185 657.099 197.747 656.918C198.666 657.073 197.98 657.936 198.771 658.141C199.404 658.305 200.318 657.097 200.696 656.472C200.035 656.467 198.743 656.292 198.867 655.633C198.991 654.974 199.672 654.958 199.998 655.033C200.26 653.517 199.117 652.725 198.512 652.519C198.167 652.483 198.008 652.073 197.971 651.873C198.126 651.466 198.815 651.783 199.141 651.992C197.669 650.449 195.654 650.787 194.831 651.149C193.815 650.797 193.041 651.029 192.78 651.189C193.453 652.476 193.211 653.295 193.007 653.543Z" fill="#116589" fill-opacity="0.68"/>
<path d="M69.3894 271.517C65.1818 264.642 55.1538 268.522 50.6657 271.321C53.4712 273.511 53.5064 277.692 53.1734 279.508C51.3923 281.803 50.0439 278.626 48.3169 280.495C46.9353 281.991 48.8914 286.315 50.0422 288.289C51.0318 286.478 53.4155 283.186 55.0341 284.513C56.6526 285.841 55.69 287.739 55.0064 288.522C58.7614 291.514 62.6144 289.552 64.0715 288.198C64.676 287.302 66.0322 287.477 66.6347 287.676C67.5194 288.711 65.636 290.134 64.5837 290.716C70.9728 288.976 73.0207 282.927 73.246 280.12C75.7069 277.853 76.2146 275.375 76.1608 274.42C71.6498 274.343 69.767 272.453 69.3894 271.517Z" fill="#116589" fill-opacity="0.68"/>
<path d="M41.5227 289.376C37.3151 282.501 27.2871 286.381 22.799 289.18C25.6045 291.371 25.6397 295.551 25.3067 297.367C23.5256 299.662 22.1772 296.485 20.4502 298.355C19.0686 299.851 21.0247 304.174 22.1755 306.149C23.1651 304.337 25.5488 301.045 27.1674 302.373C28.7859 303.7 27.8233 305.599 27.1397 306.382C30.8947 309.373 34.7477 307.412 36.2048 306.057C36.8093 305.161 38.1655 305.336 38.768 305.536C39.6527 306.571 37.7693 307.994 36.717 308.576C43.1061 306.835 45.154 300.786 45.3793 297.979C47.8402 295.712 48.3479 293.234 48.2941 292.279C43.7831 292.202 41.9003 290.312 41.5227 289.376Z" fill="#116589" fill-opacity="0.68"/>
<path d="M41.0148 269.438C38.8721 265.927 33.7739 267.903 31.4926 269.33C32.9203 270.45 32.94 272.584 32.7714 273.511C31.8666 274.682 31.1795 273.06 30.302 274.014C29.6 274.777 30.5966 276.985 31.1827 277.994C31.6852 277.069 32.8961 275.389 33.7198 276.068C34.5434 276.746 34.0547 277.715 33.7074 278.115C35.6183 279.643 37.577 278.644 38.3174 277.953C38.6245 277.495 39.3142 277.585 39.6207 277.688C40.0711 278.216 39.1139 278.942 38.579 279.239C41.8274 278.353 42.8664 275.265 42.9798 273.832C44.2303 272.676 44.4875 271.411 44.4597 270.923C42.1656 270.882 41.2072 269.916 41.0148 269.438Z" fill="#116589" fill-opacity="0.68"/>
<path d="M16.5627 286.604C14.42 283.092 9.32174 285.068 7.04046 286.496C8.46814 287.615 8.48783 289.749 8.31921 290.677C7.41441 291.847 6.72732 290.225 5.84982 291.179C5.14782 291.942 6.14447 294.15 6.73054 295.159C7.23303 294.234 8.44393 292.554 9.26761 293.233C10.0913 293.911 9.60256 294.88 9.25523 295.28C11.1661 296.808 13.1248 295.809 13.8653 295.118C14.1723 294.66 14.8621 294.75 15.1686 294.853C15.6189 295.381 14.6617 296.107 14.1268 296.404C17.3753 295.518 18.4142 292.43 18.5276 290.997C19.7782 289.841 20.0353 288.576 20.0076 288.088C17.7134 288.047 16.7551 287.081 16.5627 286.604Z" fill="#116589" fill-opacity="0.68"/>
<path d="M23.7754 276.433C22.4248 274.241 19.1944 275.485 17.748 276.381C18.6499 277.079 18.6589 278.414 18.5506 278.994C17.976 279.727 17.5437 278.714 16.9867 279.312C16.5411 279.79 17.1684 281.169 17.5377 281.799C17.8573 281.22 18.6265 280.168 19.1468 280.591C19.6671 281.014 19.3562 281.62 19.1356 281.871C20.3428 282.824 21.5842 282.195 22.0541 281.762C22.2492 281.476 22.6856 281.531 22.8795 281.594C23.1637 281.924 22.5566 282.379 22.2175 282.566C24.2753 282.006 24.9379 280.074 25.0121 279.178C25.8056 278.453 25.9704 277.661 25.9536 277.356C24.5015 277.334 23.8964 276.732 23.7754 276.433Z" fill="#116589" fill-opacity="0.68"/>
<path d="M66.6794 645.746C67.0567 646.51 65.579 648.93 64.7929 650.045L64.3213 651H80.8276C81.142 650.363 81.4879 648.612 80.356 646.701C78.9412 644.313 78.9412 638.581 78.9412 637.148C78.9412 635.715 81.7708 632.371 82.714 629.027C83.6572 625.683 85.5437 619.474 86.0153 618.518C86.3926 617.754 92.1462 613.105 94.9758 610.876C96.705 610.398 100.541 609.347 102.05 608.965C103.559 608.583 101.107 606.577 99.6919 605.621C99.2203 605.144 98.56 603.902 99.6919 602.755C101.107 601.322 100.163 599.412 98.7487 599.889C97.3339 600.367 94.9758 602.278 91.6746 606.099C89.0336 609.156 87.4301 609.92 86.9585 609.92C86.8013 608.169 86.4869 604.284 86.4869 602.755C86.4869 600.845 92.6178 592.724 94.0326 591.769C95.4474 590.814 102.993 579.349 105.351 577.439C107.238 575.91 104.565 575.21 102.993 575.05C101.578 576.324 98.6544 578.776 98.2771 578.394C97.8055 577.916 98.7487 576.006 101.578 573.617C104.408 571.229 103.936 570.274 102.522 569.318C101.107 568.363 95.919 573.617 94.5042 575.05C93.0894 576.483 93.0894 581.26 92.6178 584.126C92.1462 586.992 85.0721 593.202 82.714 593.679C80.356 594.157 81.7708 589.858 82.714 585.559C83.4686 582.12 86.4869 580.942 87.9017 580.782C86.8013 580.623 84.4118 580.305 83.6572 580.305C82.714 580.305 82.714 578.872 82.714 576.961C82.714 575.05 93.0894 569.318 93.561 568.363C94.0326 567.408 91.203 567.885 88.6045 567.408C86.006 566.93 87.4301 563.586 87.4301 561.198C87.4301 559.287 85.5437 560.083 84.6005 560.72V568.363L78.9412 574.573C78.9412 575.846 78.8469 578.585 78.4696 579.349C77.998 580.305 76.1115 578.872 75.1683 577.916C74.2251 576.961 75.6399 568.841 77.0547 567.408C78.4696 565.975 77.0547 563.586 76.5831 563.109C76.1115 562.631 73.7535 565.975 72.3387 566.93C70.9239 567.885 70.9239 566.93 69.9806 565.019C69.0374 563.109 66.6794 564.064 66.2078 565.019C65.7362 565.975 67.6226 570.274 68.0942 572.184C68.5658 574.095 71.8671 580.782 72.3387 583.171C72.8103 585.559 71.8671 589.38 71.8671 591.769C71.8671 594.157 75.1683 597.979 77.5263 602.755C79.4128 606.577 79.2556 609.761 78.9412 610.876C77.998 609.602 75.8286 606.863 74.6967 606.099C73.5648 605.335 73.2819 607.054 73.2819 608.01C74.8539 610.239 78.2809 614.984 79.4128 616.13C80.8276 617.563 75.6399 627.116 74.2251 627.116C72.8103 627.116 74.2251 620.429 74.2251 619.951C74.2251 619.474 70.9239 614.697 69.0374 613.742C67.151 612.786 68.0942 614.697 68.0942 617.563C68.0942 620.429 71.3955 630.938 70.9239 632.849C70.5466 634.377 67.937 633.804 66.6794 633.326C65.4218 628.39 62.7179 617.945 61.9633 615.652C61.0201 612.786 62.4349 599.412 64.3213 597.979C66.2078 596.546 66.6794 588.903 66.2078 586.514C65.7362 584.126 60.5485 593.202 60.0769 594.635C59.6053 596.068 59.6053 591.769 59.1337 587.47C58.6621 583.171 55.8324 584.604 53.946 586.514C52.4368 588.043 53.6316 594.157 54.4176 597.023C53.4744 597.819 51.4936 599.221 51.1163 598.456C50.6447 597.501 42.6274 589.38 40.741 589.38C38.8546 589.38 39.7978 592.247 41.6842 593.202C43.5706 594.157 46.4003 597.501 46.4003 599.889C46.4003 602.278 50.1731 603.711 53.4744 605.144C56.7756 606.577 54.8892 609.92 52.5312 610.876C50.1731 611.831 43.5706 604.188 41.6842 602.755C39.7978 601.322 33.667 596.546 33.1953 597.023C32.7237 597.501 33.1953 599.889 33.667 600.845C34.1386 601.8 54.4177 617.563 57.2473 621.384C60.077 625.206 53.946 626.639 53.0028 626.639C52.0596 626.639 51.1163 628.549 53.0028 629.505C54.8892 630.46 66.2078 644.79 66.6794 645.746Z" fill="#02385A" stroke="#02385A"/>
<path d="M291.963 4.85924C289.043 6.30911 284.314 8.3131 283.003 8.89686C281.116 9.73672 282.06 11.4164 283.003 11.4164C283.946 11.4164 290.077 12.6762 287.247 16.0357C284.418 19.3951 264.139 33.2528 263.667 34.0927C263.195 34.9326 262.724 37.0322 263.195 37.4521C263.667 37.8721 269.798 33.6728 271.684 32.413C273.571 31.1532 280.173 24.4343 282.531 25.2741C284.889 26.114 286.776 29.0535 283.474 30.3133C280.173 31.5731 276.4 32.8329 276.4 34.9325C276.4 37.0322 273.571 39.9717 271.684 40.8116C269.798 41.6514 268.855 44.171 270.741 44.171C272.627 44.171 280.645 37.0322 281.116 36.1923C281.494 35.5204 283.474 36.7523 284.418 37.4521C283.632 39.9717 282.437 45.3468 283.946 46.6906C285.832 48.3703 288.662 49.6301 289.134 45.8507C289.605 42.0713 289.605 38.292 290.077 39.5518C290.548 40.8116 295.736 48.7902 296.208 46.6906C296.679 44.591 296.208 37.8721 294.321 36.6123C292.435 35.3525 291.02 23.5944 291.963 21.0748C292.718 19.0592 295.422 9.87669 296.679 5.53741C297.937 5.11748 300.547 4.61356 300.924 5.95734C301.395 7.63706 298.094 16.8755 298.094 19.3951C298.094 21.9147 297.151 23.5944 299.037 22.7546C300.924 21.9147 304.225 17.7154 304.225 17.2955C304.225 16.8755 302.81 10.9965 304.225 10.9965C305.64 10.9965 310.828 19.3951 309.413 20.6549C308.281 21.6627 304.854 25.8341 303.282 27.7937C303.282 28.6336 303.565 30.1453 304.697 29.4735C305.829 28.8016 307.998 26.3939 308.941 25.2741C309.256 26.254 309.413 29.0535 307.526 32.413C305.168 36.6123 301.867 39.9717 301.867 42.0714C301.867 44.171 302.81 47.5305 302.339 49.6301C301.867 51.7298 298.566 57.6088 298.094 59.2885C297.623 60.9682 295.736 64.7476 296.208 65.5875C296.679 66.4273 299.037 67.2672 299.981 65.5875C300.924 63.9078 300.924 63.0679 302.339 63.9078C303.753 64.7476 306.112 67.6872 306.583 67.2672C307.055 66.8473 308.47 64.7477 307.055 63.4879C305.64 62.2281 304.225 55.0893 305.168 54.2494C306.112 53.4095 307.998 52.1497 308.47 52.9896C308.847 53.6615 308.941 56.0691 308.941 57.1889L314.6 62.648V69.3669C315.544 69.9268 317.43 70.6267 317.43 68.947C317.43 66.8473 316.006 63.9078 318.604 63.4879C321.203 63.0679 324.033 63.4879 323.561 62.648C323.089 61.8081 312.714 56.769 312.714 55.0892C312.714 53.4095 312.714 52.1497 313.657 52.1497C314.412 52.1497 316.801 51.8698 317.902 51.7298C316.487 51.5898 313.469 50.554 312.714 47.5305C311.771 43.7511 310.356 39.9717 312.714 40.3917C315.072 40.8116 322.146 46.2707 322.618 48.7903C323.089 51.3099 323.089 55.5092 324.504 56.769C325.919 58.0287 331.107 62.648 332.522 61.8081C333.936 60.9683 334.408 60.1284 331.578 58.0288C328.749 55.9291 327.805 54.2494 328.277 53.8294C328.654 53.4935 331.578 55.6491 332.993 56.769C334.565 56.629 337.238 56.0131 335.351 54.6693C332.993 52.9896 325.447 42.9112 324.033 42.0714C322.618 41.2315 316.487 34.0927 316.487 32.413C316.487 31.0692 316.801 27.6538 316.958 26.114C317.43 26.114 319.034 26.7859 321.675 29.4735C324.976 32.8329 327.334 34.5126 328.749 34.9326C330.163 35.3525 331.107 33.6727 329.692 32.413C328.56 31.4052 329.22 30.3133 329.692 29.8934C331.107 29.0535 333.559 27.2898 332.05 26.9539C330.541 26.6179 326.705 25.6941 324.976 25.2741C322.146 23.3145 316.393 19.2272 316.015 18.5553C315.544 17.7154 313.657 12.2563 312.714 9.31681C312.011 7.12498 310.259 4.93316 309.413 3.43768C310.545 1.75796 309.256 2.73789 308.941 2.17799C308.941 1.84558 308.876 1.92247 308.805 2.17724L290.077 2.07439L291.963 4.85924Z" fill="#02385A"/>
<path d="M308.941 2.17799C308.941 3.43778 311.771 6.37729 312.714 9.31681C313.657 12.2563 315.544 17.7154 316.015 18.5553C316.393 19.2272 322.146 23.3145 324.976 25.2741C326.705 25.6941 330.541 26.6179 332.05 26.9539C333.559 27.2898 331.107 29.0535 329.692 29.8934C329.22 30.3133 328.56 31.4051 329.692 32.413C331.107 33.6727 330.163 35.3525 328.749 34.9326C327.334 34.5126 324.976 32.8329 321.675 29.4735C319.034 26.7859 317.43 26.114 316.958 26.114C316.801 27.6538 316.487 31.0692 316.487 32.413C316.487 34.0927 322.618 41.2315 324.033 42.0714C325.447 42.9112 332.993 52.9896 335.351 54.6693C337.238 56.0131 334.565 56.629 332.993 56.769C331.578 55.6491 328.654 53.4935 328.277 53.8294C327.805 54.2494 328.749 55.9291 331.578 58.0288C334.408 60.1284 333.936 60.9683 332.522 61.8081C331.107 62.648 325.919 58.0287 324.504 56.769C323.089 55.5092 323.089 51.3099 322.618 48.7903C322.146 46.2707 315.072 40.8116 312.714 40.3917C310.356 39.9717 311.771 43.7511 312.714 47.5305C313.469 50.554 316.487 51.5898 317.902 51.7298C316.801 51.8698 314.412 52.1497 313.657 52.1497C312.714 52.1497 312.714 53.4095 312.714 55.0892C312.714 56.769 323.089 61.8081 323.561 62.648C324.033 63.4879 321.203 63.0679 318.604 63.4879C316.006 63.9078 317.43 66.8473 317.43 68.947C317.43 70.6267 315.544 69.9268 314.6 69.3669V62.648L308.941 57.1889C308.941 56.0691 308.847 53.6615 308.47 52.9896C307.998 52.1497 306.112 53.4095 305.168 54.2494C304.225 55.0893 305.64 62.2281 307.055 63.4879C308.47 64.7477 307.055 66.8473 306.583 67.2672C306.112 67.6872 303.753 64.7476 302.339 63.9078C300.924 63.0679 300.924 63.9078 299.981 65.5875C299.037 67.2672 296.679 66.4273 296.208 65.5875C295.736 64.7476 297.623 60.9682 298.094 59.2885C298.566 57.6088 301.867 51.7298 302.339 49.6301C302.81 47.5305 301.867 44.171 301.867 42.0714C301.867 39.9717 305.168 36.6123 307.526 32.413C309.413 29.0535 309.256 26.254 308.941 25.2741C307.998 26.3939 305.829 28.8016 304.697 29.4735C303.565 30.1453 303.282 28.6336 303.282 27.7937C304.854 25.8341 308.281 21.6627 309.413 20.6549C310.828 19.3951 305.64 10.9965 304.225 10.9965C302.81 10.9965 304.225 16.8755 304.225 17.2955C304.225 17.7154 300.924 21.9147 299.037 22.7546C297.151 23.5944 298.094 21.9147 298.094 19.3951C298.094 16.8755 301.395 7.63706 300.924 5.95734C300.547 4.61356 297.937 5.11748 296.679 5.53741C295.422 9.87669 292.718 19.0592 291.963 21.0748C291.02 23.5944 292.435 35.3525 294.321 36.6123C296.208 37.8721 296.679 44.591 296.208 46.6906C295.736 48.7902 290.548 40.8116 290.077 39.5518C289.605 38.292 289.605 42.0713 289.134 45.8507C288.662 49.6301 285.832 48.3703 283.946 46.6906C282.437 45.3468 283.632 39.9717 284.418 37.4521C283.474 36.7523 281.494 35.5204 281.116 36.1923C280.645 37.0322 272.627 44.171 270.741 44.171C268.855 44.171 269.798 41.6514 271.684 40.8116C273.571 39.9717 276.4 37.0322 276.4 34.9325C276.4 32.8329 280.173 31.5731 283.474 30.3133C286.776 29.0535 284.889 26.114 282.531 25.2741C280.173 24.4343 273.571 31.1532 271.684 32.413C269.798 33.6728 263.667 37.8721 263.195 37.4521C262.724 37.0322 263.195 34.9326 263.667 34.0927C264.139 33.2528 284.418 19.3951 287.247 16.0357C290.077 12.6762 283.946 11.4164 283.003 11.4164C282.06 11.4164 281.116 9.73672 283.003 8.89686C284.889 8.057 293.85 4.27754 294.321 3.43768C294.699 2.76579 291.492 17.4571 291.963 4.85924L290.077 2.07439L308.941 2.17799ZM308.941 2.17799C308.941 0.918195 307.998 5.53734 309.413 3.43768C310.545 1.75796 309.256 2.73789 308.941 2.17799Z" stroke="#02385A"/>
<path d="M286.563 573.303C287.118 575.063 284.481 578.434 283.093 579.9V581L299.056 580.45C298.362 579.167 296.558 576.272 294.892 574.953C292.81 573.303 303.221 569.455 305.997 567.256C308.774 565.057 303.915 563.408 302.527 563.408C301.139 563.408 297.668 567.256 294.892 567.256C292.116 567.256 294.198 562.308 293.504 557.91C292.81 553.512 308.08 545.266 311.55 543.616C315.02 541.967 322.655 543.067 328.902 542.517C333.9 542.077 333.298 539.768 332.373 538.669C331.216 538.119 329.319 536.689 330.984 535.37C333.067 533.721 327.514 532.071 326.126 533.721C324.738 535.37 315.714 538.119 314.326 538.119C312.938 538.119 318.491 532.071 324.044 527.673C328.486 524.155 324.506 522.542 321.961 522.176L316.409 528.223C316.177 528.223 315.298 527.783 313.632 526.024C311.55 523.825 311.55 529.872 311.55 531.522C311.55 533.171 305.997 536.47 303.915 538.119C301.833 539.768 301.833 531.522 301.139 527.124C300.445 522.725 296.974 524.375 295.586 524.925C294.198 525.474 294.892 532.621 296.974 537.019C299.056 541.417 292.81 548.564 290.033 549.664C287.257 550.763 283.787 545.815 285.869 540.318C287.951 534.82 281.01 535.37 279.622 535.92C278.511 536.36 278.234 539.035 278.234 540.318C277.54 539.585 276.013 537.789 275.458 536.47C274.763 534.82 272.681 528.223 279.622 526.574C286.563 524.925 290.033 519.977 288.645 518.877C287.257 517.778 283.092 520.527 281.01 520.527C278.928 520.527 286.563 509.531 292.116 506.233C297.668 502.934 296.974 498.536 295.586 497.437C294.198 496.337 291.421 499.636 290.727 501.285C290.172 502.604 289.108 502.201 288.645 501.835C288.645 495.238 288.368 481.604 287.257 479.844C286.146 478.085 283.555 479.478 282.398 480.394C282.167 483.326 281.565 489.3 281.01 489.74C280.316 490.29 276.846 488.091 276.152 487.541C275.596 487.101 274.532 488.457 274.069 489.19C276.152 491.756 280.455 497.217 281.01 498.536C281.565 499.856 278.928 506.416 277.54 509.531C277.308 509.348 276.429 509.092 274.763 509.531C272.681 510.081 275.458 513.929 275.458 516.128C275.458 518.327 267.823 528.223 265.74 527.124C263.658 526.024 262.964 516.678 260.882 514.772C258.799 512.866 256.717 515.579 256.023 516.128C255.329 516.678 258.105 525.474 258.105 526.024C258.105 526.574 252.553 524.925 251.165 523.825C249.776 522.726 247 524.375 247 525.474C247 526.574 251.165 529.323 255.329 529.872C259.494 530.422 260.188 532.071 262.964 533.171C265.74 534.27 282.398 552.962 283.093 555.161C283.787 557.36 283.787 559.01 281.704 559.01C279.622 559.01 269.211 552.413 267.823 549.114C266.712 546.475 262.733 542.883 260.882 541.417C260.419 542.7 259.077 545.376 257.411 545.815C255.329 546.365 254.635 550.213 256.023 549.664C257.411 549.114 260.882 551.863 260.882 552.962C260.882 554.062 251.859 556.811 249.082 559.01C246.861 560.769 250.933 561.942 253.247 562.308C255.329 561.392 260.327 559.339 263.658 558.46C266.99 557.58 270.136 559.193 271.293 560.109C270.599 560.476 268.517 561.648 265.74 563.408C262.964 565.167 268.97 564.874 272.319 564.507C274.06 564.141 277.956 563.628 279.622 564.507C281.704 565.607 285.869 571.104 286.563 573.303Z" fill="#02385A" stroke="#02385A"/>
<path d="M256.266 574.889C255.166 577.489 253.619 586.698 252.984 590.977C252.468 591.832 250.992 594.089 249.208 596.277C246.978 599.012 240.299 601.395 234.65 602.067C229.001 602.74 203.2 580.768 199.962 573.569C196.724 566.371 206.137 566.22 209.041 569.137C211.364 571.471 220.704 585.885 225.083 592.801C226.395 593.203 228.506 593.116 226.459 589.55C224.412 585.985 216.628 569.439 212.991 561.612C206.44 556.689 192.006 544.992 186.681 537.584C181.355 530.175 187.213 527.996 190.807 527.833C192.29 527.95 195.154 527.774 194.747 526.129C194.237 524.073 194.424 516.026 198.703 515.693C202.982 515.36 206.045 524.784 206.554 526.839C207.064 528.895 211.463 555.444 213.857 556.306C215.773 556.995 227.86 572.716 233.664 580.491L230.278 560.964C228.865 554.283 225.799 540.545 224.843 539.036C223.649 537.15 208.461 514.002 204.878 508.344C201.295 502.685 200.292 489.841 204.062 487.452C207.832 485.063 210.379 495.342 210.708 502.534C210.971 508.288 221.275 525.615 226.394 533.56L218.242 500.667C215.864 491.074 224.932 492.463 227.497 494.009C230.061 495.556 235.248 557.55 237.988 556.871C240.727 556.192 243.5 538.049 241.134 522.633C238.767 507.218 244.41 509.456 247.484 513.058C250.558 516.661 248.47 534.635 250.185 532.755C251.9 530.875 256.179 530.542 258.398 533.629C260.174 536.098 257.728 556.343 256.282 566.157L264.173 556.928C268.118 552.313 271.016 558.141 270.326 561.222C269.636 564.302 257.641 571.639 256.266 574.889Z" fill="#001E30"/>
<path d="M58.9569 54.7762C59.9006 52.5458 61.2271 44.6471 61.7724 40.9766C62.2143 40.2431 63.4806 38.3072 65.0109 36.4305C66.9238 34.0848 72.6529 32.0409 77.4984 31.4639C82.344 30.8869 104.475 49.7337 107.252 55.9082C110.03 62.0827 101.956 62.2121 99.4647 59.71C97.472 57.7083 89.4607 45.3443 85.7041 39.4125C84.5793 39.0674 82.7686 39.1418 84.5244 42.2004C86.2802 45.2591 92.957 59.4512 96.076 66.1649C101.695 70.3873 114.076 80.4206 118.644 86.7752C123.212 93.1297 118.188 94.9989 115.105 95.1391C113.833 95.0384 111.376 95.1898 111.726 96.6006C112.163 98.364 112.003 105.266 108.332 105.552C104.662 105.838 102.035 97.7546 101.598 95.9912C101.16 94.2278 97.3871 71.4551 95.3333 70.7163C93.6902 70.1253 83.3225 56.64 78.3439 49.9712L81.248 66.7205C82.4604 72.451 85.0901 84.2355 85.9098 85.5298C86.9343 87.1476 99.9617 107.003 103.035 111.856C106.109 116.709 106.969 127.726 103.735 129.776C100.502 131.825 98.3164 123.008 98.0345 116.839C97.8091 111.904 88.9706 97.0411 84.5796 90.2267L91.5722 118.441C93.6118 126.67 85.8336 125.478 83.6341 124.151C81.4346 122.825 76.9852 69.6487 74.6353 70.2312C72.2853 70.8136 69.9068 86.3766 71.9368 99.5991C73.9668 112.822 69.126 110.902 66.4895 107.812C63.853 104.722 65.644 89.3047 64.1729 90.9171C62.7018 92.5295 59.0313 92.8153 57.1277 90.1676C55.6049 88.0495 57.7032 70.6843 58.9427 62.2664L52.1746 70.1828C48.7906 74.141 46.3046 69.1421 46.8968 66.4997C47.489 63.8573 57.7771 57.5641 58.9569 54.7762Z" fill="#001E30"/>
<path d="M339 693.691V708.506V709H0V687.765V658.136V629C14.5196 632.128 45.2631 638.481 52.081 638.877C58.8989 639.272 98.4804 656.16 117.419 664.556C121.522 667.189 132.57 671.667 143.933 668.506C158.137 664.556 165.712 669.494 173.288 669.494C180.863 669.494 195.067 677.395 196.961 677.395C198.855 677.395 196.961 671.469 197.908 669C198.855 666.531 208.573 666.987 209.564 661.821C210.321 657.87 215.214 658.231 217.782 659.256C220.35 660.282 221.013 658.63 222.528 662.58C224.422 667.519 238.626 675.914 244.307 676.407C249.989 676.901 271.768 676.901 282.184 679.37C292.601 681.84 316.274 693.691 321.955 695.173C326.501 696.358 335.212 694.679 339 693.691Z" fill="#023554"/>
<path d="M282.416 563C288.618 561.151 324.648 550.704 345 543L345 740H0V701.867C23.5815 693.97 71.7134 678.524 75.5898 679.911C80.4353 681.644 139.551 684.533 144.396 684.533C149.242 684.533 169.593 670.667 177.345 665.467C185.098 660.267 202.542 658.533 214.171 653.911C225.801 649.289 222.893 635.422 222.893 631.956C222.893 629.182 230 627.719 233.553 627.333C232.584 620.593 230.646 606.649 230.646 604.8C230.646 602.489 241.306 603.067 241.306 593.244C241.306 583.422 264.565 581.111 262.626 579.378C260.688 577.644 274.663 565.311 282.416 563Z" fill="#001E30"/>
<path d="M345 15.3086V0.493827V0H0V21.2346V50.8642V80C14.7765 76.8724 46.0642 70.5185 53.0028 70.1235C59.9413 69.7284 100.223 52.8395 119.497 44.4445C123.673 41.8107 134.916 37.3333 146.48 40.4938C160.936 44.4445 168.645 39.5062 176.355 39.5062C184.064 39.5062 198.52 31.6049 200.447 31.6049C202.374 31.6049 200.447 37.5309 201.411 40C202.374 42.4691 212.265 42.0133 213.273 47.1795C214.044 51.1301 219.023 50.7692 221.636 49.7436C224.25 48.718 224.925 50.3704 226.466 46.4198C228.394 41.4815 242.849 33.0864 248.631 32.5926C254.413 32.0988 276.578 32.0988 287.179 29.6296C297.779 27.1605 321.872 15.3086 327.654 13.8272C332.279 12.642 341.145 14.321 345 15.3086Z" fill="#001E30"/>
</svg>
