<svg width="1024" height="1403" viewBox="0 0 1024 1403" fill="none" xmlns="http://www.w3.org/2000/svg">
<g clip-path="url(#clip0_39_21)">
<rect width="1024" height="1403" fill="white"/>
<path d="M221.328 1330.56C152.935 1363.62 43.5374 1350.51 0 1339.11V1403.23H1024V1323.44C1003.35 1313.56 989.412 1314.14 980.75 1318.06C973.175 1321.49 963.465 1325.29 955.79 1322.08C910.527 1303.21 823.925 1286.18 750.427 1334.84C668.355 1389.17 535.748 1370.78 479.703 1354.79C422.075 1332.94 289.722 1297.51 221.328 1330.56Z" fill="#02385A"/>
<path d="M221.328 1330.56C152.935 1363.62 43.5374 1350.51 0 1339.11V1403.23H1024V1323.44C1003.35 1313.56 989.412 1314.14 980.75 1318.06C973.175 1321.49 963.465 1325.29 955.79 1322.08C910.527 1303.21 823.925 1286.18 750.427 1334.84C668.355 1389.17 535.748 1370.78 479.703 1354.79C422.075 1332.94 289.722 1297.51 221.328 1330.56Z" fill="url(#paint0_linear_39_21)" fill-opacity="0.2"/>
<path d="M221.328 1330.56C152.935 1363.62 43.5374 1350.51 0 1339.11V993.345C12.5071 998.57 41.8909 1018.04 38.4712 1061.74C35.0516 1105.43 103.54 1135.99 138.212 1145.81C175.258 1150.4 262.269 1153.59 313.944 1129.66C365.619 1105.72 449.781 1119.68 485.403 1129.66C546.988 1146.76 695.997 1175.82 799.347 1155.3C810.418 1152.83 829.505 1147.61 849.217 1140.23C866.15 1133.89 883.544 1125.96 896.712 1116.83C932.334 1092.14 1005 1073.61 1024 1075.04V1323.44C989.043 1306.72 973.338 1319.95 969.855 1328.66C930.909 1308.08 832.499 1280.5 750.427 1334.84C668.355 1389.17 535.748 1370.77 479.703 1354.78C422.075 1332.94 289.722 1297.51 221.328 1330.56Z" fill="#116589"/>
<path d="M221.328 1330.56C152.935 1363.62 43.5374 1350.51 0 1339.11V993.345C12.5071 998.57 41.8909 1018.04 38.4712 1061.74C35.0516 1105.43 103.54 1135.99 138.212 1145.81C175.258 1150.4 262.269 1153.59 313.944 1129.66C365.619 1105.72 449.781 1119.68 485.403 1129.66C546.988 1146.76 695.997 1175.82 799.347 1155.3C810.418 1152.83 829.505 1147.61 849.217 1140.23C866.15 1133.89 883.544 1125.96 896.712 1116.83C932.334 1092.14 1005 1073.61 1024 1075.04V1323.44C989.043 1306.72 973.338 1319.95 969.855 1328.66C930.909 1308.08 832.499 1280.5 750.427 1334.84C668.355 1389.17 535.748 1370.77 479.703 1354.78C422.075 1332.94 289.722 1297.51 221.328 1330.56Z" fill="url(#paint1_linear_39_21)" fill-opacity="0.2"/>
<path d="M38.4712 1063.64C41.8909 1019.94 12.5071 1000.47 0 995.245V770.117C18.5232 797.664 122.538 812.863 174.783 816.662C196.186 818.219 213.125 822.725 229.878 831.453C254.019 844.031 277.775 865.378 313.944 899.304C362.96 945.28 503.134 969.439 567.095 975.772C586.884 981.155 639.573 1004.74 692.007 1056.04C744.442 1107.33 818.662 1134.8 849.217 1142.13C829.505 1149.51 810.418 1154.73 799.347 1157.2C695.997 1177.72 546.988 1148.65 485.403 1131.56C449.781 1121.58 365.619 1107.62 313.944 1131.56C262.269 1155.49 175.258 1152.3 138.212 1147.71C103.54 1137.89 35.0516 1107.33 38.4712 1063.64Z" fill="#2081A1"/>
<path d="M1024 1078.57C1005 1077.15 932.333 1095.67 896.712 1120.37C883.544 1129.5 866.15 1137.42 849.216 1143.76C818.661 1136.44 744.442 1108.97 692.007 1057.67C639.572 1006.38 586.884 982.788 567.094 977.406C503.134 971.073 362.959 946.914 313.944 900.938C277.774 867.012 254.019 845.665 229.877 833.087C301.912 835.914 465.264 832.545 542.396 796.448C619.529 760.352 722.404 769.059 764.2 777.925C814.387 818.296 936.608 888.779 1024 847.743V1078.57Z" fill="url(#paint2_linear_39_21)"/>
<path d="M739.978 720.247C838.388 705.048 978.404 616.707 1024 619.557V-81H0V587.26C19.6314 635.705 104.11 721.007 284.972 674.651C465.835 628.296 552.688 670.218 571.369 674.651C596.067 680.984 641.567 735.445 739.978 720.247Z" fill="#7DDEEA"/>
<path d="M0 773.442C18.5232 800.989 122.538 816.187 174.783 819.987C196.186 821.544 213.125 826.049 229.878 834.778C301.912 837.605 465.265 834.236 542.397 798.139C619.529 762.043 722.404 770.75 764.2 779.616C814.387 819.987 936.609 890.47 1024 849.434V576.336C978.404 573.486 852.637 645.679 754.226 660.878C655.816 676.076 581.818 686.208 557.121 679.876C538.439 675.443 536.698 626.206 291.622 668.952C107.69 701.033 19.6314 592.484 0 544.039V773.442Z" fill="#61C8D7"/>
<path d="M0 773.442C18.5232 800.989 122.538 816.187 174.783 819.987C196.186 821.544 213.125 826.049 229.878 834.778C301.912 837.605 465.265 834.236 542.397 798.139C619.529 762.043 722.404 770.75 764.2 779.616C814.387 819.987 936.609 890.47 1024 849.434V576.336C978.404 573.486 852.637 645.679 754.226 660.878C655.816 676.076 581.818 686.208 557.121 679.876C538.439 675.443 536.698 626.206 291.622 668.952C107.69 701.033 19.6314 592.484 0 544.039V773.442Z" fill="url(#paint3_linear_39_21)" fill-opacity="0.2"/>
<path d="M906.629 -90.5245L809.381 -70.4158L922.33 613C990.83 583.5 1037.62 570.962 1075.92 559.789L906.629 -90.5245Z" fill="url(#paint4_linear_39_21)"/>
<path d="M231.414 -2.98591L328.662 16.1435L212.624 688.159C161.455 637.069 100.42 626.287 62.1237 615.659L231.414 -2.98591Z" fill="url(#paint5_linear_39_21)"/>
<path d="M607.096 4H443.125L449.5 655.5C533.861 661.004 650.438 675.401 715.999 672.546L607.096 4Z" fill="url(#paint6_linear_39_21)"/>
<path d="M72.7509 591.535L37.1991 527.182C35.0989 527.182 31.8888 526.102 35.849 521.782L7.49821 472.729C5.54811 473.779 1.37789 475.249 0.297832 472.729C-1.05224 469.579 2.54795 467.779 3.89802 467.329L28.6486 452.928C30.8987 452.028 34.8589 451.938 32.6988 458.778L28.6486 461.029L54.2999 509.631C57.3001 509.031 62.6704 508.911 60.1502 513.231L57.4501 515.482L97.0522 588.385L117.753 585.235L123.604 507.831C120.603 506.931 115.503 504.681 119.103 502.881H124.954C125.674 502.881 127.054 468.979 127.654 452.028L118.653 451.578L117.753 444.378H103.803V437.627H110.103L111.003 416.476L92.5519 415.126V401.176H103.803L145.205 384.525L162.306 392.625L184.807 391.725C194.107 386.325 218.379 375.524 241.06 375.524C263.741 375.524 296.413 356.023 309.913 346.273L337.365 333.672L522.325 437.177H530.425V451.128H508.824V472.729H514.224V478.58H497.573V483.53H487.223L484.073 533.032C487.073 534.082 491.903 536.453 487.223 537.533C484.739 538.106 483.582 538.197 483.132 538.09L474.479 657.92C485.87 658.773 496.148 659.653 502.524 659.653L497.573 611.337H502.524L512.424 596.036L542.126 585.235V579.385H554.276L577.227 507.831C575.727 506.931 573.177 504.591 574.977 502.431C576.777 500.271 579.028 501.531 579.928 502.431L595.228 454.728L590.278 452.928L592.528 447.978L623.13 457.878L621.78 462.829H614.129L598.829 507.831L602.879 510.531C601.979 512.331 599.549 515.571 597.029 514.131L577.227 573.985H585.328V589.735L575.877 590.635L579.478 648.238C600.029 635.338 644.641 597.566 658.682 549.683L649.231 457.878H645.181V449.778L646.981 447.978C647.281 426.377 642.121 383.445 619.08 384.525L617.28 363.824H612.329V356.173H636.181C642.931 354.073 658.502 351.493 666.782 357.973H718.085L751.387 343.122L820.24 336.372V343.122H817.09V363.374C809.44 367.874 795.399 382.005 800.439 402.526L803.589 432.677H807.64V439.878H803.589L808.99 497.031C815.59 500.031 829.331 507.561 831.491 513.681C833.651 519.802 832.391 398.025 831.491 336.372C830.591 331.422 824.831 320.171 808.99 314.771V292.72H803.589V287.32H817.09V276.519H831.491V264.818H883.244V253.568L906.645 258.518C910.695 267.969 925.546 288.04 952.547 292.72C979.549 297.4 990.499 298.87 992.599 299.02C996.35 294.37 1006.55 285.519 1017.35 287.32V292.72H1013.3V314.771C1005.65 317.921 990.349 327.282 990.349 339.522C990.349 351.763 991.549 466.429 992.149 522.232L997.703 539.783C992.152 538.583 1000.94 566.915 994.102 580.955C997.156 582.453 998.576 583.862 997.762 585.147C997.805 585.164 997.786 585.194 997.703 585.235C995.781 587.916 991.417 590.056 985.336 591.741C983.025 593.132 980.518 593.731 977.83 593.444C975.742 593.833 973.533 594.188 971.223 594.509C916.863 615.213 797.96 664.182 794.292 674.34C779.591 675.99 681.336 706.742 624.93 701.341C555.904 694.733 534.325 680.654 502.524 659.653C496.148 659.653 485.87 658.773 474.479 657.92C463.764 657.118 452.066 656.339 441.707 656.339L413.685 656.339C403.711 659.653 402.286 659.653 381.863 659.653L390.018 531.232C388.068 531.082 384.347 530.062 385.067 527.182H390.918L394.518 476.329L385.067 475.429V468.679H375.617V474.529L363.016 475.429L361.216 524.482L366.166 525.382C365.866 526.882 364.276 529.612 360.316 528.532L348.141 663.928C340.067 666.302 330.669 671.566 317.37 671.566C261.224 675.327 231.973 696.318 140 671.566C89.6549 656.356 44.2227 618.736 30.872 594.584L72.7509 591.535Z" fill="#6FD4E0"/>
<path d="M452.443 539.94L441.708 656.803H412.736C416.788 603.75 421.644 534.847 422.725 536.302C423.805 537.757 426.477 535.696 427.678 534.483C428.038 531.573 424.526 531.451 422.725 531.755L425.877 481.278H436.233V474.457H447.49V482.188H456.945L453.793 533.574H447.49C446.409 536.12 450.341 538.879 452.443 539.94Z" fill="#7DDEEA"/>
<path d="M328.168 529.481L318.262 653.626C307.816 651.807 299.501 657.719 296.649 660.902C295.569 656.9 277.288 648.927 268.282 645.441L278.638 522.66H284.042V519.477H278.638L281.79 469H292.597V463.088L324.116 465.362V472.183H332.671L329.969 524.479H324.116C323.395 527.753 326.517 529.178 328.168 529.481Z" fill="#7DDEEA"/>
<path d="M246.669 522.66L236.763 647.26L205.244 650.898C208.847 606.484 216.321 518.021 217.402 519.477C218.752 521.296 223.705 517.658 223.255 516.293C222.895 515.202 219.203 514.626 217.402 514.474L220.554 463.088H231.81V458.086H242.167V465.362L252.072 466.726L246.669 517.658H242.167V521.296L246.669 522.66Z" fill="#7DDEEA"/>
<path d="M184.532 516.293L175.527 650.898C175.527 648.715 155.114 639.378 144.908 634.982L154.814 513.11C159.857 512.019 160.217 509.017 159.767 507.653H155.715L159.767 458.086H170.123V453.539H180.029V460.36H189.485L185.883 512.201H180.029C180.029 514.02 183.031 515.687 184.532 516.293Z" fill="#7DDEEA"/>
<path d="M856.335 363.954V533.119L863.99 538.121L888.754 420.797L884.252 419.888V413.976L907.215 419.888V423.071H903.613L878.398 545.397L893.707 552.594C899.203 548.072 904.644 543.947 909.467 540.483V496.285H898.66V484.006L934.682 481.278V489.009C950.892 489.009 963.349 493.859 967.552 496.285V366.228C966.201 349.857 953.683 316.661 914.42 314.842C875.156 313.023 859.337 346.825 856.335 363.954Z" fill="#7DDEEA"/>
<path d="M671.274 457.631L678.028 523.115C678.478 518.112 683.341 509.654 699.191 515.839C715.04 522.023 735.813 516.293 744.218 512.655L696.939 422.616L692.437 424.89L689.285 419.433L712.248 408.519L714.05 412.157L709.097 416.704L759.077 508.108C763.759 504.47 779.639 499.316 786.993 497.194L781.14 444.898H778.438V436.258H781.14L778.438 414.885C773.035 399.121 752.232 369.229 712.248 375.777C672.265 382.326 668.272 425.799 671.274 446.717H674.426V456.267L671.274 457.631Z" fill="#7DDEEA"/>
<path d="M860.772 1215.75C866.026 1201.29 886.251 1204.74 895.706 1208.26C891.294 1213.43 892.817 1221.26 894.13 1224.52C898.333 1228.14 899.646 1221.69 903.586 1224.52C906.738 1226.8 904.725 1235.62 903.324 1239.75C900.785 1236.74 895.076 1231.49 892.555 1234.59C890.033 1237.69 892.555 1240.87 894.13 1242.08C888.247 1249.1 880.297 1246.89 877.057 1244.92C875.587 1243.47 873.118 1244.31 872.067 1244.92C870.806 1247.19 874.869 1249.13 877.057 1249.82C864.45 1248.99 858.321 1238.46 856.832 1233.3C851.369 1230 849.478 1225.56 849.215 1223.75C857.62 1221.89 860.422 1217.64 860.772 1215.75Z" fill="#033656" fill-opacity="0.5"/>
<path d="M919.667 1238.55C924.92 1224.09 945.145 1227.53 954.601 1231.06C950.188 1236.22 951.712 1244.05 953.025 1247.32C957.228 1250.94 958.541 1244.48 962.481 1247.32C965.633 1249.59 963.619 1258.42 962.218 1262.55C959.679 1259.54 953.971 1254.29 951.449 1257.39C948.927 1260.49 951.449 1263.67 953.025 1264.87C947.141 1271.9 939.191 1269.69 935.952 1267.71C934.481 1266.27 932.012 1267.11 930.961 1267.71C929.701 1269.99 933.763 1271.93 935.952 1272.62C923.344 1271.79 917.215 1261.26 915.727 1256.1C910.264 1252.79 908.372 1248.36 908.11 1246.55C916.515 1244.69 919.317 1240.44 919.667 1238.55Z" fill="#033656" fill-opacity="0.5"/>
<path d="M913.037 1201.08C915.709 1193.69 925.993 1195.45 930.801 1197.25C928.557 1199.89 929.331 1203.89 929.999 1205.56C932.136 1207.4 932.804 1204.11 934.807 1205.56C936.41 1206.72 935.386 1211.22 934.674 1213.33C933.383 1211.8 930.48 1209.12 929.198 1210.7C927.916 1212.28 929.198 1213.9 929.999 1214.52C927.008 1218.1 922.965 1216.98 921.318 1215.97C920.57 1215.23 919.315 1215.66 918.78 1215.97C918.139 1217.13 920.205 1218.12 921.318 1218.47C914.907 1218.05 911.791 1212.67 911.034 1210.04C908.256 1208.35 907.295 1206.08 907.161 1205.16C911.435 1204.21 912.859 1202.04 913.037 1201.08Z" fill="#033656" fill-opacity="0.5"/>
<path d="M965.282 1223.87C967.953 1216.49 978.237 1218.25 983.045 1220.05C980.801 1222.69 981.576 1226.68 982.243 1228.35C984.38 1230.2 985.048 1226.9 987.051 1228.35C988.654 1229.51 987.63 1234.02 986.918 1236.13C985.627 1234.59 982.724 1231.91 981.442 1233.49C980.16 1235.08 981.442 1236.7 982.243 1237.32C979.252 1240.9 975.209 1239.78 973.562 1238.77C972.814 1238.03 971.559 1238.46 971.025 1238.77C970.384 1239.93 972.449 1240.92 973.562 1241.27C967.151 1240.85 964.035 1235.47 963.278 1232.84C960.5 1231.15 959.539 1228.88 959.405 1227.96C963.679 1227.01 965.104 1224.84 965.282 1223.87Z" fill="#033656" fill-opacity="0.5"/>
<path d="M947.927 1207.6C949.619 1202.99 956.132 1204.08 959.177 1205.21C957.756 1206.86 958.247 1209.36 958.67 1210.4C960.023 1211.55 960.446 1209.49 961.715 1210.4C962.73 1211.13 962.082 1213.94 961.63 1215.26C960.813 1214.3 958.974 1212.62 958.162 1213.61C957.35 1214.6 958.162 1215.62 958.67 1216C956.775 1218.24 954.215 1217.54 953.172 1216.91C952.698 1216.45 951.903 1216.72 951.565 1216.91C951.159 1217.63 952.467 1218.25 953.172 1218.47C949.112 1218.21 947.138 1214.85 946.659 1213.2C944.899 1212.15 944.29 1210.73 944.206 1210.15C946.912 1209.56 947.815 1208.2 947.927 1207.6Z" fill="#033656" fill-opacity="0.5"/>
</g>
<defs>
<linearGradient id="paint0_linear_39_21" x1="474.479" y1="1160.05" x2="409.41" y2="1438.38" gradientUnits="userSpaceOnUse">
<stop offset="0.14" stop-opacity="0"/>
<stop offset="0.995"/>
</linearGradient>
<linearGradient id="paint1_linear_39_21" x1="474.954" y1="836.61" x2="186.182" y2="1460.22" gradientUnits="userSpaceOnUse">
<stop offset="0.485" stop-opacity="0"/>
<stop offset="0.810679"/>
</linearGradient>
<linearGradient id="paint2_linear_39_21" x1="626.938" y1="770.117" x2="637.862" y2="1530.52" gradientUnits="userSpaceOnUse">
<stop stop-color="#52B9CB"/>
<stop offset="1" stop-color="#295C65"/>
</linearGradient>
<linearGradient id="paint3_linear_39_21" x1="700.082" y1="544.039" x2="952.757" y2="1146.76" gradientUnits="userSpaceOnUse">
<stop offset="0.152242" stop-opacity="0"/>
<stop offset="1"/>
</linearGradient>
<linearGradient id="paint4_linear_39_21" x1="877.529" y1="-84.5071" x2="1025.46" y2="788.49" gradientUnits="userSpaceOnUse">
<stop stop-color="#88E9F4"/>
<stop offset="1" stop-color="#68D4E1"/>
</linearGradient>
<linearGradient id="paint5_linear_39_21" x1="260.514" y1="2.73842" x2="126.284" y2="835.431" gradientUnits="userSpaceOnUse">
<stop stop-color="#88E9F4"/>
<stop offset="1" stop-color="#68D4E1"/>
</linearGradient>
<linearGradient id="paint6_linear_39_21" x1="558.03" y1="4" x2="558.198" y2="771.383" gradientUnits="userSpaceOnUse">
<stop stop-color="#88E9F4"/>
<stop offset="0.816382" stop-color="#6FD9E6"/>
</linearGradient>
<clipPath id="clip0_39_21">
<rect width="1024" height="1403" fill="white"/>
</clipPath>
</defs>
</svg>
