<svg width="320" height="465" viewBox="0 0 320 465" fill="none" xmlns="http://www.w3.org/2000/svg">
<g clip-path="url(#clip0_39_19)">
<rect width="320" height="465" fill="white"/>
<path d="M69.1651 442.465C47.7922 452.827 13.6054 448.718 0 445.145V465.243H320V440.232C318.925 439.716 317.908 439.291 316.947 438.947C309.106 436.138 296.57 438.499 288.505 436.415C273.618 432.568 252.769 431.679 234.508 443.805C208.861 460.836 167.421 455.07 149.907 450.058C131.899 443.209 90.538 432.103 69.1651 442.465Z" fill="#02385A"/>
<path d="M69.1651 442.465C47.7922 452.827 13.6054 448.718 0 445.145V465.243H320V440.232C318.925 439.716 317.908 439.291 316.947 438.947C309.106 436.138 296.57 438.499 288.505 436.415C273.618 432.568 252.769 431.679 234.508 443.805C208.861 460.836 167.421 455.07 149.907 450.058C131.899 443.209 90.538 432.103 69.1651 442.465Z" fill="url(#paint0_linear_39_19)" fill-opacity="0.2"/>
<path d="M69.1651 442.465C47.7922 452.827 13.6054 448.718 0 445.145V336.762C3.90847 338.399 13.0909 344.503 12.0223 358.2C10.9536 371.897 32.3562 381.475 43.1911 384.551C54.7681 385.991 81.9592 386.993 98.1076 379.49C114.256 371.986 140.557 376.363 151.688 379.49C170.934 384.849 217.499 393.96 249.796 387.529C253.256 386.755 259.22 385.116 265.38 382.803C270.672 380.816 276.108 378.332 280.223 375.47C291.354 367.728 314.063 361.922 320 362.369V440.232C309.076 434.991 304.168 439.14 303.08 441.869C290.909 435.418 260.156 426.773 234.508 443.805C208.861 460.836 167.421 455.07 149.907 450.058C131.899 443.209 90.538 432.103 69.1651 442.465Z" fill="#116589"/>
<path d="M69.1651 442.465C47.7922 452.827 13.6054 448.718 0 445.145V336.762C3.90847 338.399 13.0909 344.503 12.0223 358.2C10.9536 371.897 32.3562 381.475 43.1911 384.551C54.7681 385.991 81.9592 386.993 98.1076 379.49C114.256 371.986 140.557 376.363 151.688 379.49C170.934 384.849 217.499 393.96 249.796 387.529C253.256 386.755 259.22 385.116 265.38 382.803C270.672 380.816 276.108 378.332 280.223 375.47C291.354 367.728 314.063 361.922 320 362.369V440.232C309.076 434.991 304.168 439.14 303.08 441.869C290.909 435.418 260.156 426.773 234.508 443.805C208.861 460.836 167.421 455.07 149.907 450.058C131.899 443.209 90.538 432.103 69.1651 442.465Z" fill="url(#paint1_linear_39_19)" fill-opacity="0.2"/>
<path d="M12.0223 358.796C13.0909 345.099 3.90847 338.995 0 337.357V266.789C5.7885 275.424 38.2931 280.188 54.6197 281.379C61.308 281.867 66.6014 283.279 71.8367 286.015C79.3811 289.958 86.8046 296.649 98.1076 307.284C113.425 321.695 157.229 329.268 177.217 331.253C183.401 332.94 199.866 340.335 216.252 356.413C232.638 372.492 255.832 381.103 265.38 383.399C259.22 385.712 253.256 387.35 249.796 388.124C217.499 394.556 170.934 385.445 151.688 380.085C140.557 376.959 114.256 372.582 98.1076 380.085C81.9592 387.589 54.7681 386.586 43.1911 385.147C32.3562 382.07 10.9536 372.492 12.0223 358.796Z" fill="#2081A1"/>
<path d="M319.999 363.476C314.062 363.03 291.354 368.836 280.222 376.577C276.107 379.439 270.671 381.924 265.38 383.911C255.831 381.615 232.637 373.004 216.252 356.926C199.866 340.847 183.401 333.453 177.216 331.765C157.229 329.78 113.424 322.207 98.1068 307.796C86.8038 297.161 79.3803 290.47 71.8359 286.527C94.3468 287.414 145.394 286.358 169.498 275.043C193.602 263.728 225.751 266.458 238.812 269.237C254.495 281.891 292.689 303.985 319.999 291.122V363.476Z" fill="url(#paint2_linear_39_19)"/>
<path d="M231.243 251.157C261.996 246.393 305.751 218.702 320 219.595V0H0V209.471C6.13482 224.657 32.5343 251.395 89.0538 236.865C145.573 222.334 172.715 235.475 178.553 236.865C186.271 238.85 200.49 255.921 231.243 251.157Z" fill="#7DDEEA"/>
<path d="M0 267.831C5.7885 276.466 38.2931 281.23 54.6197 282.421C61.308 282.909 66.6014 284.322 71.8367 287.058C94.3476 287.944 145.395 286.888 169.499 275.573C193.603 264.258 225.751 266.988 238.813 269.767C254.496 282.421 292.69 304.515 320 291.652V206.047C305.751 205.154 266.449 227.783 235.696 232.547C204.942 237.311 181.818 240.487 174.1 238.502C168.262 237.113 167.718 221.679 91.1317 235.078C33.6531 245.134 6.13482 211.109 0 195.923V267.831Z" fill="#61C8D7"/>
<path d="M0 267.831C5.7885 276.466 38.2931 281.23 54.6197 282.421C61.308 282.909 66.6014 284.322 71.8367 287.058C94.3476 287.944 145.395 286.888 169.499 275.573C193.603 264.258 225.751 266.988 238.813 269.767C254.496 282.421 292.69 304.515 320 291.652V206.047C305.751 205.154 266.449 227.783 235.696 232.547C204.942 237.311 181.818 240.487 174.1 238.502C168.262 237.113 167.718 221.679 91.1317 235.078C33.6531 245.134 6.13482 211.109 0 195.923V267.831Z" fill="url(#paint3_linear_39_19)" fill-opacity="0.2"/>
<path d="M207.795 -5H148.765L148 230.803C178.37 232.786 223.398 236.865 247 235.836L207.795 -5Z" fill="url(#paint4_linear_39_19)"/>
<path d="M88.2189 -12.5526L121.081 -6.0885L81.7265 225.108C64.4357 207.845 32.9386 222.609 19.9976 219.017L88.2189 -12.5526Z" fill="url(#paint5_linear_39_19)"/>
<path d="M299.467 -12.0151L268.69 -5.69425L304 210.5C325.682 201.174 339.379 203.023 351.5 199.5L299.467 -12.0151Z" fill="url(#paint6_linear_39_19)"/>
<path d="M22.7347 210.339L11.6247 190.228C10.9684 190.228 9.96524 189.891 11.2028 188.541L2.34319 173.212C1.73378 173.54 0.43059 173.999 0.0930726 173.212C-0.328825 172.227 0.796235 171.665 1.21813 171.524L8.95268 167.024C9.65584 166.743 10.8934 166.714 10.2184 168.852L8.95268 169.555L16.9687 184.744C17.9063 184.556 19.5845 184.519 18.797 185.869L17.9532 186.572L30.3288 209.354L36.7979 208.37L38.6261 184.181C37.6886 183.9 36.0947 183.197 37.2198 182.634H39.048C39.273 182.634 39.7043 172.04 39.8918 166.743L37.0792 166.602L36.7979 164.352H32.4383V162.242H34.4072L34.6884 155.633L28.9225 155.211V150.851H32.4383L45.3765 145.648L50.7205 148.179L57.7521 147.898C60.6585 146.21 68.2433 142.835 75.3312 142.835C82.4191 142.835 92.629 136.741 96.8479 133.694L105.427 129.756L163.226 162.102H165.758V166.461H159.007V173.212H160.695V175.04H155.492V176.587H152.257L151.273 192.056C152.21 192.385 153.72 193.125 152.257 193.463C151.481 193.642 151.119 193.67 150.979 193.637L148.275 231.084C151.834 231.35 155.046 231.625 157.039 231.625L155.492 216.526H157.039L160.133 211.745L169.414 208.37V206.542H173.211L180.384 184.181C179.915 183.9 179.118 183.168 179.68 182.493C180.243 181.818 180.946 182.212 181.227 182.493L186.009 167.586L184.462 167.024L185.165 165.477L194.728 168.571L194.306 170.118H191.915L187.134 184.181L188.4 185.025C188.118 185.587 187.359 186.6 186.571 186.15L180.384 204.854H182.915V209.776L179.962 210.057L181.087 228.058C187.509 224.027 201.45 212.223 205.838 197.26L202.885 168.571H201.619V166.039L202.182 165.477C202.275 158.727 200.663 145.31 193.462 145.648L192.9 139.179H191.353V136.788H198.806C200.916 136.132 205.782 135.325 208.369 137.35H224.402L234.808 132.71L256.325 130.6V132.71H255.341V139.038C252.95 140.444 248.562 144.86 250.137 151.273L251.122 160.695H252.387V162.946H251.122L252.809 180.806C254.872 181.743 259.166 184.097 259.841 186.009C260.516 187.922 260.122 149.867 259.841 130.6C259.56 129.053 257.76 125.537 252.809 123.85V116.959H251.122V115.271H255.341V111.896H259.841V108.24H276.014V104.724L283.327 106.271C284.592 109.224 289.233 115.496 297.671 116.959C306.109 118.421 309.531 118.881 310.187 118.928C311.359 117.474 314.547 114.709 317.922 115.271V116.959H316.656V123.85C314.266 124.834 309.484 127.759 309.484 131.584C309.484 135.41 309.859 171.243 310.047 188.681L311.782 194.166C310.048 193.791 312.795 202.645 310.657 207.032C311.611 207.5 312.055 207.941 311.801 208.342C311.814 208.348 311.808 208.357 311.782 208.37C311.181 209.207 309.818 209.876 307.917 210.403C307.195 210.838 306.412 211.025 305.572 210.935C304.919 211.057 304.229 211.167 303.507 211.268C286.52 217.738 249.363 233.041 248.216 236.215C243.622 236.731 212.917 246.341 195.291 244.653C173.72 242.588 166.977 238.188 157.039 231.625C155.046 231.625 151.834 231.35 148.275 231.084C144.926 230.833 141.271 230.59 138.033 230.59L129.276 230.59C126.16 231.625 125.714 231.625 119.332 231.625L121.881 191.494C121.271 191.447 120.109 191.128 120.334 190.228H122.162L123.287 174.337L120.334 174.055V171.946H117.38V173.774L113.443 174.055L112.88 189.384L114.427 189.666C114.333 190.134 113.836 190.988 112.599 190.65L108.794 232.961C106.271 233.703 103.334 235.348 99.1782 235.348C81.6327 236.523 72.3779 240.997 43.6364 233.262C27.9035 228.508 13.8196 218.839 9.6475 211.291L22.7347 210.339Z" fill="#6FD4E0"/>
<path d="M141.388 194.215L138.033 230.735H128.979C130.246 214.156 131.763 192.623 132.101 193.078C132.439 193.533 133.273 192.889 133.649 192.51C133.761 191.6 132.664 191.562 132.101 191.657L133.086 175.883H136.322V173.752H139.84V176.167H142.795L141.81 192.226H139.84C139.502 193.021 140.731 193.883 141.388 194.215Z" fill="#7DDEEA"/>
<path d="M102.552 190.947L99.4563 229.742C96.1919 229.174 93.5934 231.021 92.7023 232.016C92.3646 230.765 86.6518 228.274 83.8376 227.184L87.0739 188.815H88.7624V187.82H87.0739L88.0589 172.046H91.4359V170.199L101.286 170.909V173.041H103.959L103.115 189.383H101.286C101.06 190.407 102.036 190.852 102.552 190.947Z" fill="#7DDEEA"/>
<path d="M77.0835 188.815L73.9879 227.752L64.1383 228.889C65.2639 215.01 67.5997 187.365 67.9374 187.82C68.3595 188.389 69.9073 187.252 69.7666 186.825C69.6541 186.484 68.5003 186.304 67.9374 186.257L68.9224 170.199H72.4401V168.636H75.6764V170.909L78.772 171.336L77.0835 187.252H75.6764V188.389L77.0835 188.815Z" fill="#7DDEEA"/>
<path d="M57.6656 186.825L54.8514 228.889C54.8514 228.207 48.4726 225.289 45.2832 223.916L48.3788 185.831C49.9548 185.49 50.0673 184.552 49.9266 184.125H48.6602L49.9266 168.636H53.1629V167.215H56.2585V169.346H59.2134L58.0878 185.546H56.2585C56.2585 186.115 57.1966 186.636 57.6656 186.825Z" fill="#7DDEEA"/>
<path d="M267.604 139.219V192.083L269.996 193.647L277.735 156.983L276.328 156.699V154.851L283.504 156.699V157.693H282.379L274.499 195.92L279.283 198.169C281 196.756 282.701 195.467 284.208 194.385V180.573H280.831V176.736L292.088 175.883V178.299C297.153 178.299 301.046 179.815 302.359 180.573V139.93C301.937 134.814 298.025 124.44 285.756 123.872C273.486 123.303 268.542 133.867 267.604 139.219Z" fill="#7DDEEA"/>
<path d="M209.772 168.494L211.883 188.957C212.024 187.394 213.544 184.751 218.496 186.683C223.449 188.616 229.941 186.825 232.567 185.689L217.793 157.551L216.386 158.262L215.401 156.557L222.577 153.146L223.14 154.283L221.592 155.704L237.211 184.268C238.674 183.131 243.637 181.52 245.935 180.857L244.106 164.515H243.261V161.814H244.106L243.261 155.135C241.573 150.209 235.072 140.868 222.577 142.914C210.082 144.961 208.834 158.546 209.772 165.083H210.757V168.067L209.772 168.494Z" fill="#7DDEEA"/>
<path d="M268.992 406.655C270.634 402.138 276.954 403.214 279.909 404.316C278.53 405.929 279.006 408.376 279.417 409.398C280.73 410.527 281.14 408.51 282.372 409.398C283.357 410.108 282.727 412.866 282.289 414.157C281.496 413.216 279.712 411.576 278.924 412.543C278.136 413.511 278.924 414.506 279.417 414.883C277.578 417.077 275.094 416.388 274.081 415.77C273.622 415.318 272.85 415.582 272.522 415.77C272.128 416.48 273.397 417.087 274.081 417.302C270.141 417.044 268.226 413.753 267.761 412.14C266.054 411.108 265.463 409.72 265.381 409.156C268.007 408.575 268.883 407.247 268.992 406.655Z" fill="#033656" fill-opacity="0.5"/>
<path d="M287.395 413.78C289.036 409.263 295.357 410.338 298.311 411.44C296.932 413.054 297.409 415.5 297.819 416.522C299.132 417.651 299.543 415.635 300.774 416.522C301.759 417.232 301.13 419.99 300.692 421.281C299.898 420.34 298.114 418.7 297.326 419.668C296.538 420.636 297.326 421.631 297.819 422.007C295.98 424.201 293.496 423.513 292.484 422.894C292.024 422.442 291.252 422.706 290.924 422.894C290.53 423.604 291.8 424.212 292.484 424.427C288.544 424.169 286.628 420.878 286.163 419.264C284.456 418.232 283.865 416.845 283.783 416.28C286.41 415.699 287.285 414.371 287.395 413.78Z" fill="#033656" fill-opacity="0.5"/>
<path d="M285.324 402.07C286.158 399.763 289.372 400.312 290.875 400.875C290.173 401.699 290.415 402.948 290.624 403.47C291.292 404.047 291.501 403.017 292.127 403.47C292.628 403.833 292.308 405.241 292.085 405.9C291.681 405.42 290.774 404.582 290.374 405.076C289.973 405.571 290.374 406.079 290.624 406.271C289.689 407.391 288.426 407.04 287.911 406.724C287.678 406.493 287.285 406.628 287.118 406.724C286.918 407.086 287.563 407.397 287.911 407.507C285.908 407.375 284.934 405.694 284.698 404.87C283.829 404.343 283.529 403.635 283.487 403.346C284.823 403.05 285.268 402.372 285.324 402.07Z" fill="#033656" fill-opacity="0.5"/>
<path d="M301.65 409.194C302.485 406.887 305.698 407.437 307.201 407.999C306.5 408.823 306.742 410.073 306.95 410.594C307.618 411.171 307.827 410.141 308.453 410.594C308.954 410.957 308.634 412.365 308.411 413.024C308.008 412.544 307.101 411.706 306.7 412.201C306.299 412.695 306.7 413.203 306.95 413.395C306.015 414.516 304.752 414.164 304.237 413.848C304.004 413.618 303.611 413.752 303.444 413.848C303.244 414.211 303.89 414.521 304.237 414.631C302.234 414.499 301.26 412.819 301.024 411.995C300.156 411.468 299.855 410.759 299.813 410.471C301.149 410.174 301.594 409.496 301.65 409.194Z" fill="#033656" fill-opacity="0.5"/>
<path d="M296.226 404.108C296.755 402.667 298.79 403.01 299.742 403.362C299.298 403.877 299.451 404.658 299.583 404.984C300.006 405.344 300.138 404.701 300.535 404.984C300.852 405.21 300.649 406.091 300.508 406.503C300.253 406.202 299.678 405.679 299.425 405.988C299.171 406.297 299.425 406.614 299.583 406.734C298.991 407.434 298.191 407.215 297.865 407.017C297.717 406.873 297.468 406.957 297.363 407.017C297.236 407.244 297.645 407.438 297.865 407.507C296.596 407.424 295.979 406.374 295.83 405.859C295.28 405.529 295.089 405.087 295.063 404.907C295.909 404.721 296.191 404.297 296.226 404.108Z" fill="#033656" fill-opacity="0.5"/>
<path fill-rule="evenodd" clip-rule="evenodd" d="M154.731 106.341C152.411 105.931 147.145 106.523 144.647 112.168C141.526 119.225 139.558 125.204 140.296 128.647C140.886 131.402 142.762 134.941 143.626 136.366C145.145 138.631 148.454 143.405 149.529 144.388C150.603 145.372 151.187 145.845 151.345 145.959C149.869 144.369 146.797 140.306 146.312 136.764C145.828 133.222 145.757 131.845 145.782 131.599C145.827 133.119 146.532 136.93 148.999 140.018C151.466 143.106 155.438 146.388 157.115 147.643C163.245 158.931 176.561 182.735 180.784 187.639C185.007 192.543 188.27 195.812 189.373 196.834C190.288 197.609 192.919 199.214 196.128 199.426C199.336 199.637 202.85 198.896 204.206 198.498C206.262 197.269 210.805 194.469 212.531 193.106C214.688 191.404 219.38 189.398 220.496 189.398C220.713 189.398 220.959 189.361 221.21 189.323C222.253 189.166 223.387 188.995 222.899 191.404C222.594 192.907 221.878 194.368 221.21 195.73C220.55 197.076 219.937 198.326 219.815 199.426C219.618 201.196 220.666 203.935 221.215 205.082C221.127 207.302 221.537 212.196 223.883 214.013C226.815 216.283 228.953 216.453 231.583 216.132C234.213 215.81 240.626 213.615 243.71 210.115C246.177 207.315 247.034 205.732 247.154 205.291C247.683 205.221 249 204.651 250.029 202.926C251.316 200.769 252.413 195.717 252.508 194.336C252.523 194.113 252.512 193.775 252.499 193.361C252.429 191.214 252.292 186.984 255.384 185.652C258.335 184.381 261.104 184.782 262.119 185.141C262.92 185.393 264.635 186.31 265.089 187.96C265.657 190.022 265.506 192.596 265.089 193.466C264.673 194.336 267.284 191.498 266.83 188.887C266.376 186.276 266.168 185.236 265.089 183.855C264.765 183.439 264.437 182.783 264.067 182.044C263.207 180.326 262.12 178.153 260.322 177.479C258.263 176.707 255.478 177.157 254.343 177.479C253.435 178.015 251.301 179.878 250.029 183.041C248.758 186.204 248.037 190.413 247.835 192.123C246.996 194.778 244.906 200.459 243.256 201.942C241.194 203.796 238.772 205.896 236.88 205.593C234.988 205.291 231.583 204.723 231.583 201.28C231.583 198.525 232.239 196.159 232.567 195.32C233.967 193.447 236.88 189.353 237.334 187.96C237.902 186.22 238.205 181.528 237.334 180.411C237.238 180.287 237.136 180.15 237.026 180.002C236.151 178.823 234.808 177.012 231.999 176.457C230.651 176.191 228.968 176.224 227.222 176.259C224.876 176.305 222.416 176.354 220.496 175.681C217.817 174.743 217.072 170.308 217.034 168.208C217.034 167.737 217.351 166.683 217.772 165.285C218.602 162.53 219.834 158.438 219.834 154.832C219.834 146.488 216 141.528 214.12 139.564C213.963 139.4 213.813 139.237 213.662 139.073C212.195 137.479 210.704 135.86 203.052 133.51C198.544 132.125 196.12 132.36 193.949 132.571C192.056 132.755 190.355 132.92 187.633 131.977C181.786 129.953 179.081 126.074 178.116 124.144C177.812 123.537 177.294 122.28 176.677 120.787C175.334 117.534 173.528 113.16 172.478 111.941C172.176 111.591 171.916 111.269 171.672 110.967C170.68 109.739 169.947 108.831 167.654 107.571C164.797 106 161.751 104.846 159.405 105.017C157.528 105.153 155.507 105.956 154.731 106.341ZM217.556 153.771C216.75 150.568 214.346 144.555 210.147 142.534C209.47 142.209 208.856 141.908 208.29 141.632C204.222 139.642 202.655 138.876 198.303 138.694C196.674 138.625 194.805 139.019 192.913 139.417C189.047 140.231 185.081 141.067 182.846 138.031C180.182 134.414 178.583 131.353 178.116 130.274C179.396 132.343 182.642 136.59 185.381 137.029C187.289 137.334 189.584 137.035 192.078 136.71C194.06 136.452 196.167 136.177 198.303 136.177L198.398 136.177C201.575 136.177 206.219 136.176 210.715 139.867C214.182 142.713 216.638 150.014 217.556 153.771ZM182.468 188.622C183.496 189.966 186.021 192.997 187.897 194.374C188.226 194.615 188.548 194.862 188.869 195.108C190.838 196.619 192.776 198.106 196.128 198.139C196.193 198.14 196.258 198.14 196.322 198.141L196.434 198.142C196.59 198.144 196.743 198.146 196.893 198.147C200.291 198.187 202.161 198.209 205.001 196.834C206.276 196.216 207.622 194.735 209.005 193.213C210.924 191.1 212.916 188.908 214.896 188.831C217.62 188.725 218.831 188.786 219.096 188.831C218.005 188.452 215.444 187.809 213.931 188.263C212.039 188.831 208.217 191.366 205.398 193.787C202.579 196.209 194.368 196.531 190.527 194.374C187.455 192.648 183.874 189.821 182.468 188.622ZM225.075 213.35C223.258 212.276 222.628 208.765 222.539 207.145C222.659 207.428 223.096 208.34 223.883 209.718C224.866 211.439 226.361 212.726 229.426 213.71C231.878 214.497 235.014 213.798 236.275 213.35C235.751 213.571 234.277 214.122 232.567 214.561C230.429 215.11 227.345 214.694 225.075 213.35ZM220.042 176.457C222.155 176.798 226.902 177.43 228.991 177.233C231.602 176.987 234.307 177.914 235.064 179.636C235.821 181.357 236.388 182.814 236.18 185.387C236.014 187.446 234.635 190.029 233.967 191.063C234.768 189.14 236.218 184.884 235.613 183.249C235.535 183.041 235.463 182.842 235.394 182.653L235.393 182.65L235.392 182.648C234.787 180.988 234.44 180.035 233.286 179.068C232.339 178.275 229.785 178.044 227.461 177.835C226.626 177.76 225.821 177.687 225.131 177.592C223.043 177.305 220.944 176.716 220.042 176.457ZM248.554 191.063C248.964 188.925 250.056 184.244 251.146 182.625C251.34 182.336 251.526 182.053 251.708 181.776L251.709 181.775L251.709 181.774C252.801 180.112 253.713 178.722 255.043 178.236C256.595 177.668 258.468 177.479 260.057 178.519C261.646 179.56 263.689 182.209 263.708 182.625C263.718 182.828 263.788 183.027 263.862 183.178C263.52 182.694 262.649 181.939 261.022 181.603C258.638 181.111 257.559 181.092 255.951 181.774C254.343 182.455 251.884 184.857 250.957 186.56C250.215 187.922 249.046 190.13 248.554 191.063ZM247.57 204.155C248.295 202.497 249.912 198.642 250.578 196.493C251.244 194.344 251.751 192.873 251.921 192.406C252.016 193.346 251.921 195.547 250.029 201.374C249.436 203.201 248.751 203.551 247.852 204.01C247.76 204.057 247.666 204.105 247.57 204.155ZM221.915 196.834C222.763 194.76 223.391 192.35 223.599 191.404C223.693 191.467 223.883 191.782 223.883 192.539C223.883 193.485 222.899 196.644 221.915 199.236C221.128 201.31 221.587 204.212 221.915 205.404C221.795 205.228 221.446 204.341 221.007 202.207C220.551 199.99 220.748 199.537 221.436 197.959C221.576 197.638 221.736 197.271 221.915 196.834Z" fill="url(#paint7_linear_39_19)"/>
<path d="M145.518 124.847C144.867 121.774 145.07 121.132 145.253 121.195C145.341 119.07 145.836 114.157 147.107 111.508C148.379 108.86 152.165 107.478 153.899 107.119C156.018 107.163 161.422 107.675 166.084 109.37C170.745 111.066 170.107 119.776 169.205 123.92C170.189 123.396 172.168 122.523 172.214 123.22C172.259 123.916 172.081 126.587 171.986 127.836C171.387 128.807 169.951 130.999 168.997 131.998C168.044 132.997 167.301 133.146 167.048 133.096C167.175 137.87 167.941 147.747 170 149.064C172.058 150.381 176.824 150.705 178.949 150.702C183.447 150.6 186.139 151.988 188.049 153.169C190.13 154.456 191.19 160.075 191.228 162.686C191.266 165.297 191.549 172.24 192.022 174.681C192.401 176.633 193.543 179.064 194.067 180.035C194.776 179.276 195.46 178.48 196.033 177.632C197.774 175.059 198.411 168.895 198.512 166.135C197.778 165.388 197.77 164.564 197.206 163.386C196.582 162.08 196.355 160.794 196.033 159.999C195.776 159.364 195.031 158.99 194.69 158.883C194.923 159.116 195.417 159.681 195.522 160.075C195.628 160.469 195.213 160.239 194.993 160.075C193.927 159.76 191.746 158.917 191.549 158.07C191.303 157.01 191.814 154.967 192.022 154.172C192.23 153.377 192.685 153.491 192.439 153.453C192.193 153.415 192.268 152.602 192.193 151.883C192.117 151.164 192.514 150.937 192.439 150.767C192.363 150.596 192.589 150.162 192.949 149.669C193.284 149.211 193.099 148.857 193.266 148.744C192.924 148.907 192.137 149.196 191.398 149.196C190.433 149.196 191.039 148.648 190.376 148.723C189.847 148.784 189.828 148.496 189.884 148.345C190.849 148.03 192.942 147.297 193.593 146.888C194.406 146.377 194.747 145.866 195.239 145.734C195.632 145.628 196.866 145.69 197.433 145.734C197.49 145.721 197.619 145.473 197.679 144.58C197.74 143.687 198.398 143.123 198.72 142.953C198.745 142.612 198.871 141.995 199.174 142.253C199.477 142.51 199.805 145.879 199.931 147.531C200.719 149.158 202.47 153.022 203.166 155.459C203.862 157.895 203.898 164.143 203.828 166.962C203.551 170.096 202.844 177.099 202.239 180.035C201.634 182.972 199.817 187.111 198.985 188.814C196.784 192.491 192.117 199.67 191.057 198.974C189.733 198.103 188.39 194.887 188.087 191.633C187.784 188.379 185.173 181.965 184.246 178.578C183.505 175.869 183.155 173.373 183.073 172.464C182.347 173.025 181.517 173.488 180.992 173.735C181.106 175.797 181.34 180.387 181.371 182.249C181.408 184.576 180.86 188.341 181.976 191.065C183.092 193.79 184.852 201.301 186.819 205.633C188.787 209.966 192.42 212.293 195.56 216.342C198.701 220.391 205.304 229.018 210.961 236.718C215.486 242.879 220.604 252.478 222.596 256.508L174.995 271.171C171.671 267.128 164.146 257.719 160.635 252.422C156.245 245.8 156.113 237.418 156.113 229.623C156.113 221.829 157.608 212.236 157.91 208.32C158.213 204.404 158.043 201.906 157.91 197.063C157.778 192.219 149.699 180.754 147.24 177.878C144.78 175.003 139.369 164.256 138.537 164.01C137.704 163.764 132.312 167.946 131.215 170.027C130.337 171.692 123.079 180.079 119.56 184.065C120.367 184.891 122.326 187.039 123.704 189.022C125.425 191.5 131.253 196.874 132.974 198.16C134.696 199.447 136.304 199.768 138.12 201.112C139.892 202.422 141.429 205.567 142.68 208.126L142.775 208.32C144.042 210.912 147.013 213.22 147.448 213.447C147.883 213.674 149.453 218.48 149.567 218.801C149.68 219.123 149.472 219.804 149.321 220.239C149.169 220.674 148.45 224.288 147.599 225.329C146.918 226.161 147.038 225.499 147.183 225.064C147.069 224.528 146.846 223.263 146.861 222.491C146.88 221.526 147.75 220.088 147.75 219.142C147.75 218.385 146.918 216.834 146.502 216.153L145.613 214.696C145.48 214.772 145.2 215.097 145.14 215.793C145.079 216.489 144.648 218.53 144.44 219.464C144.32 219.577 143.948 219.827 143.418 219.918C142.888 220.009 142.403 219.88 142.226 219.804C142.094 219.855 141.673 219.982 141.053 220.088C140.432 220.194 139.798 219.943 139.558 219.804C139.495 219.836 139.286 219.937 138.953 220.088C138.62 220.239 137.25 220.151 136.607 220.088C136.285 219.848 136.293 218.503 136.096 217.685C135.899 216.868 136.948 216.443 137.182 216.626C136.69 215.008 135.886 213.201 135.642 212.747C134.545 211.435 132.202 208.604 131.612 207.771C130.874 206.731 131.026 205.331 130.799 204.082C130.571 202.833 127.734 201.32 126.333 200.374C124.933 199.428 121.812 198.198 119.201 196.987C117.112 196.018 113.474 192.938 111.917 191.519C110.655 190.416 108.133 187.985 108.133 187.092C108.133 185.976 109.703 182.249 111.917 178.37C114.13 174.492 118.652 168.608 122.493 165.354C126.333 162.099 128.32 157.842 129.266 156.348C130.212 154.853 133.996 149.688 134.45 149.007C134.904 148.326 138.31 147.134 140.447 147.853C142.158 148.428 147.025 148.471 149.245 148.421C151.213 147.897 155.364 146.801 156.226 146.604C157.089 146.407 156.926 142.6 156.737 140.72C156.548 140.865 155.867 141.171 154.656 141.231C153.143 141.307 149.396 137.107 147.694 133.928C145.991 130.75 146.332 128.687 145.518 124.847Z" fill="#FFECE3"/>
<path d="M156.737 140.72C156.548 140.865 155.867 141.171 154.656 141.231C153.143 141.307 149.396 137.107 147.694 133.928C145.991 130.75 146.332 128.687 145.518 124.847C144.867 121.774 145.07 121.132 145.253 121.195C145.341 119.07 145.836 114.157 147.107 111.508C148.379 108.86 152.165 107.478 153.899 107.119C156.018 107.163 161.422 107.675 166.084 109.37C170.745 111.066 170.107 119.776 169.205 123.92C170.189 123.396 172.168 122.523 172.214 123.22C172.259 123.916 172.081 126.587 171.986 127.836C171.387 128.807 169.951 130.999 168.997 131.998C168.044 132.997 167.301 133.146 167.048 133.096C167.175 137.87 167.941 147.747 170 149.064C172.058 150.381 176.824 150.705 178.949 150.702M156.737 140.72C156.926 142.6 157.089 146.407 156.226 146.604C155.364 146.801 151.213 147.897 149.245 148.421M156.737 140.72C159.045 139.535 163.847 136.914 164.589 135.915C165.331 134.916 166.134 133.897 166.443 133.512M149.245 148.421C147.025 148.471 142.158 148.428 140.447 147.853C138.31 147.134 134.904 148.326 134.45 149.007C133.996 149.688 130.212 154.853 129.266 156.348C128.32 157.842 126.333 162.099 122.493 165.354C118.652 168.608 114.13 174.492 111.917 178.37C109.703 182.249 108.133 185.976 108.133 187.092C108.133 187.985 110.655 190.416 111.917 191.519C113.474 192.938 117.112 196.018 119.201 196.987C121.812 198.198 124.933 199.428 126.333 200.374C127.734 201.32 130.571 202.833 130.799 204.082C131.026 205.331 130.874 206.731 131.612 207.771C132.202 208.604 134.545 211.435 135.642 212.747C136.014 213.441 137.693 217.288 137.572 218.801C137.451 220.315 137.383 216.872 137.182 216.626C136.948 216.443 135.899 216.868 136.096 217.685C136.293 218.503 136.285 219.848 136.607 220.088C137.25 220.151 138.62 220.239 138.953 220.088C139.286 219.937 139.495 219.836 139.558 219.804M149.245 148.421C151.427 149.001 156.204 150.135 157.854 150.029C159.916 149.896 161.297 151.826 162.621 151.977M139.558 219.804C139.798 219.943 140.432 220.194 141.053 220.088C141.673 219.982 142.094 219.855 142.226 219.804M139.558 219.804C139.785 219.571 140.3 218.82 140.542 217.685C140.845 216.266 141.45 214.147 141.696 213.92C141.893 213.739 142.018 213.529 142.056 213.447M142.226 219.804C142.403 219.88 142.888 220.009 143.418 219.918C143.948 219.827 144.32 219.577 144.44 219.464C144.648 218.53 145.079 216.489 145.14 215.793C145.2 215.097 145.48 214.772 145.613 214.696L146.502 216.153C146.918 216.834 147.75 218.385 147.75 219.142C147.75 220.088 146.88 221.526 146.861 222.491C146.846 223.263 147.069 224.528 147.183 225.064C147.038 225.499 146.918 226.161 147.599 225.329C148.45 224.288 149.169 220.674 149.321 220.239C149.472 219.804 149.68 219.123 149.567 218.801C149.453 218.48 147.883 213.674 147.448 213.447C147.013 213.22 144.042 210.912 142.775 208.32C141.507 205.728 139.937 202.455 138.12 201.112C136.304 199.768 134.696 199.447 132.974 198.16C131.253 196.874 125.425 191.5 123.704 189.022C122.326 187.039 120.367 184.891 119.56 184.065M142.226 219.804C142.466 219.577 142.975 218.836 143.096 217.685C143.248 216.247 143.91 213.958 144.175 213.788M119.56 184.065C123.079 180.079 130.337 171.692 131.215 170.027C132.312 167.946 137.704 163.764 138.537 164.01M119.56 184.065C119.302 183.636 118.433 182.536 117.025 181.568C115.617 180.599 114.458 180.256 114.055 180.205M138.537 164.01C139.369 164.256 144.78 175.003 147.24 177.878C149.699 180.754 157.778 192.219 157.91 197.063C158.043 201.906 158.213 204.404 157.91 208.32C157.608 212.236 156.113 221.829 156.113 229.623C156.113 237.418 156.245 245.8 160.635 252.422C164.146 257.719 171.671 267.128 174.995 271.171L222.596 256.508C220.604 252.478 215.486 242.879 210.961 236.718C205.304 229.018 198.701 220.391 195.56 216.342C192.42 212.293 188.787 209.966 186.819 205.633C184.852 201.301 183.092 193.79 181.976 191.065C180.86 188.341 181.408 184.576 181.371 182.249C181.34 180.387 181.106 175.797 180.992 173.735M138.537 164.01C139.218 163.733 140.803 163.204 141.696 163.31M180.992 173.735C181.517 173.488 182.347 173.025 183.073 172.464M180.992 173.735C180.898 173.792 180.322 173.936 178.779 174.057C177.235 174.178 175.436 173.401 174.73 172.997M179.592 157.748C179.542 158.454 179.967 160.646 182.071 163.764C184.7 167.662 184.984 169.308 184.473 170.821C184.281 171.391 183.718 171.966 183.073 172.464M183.073 172.464C183.155 173.373 183.505 175.869 184.246 178.578C185.173 181.965 187.784 188.379 188.087 191.633C188.39 194.887 189.733 198.103 191.057 198.974C192.117 199.67 196.784 192.491 198.985 188.814C199.817 187.111 201.634 182.972 202.239 180.035C202.844 177.099 203.551 170.096 203.828 166.962C203.898 164.143 203.862 157.895 203.166 155.459C202.47 153.022 200.719 149.158 199.931 147.531C199.805 145.879 199.477 142.51 199.174 142.253C198.871 141.995 198.745 142.612 198.72 142.953C198.398 143.123 197.74 143.687 197.679 144.58C197.619 145.473 197.49 145.721 197.433 145.734M197.433 145.734C196.866 145.69 195.632 145.628 195.239 145.734C194.747 145.866 194.406 146.377 193.593 146.888C192.942 147.297 190.849 148.03 189.884 148.345C189.828 148.496 189.847 148.784 190.376 148.723C191.039 148.648 190.433 149.196 191.398 149.196C192.17 149.196 192.994 148.881 193.309 148.723M197.433 145.734C198.096 146.661 199.522 148.583 199.931 148.856M193.309 148.723C193.069 148.805 193.309 149.177 192.949 149.669C192.589 150.162 192.363 150.596 192.439 150.767M193.309 148.723C193.448 148.446 193.876 147.887 194.482 147.872C195.239 147.853 198.228 151.069 198.985 151.504C199.649 151.886 200.24 152.066 200.442 152.129M192.439 150.767C192.514 150.937 192.117 151.164 192.193 151.883C192.268 152.602 192.193 153.415 192.439 153.453M192.439 150.767C192.558 150.552 192.934 150.172 193.479 150.369C194.16 150.615 195.977 152.148 197.377 152.904C198.497 153.51 199.546 154.002 199.931 154.172M192.439 153.453C192.685 153.491 192.23 153.377 192.022 154.172C191.814 154.967 191.303 157.01 191.549 158.07C191.746 158.917 193.927 159.76 194.993 160.075C195.213 160.239 195.628 160.469 195.522 160.075C195.417 159.681 194.923 159.116 194.69 158.883M192.439 153.453C192.678 153.403 193.279 153.389 193.763 153.737C194.368 154.172 197.225 156.953 197.963 157.351C198.553 157.668 198.89 157.773 198.985 157.786M194.69 158.883C195.031 158.99 195.776 159.364 196.033 159.999C196.355 160.794 196.582 162.08 197.206 163.386C197.77 164.564 197.778 165.388 198.512 166.135M194.69 158.883C194.154 158.492 193.04 157.638 192.874 157.351M201.104 167.283C200.662 167.252 199.579 167.026 198.777 166.375C198.679 166.296 198.591 166.216 198.512 166.135M198.512 166.135C198.411 168.895 197.774 175.059 196.033 177.632C195.46 178.48 194.776 179.276 194.067 180.035M188.92 189.476C188.901 189.129 188.984 187.925 189.468 185.881C189.914 184 192.085 182.16 194.067 180.035M194.067 180.035C193.543 179.064 192.401 176.633 192.022 174.681C191.549 172.24 191.266 165.297 191.228 162.686C191.19 160.075 190.13 154.456 188.049 153.169C186.139 151.988 183.447 150.6 178.949 150.702M166.273 151.599C166.84 151.599 167.824 150.767 169.262 150.369C170.7 149.972 172.441 151.183 177.7 150.767C178.131 150.732 178.547 150.711 178.949 150.702M145.026 164.01C145.789 163.708 147.701 163.874 149.245 166.962C151.175 170.821 152.518 171.837 153.994 172.464M165.913 169.667C166.292 169.003 167.048 167.366 167.048 166.135M173.727 199.638C173.601 200.401 173.424 202.09 173.727 202.741C174.03 203.392 174.522 203.971 174.73 204.179L174.238 201.795" stroke="#EDD1BF" stroke-width="0.6"/>
<path d="M144.651 112.168C147.149 106.523 152.414 105.931 154.735 106.341C155.511 105.956 157.532 105.153 159.408 105.017C161.754 104.846 164.801 106 167.657 107.571C170.514 109.141 170.949 110.163 172.482 111.941C174.014 113.72 177.155 122.215 178.12 124.144L171.366 121.969L170.363 123.482C169.726 124.132 168.293 125.431 167.657 125.431C166.863 125.431 165.765 124.693 160.998 121.401C157.184 118.767 154.46 115.79 153.559 114.195C153.218 116.251 152.874 120.289 154.357 123.482C156.211 127.474 159.068 133.207 162.284 136.764C165.501 140.321 167.673 142.328 169.602 143.442L170.363 144.142L168.452 143.442C167.178 142.723 164.241 140.892 162.682 139.318C160.733 137.35 152.442 126.303 151.614 120.871C150.951 116.53 150.506 115.551 150.985 114.195C148.993 116.484 147.675 117.541 145.461 124.144C144.681 126.471 145.622 130.003 145.786 131.599C145.761 131.845 145.832 133.222 146.316 136.764C146.8 140.306 149.873 144.369 151.349 145.959C151.191 145.845 150.607 145.372 149.532 144.388C148.458 143.405 145.149 138.631 143.63 136.366C142.766 134.941 140.89 131.402 140.3 128.647C139.562 125.204 141.529 119.225 144.651 112.168Z" fill="url(#paint8_linear_39_19)"/>
<path d="M156.944 217.193C157.726 217.9 160.414 219.369 162.109 219.823C163.695 220.248 162.889 218.676 162.179 217.676C162.125 217.604 162.076 217.538 162.034 217.477C162.081 217.54 162.13 217.607 162.179 217.676C162.778 218.472 164.038 219.898 165.288 220.523C166.65 221.204 168.693 221.803 169.545 222.018C171.235 222.087 175.213 222.51 177.604 223.645C179.996 224.78 181.25 225.77 181.578 226.123C181.716 225.253 182.49 223.213 184.472 222.018C186.951 220.523 188.105 218.669 188.237 218.328C188.343 218.056 188.609 216.575 188.729 215.869C188.66 216.411 188.631 217.549 189.07 217.761C189.509 217.973 190.892 216.045 191.529 215.055L192.021 212.142C198.397 218.745 211.168 235.7 215.557 242.905C221.044 251.911 230.106 267.236 229.425 278.455C228.88 287.43 224.065 296.599 221.725 300.061C219.158 302.905 213.306 308.885 210.43 310.051C206.835 311.507 195.729 312.51 190.829 311.735C185.929 310.959 175.012 306.305 165.099 303.183C157.168 300.685 142.477 294.202 134.525 292.38C125.834 291.818 108.487 292.202 108.624 298.226C108.794 305.756 112.729 311.526 115.491 313.399C118.254 315.272 128.849 319.492 131.687 320.456C134.525 321.421 137.902 323.578 137.968 326.303C138.013 328.179 137.697 329.62 137.533 330.105C137.779 328.491 137.797 325.413 136.398 324.127C134.785 322.644 125.386 321.8 123.267 321.97C121.572 322.106 120.265 322.38 119.824 322.5C121.609 322.317 125.685 322.386 127.714 324.127C130.249 326.303 136.398 329.027 136.398 337.995C136.398 346.963 128.565 354.814 126.578 354.985C125.526 355.075 124.077 355.071 122.915 355.041C122.349 355.065 121.846 355.038 121.451 354.985C121.804 355.004 122.322 355.026 122.915 355.041C124.945 354.953 127.781 354.207 129.284 351.674C131.687 347.625 131.46 343.292 129.284 340.644C127.108 337.995 124.289 334.362 118.197 333.587C112.105 332.811 102.04 334.684 99.3341 334.135C97.1697 333.696 94.0555 332.262 92.769 331.6C92.769 332.187 93.0225 333.624 94.0366 334.684C95.3042 336.008 97.9563 336.515 100.129 336.671C101.983 336.803 103.295 335.964 103.799 335.762C102.569 336.822 102.55 337.257 98.4071 338.298C94.1562 339.365 89.7229 336.349 87.358 333.227C84.993 330.105 82.7227 320.381 84.8228 310.807C86.5028 303.149 91.2239 296.214 93.3744 293.704C89.3571 295.319 80.335 299.702 76.3846 304.318C72.4342 308.934 71.2448 317.682 71.1439 321.478C68.7537 317.644 63.7198 308.42 62.7057 302.199C61.4381 294.423 61.7598 283.771 63.5571 276.412C64.995 270.524 68.0411 262.354 69.3843 259.006C66.7734 261.516 61.0711 268.836 59.1488 278.039C57.2266 287.241 57.8686 297.223 58.4299 301.064C56.519 296.977 52.8789 287.06 53.6054 280.082C54.5136 271.36 61.6084 256.754 67.3411 251.703C71.9272 247.661 82.2308 242.514 86.8093 240.445C82.9056 241.366 73.8835 243.968 69.0249 247.011C62.9517 250.813 57.8434 253.027 55.7244 257.549C54.0292 261.166 53.2018 264.316 53 265.438C53.063 261.547 56.0605 252.293 60.0192 248.657C67.4546 241.827 72.2602 241.303 75.836 239.84C79.8911 239.14 88.6408 237.763 91.1987 237.853C93.7566 237.944 95.0394 238.244 95.361 238.383C94.5727 236.744 91.6603 233.68 86.3174 234.543C80.9745 235.405 77.9487 236.87 77.1036 237.494C79.0712 235.407 84.1757 231.303 88.8526 231.591C93.5296 231.879 98.6341 235.243 100.602 236.889C101.794 238.232 104.476 242.137 105.672 247.011C107.167 253.103 107.167 276.166 113.618 273.214C118.78 270.853 123.349 269.619 124.989 269.298C128.414 267.91 137.393 265.355 145.914 266.233C156.566 267.33 171.058 269.563 177.188 275.636C172.288 269.632 161.89 256.429 159.498 251.646C156.509 245.667 155.496 236.732 155.828 227.713C156.093 220.523 156.73 217.736 156.944 217.193Z" fill="url(#paint9_linear_39_19)"/>
<path d="M134.525 292.38C142.477 294.202 157.168 300.685 165.099 303.183C175.012 306.305 185.929 310.959 190.829 311.735C195.729 312.51 206.835 311.507 210.43 310.051C213.306 308.885 219.158 302.905 221.725 300.061C224.065 296.599 228.88 287.43 229.425 278.455C230.106 267.236 221.044 251.911 215.557 242.905C211.168 235.7 198.397 218.745 192.021 212.142L191.529 215.055C190.892 216.045 189.509 217.973 189.07 217.761C188.631 217.549 188.66 216.411 188.729 215.869C188.609 216.575 188.343 218.056 188.237 218.328C188.105 218.669 186.951 220.523 184.472 222.018C182.49 223.213 181.716 225.253 181.578 226.123C181.25 225.77 179.996 224.78 177.604 223.645C175.213 222.51 171.235 222.087 169.545 222.018C168.693 221.803 166.65 221.204 165.288 220.523C163.926 219.842 162.551 218.209 162.034 217.477C162.765 218.448 163.805 220.277 162.109 219.823C160.414 219.369 157.726 217.9 156.944 217.193C156.73 217.736 156.093 220.523 155.828 227.713C155.496 236.732 156.509 245.667 159.498 251.646C161.89 256.429 172.288 269.632 177.188 275.636M134.525 292.38C125.834 291.818 108.487 292.202 108.624 298.226C108.794 305.756 112.729 311.526 115.491 313.399C118.254 315.272 128.849 319.492 131.687 320.456C134.525 321.421 137.902 323.578 137.968 326.303C138.013 328.179 137.697 329.62 137.533 330.105C137.779 328.491 137.797 325.413 136.398 324.127C134.785 322.644 125.386 321.8 123.267 321.97C121.572 322.106 120.265 322.38 119.824 322.5C121.609 322.317 125.685 322.386 127.714 324.127C130.249 326.303 136.398 329.027 136.398 337.995C136.398 346.963 128.565 354.814 126.578 354.985C124.989 355.121 122.498 355.041 121.451 354.985C123.261 355.231 127.362 354.913 129.284 351.674C131.687 347.625 131.46 343.292 129.284 340.644C127.108 337.995 124.289 334.362 118.197 333.587C112.105 332.811 102.04 334.684 99.3341 334.135C97.1697 333.696 94.0555 332.262 92.769 331.6C92.769 332.187 93.0225 333.625 94.0366 334.684C95.3042 336.008 97.9563 336.515 100.129 336.671C101.983 336.803 103.295 335.964 103.799 335.762C102.569 336.822 102.55 337.257 98.407 338.298C94.1562 339.365 89.7229 336.349 87.358 333.227C84.993 330.105 82.7227 320.381 84.8228 310.807C86.5028 303.149 91.2239 296.214 93.3744 293.704C89.3571 295.319 80.335 299.702 76.3846 304.318C72.4342 308.934 71.2448 317.682 71.1439 321.478C68.7537 317.644 63.7198 308.42 62.7057 302.199C61.4381 294.423 61.7598 283.771 63.5571 276.412C64.995 270.524 68.0411 262.354 69.3843 259.006C66.7734 261.516 61.0711 268.836 59.1488 278.039C57.2266 287.241 57.8686 297.223 58.4299 301.064C56.519 296.977 52.8789 287.06 53.6054 280.082C54.5136 271.36 61.6084 256.754 67.3411 251.703C71.9272 247.661 82.2308 242.514 86.8093 240.445C82.9056 241.366 73.8835 243.968 69.0249 247.011C62.9517 250.813 57.8434 253.027 55.7244 257.549C54.0292 261.166 53.2018 264.316 53 265.438C53.063 261.547 56.0605 252.293 60.0192 248.657C67.4546 241.827 72.2602 241.303 75.836 239.84C79.8911 239.14 88.6407 237.763 91.1987 237.853C93.7566 237.944 95.0394 238.244 95.361 238.383C94.5727 236.744 91.6603 233.68 86.3174 234.543C80.9745 235.405 77.9487 236.87 77.1036 237.494C79.0712 235.407 84.1757 231.303 88.8526 231.591C93.5296 231.879 98.6341 235.243 100.602 236.889C101.794 238.232 104.476 242.137 105.672 247.011C107.167 253.103 107.167 276.166 113.618 273.214C118.78 270.853 123.349 269.619 124.989 269.298M134.525 292.38L128.603 290.393C124.945 289.498 121.962 288.219 114.716 288.917C107.261 289.636 104.329 292.38 102.702 292.928C101.075 293.477 101.359 292.928 102.702 289.674C103.776 287.071 109.948 280.996 112.899 278.285M124.989 269.298C122.485 270.805 116.956 274.315 114.867 276.298M124.989 269.298C128.414 267.91 137.393 265.355 145.914 266.233C156.566 267.33 171.058 269.563 177.188 275.636M177.188 275.636C182.092 280.494 186.572 291.686 188.199 296.675" stroke="#A94745" stroke-width="0.5"/>
<path d="M158.837 126.758C158.126 126.727 157.273 126.613 157.021 126.341L156.643 126.682L157.267 126.758L157.021 127.306L157.664 126.928V127.42L158.44 127.136L158.667 127.42L159.537 127.231L159.802 127.306L160.181 127.136H160.502L160.786 126.852L161.108 127.004L161.467 126.625L161.978 127.004V126.474L162.697 126.625L161.978 126.152C161.215 126.449 159.549 126.788 158.837 126.758Z" fill="#D0A8A8"/>
<path d="M169.035 126.228C169.489 125.856 170.499 125.112 170.908 125.112C171.316 125.112 171.078 126.713 170.908 127.514C170.712 128.082 170.064 129.41 169.035 130.182C168.006 130.954 167.471 131.475 167.332 131.639" stroke="#EDD1BF" stroke-width="0.5"/>
<path d="M149.283 127.268C148.248 127.437 147.87 127.174 147.788 126.909L147.523 127.817L147.959 127.59L147.902 127.931L148.28 127.779L148.545 128.006L148.81 127.817L148.942 127.931L149.68 127.647L149.888 128.006L150.551 127.476L150.778 127.817L151.024 127.268H151.44V126.701C151.232 126.783 150.097 127.136 149.283 127.268Z" fill="#D0A8A8"/>
<path d="M155.922 122.626C156.04 122.517 156.681 122.365 158.304 122.626C159.928 122.888 161.529 122.967 162.128 122.974" stroke="#D0A8A8" stroke-width="0.5"/>
<path d="M150.512 122.823C150.475 122.741 150.165 122.655 149.216 122.966C148.268 123.277 147.314 123.504 146.955 123.579" stroke="#D0A8A8" stroke-width="0.5"/>
<path d="M152.876 130.504C152.87 130.668 152.762 131.139 152.384 131.714C152.006 132.29 152.554 133.014 152.876 133.304" stroke="#D0A8A8" stroke-width="0.5"/>
<path d="M152.102 136.312C152.171 136.224 152.639 136.1 153.956 136.312C155.272 136.524 156.295 136.602 156.642 136.615" stroke="#D0A8A8" stroke-width="0.5"/>
<g opacity="0.66">
<path d="M167.606 159.233C166.915 159.319 166.461 160.047 166.321 160.4C166.286 160.361 166.195 160.26 166.105 160.17C165.993 160.058 165.714 159.901 165.461 159.8C165.208 159.7 165.021 159.698 164.515 159.73C164.01 159.762 163.195 160.439 163.019 161.555C162.844 162.672 163.249 163.349 163.575 163.847C163.835 164.245 164.923 165.077 165.435 165.443C165.946 165.822 167.006 166.596 167.152 166.668C167.335 166.758 167.505 166.748 167.87 166.232C168.236 165.715 169.793 163.525 170.114 162.594C170.436 161.664 169.883 160.514 169.526 159.996C169.169 159.478 168.469 159.124 167.606 159.233Z" fill="#ED4956"/>
<path d="M167.386 160.211C166.875 160.276 166.539 160.814 166.435 161.075C166.409 161.046 166.342 160.972 166.275 160.905C166.192 160.822 165.986 160.706 165.799 160.632C165.611 160.558 165.473 160.556 165.099 160.579C164.725 160.603 164.121 161.104 163.992 161.93C163.862 162.757 164.162 163.258 164.403 163.626C164.596 163.921 165.401 164.537 165.779 164.808C166.158 165.088 166.942 165.661 167.05 165.714C167.186 165.78 167.311 165.773 167.582 165.391C167.852 165.009 169.004 163.388 169.243 162.699C169.481 162.011 169.072 161.16 168.807 160.776C168.543 160.393 168.025 160.131 167.386 160.211Z" fill="#EC7881"/>
<path d="M170.943 161.565C170.702 161.809 170.282 161.551 170.136 161.438L170.208 161.91C170.301 161.974 170.558 162.249 170.845 162.15C171.236 162.014 171.153 161.925 171.427 161.758C171.646 161.625 171.923 161.676 172.034 161.717L171.997 161.177C171.724 161.174 171.184 161.322 170.943 161.565Z" fill="url(#paint10_linear_39_19)"/>
<path d="M170.053 164.309C169.78 164.517 169.595 163.988 169.448 163.875L169.137 164.314C169.229 164.378 169.113 164.914 169.4 164.815C169.791 164.679 170.016 164.858 170.289 164.691C170.508 164.558 171.12 164.058 171.231 164.1L171.194 163.559C170.519 163.525 170.655 163.852 170.053 164.309Z" fill="url(#paint11_linear_39_19)"/>
<path d="M163.64 165.569C163.367 165.777 163.182 165.248 163.035 165.135L162.724 165.573C162.816 165.637 162.7 166.173 162.987 166.074C163.378 165.939 163.603 166.117 163.876 165.951C164.095 165.817 165.024 165.164 165.135 165.206L164.646 164.795C163.972 164.761 164.242 165.111 163.64 165.569Z" fill="url(#paint12_linear_39_19)"/>
<path d="M162.373 162.774C162.715 162.993 162.99 162.889 163.068 162.809L163.311 163.365C163.21 163.449 162.907 163.625 162.568 163.608C162.145 163.587 161.978 163.191 161.781 163.064C161.623 162.961 161.246 163.334 161.077 163.533L160.884 163.002C160.983 162.827 161.292 162.464 161.73 162.405C162.277 162.331 161.946 162.5 162.373 162.774Z" fill="url(#paint13_linear_39_19)"/>
<path d="M163.45 159.501C163.433 159.905 163.663 160.086 163.772 160.112L163.412 160.602C163.287 160.559 163.306 160.239 163.149 159.941C162.952 159.569 162.527 159.824 162.538 159.591C162.547 159.405 162.39 158.824 162.131 158.781L162.495 158.346C162.698 158.343 162.568 158.64 162.841 158.984C163.183 159.414 163.471 158.998 163.45 159.501Z" fill="url(#paint14_linear_39_19)"/>
<path d="M169.834 159.132C169.468 159.309 169.39 159.745 169.419 159.853L168.863 159.438C168.842 159.309 169.111 159.357 169.301 159.079C169.538 158.731 169.11 158.481 169.322 158.38C169.492 158.299 169.933 157.887 169.849 157.641L170.408 157.752C170.507 157.926 170.181 157.954 170.006 158.356C169.786 158.858 170.292 158.911 169.834 159.132Z" fill="url(#paint15_linear_39_19)"/>
<path d="M164.495 161.473C164.526 160.869 164.847 161.014 165.004 161.162C165.141 161.253 165.356 161.449 165.122 161.504C164.83 161.574 164.779 161.571 164.611 161.866C164.443 162.16 164.844 162.298 164.922 162.756C165.001 163.214 164.89 163.377 164.566 162.738C164.243 162.099 164.457 162.228 164.495 161.473Z" fill="#FFE6E6" fill-opacity="0.28"/>
</g>
<path d="M168.826 176.846C169.034 177.847 169.153 180.174 167.974 181.469C167.591 182.816 166.314 185.489 164.271 185.414C163.029 185.936 160.187 186.497 158.756 184.556C157.113 182.965 157.972 179.834 160.121 182.311L161.437 182.025L161.873 181.172C161.745 180.623 161.56 179.487 161.846 179.338C162.072 179.22 161.597 178.937 161.162 178.729C161.046 178.673 160.933 178.623 160.837 178.583C160.664 178.152 160.371 177.256 160.582 177.123C160.809 176.981 159.427 176.307 159.548 174.425C159.568 174.119 159.627 173.782 159.74 173.409C159.709 173.174 159.653 172.841 159.571 172.472C159.396 171.686 159.103 170.732 158.688 170.174C158.689 169.993 158.826 169.733 159.364 170.135L157.782 167.773C157.751 167.599 157.87 167.386 158.588 167.923C158.54 167.843 158.477 167.746 158.403 167.638C158.059 167.137 157.469 166.391 156.89 166.019C156.187 165.565 158.137 165.711 159.201 165.841C159.184 165.556 159.337 165.054 160.086 165.324C160.836 165.594 163.227 166.553 164.413 167.197C164.445 167.204 164.479 167.212 164.514 167.221C165.664 167.515 167.918 169.026 167.917 171.631C168.117 171.974 168.357 172.457 168.571 173.004C169.057 174.246 169.406 175.818 168.826 176.846Z" fill="#D1593E" fill-opacity="0.4"/>
<path d="M158.878 170.35C158.879 170.169 159.015 169.908 159.554 170.311L157.971 167.949C157.941 167.775 158.06 167.561 158.778 168.098C158.729 168.019 158.667 167.922 158.593 167.814C158.249 167.313 157.659 166.567 157.08 166.194C156.377 165.741 158.327 165.887 159.391 166.016C159.373 165.732 159.527 165.229 160.276 165.499C161.026 165.769 163.417 166.729 164.603 167.373C164.635 167.38 164.669 167.387 164.704 167.396C163.2 167.571 162.07 168.455 161.266 169.5C160.895 169.982 160.593 170.498 160.356 170.994C160.061 171.61 159.865 172.196 159.76 172.647C159.586 171.862 159.293 170.907 158.878 170.35Z" fill="#D1593E" fill-opacity="0.4"/>
<path d="M167.985 181.526C167.602 182.872 166.325 185.546 164.283 185.47C163.041 185.993 160.198 186.553 158.768 184.613C157.124 183.022 157.983 179.89 160.132 182.368L161.448 182.081L161.885 181.229C163.21 181.554 166.285 182.069 167.985 181.526Z" fill="#D1593E" fill-opacity="0.4"/>
<path d="M161.174 178.785C161.608 178.993 162.084 179.277 161.858 179.394C163.714 178.847 167.708 177.581 168.838 176.902L161.174 178.785Z" fill="#D1593E" fill-opacity="0.4"/>
<path d="M168.583 173.061C168.369 172.514 167.479 170.548 167.28 170.205C167.716 172.708 165.442 173.094 162.595 175.229C160.317 176.937 159.622 175.442 159.56 174.482C159.439 176.363 160.821 177.037 160.594 177.18C163.104 175.443 168.216 172.188 168.583 173.061Z" fill="#D1593E" fill-opacity="0.4"/>
<path d="M159.161 170.454C159.273 170.538 159.636 171.686 159.752 172.166L160.152 171.105C159.968 170.604 159.003 170.335 159.161 170.454Z" fill="#FFAB99" fill-opacity="0.4"/>
<path d="M159.689 170.123L160.268 170.647L161.026 169.399C160.504 168.647 158.961 168.188 158.255 168.053L159.689 170.123Z" fill="#FFAB99" fill-opacity="0.4"/>
<path d="M161.29 169.234C160.95 168.182 159.402 167.732 158.67 167.638C158.203 167.199 157.533 166.154 157.327 166.09C157.162 166.039 158.723 166.075 159.392 166.182C160.486 166.637 161.693 167.631 162.027 168.424L161.29 169.234Z" fill="#FFAB99" fill-opacity="0.4"/>
<path d="M160.697 177.265C160.486 177.398 160.856 178.07 161.028 178.502C161.125 178.542 161.256 178.565 161.372 178.62L168.748 176.843C169.328 175.816 169.008 174.326 168.522 173.085C168.155 172.212 163.207 175.529 160.697 177.265Z" fill="#FFAB99" fill-opacity="0.4"/>
<path d="M159.976 173.452C159.863 173.825 159.84 174.099 159.82 174.405C159.883 175.365 160.345 176.939 162.623 175.231C165.471 173.096 167.745 172.71 167.308 170.207C166.959 168.205 165.142 168.225 164.276 168.485C162.978 169.056 160.456 170.836 159.976 173.452Z" fill="#FFAB99" fill-opacity="0.4"/>
<path d="M166.294 171.069C165.792 172.773 163.382 173.659 161.462 174.274C160.732 174.508 160.067 175.564 160.824 175.506C164.649 173.721 166.191 172.715 166.837 171.384C167.082 171.114 166.67 169.79 166.294 171.069Z" fill="#FFD9D1" fill-opacity="0.8"/>
<path d="M168.234 175.603C167.643 176.684 165.824 176.875 164.395 176.968C163.864 177.002 163.271 177.61 163.796 177.697C166.715 177.131 167.931 176.707 168.569 175.91C168.778 175.767 168.676 174.796 168.234 175.603Z" fill="#FFD9D1" fill-opacity="0.8"/>
<path d="M162.257 180.931C162.092 180.88 162.093 179.992 162.115 179.555L167.169 177.941C167.82 177.733 168.457 178.226 168.383 178.911C168.274 179.905 168.082 180.959 167.757 181.142C167.136 181.494 162.463 180.994 162.257 180.931Z" fill="#FFAB99" fill-opacity="0.4"/>
<path d="M167.623 180.006C167.039 180.715 165.656 180.558 164.581 180.393C164.187 180.333 163.675 180.691 164.049 180.839C166.292 180.894 167.252 180.777 167.831 180.288C168.005 180.217 168.058 179.477 167.623 180.006Z" fill="#FFD9D1" fill-opacity="0.8"/>
<path d="M161.974 181.534L161.707 182.242C163.359 185.563 164.469 185.213 165.202 184.946C165.433 184.861 165.731 184.61 166.041 184.274C166.689 183.573 165.8 182.112 164.88 182.017C163.801 181.906 162.67 181.709 161.974 181.534Z" fill="#FFAB99" fill-opacity="0.4"/>
<path d="M165.787 184.152C165.023 184.858 164.303 184.736 163.61 184.149C163.38 183.954 162.893 184.114 163.161 184.242C164.506 185.106 164.574 185.065 165.07 184.758L165.072 184.757C165.219 184.721 166.166 183.802 165.787 184.152Z" fill="#FFD9D1" fill-opacity="0.8"/>
<path d="M159.545 165.933C160.505 166.07 161.776 167.541 162.291 168.258L163.968 167.244C163.181 167.019 161.631 166.41 160.915 165.96C160.148 165.477 159.734 165.711 159.545 165.933Z" fill="#FFAB99" fill-opacity="0.4"/>
<path d="M161.235 182.344L160.201 182.569L159.1 184.648C160.039 186.003 162.58 185.768 163.733 185.481C162.547 185.393 161.573 183.353 161.235 182.344Z" fill="#FFAB99" fill-opacity="0.4"/>
<path d="M158.457 182.082C158.717 181.333 159.516 181.996 159.882 182.421L158.727 184.188C158.529 183.798 158.198 182.831 158.457 182.082Z" fill="#FFAB99" fill-opacity="0.4"/>
<path d="M162.555 185.343C161.253 185.355 160.581 185.233 159.921 184.671C159.691 184.474 159.204 184.634 159.472 184.762C160.819 185.628 161.123 185.616 161.598 185.443C161.745 185.407 163.048 185.339 162.555 185.343Z" fill="#FFD9D1" fill-opacity="0.8"/>
<path d="M158.67 183.334C158.704 183.36 158.731 183.364 158.751 183.351C159.063 183.139 158.378 183.117 158.67 183.334Z" fill="#FFD9D1" fill-opacity="0.8"/>
<path d="M170.415 176.618C170.572 177.63 171.128 179.861 172.095 180.69C172.656 181.831 174.041 183.926 175.098 183.177C175.892 183.257 177.54 182.841 177.778 180.537C178.221 178.492 176.934 175.828 176.46 178.875L175.69 179.043L175.233 178.384C175.154 177.824 174.949 176.692 174.759 176.647C174.608 176.612 174.783 176.186 174.957 175.846C175.004 175.755 175.05 175.671 175.09 175.601C175.066 175.137 174.982 174.196 174.836 174.141C174.678 174.082 175.227 172.988 174.663 171.256C174.571 170.974 174.45 170.676 174.291 170.362C174.245 170.13 174.186 169.798 174.131 169.423C174.014 168.625 173.914 167.628 173.984 166.965C173.936 166.795 173.794 166.595 173.618 167.153L173.823 164.402C173.793 164.228 173.673 164.067 173.438 164.811C173.442 164.72 173.449 164.608 173.46 164.481C173.507 163.895 173.62 162.996 173.826 162.453C174.076 161.793 173.086 162.578 172.56 163.053C172.493 162.779 172.279 162.356 171.956 162.86C171.632 163.363 170.627 165.061 170.173 166.062C170.158 166.079 170.142 166.098 170.126 166.118C169.598 166.777 168.812 168.948 169.505 171.403C169.492 171.792 169.494 172.327 169.526 172.914C169.601 174.244 169.836 175.842 170.415 176.618Z" fill="#D1593E" fill-opacity="0.4"/>
<path d="M173.929 167.193C173.881 167.023 173.739 166.823 173.562 167.381L173.768 164.63C173.738 164.456 173.618 164.295 173.383 165.039C173.387 164.948 173.394 164.836 173.405 164.709C173.452 164.123 173.565 163.224 173.771 162.681C174.021 162.02 173.031 162.806 172.505 163.281C172.438 163.007 172.224 162.584 171.901 163.088C171.577 163.591 170.572 165.289 170.118 166.29C170.102 166.307 170.087 166.325 170.071 166.345C170.91 166.011 171.742 166.469 172.444 167.186C172.768 167.516 173.064 167.902 173.322 168.291C173.641 168.774 173.9 169.26 174.076 169.651C173.959 168.853 173.859 167.856 173.929 167.193Z" fill="#D1593E" fill-opacity="0.4"/>
<path d="M172.195 180.732C172.753 181.874 174.131 183.971 175.18 183.223C175.969 183.304 177.606 182.891 177.839 180.588C178.277 178.543 176.995 175.876 176.529 178.923L175.764 179.09L175.309 178.431C174.702 179.176 173.229 180.68 172.195 180.732Z" fill="#D1593E" fill-opacity="0.4"/>
<path d="M175.032 175.892C174.86 176.231 174.686 176.657 174.836 176.692C173.719 176.791 171.292 176.921 170.52 176.656L175.032 175.892Z" fill="#D1593E" fill-opacity="0.4"/>
<path d="M169.634 172.95C169.6 172.364 169.544 170.216 169.557 169.827C169.993 172.331 171.286 171.941 173.343 173.01C174.989 173.865 174.956 172.226 174.733 171.3C175.296 173.034 174.752 174.127 174.909 174.186C173.134 173.381 169.594 172.006 169.634 172.95Z" fill="#D1593E" fill-opacity="0.4"/>
<path d="M173.806 167.387C173.769 167.503 173.884 168.705 173.95 169.196L173.456 168.329C173.421 167.795 173.858 167.222 173.806 167.387Z" fill="#FFAB99" fill-opacity="0.4"/>
<path d="M173.44 167.25L173.274 167.936L172.542 167.012C172.616 166.13 173.308 165.186 173.645 164.824L173.44 167.25Z" fill="#FFAB99" fill-opacity="0.4"/>
<path d="M172.359 166.944C172.258 165.84 172.954 164.902 173.315 164.571C173.444 164.002 173.52 162.794 173.611 162.666C173.685 162.564 172.871 163.116 172.547 163.439C172.091 164.231 171.719 165.567 171.754 166.426L172.359 166.944Z" fill="#FFAB99" fill-opacity="0.4"/>
<path d="M174.744 174.206C174.891 174.261 174.97 175.211 174.993 175.675C174.953 175.745 174.895 175.804 174.849 175.895L170.539 176.644C169.96 175.869 169.663 174.217 169.589 172.887C169.55 171.943 172.958 173.404 174.744 174.206Z" fill="#FFAB99" fill-opacity="0.4"/>
<path d="M174.285 170.43C174.443 170.744 174.564 171.042 174.656 171.324C174.879 172.249 174.91 173.888 173.254 173.036C171.185 171.97 169.883 172.362 169.446 169.858C169.097 167.856 170.061 167.271 170.586 167.229C171.423 167.336 173.335 168.125 174.285 170.43Z" fill="#FFAB99" fill-opacity="0.4"/>
<path d="M170.208 170.334C170.858 171.635 172.152 171.788 173.264 171.762C173.915 171.747 174.873 172.414 174.274 172.697C171.782 172.286 170.701 171.85 170.006 170.811C169.805 170.638 169.67 169.254 170.208 170.334Z" fill="#FFD9D1" fill-opacity="0.8"/>
<path d="M170.393 175.25C170.945 176.008 171.847 175.707 172.594 175.352C172.994 175.162 173.638 175.398 173.291 175.749C171.601 176.185 170.846 176.19 170.298 175.65C170.15 175.586 169.945 174.636 170.393 175.25Z" fill="#FFD9D1" fill-opacity="0.8"/>
<path d="M174.966 178.285C175.04 178.182 174.803 177.346 174.675 176.941L172.108 177.072C171.442 177.106 170.972 177.783 171.196 178.41C171.518 179.312 171.901 180.245 172.122 180.31C172.544 180.435 174.874 178.413 174.966 178.285Z" fill="#FFAB99" fill-opacity="0.4"/>
<path d="M171.886 179.195C172.359 179.645 173.003 179.12 173.514 178.627C173.753 178.397 174.188 178.467 173.993 178.793C172.825 179.59 172.288 179.799 171.852 179.53C171.741 179.521 171.516 178.842 171.886 179.195Z" fill="#FFD9D1" fill-opacity="0.8"/>
<path d="M175.274 178.758L175.603 179.336C175.616 183.014 174.938 183.053 174.48 183.044C174.392 183.043 174.276 182.991 174.141 182.904C173.387 182.413 173.906 180.191 174.569 179.529C174.847 179.251 175.095 178.979 175.274 178.758Z" fill="#FFAB99" fill-opacity="0.4"/>
<path d="M173.962 182.491C174.532 182.889 174.876 182.572 175.087 181.844C175.169 181.561 175.492 181.464 175.37 181.704C174.891 182.965 174.844 182.948 174.501 182.824L174.5 182.824C174.413 182.839 173.668 182.287 173.962 182.491Z" fill="#FFD9D1" fill-opacity="0.8"/>
<path d="M172.4 163.254C171.93 163.703 171.652 165.51 171.571 166.357L170.417 165.959C170.772 165.485 171.427 164.396 171.685 163.734C171.961 163.025 172.242 163.108 172.4 163.254Z" fill="#FFAB99" fill-opacity="0.4"/>
<path d="M175.878 179.276L176.484 179.145L177.618 180.738C177.483 182.326 176.081 182.949 175.396 183.062C175.998 182.584 175.969 180.339 175.878 179.276Z" fill="#FFAB99" fill-opacity="0.4"/>
<path d="M177.273 178.107C176.937 177.487 176.692 178.378 176.612 178.9L177.692 180.181C177.692 179.748 177.61 178.727 177.273 178.107Z" fill="#FFAB99" fill-opacity="0.4"/>
<path d="M175.982 182.54C176.647 182.134 176.97 181.805 177.17 181.11C177.252 180.827 177.575 180.729 177.453 180.969C176.973 182.232 176.81 182.321 176.513 182.316C176.426 182.331 175.721 182.7 175.982 182.54Z" fill="#FFD9D1" fill-opacity="0.8"/>
<path d="M177.497 179.358C177.482 179.407 177.464 179.413 177.443 179.386C177.3 179.203 177.57 179.129 177.497 179.358Z" fill="#FFD9D1" fill-opacity="0.8"/>
<path d="M167.525 167.365C168.067 170.826 168.419 172.182 167.998 172.14L168.565 172.992C169.32 172.735 168.779 171.88 168.836 171.6C169.039 172.015 169.114 172.759 169.582 172.771L169.822 172.656L169.921 171.886C168.809 171.913 168.329 168.51 168.28 167.274C168.02 167.01 167.578 167.22 167.525 167.365Z" fill="#D1593E" fill-opacity="0.4"/>
</g>
<defs>
<linearGradient id="paint0_linear_39_19" x1="148.275" y1="389.018" x2="127.822" y2="476.232" gradientUnits="userSpaceOnUse">
<stop offset="0.14" stop-opacity="0"/>
<stop offset="0.995"/>
</linearGradient>
<linearGradient id="paint1_linear_39_19" x1="148.423" y1="287.632" x2="57.7262" y2="482.897" gradientUnits="userSpaceOnUse">
<stop offset="0.485" stop-opacity="0"/>
<stop offset="0.810679"/>
</linearGradient>
<linearGradient id="paint2_linear_39_19" x1="195.918" y1="266.789" x2="199.352" y2="505.142" gradientUnits="userSpaceOnUse">
<stop stop-color="#52B9CB"/>
<stop offset="1" stop-color="#295C65"/>
</linearGradient>
<linearGradient id="paint3_linear_39_19" x1="218.776" y1="195.923" x2="298.148" y2="384.676" gradientUnits="userSpaceOnUse">
<stop offset="0.152242" stop-opacity="0"/>
<stop offset="1"/>
</linearGradient>
<linearGradient id="paint4_linear_39_19" x1="190.131" y1="-5" x2="190.191" y2="271.441" gradientUnits="userSpaceOnUse">
<stop stop-color="#88E9F4"/>
<stop offset="0.816382" stop-color="#6FD9E6"/>
</linearGradient>
<linearGradient id="paint5_linear_39_19" x1="98.0525" y1="-10.6183" x2="52.6941" y2="270.761" gradientUnits="userSpaceOnUse">
<stop stop-color="#88E9F4"/>
<stop offset="1" stop-color="#68D4E1"/>
</linearGradient>
<linearGradient id="paint6_linear_39_19" x1="290.258" y1="-10.1237" x2="336.861" y2="267.451" gradientUnits="userSpaceOnUse">
<stop stop-color="#88E9F4"/>
<stop offset="1" stop-color="#68D4E1"/>
</linearGradient>
<linearGradient id="paint7_linear_39_19" x1="203.512" y1="105" x2="203.512" y2="216.256" gradientUnits="userSpaceOnUse">
<stop stop-color="#B84141"/>
<stop offset="1" stop-color="#FF857F"/>
</linearGradient>
<linearGradient id="paint8_linear_39_19" x1="145.404" y1="105" x2="159.132" y2="145.959" gradientUnits="userSpaceOnUse">
<stop stop-color="#CF4848"/>
<stop offset="1" stop-color="#DC6464"/>
</linearGradient>
<linearGradient id="paint9_linear_39_19" x1="141.229" y1="213.409" x2="129.624" y2="316.71" gradientUnits="userSpaceOnUse">
<stop stop-color="#E46B68"/>
<stop offset="1" stop-color="#B04848"/>
</linearGradient>
<linearGradient id="paint10_linear_39_19" x1="170.127" y1="161.616" x2="172.035" y2="161.708" gradientUnits="userSpaceOnUse">
<stop stop-color="#ED4956"/>
<stop offset="1" stop-color="#0291FF" stop-opacity="0"/>
</linearGradient>
<linearGradient id="paint11_linear_39_19" x1="169.324" y1="163.998" x2="171.232" y2="164.09" gradientUnits="userSpaceOnUse">
<stop stop-color="#ED4956"/>
<stop offset="1" stop-color="#0291FF" stop-opacity="0"/>
</linearGradient>
<linearGradient id="paint12_linear_39_19" x1="162.911" y1="165.257" x2="164.819" y2="165.349" gradientUnits="userSpaceOnUse">
<stop stop-color="#0291FF" stop-opacity="0"/>
<stop offset="1" stop-color="#ED4956"/>
</linearGradient>
<linearGradient id="paint13_linear_39_19" x1="160.888" y1="162.929" x2="163.31" y2="163.053" gradientUnits="userSpaceOnUse">
<stop stop-color="#00A6FF" stop-opacity="0"/>
<stop offset="1" stop-color="#ED4956"/>
</linearGradient>
<linearGradient id="paint14_linear_39_19" x1="162.56" y1="158.313" x2="163.668" y2="160.45" gradientUnits="userSpaceOnUse">
<stop stop-color="#00A6FF" stop-opacity="0"/>
<stop offset="1" stop-color="#ED4956"/>
</linearGradient>
<linearGradient id="paint15_linear_39_19" x1="170.469" y1="157.792" x2="169.128" y2="159.795" gradientUnits="userSpaceOnUse">
<stop stop-color="#00A6FF" stop-opacity="0"/>
<stop offset="1" stop-color="#ED4956"/>
</linearGradient>
<clipPath id="clip0_39_19">
<rect width="320" height="465" fill="white"/>
</clipPath>
</defs>
</svg>
