<svg width="1440" height="1024" viewBox="0 0 1440 1024" fill="none" xmlns="http://www.w3.org/2000/svg">
<g clip-path="url(#clip0_84_840)">
<rect width="1440" height="1024" fill="white"/>
<path d="M1040.59 793.029C1178.98 776.089 1375.88 677.628 1440 680.805V-100H0V644.808C27.6067 698.803 146.404 793.875 400.742 742.21C655.08 690.545 777.217 737.269 803.488 742.21C838.219 749.268 902.204 809.968 1040.59 793.029Z" fill="#7DDEEA"/>
<path d="M376.414 -6.52449L473.662 13.5842L357.624 720C306.455 666.295 245.42 654.962 207.124 643.789L376.414 -6.52449Z" fill="url(#paint0_linear_84_840)"/>
<path d="M1234.8 -39.5245L1137.55 -19.4158L1253.59 687C1304.76 633.295 1365.79 621.962 1404.09 610.789L1234.8 -39.5245Z" fill="url(#paint1_linear_84_840)"/>
<path d="M752.047 1H588L594.378 685.696C678.778 691.481 795.409 706.61 861 703.61L752.047 1Z" fill="url(#paint2_linear_84_840)"/>
<path d="M184.956 614.96L142.463 538.041C139.952 538.041 136.115 536.75 140.849 531.586L106.962 472.955C104.631 474.21 99.6469 475.967 98.356 472.955C96.7423 469.19 101.045 467.038 102.659 466.5L132.243 449.288C134.932 448.212 139.666 448.104 137.084 456.28L132.243 458.97L162.903 517.063C166.489 516.346 172.907 516.202 169.895 521.366L166.668 524.055L214.003 611.195L238.746 607.429L245.739 514.911C242.153 513.835 236.056 511.146 240.36 508.994H247.352C248.213 508.994 249.862 468.473 250.58 448.212L239.822 447.674L238.746 439.068H222.071V430.999H229.602L230.678 405.718L208.624 404.105V387.43H222.071L271.558 367.528L291.998 377.21L318.892 376.134C330.009 369.679 359.02 356.77 386.129 356.77C413.239 356.77 452.291 333.461 468.428 321.807L501.239 306.745L722.314 430.462H731.997V447.136H706.178V472.955H712.632V479.948H692.73V485.865H680.359L676.593 545.033C680.179 546.288 685.953 549.121 680.359 550.412C677.39 551.097 676.007 551.207 675.469 551.078L665.126 694.307C678.741 695.326 691.027 696.378 698.647 696.378L692.73 638.627H698.647L710.481 620.339L745.982 607.429V600.437H760.505L787.938 514.911C786.145 513.835 783.097 511.038 785.248 508.456C787.4 505.875 790.089 507.381 791.165 508.456L809.454 451.439L803.537 449.288L806.226 443.371L842.803 455.205L841.189 461.122H832.045L813.757 514.911L818.598 518.139C817.522 520.29 814.617 524.163 811.605 522.442L787.938 593.982H797.62V612.808L786.324 613.884L790.627 682.735C815.191 667.315 868.515 622.168 885.297 564.936L874.001 455.205H869.16V445.523L871.312 443.371C871.67 417.552 865.502 366.237 837.962 367.528L835.81 342.785H829.894V333.64H858.402C866.471 331.13 885.082 328.046 894.979 335.792H956.299L996.104 318.041L1078.4 309.973V318.041H1074.64V342.247C1065.49 347.626 1048.71 364.516 1054.73 389.044L1058.5 425.083H1063.34V433.689H1058.5L1064.95 502.002C1072.84 505.588 1089.27 514.588 1091.85 521.904C1094.43 529.219 1092.92 383.665 1091.85 309.973C1090.77 304.056 1083.89 290.609 1064.95 284.154V257.797H1058.5V251.342H1074.64V238.433H1091.85V224.447H1153.71V211L1181.68 216.917C1186.52 228.213 1204.27 252.203 1236.54 257.797C1268.82 263.391 1281.91 265.148 1284.42 265.327C1288.9 259.769 1301.09 249.191 1314 251.342V257.797H1309.16V284.154C1300.01 287.919 1281.73 299.107 1281.73 313.738C1281.73 328.369 1283.16 465.425 1283.88 532.124L1290.52 553.102C1283.97 551.686 1289.75 637.944 1282.04 656.314C1281.99 656.509 1281.92 656.693 1281.81 656.866C1281.85 656.909 1281.82 656.954 1281.73 657C1280.31 659.9 1278.91 660.789 1277.47 660.193C1272.41 662.369 1264.23 662.646 1254.15 661.576C1193.01 672.785 1051.84 701.592 1047.39 713.933C1029.82 715.905 912.375 752.661 844.955 746.206C762.45 738.307 736.658 721.48 698.647 696.378C691.027 696.378 678.741 695.326 665.126 694.307C652.32 693.348 638.337 692.417 625.955 692.417L592.461 692.417C580.54 696.378 578.837 696.378 554.426 696.378L564.173 542.882C561.842 542.702 557.396 541.483 558.256 538.041H565.249L569.552 477.258L558.256 476.183V468.114H546.96V475.107L531.899 476.183L529.748 534.813L535.665 535.889C535.306 537.682 533.405 540.945 528.672 539.654L514.12 701.487C504.469 704.326 493.236 710.618 477.341 710.618C410.232 715.112 374.932 754.084 265 724.5C214.101 759.863 148.2 721.284 132.243 692.417L184.956 614.96Z" fill="#6FD4E0"/>
<path d="M638.785 553.29L625.954 692.972H591.325C596.169 629.559 601.973 547.202 603.265 548.941C604.556 550.681 607.75 548.217 609.185 546.767C609.615 543.289 605.417 543.144 603.265 543.506L607.032 483.173H619.41V475.02H632.865V484.26H644.167L640.4 545.68H632.865C631.573 548.724 636.274 552.021 638.785 553.29Z" fill="#7DDEEA"/>
<path d="M490.245 540.788L478.404 689.174C465.918 687 455.98 694.066 452.571 697.871C451.28 693.088 429.429 683.558 418.665 679.391L431.044 532.635H437.502V528.83H431.044L434.811 468.498H447.728V461.432L485.401 464.149V472.302H495.627L492.397 534.809H485.401C484.54 538.723 488.271 540.426 490.245 540.788Z" fill="#7DDEEA"/>
<path d="M392.832 532.635L380.992 681.565L343.319 685.913C347.624 632.828 356.558 527.091 357.85 528.83C359.464 531.005 365.384 526.656 364.846 525.026C364.416 523.721 360.003 523.033 357.85 522.852L361.617 461.432H375.072V455.453H387.45V464.149L399.29 465.78L392.832 526.656H387.45V531.005L392.832 532.635Z" fill="#7DDEEA"/>
<path d="M318.562 525.026L307.798 685.913C307.798 683.304 283.4 672.143 271.201 666.889L283.041 521.221C289.069 519.916 289.5 516.329 288.961 514.698H284.118L288.961 455.453H301.34V450.017H313.18V458.17H324.482L320.177 520.134H313.18C313.18 522.308 316.768 524.301 318.562 525.026Z" fill="#7DDEEA"/>
<path d="M1121.54 342.94V545.137L1130.69 551.116L1160.29 410.883L1154.91 409.796V402.73L1182.36 409.796V413.6H1178.05L1147.91 559.812L1166.21 568.415C1172.78 563.009 1179.28 558.079 1185.05 553.939V501.11H1172.13V486.434L1215.19 483.173V492.413C1234.56 492.413 1249.45 498.211 1254.48 501.11V345.658C1252.86 326.091 1237.9 286.412 1190.97 284.238C1144.04 282.064 1125.13 322.467 1121.54 342.94Z" fill="#7DDEEA"/>
<path d="M900.346 454.909L908.419 533.179C908.957 527.2 914.769 517.09 933.714 524.482C952.658 531.874 977.486 525.026 987.533 520.677L931.023 413.057L925.641 415.774L921.873 409.252L949.321 396.207L951.474 400.555L945.554 405.991L1005.29 515.242C1010.89 510.894 1029.87 504.734 1038.66 502.197L1031.66 439.69H1028.44V429.363H1031.66L1028.44 403.817C1021.98 384.974 997.112 349.245 949.321 357.072C901.53 364.899 896.758 416.862 900.346 441.864H904.113V453.279L900.346 454.909Z" fill="#7DDEEA"/>
<path d="M311.243 972.467C215.065 995.909 61.2245 986.613 0 978.53V1024H1440V967.415C1403.69 958.658 1382.15 961.489 1371.4 966.056C1366.27 968.234 1360.43 970.184 1355.01 968.896C1295.28 954.71 1164.92 938.897 1055.29 975.498C939.874 1014.03 753.395 1000.98 674.583 989.645C593.544 974.151 407.421 949.024 311.243 972.467Z" fill="#02385A"/>
<path d="M311.243 972.467C215.065 995.909 61.2245 986.613 0 978.53V1024H1440V967.415C1403.69 958.658 1382.15 961.489 1371.4 966.056C1366.27 968.234 1360.43 970.184 1355.01 968.896C1295.28 954.71 1164.92 938.897 1055.29 975.498C939.874 1014.03 753.395 1000.98 674.583 989.645C593.544 974.151 407.421 949.024 311.243 972.467Z" fill="url(#paint3_linear_84_840)" fill-opacity="0.2"/>
<path d="M311.243 972.401C215.065 995.673 61.2245 986.444 0 978.42V735C17.5881 738.678 58.9091 752.387 54.1002 783.149C49.2913 813.911 145.603 835.422 194.36 842.332C246.456 845.564 368.816 847.816 441.484 830.963C514.152 814.111 632.505 823.942 682.597 830.963C769.202 843.001 978.746 863.464 1124.08 849.019C1139.65 847.281 1166.49 843.601 1194.21 838.406C1218.02 833.943 1242.48 828.363 1261 821.936C1311.09 804.548 1413.28 791.508 1440 792.511V967.385C1390.84 955.616 1368.76 964.933 1363.86 971.063C1309.09 956.574 1170.7 937.159 1055.29 975.41C939.874 1013.66 753.395 1000.71 674.583 989.454C593.544 974.073 407.421 949.129 311.243 972.401Z" fill="#116589"/>
<path d="M311.243 972.401C215.065 995.673 61.2245 986.444 0 978.42V735C17.5881 738.678 58.9091 752.387 54.1002 783.149C49.2913 813.911 145.603 835.422 194.36 842.332C246.456 845.564 368.816 847.816 441.484 830.963C514.152 814.111 632.505 823.942 682.597 830.963C769.202 843.001 978.746 863.464 1124.08 849.019C1139.65 847.281 1166.49 843.601 1194.21 838.406C1218.02 833.943 1242.48 828.363 1261 821.936C1311.09 804.548 1413.28 791.508 1440 792.511V967.385C1390.84 955.616 1368.76 964.933 1363.86 971.063C1309.09 956.574 1170.7 937.159 1055.29 975.41C939.874 1013.66 753.395 1000.71 674.583 989.454C593.544 974.073 407.421 949.129 311.243 972.401Z" fill="url(#paint4_linear_84_840)" fill-opacity="0.2"/>
<path d="M44.8121 827.313C49.7732 810.593 7.14467 803.142 -11 801.143V715C15.8725 725.541 166.772 731.356 242.566 732.81C273.616 733.406 298.19 735.13 322.494 738.47C357.518 743.283 391.981 751.451 444.454 764.432C515.563 782.024 718.921 791.269 811.711 793.692C840.421 795.752 916.859 804.778 992.928 824.405C1069 844.033 1173.67 854.142 1218 856.944C1189.4 859.768 1169.56 862.387 1153.5 863.332C1003.57 871.183 782.542 859.844 693.197 853.302C641.519 849.485 519.421 844.142 444.454 853.302C369.487 862.461 243.255 861.237 189.51 859.481C139.21 855.725 39.851 844.033 44.8121 827.313Z" fill="#2081A1"/>
<path d="M1440 844.34C1411.34 843.691 1301.71 852.119 1247.98 863.356C1228.11 867.51 1201.87 871.116 1176.33 874C1130.23 870.668 1018.26 858.169 939.161 834.831C860.059 811.493 780.575 800.761 750.72 798.312C654.23 795.43 442.765 784.438 368.822 763.521C314.257 748.085 278.42 738.373 242 732.65C350.67 733.936 597.101 732.403 713.462 715.98C829.823 699.557 985.018 703.519 1048.07 707.552C1123.78 725.92 1308.16 757.989 1440 739.318V844.34Z" fill="url(#paint5_linear_84_840)"/>
<path d="M-29 731.465C-2.42718 751.574 146.789 762.669 221.738 765.443C252.442 766.579 276.742 769.868 300.776 776.24C404.114 778.304 638.455 775.844 749.107 749.494C859.759 723.143 1007.34 729.5 1067.3 735.972C1139.3 765.443 1314.63 816.895 1440 786.939V587.577C1374.59 585.497 1194.17 638.197 1052.99 649.292C911.814 660.387 805.659 667.784 770.229 663.161C743.429 659.925 740.93 623.982 389.352 655.187C125.489 678.606 -0.837355 599.365 -29 564V731.465Z" fill="#61C8D7"/>
<path d="M-29 731.465C-2.42718 751.574 146.789 762.669 221.738 765.443C252.442 766.579 276.742 769.868 300.776 776.24C404.114 778.304 638.455 775.844 749.107 749.494C859.759 723.143 1007.34 729.5 1067.3 735.972C1139.3 765.443 1314.63 816.895 1440 786.939V587.577C1374.59 585.497 1194.17 638.197 1052.99 649.292C911.814 660.387 805.659 667.784 770.229 663.161C743.429 659.925 740.93 623.982 389.352 655.187C125.489 678.606 -0.837355 599.365 -29 564V731.465Z" fill="url(#paint6_linear_84_840)" fill-opacity="0.2"/>
<path d="M1279.17 895.132C1284.7 879.916 1305.99 883.539 1315.94 887.252C1311.3 892.687 1312.9 900.929 1314.28 904.371C1318.71 908.175 1320.09 901.382 1324.24 904.371C1327.56 906.762 1325.44 916.055 1323.96 920.403C1321.29 917.233 1315.28 911.707 1312.62 914.968C1309.97 918.229 1312.62 921.58 1314.28 922.848C1308.09 930.239 1299.72 927.92 1296.31 925.837C1294.76 924.316 1292.16 925.203 1291.06 925.837C1289.73 928.228 1294.01 930.275 1296.31 931C1283.04 930.13 1276.59 919.044 1275.02 913.61C1269.27 910.131 1267.28 905.458 1267 903.556C1275.85 901.599 1278.8 897.125 1279.17 895.132Z" fill="#033656" fill-opacity="0.5"/>
<path d="M1341.17 919.132C1346.7 903.916 1367.99 907.539 1377.94 911.252C1373.3 916.687 1374.9 924.929 1376.28 928.371C1380.71 932.175 1382.09 925.382 1386.24 928.371C1389.56 930.762 1387.44 940.055 1385.96 944.403C1383.29 941.233 1377.28 935.707 1374.62 938.968C1371.97 942.229 1374.62 945.58 1376.28 946.848C1370.09 954.239 1361.72 951.92 1358.31 949.837C1356.76 948.316 1354.16 949.203 1353.06 949.837C1351.73 952.228 1356.01 954.275 1358.31 955C1345.04 954.13 1338.59 943.044 1337.02 937.61C1331.27 934.131 1329.28 929.458 1329 927.556C1337.85 925.599 1340.8 921.125 1341.17 919.132Z" fill="#033656" fill-opacity="0.5"/>
<path d="M1334.19 879.685C1337 871.914 1347.82 873.764 1352.89 875.661C1350.52 878.436 1351.34 882.645 1352.04 884.402C1354.29 886.345 1355 882.876 1357.1 884.402C1358.79 885.623 1357.71 890.369 1356.96 892.589C1355.6 890.97 1352.55 888.149 1351.2 889.814C1349.85 891.479 1351.2 893.19 1352.04 893.837C1348.89 897.611 1344.64 896.427 1342.9 895.364C1342.12 894.587 1340.79 895.04 1340.23 895.364C1339.56 896.585 1341.73 897.63 1342.9 898C1336.15 897.556 1332.87 891.895 1332.08 889.12C1329.15 887.344 1328.14 884.957 1328 883.986C1332.5 882.987 1334 880.702 1334.19 879.685Z" fill="#033656" fill-opacity="0.5"/>
<path d="M1389.19 903.685C1392 895.914 1402.82 897.764 1407.89 899.661C1405.52 902.436 1406.34 906.645 1407.04 908.402C1409.29 910.345 1410 906.876 1412.1 908.402C1413.79 909.623 1412.71 914.369 1411.96 916.589C1410.6 914.97 1407.55 912.149 1406.2 913.814C1404.85 915.479 1406.2 917.19 1407.04 917.837C1403.89 921.611 1399.64 920.427 1397.9 919.364C1397.12 918.587 1395.79 919.04 1395.23 919.364C1394.56 920.585 1396.73 921.63 1397.9 922C1391.15 921.556 1387.87 915.895 1387.08 913.12C1384.15 911.344 1383.14 908.957 1383 907.986C1387.5 906.987 1389 904.702 1389.19 903.685Z" fill="#033656" fill-opacity="0.5"/>
<path d="M1370.92 886.553C1372.7 881.696 1379.56 882.853 1382.76 884.038C1381.27 885.772 1381.78 888.403 1382.23 889.501C1383.65 890.715 1384.1 888.547 1385.43 889.501C1386.5 890.264 1385.82 893.23 1385.34 894.618C1384.48 893.606 1382.55 891.843 1381.69 892.883C1380.84 893.924 1381.69 894.994 1382.23 895.398C1380.23 897.757 1377.54 897.017 1376.44 896.352C1375.94 895.867 1375.1 896.15 1374.75 896.352C1374.32 897.115 1375.7 897.769 1376.44 898C1372.16 897.722 1370.09 894.184 1369.58 892.45C1367.73 891.34 1367.09 889.848 1367 889.241C1369.85 888.617 1370.8 887.189 1370.92 886.553Z" fill="#033656" fill-opacity="0.5"/>
<path fill-rule="evenodd" clip-rule="evenodd" d="M29.9793 196.261C22.5602 194.951 12.0976 194.675 0.500137 196.788C-23.777 201.213 24.0222 239.221 7.31012 277C-23.5594 346.784 -43.0165 405.904 -35.7201 439.954C-29.8829 467.194 -35.253 399.906 -26.7092 414C-11.6799 436.388 -26.7679 486.84 -16.1413 496.568C-5.51469 506.297 -5.06837 586.9 -3.50931 588.023C-18.1022 572.308 -11.3518 531.591 -16.1413 496.568C-20.9307 461.546 -11.2489 435.359 -10.9994 432.927C-10.5629 447.956 -51.1045 498.745 -26.7082 529.277C-19.0278 538.89 -9.87261 548.692 -0.414871 558C-0.280388 558.132 -0.14584 558.265 -0.0112381 558.397C20.4564 578.491 42.2607 596.226 53.5525 604.674C114.169 716.303 245.841 951.684 287.599 1000.18C294.868 1008.62 301.85 1016.57 308.481 1024C339.944 1059.25 351.952 1057.39 360.966 1065.73C370.008 1073.4 429.113 1041 460.843 1043.09C492.573 1045.19 494.234 1086.13 507.642 1082.2C527.973 1070.04 584.47 1067.72 601.533 1054.25C622.861 1037.41 669.259 1017.58 680.297 1017.58C682.44 1017.58 684.874 1017.21 687.359 1016.83C695.113 1015.67 703.375 1014.42 704.945 1024C705.464 1027.16 705.254 1031.5 704.057 1037.41C701.045 1052.28 693.961 1066.72 687.355 1080.19C680.83 1093.5 686.824 1050.08 685.043 1039.28C673.811 971.179 672.695 1075.71 678.12 1087.06C677.247 1109.01 692.782 1079.95 715.981 1097.91C744.98 1120.36 824.27 1046.2 850.275 1043.02C876.28 1039.84 928.222 1095.59 958.717 1060.98C983.114 1033.29 933.433 1093.48 934.618 1089.12C939.856 1088.43 952.878 1082.8 963.055 1065.73C975.777 1044.4 995.914 1080.06 996.85 1066.41C997.001 1064.2 996.893 1060.86 996.759 1056.76C996.479 1048.14 996.088 1036.12 997.771 1024C1000.23 1006.28 1007.13 988.355 1025.29 980.533C1054.47 967.961 1081.85 971.927 1091.89 975.482C1099.81 977.976 1116.77 987.044 1121.26 1003.36C1123.08 1009.96 1124.15 1017.08 1124.63 1024C1125.63 1038.45 1124.05 1051.98 1121.26 1057.8C1117.76 1065.13 1135.98 1045.84 1138.67 1024C1139.14 1020.21 1139.14 1016.34 1138.48 1012.53C1133.98 986.707 1131.93 976.417 1121.26 962.76C1118.05 958.65 1114.81 952.167 1111.15 944.852C1102.65 927.862 1091.9 906.381 1074.12 899.711C1053.76 892.078 1026.22 896.531 1015 899.711C1006.02 905.012 984.913 923.434 972.341 954.715C963.479 976.766 957.318 1003.95 953.755 1024C952.264 1032.39 951.228 1039.53 950.639 1044.52C942.345 1070.77 912.392 1041.34 896.078 1056C875.685 1074.34 851.738 1095.11 833.029 1092.11C814.32 1089.12 780.645 1083.51 780.645 1049.46C780.645 1022.22 796.416 1084.43 799.659 1076.14C808.929 1063.73 824.91 1041.48 835.806 1024C841.183 1015.37 845.322 1007.91 846.805 1003.36C852.418 986.146 855.411 939.748 846.805 928.71C845.85 927.485 844.838 926.122 843.759 924.666C835.105 913.003 821.82 895.097 794.046 889.608C780.712 886.974 764.073 887.303 746.805 887.645C723.61 888.105 699.279 888.587 680.297 881.938C653.805 872.658 646.434 828.805 646.06 808.038C646.06 803.377 649.198 792.956 653.361 779.13C661.565 751.886 673.749 711.423 673.749 675.767C673.749 593.261 635.834 544.208 617.248 524.787C615.697 523.166 614.209 521.55 612.719 519.931C598.211 504.174 583.469 488.162 507.802 464.919C463.221 451.225 439.255 453.552 417.784 455.637C399.068 457.455 382.249 459.088 355.325 449.765C297.515 429.747 270.762 391.394 261.22 372.311C258.218 366.307 253.087 353.878 246.991 339.113C233.711 306.946 215.854 263.692 205.468 251.639C202.482 248.173 199.912 244.992 197.502 242.009C187.685 229.857 180.44 220.888 157.76 208.422C129.51 192.893 99.389 181.481 76.1901 183.165C57.631 184.512 37.6499 192.457 29.9793 196.261ZM651.226 665.275C643.255 633.598 619.479 574.14 577.96 554.16C571.268 550.94 565.195 547.97 559.6 545.235C519.367 525.562 503.876 517.988 460.843 516.181C444.731 515.505 426.255 519.396 407.54 523.338C369.316 531.389 330.096 539.65 307.992 509.633C281.65 473.862 265.835 443.591 261.22 432.927C273.88 453.382 305.971 495.377 333.062 499.717C351.927 502.74 374.625 499.782 399.279 496.568C418.878 494.014 439.714 491.298 460.843 491.298L461.781 491.298C493.192 491.295 539.116 491.289 583.572 527.781C617.858 555.924 642.145 628.122 651.226 665.275ZM304.25 1009.91C314.415 1023.19 327.814 1027.79 346.373 1041.41C349.622 1043.8 352.806 1046.24 355.978 1048.67C375.448 1063.61 394.617 1078.32 427.756 1078.64C428.403 1078.65 429.045 1078.65 429.682 1078.66L430.789 1078.67C435.325 1033.25 441.083 1065.72 442.565 1065.73C458.668 985.638 487.418 1079.34 515.5 1065.73C528.114 1059.62 552.988 1070.35 566.663 1055.3C585.645 1034.41 605.345 1012.73 624.919 1011.96C651.859 1010.92 663.833 1011.53 666.452 1011.96C655.664 1008.22 630.344 1001.86 615.377 1006.35C596.669 1011.96 558.877 1037.03 531.001 1060.98C503.125 1084.93 410.357 1062.74 372.378 1041.41C341.995 1024.35 318.157 1021.75 304.25 1009.91ZM727.768 1091.36C709.807 1080.74 692.09 1123.48 691.217 1107.45C692.401 1110.26 708.198 1041.82 715.981 1055.44C725.71 1072.47 740.49 1085.19 770.798 1094.92C795.044 1102.7 787.186 1048.94 799.659 1044.52C794.483 1046.7 818.767 1099 801.854 1103.34C780.713 1108.76 750.218 1104.65 727.768 1091.36ZM675.807 889.608C696.698 892.976 743.645 899.225 764.299 897.279C790.117 894.847 816.871 904.014 824.354 921.039C831.838 938.064 837.451 952.47 835.393 977.914C834.152 993.255 826.103 1011.54 819.383 1024C817.186 1028.07 815.132 1031.52 813.503 1034.04C814.701 1031.16 816.045 1027.76 817.444 1024C825.296 1002.89 834.862 970.493 829.78 956.773C829.016 954.71 828.301 952.749 827.619 950.878L827.606 950.843L827.602 950.832C821.614 934.408 818.181 924.993 806.768 915.427C797.409 907.581 772.15 905.305 749.172 903.234C740.918 902.491 732.956 901.773 726.133 900.834C705.479 897.99 684.725 892.165 675.807 889.608ZM957.748 1034.04C958.307 1031.12 958.995 1027.73 959.793 1024C964.782 1000.7 974.09 964.404 983.379 950.599C985.299 947.746 987.142 944.939 988.937 942.206L988.947 942.192L988.952 942.183C999.745 925.749 1008.77 912.005 1021.92 907.195C1037.26 901.582 1055.78 899.711 1071.5 910.001C1087.21 920.291 1107.42 946.483 1107.61 950.599C1107.7 952.604 1108.39 954.572 1109.12 956.072C1105.74 951.281 1097.13 943.817 1081.04 940.496C1057.47 935.632 1046.8 935.445 1030.9 942.18C1015 948.915 990.676 972.675 981.508 989.513C976.192 999.278 968.654 1013.43 963.055 1024C960.931 1028.01 959.086 1031.5 957.748 1034.04ZM938.734 1077.89C945.906 1061.49 971.181 1108.99 977.767 1087.73C984.352 1066.48 989.366 1051.94 991.05 1047.32C991.985 1056.62 981.764 992.769 963.055 1050.39C957.19 1068.46 950.417 1071.91 941.526 1076.45C940.618 1076.92 939.688 1077.39 938.734 1077.89ZM694.328 1091.1C702.71 1070.6 708.921 1046.76 710.979 1037.41C711.915 1038.03 713.786 1041.15 713.786 1048.63C713.786 1057.99 715.538 1011.78 705.81 1037.41C698.027 1057.91 681.8 1078.45 685.043 1090.24C683.858 1088.5 680.403 1079.73 676.063 1058.62C671.553 1036.7 682.791 1117.83 689.594 1102.23C690.977 1099.06 692.559 1095.43 694.328 1091.1Z" fill="url(#paint7_linear_84_840)"/>
<path d="M49.8181 536.222C47.9473 537.656 41.2122 540.675 29.2385 541.273C22.6032 541.605 11.629 533.627 0 521.903L-0.5 210.972C8.05856 207.449 16.0353 205.14 21.755 203.954C42.7088 204.391 96.1411 209.454 142.24 226.218C188.338 242.981 182.027 329.116 173.109 370.088C182.838 364.912 202.407 356.281 202.856 363.166C203.305 370.051 201.546 396.467 200.611 408.815C194.687 418.419 180.48 440.096 171.051 449.975C161.622 459.853 154.276 461.325 151.781 460.826C153.028 508.034 160.612 605.707 180.967 618.728C201.322 631.749 248.443 634.955 269.459 634.93C313.937 633.918 340.556 647.647 359.449 659.326C380.028 672.048 390.505 727.613 390.879 753.431C391.254 779.249 394.06 847.91 398.737 872.045C402.479 891.352 413.774 915.387 418.954 924.991C425.963 917.479 432.733 909.608 438.4 901.231C455.612 875.787 461.91 814.834 462.908 787.539C455.657 780.148 455.571 772.003 449.999 760.353C443.825 747.444 441.58 734.722 438.4 726.865C435.855 720.578 428.484 716.887 425.116 715.826C427.424 718.134 432.301 723.722 433.348 727.613C434.396 731.504 430.292 729.234 428.11 727.613C417.571 724.495 396.006 716.163 394.06 707.782C391.628 697.305 396.679 677.099 398.737 669.242C400.795 661.384 405.285 662.506 402.853 662.132C400.421 661.758 401.169 653.713 400.421 646.604C399.672 639.495 403.601 637.25 402.853 635.566C402.105 633.882 404.344 629.586 407.904 624.715C411.215 620.184 409.386 616.681 411.035 615.567C407.65 617.179 399.872 620.037 392.563 620.037C383.022 620.037 389.008 614.612 382.46 615.36C377.222 615.959 377.035 613.115 377.596 611.619C387.138 608.5 407.83 601.254 414.265 597.213C422.31 592.161 425.678 587.11 430.542 585.8C434.433 584.753 446.632 585.364 452.244 585.8C452.805 585.676 454.078 583.219 454.676 574.388C455.275 565.557 461.786 559.982 464.966 558.298C465.216 554.931 466.463 548.832 469.456 551.376C472.45 553.921 475.693 587.235 476.94 603.574C484.735 619.663 502.047 657.867 508.932 681.964C515.817 706.06 516.166 767.837 515.48 795.713C512.736 826.707 505.751 895.955 499.764 924.991C493.778 954.027 475.817 994.961 467.585 1011.8C465.346 1015.54 462.848 1019.65 460.158 1024H357.225C349.734 989.839 329.69 939.248 321.844 910.585C314.51 883.794 311.055 859.115 310.244 850.125C303.064 855.669 294.85 860.247 289.665 862.69C290.787 883.083 293.107 928.47 293.407 946.88C293.736 967.14 289.57 998.423 296.102 1024H36.1377C25.2834 1003.67 12.1963 982.474 -0.5 963.361V834.349V618.285L0 606L0.296194 605.922C19.0099 600.99 39.0195 595.717 44.7668 594.406C53.298 592.461 51.689 554.806 49.8181 536.222Z" fill="#FFECE3"/>
<path d="M49.8181 536.222C47.9473 537.656 41.2121 540.675 29.2385 541.273C22.6032 541.605 11.629 533.627 0 521.903L-0.5 210.972C8.05856 207.449 16.0353 205.14 21.755 203.954C42.7088 204.391 96.1411 209.454 142.24 226.218C188.338 242.981 182.027 329.116 173.109 370.088C182.838 364.912 202.407 356.281 202.856 363.166C203.305 370.051 201.546 396.467 200.611 408.815C194.687 418.419 180.48 440.096 171.051 449.975C161.622 459.853 154.276 461.325 151.781 460.826C153.028 508.034 160.612 605.707 180.967 618.728C201.322 631.749 248.443 634.955 269.459 634.93M49.8181 536.222C51.689 554.806 53.298 592.461 44.7668 594.406C38.9892 595.724 18.7983 601.046 0 606L-0.5 618.285M49.8181 536.222C72.6429 524.498 120.126 498.58 127.46 488.702C134.793 478.824 142.738 468.746 145.794 464.942M299.393 1034.06C298.074 1030.84 296.989 1027.47 296.102 1024M289.665 862.69C290.787 883.083 293.107 928.47 293.407 946.88C293.736 967.14 289.57 998.423 296.102 1024M289.665 862.69C294.85 860.247 303.064 855.669 310.244 850.125M289.665 862.69C288.729 863.252 283.042 864.674 267.776 865.871C252.509 867.068 234.723 859.385 227.739 855.394M275.82 704.601C275.321 711.586 279.525 733.263 300.329 764.095C326.334 802.635 329.14 818.912 324.089 833.879C322.188 839.512 316.624 845.2 310.244 850.125M310.244 850.125C311.055 859.115 314.51 883.794 321.844 910.585C329.69 939.248 349.734 989.839 357.225 1024M359.823 1039.68C359.391 1035.04 358.486 1029.75 357.225 1024M452.244 585.8C452.805 585.676 454.078 583.219 454.676 574.388C455.275 565.557 461.786 559.982 464.966 558.298C465.216 554.931 466.463 548.832 469.456 551.376C472.45 553.921 475.693 587.235 476.94 603.574C484.735 619.663 502.047 657.867 508.932 681.964C515.817 706.06 516.166 767.837 515.48 795.713C512.736 826.707 505.751 895.955 499.764 924.991C493.778 954.027 475.817 994.961 467.585 1011.8C465.346 1015.54 462.848 1019.65 460.158 1024H357.225M452.244 585.8C446.632 585.364 434.433 584.753 430.542 585.8C425.678 587.11 422.31 592.161 414.265 597.213C407.83 601.254 387.138 608.5 377.596 611.619C377.035 613.115 377.222 615.959 382.46 615.36C389.008 614.612 383.022 620.037 392.563 620.037C400.196 620.037 408.341 616.919 411.459 615.36M452.244 585.8C458.792 594.968 472.899 613.976 476.94 616.67M411.459 615.36C409.089 616.171 411.459 619.85 407.904 624.715C404.344 629.586 402.105 633.882 402.853 635.566M411.459 615.36C412.831 612.616 417.072 607.091 423.058 606.941C430.542 606.754 460.102 638.559 467.585 642.862C474.15 646.637 479.995 648.412 481.991 649.036M402.853 635.566C403.601 637.25 399.672 639.495 400.421 646.604C401.169 653.713 400.421 661.758 402.853 662.132M402.853 635.566C404.038 633.445 407.755 629.691 413.143 631.637C419.878 634.069 437.838 649.223 451.683 656.707C462.759 662.694 473.136 667.558 476.94 669.242M402.853 662.132C405.285 662.506 400.795 661.384 398.737 669.242C396.679 677.099 391.628 697.305 394.06 707.782C396.006 716.163 417.571 724.495 428.11 727.613C430.292 729.234 434.396 731.504 433.348 727.613C432.301 723.722 427.424 718.134 425.116 715.826M402.853 662.132C405.223 661.633 411.16 661.496 415.949 664.939C421.936 669.242 450.186 696.743 457.483 700.672C463.32 703.815 466.65 704.851 467.585 704.975M425.116 715.826C428.484 716.887 435.855 720.578 438.4 726.865C441.58 734.722 443.825 747.444 449.999 760.353C455.571 772.003 455.657 780.148 462.908 787.539M425.116 715.826C419.816 711.96 408.802 703.516 407.156 700.672M488.539 798.893C484.174 798.582 473.46 796.349 465.527 789.913C464.56 789.128 463.692 788.338 462.908 787.539M462.908 787.539C461.91 814.834 455.612 875.787 438.4 901.231C432.733 909.608 425.963 917.479 418.954 924.991M368.055 1018.35C367.867 1014.92 368.691 1003.01 373.48 982.801C377.89 964.197 399.354 945.998 418.954 924.991M418.954 924.991C413.774 915.387 402.479 891.352 398.737 872.045C394.06 847.91 391.254 779.249 390.879 753.431C390.505 727.613 380.028 672.048 359.449 659.326C340.556 647.647 313.937 633.918 269.459 634.93M144.11 643.798C149.723 643.798 159.452 635.566 173.67 631.637C187.889 627.708 205.101 639.682 257.112 635.566C261.375 635.228 265.488 635.02 269.459 634.93M22.6904 850.125C14.9456 846.832 7.56976 842.962 -0.5 834.349M140.556 822.466C144.298 815.895 151.781 799.708 151.781 787.539M108.003 647.539C94.9064 646.043 81.2489 626.96 60.8564 628.269C49.2567 629.014 22.0258 623.561 -0.5 618.285M-0.5 834.349V618.285M-0.5 834.349V963.361C12.1963 982.474 25.2834 1003.67 36.1377 1024H296.102" stroke="#EDD1BF" stroke-width="3"/>
<path d="M-69.6957 253.884C-45.0001 198.057 7.07265 192.207 30.0221 196.261C37.6927 192.457 57.6738 184.512 76.233 183.165C99.4318 181.481 129.553 192.893 157.803 208.422C186.054 223.95 190.357 234.053 205.511 251.639C220.665 269.225 251.721 353.228 261.263 372.311L194.472 350.796L184.557 365.763C178.258 372.186 164.089 385.033 157.803 385.033C149.946 385.033 139.094 377.736 91.9483 345.183C54.2314 319.14 27.3034 289.702 18.3855 273.925C15.0179 294.255 11.6128 334.182 26.2805 365.763C44.6151 405.238 72.8654 461.926 104.67 497.098C136.475 532.271 157.953 552.124 177.036 563.14L184.557 570.062L165.661 563.14C153.064 556.031 124.015 537.921 108.599 522.355C89.3291 502.898 7.34734 393.661 -0.847252 339.944C-7.39593 297.017 -11.798 287.333 -7.05842 273.925C-26.765 296.562 -39.7988 307.017 -61.6881 372.311C-69.3997 395.314 -60.0918 430.246 -58.4703 446.023C-58.7198 448.455 -58.0213 462.075 -53.2318 497.098C-48.4424 532.121 -18.0593 572.308 -3.46648 588.023C-5.02554 586.9 -10.8003 582.223 -21.4269 572.495C-32.0535 562.766 -64.7689 515.558 -79.7983 493.169C-88.3421 479.075 -106.889 444.078 -112.726 416.838C-120.022 382.788 -100.565 323.668 -69.6957 253.884Z" fill="url(#paint8_linear_84_840)"/>
<path d="M70.5694 398.151C63.5349 397.852 55.1034 396.717 52.6089 394.035L48.8672 397.403L55.0411 398.151L52.6089 403.576L58.9699 399.835V404.699L66.6405 401.893L68.8856 404.699L77.4916 402.828L80.1109 403.576L83.8526 401.893H87.0331L89.8394 399.086L93.0199 400.583L96.5746 396.841L101.626 400.583V395.345L108.735 396.841L101.626 392.164C94.0801 395.095 77.6039 398.45 70.5694 398.151Z" fill="#D0A8A8"/>
<path d="M171.416 392.913C175.906 389.233 185.897 381.875 189.938 381.875C193.979 381.875 191.622 397.715 189.938 405.635C188.004 411.247 181.594 424.381 171.416 432.014C161.238 439.647 155.95 444.798 154.578 446.42" stroke="#EDD1BF" stroke-width="3"/>
<path d="M41.7441 357.298C42.9075 356.22 49.2475 354.711 65.3012 357.298C81.355 359.885 97.1954 360.666 103.109 360.733" stroke="#D0A8A8" stroke-width="3"/>
<path d="M11.632 435.194C11.5696 436.816 10.5095 441.48 6.76772 447.168C3.02596 452.855 8.45151 460.015 11.632 462.883" stroke="#D0A8A8" stroke-width="3"/>
<path d="M3.97461 492.63C4.6606 491.757 9.2879 490.535 22.3092 492.63C35.3305 494.725 45.4457 495.499 48.8757 495.624" stroke="#D0A8A8" stroke-width="3"/>
<g opacity="0.66">
<path d="M153.659 690.147C146.375 691.06 141.589 698.734 140.106 702.457C139.742 702.045 138.777 700.983 137.831 700.036C136.649 698.852 133.712 697.19 131.04 696.134C128.368 695.079 126.394 695.057 121.063 695.392C115.732 695.727 107.132 702.868 105.282 714.645C103.432 726.421 107.708 733.564 111.144 738.817C113.892 743.019 125.368 751.794 130.763 755.656C136.156 759.646 147.33 767.815 148.875 768.573C150.806 769.519 152.596 769.419 156.451 763.97C160.307 758.521 176.728 735.415 180.121 725.605C183.514 715.795 177.685 703.666 173.918 698.199C170.151 692.733 162.765 689.004 153.659 690.147Z" fill="#ED4956"/>
<path d="M151.335 700.47C145.944 701.146 142.402 706.825 141.305 709.58C141.035 709.275 140.321 708.49 139.621 707.789C138.746 706.913 136.572 705.682 134.595 704.901C132.618 704.12 131.156 704.104 127.211 704.352C123.266 704.599 116.902 709.884 115.532 718.6C114.163 727.315 117.328 732.601 119.871 736.489C121.905 739.599 130.398 746.093 134.39 748.951C138.381 751.904 146.65 757.949 147.794 758.51C149.223 759.211 150.548 759.136 153.401 755.104C156.255 751.071 168.407 733.971 170.918 726.711C173.429 719.451 169.116 710.475 166.328 706.429C163.54 702.384 158.073 699.625 151.335 700.47Z" fill="#EC7881"/>
<path d="M188.863 714.752C186.318 717.324 181.896 714.6 180.348 713.405L181.116 718.385C182.091 719.063 184.808 721.96 187.829 720.913C191.958 719.482 191.082 718.542 193.968 716.786C196.278 715.381 199.203 715.912 200.377 716.354L199.98 710.654C197.105 710.623 191.408 712.179 188.863 714.752Z" fill="url(#paint9_linear_84_840)"/>
<path d="M179.475 743.693C176.591 745.886 174.638 740.309 173.09 739.113L169.807 743.739C170.782 744.417 169.56 750.072 172.582 749.025C176.71 747.594 179.078 749.478 181.965 747.722C184.274 746.317 190.728 741.04 191.902 741.481L191.506 735.782C184.386 735.424 185.822 738.866 179.475 743.693Z" fill="url(#paint10_linear_84_840)"/>
<path d="M111.829 756.977C108.945 759.17 106.992 753.593 105.444 752.397L102.161 757.024C103.137 757.701 101.915 763.356 104.936 762.309C109.064 760.878 111.433 762.763 114.319 761.006C116.628 759.601 126.421 752.71 127.595 753.152L122.442 748.811C115.323 748.454 118.177 752.15 111.829 756.977Z" fill="url(#paint11_linear_84_840)"/>
<path d="M98.4668 727.496C102.075 729.806 104.973 728.71 105.793 727.864L108.359 733.73C107.298 734.623 104.098 736.474 100.524 736.294C96.057 736.07 94.2999 731.9 92.2191 730.553C90.5544 729.476 86.5791 733.405 84.7995 735.504L82.7576 729.9C83.8073 728.06 87.0612 724.225 91.6792 723.606C97.4517 722.831 93.9569 724.607 98.4668 727.496Z" fill="url(#paint12_linear_84_840)"/>
<path d="M109.83 692.981C109.652 697.233 112.078 699.149 113.23 699.419L109.43 704.587C108.115 704.135 108.315 700.761 106.657 697.62C104.584 693.694 100.103 696.385 100.218 693.925C100.31 691.958 98.6552 685.836 95.9259 685.383L99.763 680.796C101.896 680.758 100.529 683.894 103.412 687.52C107.017 692.053 110.053 687.666 109.83 692.981Z" fill="url(#paint13_linear_84_840)"/>
<path d="M177.163 689.085C173.301 690.948 172.477 695.554 172.784 696.686L166.917 692.31C166.695 690.949 169.53 691.457 171.534 688.52C174.039 684.85 169.521 682.22 171.761 681.153C173.553 680.299 178.208 675.951 177.314 673.356L183.212 674.524C184.259 676.366 180.823 676.662 178.969 680.898C176.652 686.192 181.992 686.756 177.163 689.085Z" fill="url(#paint14_linear_84_840)"/>
<path d="M120.853 713.774C121.18 707.402 124.565 708.933 126.216 710.494C127.66 711.454 129.931 713.52 127.464 714.106C124.381 714.838 123.845 714.811 122.074 717.916C120.303 721.022 124.528 722.476 125.355 727.309C126.183 732.141 125.02 733.857 121.603 727.12C118.186 720.383 120.445 721.738 120.853 713.774Z" fill="#FFE6E6" fill-opacity="0.28"/>
</g>
</g>
<defs>
<linearGradient id="paint0_linear_84_840" x1="405.514" y1="-0.507126" x2="257.583" y2="872.49" gradientUnits="userSpaceOnUse">
<stop stop-color="#88E9F4"/>
<stop offset="1" stop-color="#68D4E1"/>
</linearGradient>
<linearGradient id="paint1_linear_84_840" x1="1205.7" y1="-33.5071" x2="1353.63" y2="839.49" gradientUnits="userSpaceOnUse">
<stop stop-color="#88E9F4"/>
<stop offset="1" stop-color="#68D4E1"/>
</linearGradient>
<linearGradient id="paint2_linear_84_840" x1="702.958" y1="1" x2="703.143" y2="807.483" gradientUnits="userSpaceOnUse">
<stop stop-color="#88E9F4"/>
<stop offset="0.816382" stop-color="#6FD9E6"/>
</linearGradient>
<linearGradient id="paint3_linear_84_840" x1="667.236" y1="851.549" x2="643.03" y2="1056.86" gradientUnits="userSpaceOnUse">
<stop offset="0.14" stop-opacity="0"/>
<stop offset="0.995"/>
</linearGradient>
<linearGradient id="paint4_linear_84_840" x1="667.904" y1="624.659" x2="550.61" y2="1130.63" gradientUnits="userSpaceOnUse">
<stop offset="0.485" stop-opacity="0"/>
<stop offset="0.810679"/>
</linearGradient>
<linearGradient id="paint5_linear_84_840" x1="841" y1="704" x2="842.499" y2="1050.03" gradientUnits="userSpaceOnUse">
<stop stop-color="#52B9CB"/>
<stop offset="1" stop-color="#295C65"/>
</linearGradient>
<linearGradient id="paint6_linear_84_840" x1="975.316" y1="564" x2="1080.87" y2="1058.79" gradientUnits="userSpaceOnUse">
<stop offset="0.152242" stop-opacity="0"/>
<stop offset="1"/>
</linearGradient>
<linearGradient id="paint7_linear_84_840" x1="512.349" y1="183" x2="512.349" y2="1283.16" gradientUnits="userSpaceOnUse">
<stop stop-color="#B84141"/>
<stop offset="1" stop-color="#FF857F"/>
</linearGradient>
<linearGradient id="paint8_linear_84_840" x1="-62.2493" y1="183" x2="73.5015" y2="588.023" gradientUnits="userSpaceOnUse">
<stop stop-color="#CF4848"/>
<stop offset="1" stop-color="#DC6464"/>
</linearGradient>
<linearGradient id="paint9_linear_84_840" x1="180.257" y1="715.283" x2="200.382" y2="716.256" gradientUnits="userSpaceOnUse">
<stop stop-color="#ED4956"/>
<stop offset="1" stop-color="#0291FF" stop-opacity="0"/>
</linearGradient>
<linearGradient id="paint10_linear_84_840" x1="171.785" y1="740.411" x2="191.91" y2="741.384" gradientUnits="userSpaceOnUse">
<stop stop-color="#ED4956"/>
<stop offset="1" stop-color="#0291FF" stop-opacity="0"/>
</linearGradient>
<linearGradient id="paint11_linear_84_840" x1="104.141" y1="753.691" x2="124.265" y2="754.664" gradientUnits="userSpaceOnUse">
<stop stop-color="#0291FF" stop-opacity="0"/>
<stop offset="1" stop-color="#ED4956"/>
</linearGradient>
<linearGradient id="paint12_linear_84_840" x1="82.7969" y1="729.133" x2="108.348" y2="730.442" gradientUnits="userSpaceOnUse">
<stop stop-color="#00A6FF" stop-opacity="0"/>
<stop offset="1" stop-color="#ED4956"/>
</linearGradient>
<linearGradient id="paint13_linear_84_840" x1="100.45" y1="680.44" x2="112.129" y2="702.989" gradientUnits="userSpaceOnUse">
<stop stop-color="#00A6FF" stop-opacity="0"/>
<stop offset="1" stop-color="#ED4956"/>
</linearGradient>
<linearGradient id="paint14_linear_84_840" x1="183.854" y1="674.954" x2="169.713" y2="696.075" gradientUnits="userSpaceOnUse">
<stop stop-color="#00A6FF" stop-opacity="0"/>
<stop offset="1" stop-color="#ED4956"/>
</linearGradient>
<clipPath id="clip0_84_840">
<rect width="1440" height="1024" fill="white"/>
</clipPath>
</defs>
</svg>
