<svg width="320" height="568" viewBox="0 0 320 568" fill="none" xmlns="http://www.w3.org/2000/svg">
<g clip-path="url(#clip0_84_957)">
<rect width="320" height="568" fill="white"/>
<path d="M69.1651 421.311C47.7922 431.673 13.6054 427.564 0 423.991V444.089H320V419.078C318.925 418.562 317.908 418.137 316.947 417.793C309.106 414.984 296.57 417.345 288.505 415.261C273.618 411.414 252.769 410.524 234.508 422.651C208.861 439.682 167.421 433.916 149.907 428.904C131.899 422.055 90.538 410.949 69.1651 421.311Z" fill="#02385A"/>
<path d="M69.1651 421.311C47.7922 431.673 13.6054 427.564 0 423.991V444.089H320V419.078C318.925 418.562 317.908 418.137 316.947 417.793C309.106 414.984 296.57 417.345 288.505 415.261C273.618 411.414 252.769 410.524 234.508 422.651C208.861 439.682 167.421 433.916 149.907 428.904C131.899 422.055 90.538 410.949 69.1651 421.311Z" fill="url(#paint0_linear_84_957)" fill-opacity="0.2"/>
<path d="M69.1651 421.311C47.7922 431.673 13.6054 427.564 0 423.99V315.607C3.90847 317.245 13.0909 323.349 12.0223 337.046C10.9536 350.743 32.3562 360.32 43.1911 363.397C54.7681 364.836 81.9592 365.839 98.1076 358.335C114.256 350.832 140.557 355.209 151.688 358.335C170.934 363.695 217.499 372.806 249.796 366.375C253.256 365.601 259.22 363.962 265.38 361.649C270.672 359.662 276.108 357.178 280.223 354.316C291.354 346.574 314.063 340.768 320 341.214V419.077C309.076 413.837 304.168 417.986 303.08 420.715C290.909 414.264 260.156 405.619 234.508 422.651C208.861 439.682 167.421 433.916 149.907 428.903C131.899 422.055 90.538 410.949 69.1651 421.311Z" fill="#116589"/>
<path d="M69.1651 421.311C47.7922 431.673 13.6054 427.564 0 423.99V315.607C3.90847 317.245 13.0909 323.349 12.0223 337.046C10.9536 350.743 32.3562 360.32 43.1911 363.397C54.7681 364.836 81.9592 365.839 98.1076 358.335C114.256 350.832 140.557 355.209 151.688 358.335C170.934 363.695 217.499 372.806 249.796 366.375C253.256 365.601 259.22 363.962 265.38 361.649C270.672 359.662 276.108 357.178 280.223 354.316C291.354 346.574 314.063 340.768 320 341.214V419.077C309.076 413.837 304.168 417.986 303.08 420.715C290.909 414.264 260.156 405.619 234.508 422.651C208.861 439.682 167.421 433.916 149.907 428.903C131.899 422.055 90.538 410.949 69.1651 421.311Z" fill="url(#paint1_linear_84_957)" fill-opacity="0.2"/>
<path d="M12.0223 337.642C13.0909 323.945 3.90847 317.841 0 316.203V245.635C5.7885 254.27 38.2931 259.034 54.6197 260.225C61.308 260.713 66.6014 262.125 71.8367 264.861C79.3811 268.804 86.8046 275.495 98.1076 286.13C113.425 300.541 157.229 308.114 177.217 310.099C183.401 311.786 199.866 319.181 216.252 335.259C232.638 351.338 255.832 359.949 265.38 362.245C259.22 364.558 253.256 366.196 249.796 366.97C217.499 373.402 170.934 364.291 151.688 358.931C140.557 355.805 114.256 351.428 98.1076 358.931C81.9592 366.434 54.7681 365.432 43.1911 363.993C32.3562 360.916 10.9536 351.338 12.0223 337.642Z" fill="#2081A1"/>
<path d="M319.999 342.322C314.062 341.876 291.354 347.682 280.222 355.423C276.107 358.285 270.671 360.77 265.38 362.757C255.831 360.461 232.637 351.85 216.252 335.772C199.866 319.693 183.401 312.298 177.216 310.611C157.229 308.626 113.424 301.053 98.1068 286.642C86.8038 276.007 79.3803 269.316 71.8359 265.373C94.3468 266.26 145.394 265.203 169.498 253.889C193.602 242.574 225.751 245.303 238.812 248.083C254.495 260.737 292.689 282.831 319.999 269.967V342.322Z" fill="url(#paint2_linear_84_957)"/>
<path d="M231.243 230.003C261.996 225.239 305.751 197.547 320 198.441V-21.1541H0V188.317C6.13482 203.503 32.5343 230.241 89.0538 215.711C145.573 201.18 172.715 214.321 178.553 215.711C186.271 217.696 200.49 234.767 231.243 230.003Z" fill="#7DDEEA"/>
<path d="M0 246.677C5.7885 255.312 38.2931 260.076 54.6197 261.267C61.308 261.755 66.6014 263.167 71.8367 265.903C94.3476 266.79 145.395 265.733 169.499 254.419C193.603 243.104 225.751 245.833 238.813 248.612C254.496 261.267 292.69 283.36 320 270.497V184.893C305.751 183.999 266.449 206.629 235.696 211.393C204.942 216.157 181.818 219.333 174.1 217.348C168.262 215.959 167.718 200.525 91.1317 213.924C33.6531 223.98 6.13482 189.955 0 174.769V246.677Z" fill="#61C8D7"/>
<path d="M0 246.677C5.7885 255.312 38.2931 260.076 54.6197 261.267C61.308 261.755 66.6014 263.167 71.8367 265.903C94.3476 266.79 145.395 265.733 169.499 254.419C193.603 243.104 225.751 245.833 238.813 248.612C254.496 261.267 292.69 283.36 320 270.497V184.893C305.751 183.999 266.449 206.629 235.696 211.393C204.942 216.157 181.818 219.333 174.1 217.348C168.262 215.959 167.718 200.525 91.1317 213.924C33.6531 223.98 6.13482 189.955 0 174.769V246.677Z" fill="url(#paint3_linear_84_957)" fill-opacity="0.2"/>
<path d="M207.795 -26.1541H148.765L148 209.649C178.37 211.632 223.398 215.711 247 214.682L207.795 -26.1541Z" fill="url(#paint4_linear_84_957)"/>
<path d="M88.2189 -33.7067L121.081 -27.2426L81.7265 203.954C64.4357 186.691 32.9386 201.455 19.9976 197.863L88.2189 -33.7067Z" fill="url(#paint5_linear_84_957)"/>
<path d="M299.467 -33.1693L268.69 -26.8484L304 189.346C325.682 180.019 339.379 181.869 351.5 178.346L299.467 -33.1693Z" fill="url(#paint6_linear_84_957)"/>
<path d="M22.7347 189.184L11.6247 169.074C10.9684 169.074 9.96524 168.737 11.2028 167.386L2.34319 152.058C1.73378 152.386 0.43059 152.845 0.0930726 152.058C-0.328825 151.073 0.796235 150.511 1.21813 150.37L8.95268 145.87C9.65584 145.588 10.8934 145.56 10.2184 147.698L8.95268 148.401L16.9687 163.589C17.9063 163.402 19.5845 163.364 18.797 164.714L17.9532 165.418L30.3288 188.2L36.7979 187.216L38.6261 163.027C37.6886 162.746 36.0947 162.042 37.2198 161.48H39.048C39.273 161.48 39.7043 150.886 39.8918 145.588L37.0792 145.448L36.7979 143.198H32.4383V141.088H34.4072L34.6884 134.479L28.9225 134.057V129.697H32.4383L45.3765 124.494L50.7205 127.025L57.7521 126.744C60.6585 125.056 68.2433 121.681 75.3312 121.681C82.4191 121.681 92.629 115.587 96.8479 112.54L105.427 108.602L163.226 140.948H165.758V145.307H159.007V152.058H160.695V153.886H155.492V155.433H152.257L151.273 170.902C152.21 171.23 153.72 171.971 152.257 172.309C151.481 172.488 151.119 172.516 150.979 172.483L148.275 209.93C151.834 210.196 155.046 210.471 157.039 210.471L155.492 195.372H157.039L160.133 190.591L169.414 187.216V185.387H173.211L180.384 163.027C179.915 162.746 179.118 162.014 179.68 161.339C180.243 160.664 180.946 161.058 181.227 161.339L186.009 146.432L184.462 145.87L185.165 144.323L194.728 147.417L194.306 148.964H191.915L187.134 163.027L188.4 163.871C188.118 164.433 187.359 165.446 186.571 164.996L180.384 183.7H182.915V188.622L179.962 188.903L181.087 206.904C187.509 202.873 201.45 191.069 205.838 176.106L202.885 147.417H201.619V144.885L202.182 144.323C202.275 137.572 200.663 124.156 193.462 124.494L192.9 118.025H191.353V115.634H198.806C200.916 114.977 205.782 114.171 208.369 116.196H224.402L234.808 111.555L256.325 109.446V111.555H255.341V117.884C252.95 119.29 248.562 123.706 250.137 130.119L251.122 139.541H252.387V141.791H251.122L252.809 159.652C254.872 160.589 259.166 162.943 259.841 164.855C260.516 166.768 260.122 128.713 259.841 109.446C259.56 107.899 257.76 104.383 252.809 102.696V95.8046H251.122V94.117H255.341V90.7418H259.841V87.0854H276.014V83.5696L283.327 85.1165C284.592 88.0698 289.233 94.342 297.671 95.8046C306.109 97.2672 309.531 97.7266 310.187 97.7735C311.359 96.3203 314.547 93.5545 317.922 94.117V95.8046H316.656V102.696C314.266 103.68 309.484 106.605 309.484 110.43C309.484 114.256 309.859 150.089 310.047 167.527L311.782 173.012C310.048 172.637 312.795 181.491 310.657 185.878C311.611 186.346 312.055 186.786 311.801 187.188C311.814 187.193 311.808 187.203 311.782 187.216C311.181 188.053 309.818 188.722 307.917 189.249C307.195 189.683 306.412 189.87 305.572 189.781C304.919 189.903 304.229 190.013 303.507 190.114C286.52 196.584 249.363 211.887 248.216 215.061C243.622 215.577 212.917 225.186 195.291 223.499C173.72 221.434 166.977 217.034 157.039 210.471C155.046 210.471 151.834 210.196 148.275 209.93C144.926 209.679 141.271 209.436 138.033 209.436L129.276 209.436C126.16 210.471 125.714 210.471 119.332 210.471L121.881 170.34C121.271 170.293 120.109 169.974 120.334 169.074H122.162L123.287 153.183L120.334 152.901V150.792H117.38V152.62L113.443 152.901L112.88 168.23L114.427 168.512C114.333 168.98 113.836 169.833 112.599 169.496L108.794 211.807C106.271 212.549 103.334 214.194 99.1782 214.194C81.6327 215.369 72.3779 219.842 43.6364 212.108C27.9035 207.354 13.8196 197.685 9.6475 190.137L22.7347 189.184Z" fill="#6FD4E0"/>
<path d="M141.388 173.061L138.033 209.581H128.979C130.246 193.001 131.763 171.469 132.101 171.924C132.439 172.379 133.273 171.735 133.649 171.356C133.761 170.446 132.664 170.408 132.101 170.503L133.086 154.729H136.322V152.597H139.84V155.013H142.795L141.81 171.071H139.84C139.502 171.867 140.731 172.729 141.388 173.061Z" fill="#7DDEEA"/>
<path d="M102.552 169.792L99.4563 208.588C96.1919 208.019 93.5934 209.867 92.7023 210.862C92.3646 209.611 86.6518 207.119 83.8376 206.03L87.0739 167.661H88.7624V166.666H87.0739L88.0589 150.892H91.4359V149.045L101.286 149.755V151.887H103.959L103.115 168.229H101.286C101.06 169.252 102.036 169.698 102.552 169.792Z" fill="#7DDEEA"/>
<path d="M77.0835 167.661L73.9879 206.598L64.1383 207.735C65.2639 193.856 67.5997 166.211 67.9374 166.666C68.3595 167.234 69.9073 166.098 69.7666 165.671C69.6541 165.33 68.5003 165.15 67.9374 165.103L68.9224 149.045H72.4401V147.482H75.6764V149.755L78.772 150.182L77.0835 166.098H75.6764V167.234L77.0835 167.661Z" fill="#7DDEEA"/>
<path d="M57.6656 165.671L54.8514 207.735C54.8514 207.053 48.4726 204.135 45.2832 202.761L48.3788 164.677C49.9548 164.335 50.0673 163.398 49.9266 162.971H48.6602L49.9266 147.482H53.1629V146.06H56.2585V148.192H59.2134L58.0878 164.392H56.2585C56.2585 164.961 57.1966 165.482 57.6656 165.671Z" fill="#7DDEEA"/>
<path d="M267.604 118.065V170.929L269.996 172.492L277.735 135.829L276.328 135.544V133.697L283.504 135.544V136.539H282.379L274.499 174.766L279.283 177.015C281 175.602 282.701 174.313 284.208 173.231V159.419H280.831V155.582L292.088 154.729V157.145C297.153 157.145 301.046 158.661 302.359 159.419V118.776C301.937 113.66 298.025 103.286 285.756 102.718C273.486 102.149 268.542 112.713 267.604 118.065Z" fill="#7DDEEA"/>
<path d="M209.772 147.339L211.883 167.803C212.024 166.24 213.544 163.597 218.496 165.529C223.449 167.462 229.941 165.671 232.567 164.534L217.793 136.397L216.386 137.108L215.401 135.402L222.577 131.992L223.14 133.129L221.592 134.55L237.211 163.113C238.674 161.977 243.637 160.366 245.935 159.703L244.106 143.36H243.261V140.66H244.106L243.261 133.981C241.573 129.055 235.072 119.714 222.577 121.76C210.082 123.806 208.834 137.392 209.772 143.929H210.757V146.913L209.772 147.339Z" fill="#7DDEEA"/>
<path d="M268.992 385.501C270.634 380.984 276.954 382.06 279.909 383.162C278.53 384.775 279.006 387.222 279.417 388.244C280.73 389.373 281.14 387.356 282.372 388.244C283.357 388.953 282.727 391.712 282.289 393.003C281.496 392.061 279.712 390.421 278.924 391.389C278.136 392.357 278.924 393.352 279.417 393.728C277.578 395.922 275.094 395.234 274.081 394.616C273.622 394.164 272.85 394.428 272.522 394.616C272.128 395.326 273.397 395.933 274.081 396.148C270.141 395.89 268.226 392.599 267.761 390.986C266.054 389.954 265.463 388.566 265.381 388.002C268.007 387.421 268.883 386.093 268.992 385.501Z" fill="#033656" fill-opacity="0.5"/>
<path d="M287.395 392.625C289.036 388.108 295.357 389.184 298.311 390.286C296.932 391.899 297.409 394.346 297.819 395.368C299.132 396.497 299.543 394.481 300.774 395.368C301.759 396.078 301.13 398.836 300.692 400.127C299.898 399.186 298.114 397.546 297.326 398.514C296.538 399.482 297.326 400.476 297.819 400.853C295.98 403.047 293.496 402.358 292.484 401.74C292.024 401.288 291.252 401.552 290.924 401.74C290.53 402.45 291.8 403.057 292.484 403.273C288.544 403.014 286.628 399.723 286.163 398.11C284.456 397.078 283.865 395.69 283.783 395.126C286.41 394.545 287.285 393.217 287.395 392.625Z" fill="#033656" fill-opacity="0.5"/>
<path d="M285.324 380.915C286.158 378.609 289.372 379.158 290.875 379.721C290.173 380.545 290.415 381.794 290.624 382.316C291.292 382.893 291.501 381.863 292.127 382.316C292.628 382.678 292.308 384.087 292.085 384.746C291.681 384.265 290.774 383.428 290.374 383.922C289.973 384.416 290.374 384.924 290.624 385.117C289.689 386.237 288.426 385.886 287.911 385.57C287.678 385.339 287.285 385.474 287.118 385.57C286.918 385.932 287.563 386.242 287.911 386.352C285.908 386.221 284.934 384.54 284.698 383.716C283.829 383.189 283.529 382.481 283.487 382.192C284.823 381.896 285.268 381.218 285.324 380.915Z" fill="#033656" fill-opacity="0.5"/>
<path d="M301.65 388.04C302.485 385.733 305.698 386.282 307.201 386.845C306.5 387.669 306.742 388.918 306.95 389.44C307.618 390.017 307.827 388.987 308.453 389.44C308.954 389.803 308.634 391.211 308.411 391.87C308.008 391.39 307.101 390.552 306.7 391.046C306.299 391.541 306.7 392.049 306.95 392.241C306.015 393.361 304.752 393.01 304.237 392.694C304.004 392.463 303.611 392.598 303.444 392.694C303.244 393.056 303.89 393.367 304.237 393.477C302.234 393.345 301.26 391.664 301.024 390.841C300.156 390.313 299.855 389.605 299.813 389.317C301.149 389.02 301.594 388.342 301.65 388.04Z" fill="#033656" fill-opacity="0.5"/>
<path d="M296.226 382.954C296.755 381.513 298.79 381.856 299.742 382.208C299.298 382.723 299.451 383.503 299.583 383.83C300.006 384.19 300.138 383.546 300.535 383.83C300.852 384.056 300.649 384.936 300.508 385.348C300.253 385.048 299.678 384.525 299.425 384.834C299.171 385.142 299.425 385.46 299.583 385.58C298.991 386.28 298.191 386.061 297.865 385.863C297.717 385.719 297.468 385.803 297.363 385.863C297.236 386.09 297.645 386.284 297.865 386.352C296.596 386.27 295.979 385.22 295.83 384.705C295.28 384.375 295.089 383.933 295.063 383.752C295.909 383.567 296.191 383.143 296.226 382.954Z" fill="#033656" fill-opacity="0.5"/>
<path fill-rule="evenodd" clip-rule="evenodd" d="M6.97144 179.828C-4.84509 177.741 -31.657 180.753 -44.3726 209.498C-60.2671 245.429 -70.2855 275.869 -66.5286 293.401C-63.5231 307.427 -53.9735 325.447 -49.5744 332.704C-41.8359 344.232 -24.9909 368.539 -19.5193 373.548C-14.0478 378.557 -11.0744 380.966 -10.2716 381.544C-17.7854 373.452 -33.4294 352.76 -35.8955 334.727C-38.3615 316.694 -38.7212 309.681 -38.5927 308.429C-38.368 316.168 -34.778 335.575 -22.2166 351.296C-9.6551 367.017 10.5678 383.727 19.1091 390.117C50.3202 447.594 118.117 568.791 139.618 593.759C161.119 618.728 177.733 635.374 183.352 640.576C188.008 644.525 201.405 652.694 217.742 653.773C234.08 654.852 251.972 651.076 258.875 649.053C269.343 642.792 292.475 628.535 301.261 621.599C312.242 612.929 336.132 602.718 341.816 602.718C342.919 602.718 344.172 602.529 345.452 602.336C350.761 601.535 356.534 600.665 354.05 612.929C352.499 620.586 348.851 628.024 345.45 634.96C342.09 641.811 338.97 648.173 338.348 653.773C337.346 662.79 342.683 676.732 345.476 682.576C345.027 693.879 347.114 718.796 359.059 728.044C373.99 739.604 384.875 740.47 398.265 738.833C411.655 737.195 444.311 726.021 460.013 708.2C472.575 693.943 476.935 685.883 477.545 683.636C480.242 683.282 486.947 680.38 492.187 671.594C498.738 660.613 504.325 634.892 504.807 627.86C504.885 626.722 504.829 625.006 504.76 622.895C504.405 611.961 503.705 590.427 519.449 583.645C534.476 577.171 548.573 579.214 553.742 581.044C557.82 582.328 566.554 586.997 568.866 595.397C571.756 605.897 570.986 618.998 568.866 623.429C566.747 627.86 580.041 613.411 577.729 600.117C575.417 586.824 574.357 581.525 568.866 574.493C567.214 572.377 565.544 569.039 563.66 565.273C559.283 556.525 553.749 545.464 544.591 542.03C534.11 538.1 519.93 540.392 514.151 542.03C509.527 544.759 498.661 554.245 492.187 570.351C485.714 586.458 482.041 607.888 481.013 616.59C476.742 630.108 466.101 659.033 457.701 666.585C447.201 676.025 434.871 686.718 425.238 685.177C415.605 683.636 398.265 680.746 398.265 663.214C398.265 649.188 401.605 637.14 403.274 632.87C410.403 623.333 425.238 602.487 427.55 595.397C430.44 586.535 431.981 562.645 427.55 556.961C427.058 556.331 426.537 555.629 425.981 554.879C421.525 548.874 414.685 539.654 400.385 536.828C393.519 535.472 384.952 535.641 376.06 535.817C364.117 536.054 351.59 536.302 341.816 532.879C328.175 528.101 324.38 505.521 324.187 494.828C324.187 492.428 325.803 487.062 327.947 479.943C332.171 465.916 338.444 445.082 338.444 426.723C338.444 384.241 318.922 358.984 309.352 348.984C308.554 348.149 307.788 347.317 307.02 346.484C299.55 338.371 291.96 330.126 252.999 318.158C230.045 311.107 217.705 312.306 206.649 313.379C197.013 314.315 188.353 315.156 174.49 310.356C144.724 300.048 130.949 280.301 126.036 270.475C124.49 267.384 121.848 260.984 118.709 253.381C111.872 236.819 102.677 214.548 97.3294 208.342C95.7918 206.557 94.4685 204.919 93.2276 203.383C88.1733 197.126 84.4426 192.508 72.7651 186.089C58.2192 178.094 42.7101 172.218 30.7651 173.085C21.2091 173.778 10.921 177.869 6.97144 179.828ZM326.847 421.32C322.743 405.01 310.501 374.396 289.123 364.108C285.677 362.45 282.55 360.921 279.67 359.512C258.954 349.383 250.978 345.483 228.82 344.553C220.525 344.205 211.011 346.208 201.375 348.238C181.694 352.383 161.5 356.637 150.118 341.181C136.555 322.763 128.412 307.177 126.036 301.686C132.554 312.218 149.078 333.841 163.027 336.076C172.74 337.632 184.427 336.109 197.122 334.454C207.213 333.139 217.941 331.741 228.82 331.741L229.303 331.741C245.477 331.739 269.123 331.736 292.013 350.525C309.667 365.016 322.172 402.19 326.847 421.32ZM148.192 598.769C153.426 605.608 166.283 621.04 175.839 628.053C177.512 629.281 179.151 630.539 180.784 631.792C190.809 639.484 200.679 647.057 217.742 647.223C218.076 647.226 218.406 647.229 218.734 647.233L219.304 647.239C220.098 647.248 220.876 647.257 221.639 647.266C238.943 647.469 248.462 647.581 262.921 640.576C269.416 637.429 276.265 629.891 283.307 622.141C293.08 611.384 303.224 600.22 313.302 599.828C327.174 599.289 333.339 599.603 334.687 599.828C329.132 597.902 316.096 594.626 308.389 596.938C298.756 599.828 279.297 612.736 264.944 625.067C250.591 637.397 208.784 639.035 189.228 628.053C173.584 619.268 155.352 604.869 148.192 598.769ZM365.128 724.672C355.88 719.201 352.669 701.328 352.219 693.076C352.829 694.521 355.052 699.164 359.059 706.177C364.068 714.943 371.678 721.493 387.284 726.503C399.768 730.51 415.733 726.952 422.155 724.672C419.49 725.796 411.983 728.603 403.274 730.837C392.389 733.631 376.687 731.512 365.128 724.672ZM339.504 536.828C350.261 538.562 374.433 541.78 385.068 540.778C398.362 539.525 412.137 544.246 415.99 553.012C419.843 561.778 422.733 569.195 421.674 582.296C420.826 592.777 413.807 605.929 410.403 611.195C414.481 601.402 421.866 579.734 418.784 571.411C418.39 570.349 418.022 569.339 417.671 568.376L417.664 568.357L417.662 568.352C414.579 559.895 412.811 555.047 406.935 550.122C402.116 546.082 389.11 544.91 377.279 543.844C373.029 543.461 368.93 543.092 365.417 542.608C354.782 541.144 344.096 538.145 339.504 536.828ZM484.674 611.195C486.761 600.31 492.322 576.478 497.871 568.232C498.859 566.763 499.808 565.318 500.733 563.911L500.738 563.903L500.74 563.899C506.297 555.437 510.945 548.36 517.715 545.883C525.614 542.993 535.151 542.03 543.242 547.328C551.334 552.626 561.738 566.113 561.834 568.232C561.881 569.264 562.24 570.277 562.615 571.05C560.875 568.583 556.442 564.74 548.155 563.03C536.018 560.525 530.527 560.429 522.339 563.897C514.151 567.365 501.628 579.599 496.908 588.269C493.131 595.204 487.178 606.443 484.674 611.195ZM479.664 677.856C483.357 669.411 491.59 649.785 494.981 638.842C498.372 627.899 500.953 620.411 501.82 618.035C502.302 622.819 501.82 634.025 492.187 663.695C489.167 672.997 485.68 674.777 481.102 677.114C480.634 677.352 480.155 677.597 479.664 677.856ZM349.04 640.576C353.356 630.018 356.554 617.746 357.614 612.929C358.096 613.25 359.059 614.856 359.059 618.709C359.059 623.525 354.05 639.613 349.04 652.81C345.033 663.368 347.371 678.145 349.04 684.214C348.43 683.314 346.651 678.8 344.417 667.934C342.095 656.645 343.1 654.339 346.603 646.306C347.315 644.673 348.13 642.805 349.04 640.576Z" fill="url(#paint7_linear_84_957)"/>
<path d="M-39.9363 274.051C-43.2501 258.407 -42.2161 255.138 -41.2849 255.459C-40.8354 244.638 -38.318 219.624 -31.8447 206.138C-25.3714 192.651 -6.09242 185.619 2.7379 183.789C13.5269 184.014 41.0388 186.621 64.7746 195.252C88.5104 203.884 85.2609 248.234 80.6691 269.33C85.6783 266.665 95.7545 262.221 95.9856 265.766C96.2168 269.311 95.3113 282.913 94.8297 289.271C91.7792 294.216 84.4645 305.377 79.6095 310.463C74.7544 315.55 70.9719 316.307 69.6875 316.051C70.3297 340.358 74.2343 390.649 84.715 397.353C95.1957 404.058 119.458 405.709 130.279 405.696C153.18 405.175 166.886 412.243 176.614 418.257C187.21 424.808 192.605 453.418 192.798 466.711C192.99 480.005 194.435 515.358 196.844 527.785C198.77 537.726 204.586 550.101 207.253 555.046C210.862 551.178 214.348 547.126 217.266 542.812C226.128 529.711 229.371 498.327 229.885 484.273C226.151 480.468 226.107 476.274 223.238 470.275C220.059 463.629 218.903 457.078 217.266 453.032C215.955 449.796 212.16 447.895 210.426 447.349C211.614 448.537 214.125 451.414 214.665 453.418C215.204 455.421 213.091 454.252 211.967 453.418C206.541 451.812 195.437 447.522 194.435 443.207C193.183 437.812 195.784 427.408 196.844 423.363C197.903 419.317 200.215 419.895 198.963 419.702C197.71 419.509 198.096 415.367 197.71 411.707C197.325 408.046 199.348 406.89 198.963 406.023C198.577 405.156 199.731 402.944 201.564 400.436C203.268 398.103 202.327 396.3 203.176 395.726C201.433 396.556 197.428 398.028 193.665 398.028C188.752 398.028 191.834 395.234 188.463 395.619C185.766 395.928 185.669 394.463 185.958 393.693C190.871 392.087 201.525 388.356 204.839 386.275C208.981 383.674 210.715 381.074 213.22 380.399C215.223 379.86 221.504 380.174 224.394 380.399C224.683 380.335 225.338 379.07 225.646 374.523C225.955 369.976 229.307 367.106 230.944 366.239C231.073 364.505 231.715 361.364 233.256 362.674C234.798 363.985 236.467 381.138 237.11 389.551C241.123 397.835 250.037 417.506 253.582 429.913C257.127 442.32 257.307 474.129 256.954 488.482C255.541 504.441 251.944 540.096 248.862 555.046C245.779 569.997 236.532 591.074 232.293 599.743C221.087 618.464 197.325 655.018 191.931 651.473C185.188 647.042 178.348 630.665 176.807 614.097C175.266 597.528 161.972 564.872 157.252 547.629C153.476 533.834 151.697 521.127 151.279 516.498C147.582 519.353 143.353 521.71 140.683 522.968C141.261 533.468 142.455 556.838 142.61 566.317C142.802 578.165 140.009 597.335 145.692 611.207C151.376 625.078 160.334 663.321 170.353 685.381C180.371 707.441 198.866 719.289 214.857 739.904C230.848 760.519 264.467 804.445 293.27 843.652C316.312 875.017 342.367 923.895 352.513 944.413L110.146 1019.07C93.2242 998.487 54.9104 950.578 37.0315 923.606C14.6828 889.89 14.0085 847.216 14.0085 807.528C14.0085 767.84 21.6186 719 23.1599 699.06C24.7012 679.12 23.8342 666.404 23.1599 641.743C22.4856 617.083 -18.6474 558.707 -31.1704 544.064C-43.6933 529.422 -71.2438 474.707 -75.4823 473.454C-79.7209 472.202 -107.175 493.491 -112.762 504.087C-117.232 512.564 -154.184 555.271 -172.102 575.564C-167.992 579.771 -158.018 590.708 -151.005 600.803C-142.239 613.422 -112.569 640.78 -103.803 647.331C-95.0374 653.881 -86.8493 655.519 -77.6016 662.358C-68.5829 669.028 -60.7552 685.043 -54.3866 698.073L-53.9043 699.06C-47.4502 712.257 -32.3263 724.01 -30.1107 725.165C-27.8951 726.321 -19.8997 750.789 -19.3217 752.427C-18.7438 754.065 -19.8034 757.532 -20.5741 759.748C-21.3447 761.964 -25.0052 780.363 -29.3401 785.661C-32.808 789.899 -32.1979 786.528 -31.4594 784.312C-32.0373 781.583 -33.1741 775.142 -33.097 771.211C-33.0007 766.298 -28.5695 758.977 -28.5695 754.161C-28.5695 750.308 -32.808 742.409 -34.9273 738.941L-39.4548 731.523C-40.1291 731.909 -41.5548 733.565 -41.8631 737.11C-42.1713 740.655 -44.3676 751.046 -45.4273 755.798C-46.0374 756.376 -47.9319 757.648 -50.6291 758.11C-53.3264 758.573 -55.7988 757.918 -56.6979 757.532C-57.3722 757.789 -59.5108 758.438 -62.6704 758.977C-65.83 759.517 -69.0603 758.239 -70.2805 757.532C-70.6016 757.693 -71.6676 758.207 -73.3631 758.977C-75.0585 759.748 -82.0328 759.298 -85.308 758.977C-86.9456 757.757 -86.9071 750.905 -87.9089 746.743C-88.9108 742.582 -83.57 740.418 -82.3819 741.349C-84.8869 733.111 -88.9803 723.914 -90.2209 721.601C-95.808 714.922 -107.734 700.505 -110.739 696.266C-114.496 690.968 -113.725 683.84 -114.881 677.482C-116.037 671.124 -130.487 663.418 -137.615 658.601C-144.744 653.785 -160.638 647.523 -173.932 641.358C-184.567 636.426 -203.088 620.743 -211.019 613.519C-217.441 607.899 -230.285 595.524 -230.285 590.977C-230.285 585.294 -222.29 566.317 -211.019 546.569C-199.748 526.821 -176.725 496.863 -157.17 480.294C-137.615 463.725 -127.501 442.051 -122.684 434.441C-117.868 426.83 -98.6016 400.532 -96.2897 397.064C-93.9778 393.596 -76.6383 387.528 -65.753 391.188C-57.0447 394.117 -32.2621 394.335 -20.9594 394.078C-10.941 391.413 10.1939 385.832 14.5865 384.83C18.9792 383.829 18.1507 364.441 17.1874 354.872C16.2241 355.61 12.7563 357.164 6.59113 357.473C-1.11531 357.858 -20.1887 336.473 -28.8585 320.289C-37.5282 304.106 -35.7941 293.606 -39.9363 274.051Z" fill="#FFECE3"/>
<path d="M17.1874 354.872C16.2241 355.61 12.7563 357.164 6.59112 357.473C-1.11531 357.858 -20.1887 336.473 -28.8585 320.289C-37.5282 304.106 -35.7941 293.606 -39.9363 274.051C-43.2501 258.407 -42.2161 255.138 -41.2849 255.459C-40.8354 244.638 -38.318 219.624 -31.8447 206.138C-25.3714 192.651 -6.09242 185.619 2.73789 183.789C13.5269 184.014 41.0388 186.621 64.7746 195.252C88.5104 203.884 85.2609 248.234 80.6691 269.33C85.6783 266.665 95.7544 262.221 95.9856 265.766C96.2168 269.311 95.3113 282.913 94.8297 289.271C91.7792 294.216 84.4645 305.377 79.6095 310.463C74.7544 315.55 70.9719 316.307 69.6875 316.051C70.3297 340.358 74.2343 390.649 84.715 397.353C95.1957 404.058 119.458 405.709 130.279 405.696M17.1874 354.872C18.1507 364.441 18.9792 383.829 14.5865 384.83C10.1939 385.832 -10.941 391.413 -20.9594 394.078M17.1874 354.872C28.9397 348.835 53.3884 335.49 57.1645 330.404C60.9407 325.318 65.0315 320.129 66.6049 318.17M-20.9594 394.078C-32.2621 394.335 -57.0447 394.117 -65.753 391.188C-76.6383 387.528 -93.9777 393.596 -96.2897 397.064C-98.6016 400.532 -117.868 426.83 -122.684 434.441C-127.501 442.051 -137.615 463.725 -157.17 480.294C-176.725 496.863 -199.748 526.821 -211.019 546.569C-222.29 566.317 -230.285 585.294 -230.285 590.977C-230.285 595.524 -217.441 607.899 -211.019 613.519C-203.088 620.743 -184.567 636.426 -173.932 641.358C-160.638 647.523 -144.744 653.785 -137.615 658.601C-130.487 663.418 -116.037 671.124 -114.881 677.482C-113.725 683.84 -114.496 690.968 -110.739 696.266C-107.734 700.505 -95.808 714.922 -90.2209 721.601C-88.3264 725.133 -79.7787 744.72 -80.3952 752.427C-81.0117 760.133 -81.3544 742.601 -82.3819 741.349C-83.57 740.418 -88.9108 742.582 -87.9089 746.743C-86.9071 750.905 -86.9456 757.757 -85.308 758.977C-82.0328 759.298 -75.0585 759.748 -73.3631 758.977C-71.6676 758.207 -70.6016 757.693 -70.2805 757.532M-20.9594 394.078C-9.84926 397.032 14.4709 402.806 22.8709 402.266C33.3709 401.592 40.4031 411.418 47.1462 412.188M-70.2805 757.532C-69.0603 758.239 -65.83 759.517 -62.6704 758.977C-59.5107 758.438 -57.3722 757.789 -56.6979 757.532M-70.2805 757.532C-69.1245 756.344 -66.5043 752.523 -65.2713 746.743C-63.73 739.519 -60.6475 728.73 -59.3952 727.574C-58.3933 726.649 -57.7575 725.583 -57.5649 725.165M-56.6979 757.532C-55.7988 757.918 -53.3264 758.573 -50.6291 758.11C-47.9319 757.648 -46.0374 756.376 -45.4273 755.798C-44.3676 751.046 -42.1713 740.655 -41.863 737.11C-41.5548 733.565 -40.1291 731.909 -39.4548 731.523L-34.9273 738.941C-32.808 742.409 -28.5695 750.308 -28.5695 754.161C-28.5695 758.977 -33.0007 766.298 -33.097 771.211C-33.1741 775.142 -32.0373 781.583 -31.4594 784.312C-32.1979 786.528 -32.808 789.899 -29.3401 785.661C-25.0052 780.363 -21.3447 761.964 -20.574 759.748C-19.8034 757.532 -18.7438 754.065 -19.3217 752.427C-19.8997 750.789 -27.8951 726.321 -30.1107 725.165C-32.3263 724.009 -47.4502 712.257 -53.9043 699.06C-60.3585 685.863 -68.3539 669.197 -77.6016 662.358C-86.8493 655.519 -95.0374 653.881 -103.803 647.331C-112.569 640.78 -142.239 613.422 -151.005 600.803C-158.018 590.708 -167.992 579.771 -172.102 575.564M-56.6979 757.532C-55.4777 756.376 -52.8832 752.6 -52.2667 746.743C-51.4961 739.422 -48.1245 727.766 -46.7759 726.899M-172.102 575.564C-154.184 555.271 -117.232 512.564 -112.762 504.087C-107.175 493.491 -79.7209 472.202 -75.4823 473.454M-172.102 575.564C-173.418 573.381 -177.843 567.781 -185.01 562.849C-192.177 557.917 -198.079 556.17 -200.134 555.913M-75.4823 473.454C-71.2438 474.707 -43.6933 529.422 -31.1704 544.064C-18.6474 558.707 22.4856 617.083 23.1599 641.743C23.8342 666.404 24.7012 679.12 23.1599 699.06C21.6186 719 14.0085 767.84 14.0085 807.528C14.0085 847.216 14.6829 889.89 37.0315 923.606C54.9104 950.578 93.2242 998.487 110.146 1019.07L352.513 944.413C342.366 923.895 316.312 875.017 293.27 843.652C264.467 804.445 230.848 760.519 214.857 739.904C198.866 719.289 180.371 707.441 170.353 685.381C160.334 663.321 151.376 625.078 145.692 611.207C140.009 597.335 142.802 578.165 142.61 566.317C142.455 556.838 141.261 533.468 140.683 522.968M-75.4823 473.454C-72.0144 472.041 -63.942 469.351 -59.3952 469.89M140.683 522.968C143.353 521.71 147.582 519.353 151.279 516.498M140.683 522.968C140.201 523.257 137.273 523.989 129.412 524.606C121.552 525.222 112.394 521.266 108.798 519.211M133.554 441.569C133.298 445.165 135.462 456.327 146.174 472.202C159.564 492.046 161.009 500.427 158.408 508.133C157.429 511.034 154.564 513.962 151.279 516.498M151.279 516.498C151.697 521.127 153.476 533.834 157.252 547.629C161.972 564.872 175.266 597.528 176.807 614.097C178.348 630.665 185.188 647.042 191.931 651.473C197.325 655.018 221.087 618.464 232.293 599.743C236.532 591.074 245.779 569.997 248.862 555.046C251.944 540.096 255.541 504.441 256.954 488.482C257.307 474.129 257.127 442.32 253.582 429.913C250.037 417.506 241.123 397.835 237.11 389.551C236.467 381.138 234.798 363.985 233.256 362.674C231.715 361.364 231.073 364.505 230.944 366.239C229.307 367.106 225.955 369.976 225.646 374.523C225.338 379.07 224.683 380.335 224.394 380.399M224.394 380.399C221.504 380.174 215.223 379.86 213.22 380.399C210.715 381.074 208.981 383.674 204.839 386.275C201.525 388.356 190.871 392.087 185.958 393.693C185.669 394.463 185.765 395.928 188.463 395.619C191.834 395.234 188.752 398.028 193.665 398.028C197.595 398.028 201.788 396.422 203.394 395.619M224.394 380.399C227.766 385.119 235.029 394.907 237.11 396.294M203.394 395.619C202.174 396.037 203.394 397.931 201.564 400.436C199.731 402.944 198.577 405.156 198.963 406.023M203.394 395.619C204.1 394.207 206.284 391.362 209.366 391.285C213.22 391.188 228.44 407.564 232.293 409.78C235.673 411.724 238.683 412.638 239.71 412.959M198.963 406.023C199.348 406.89 197.325 408.046 197.71 411.707C198.096 415.367 197.71 419.509 198.963 419.702M198.963 406.023C199.573 404.931 201.487 402.998 204.261 404C207.729 405.252 216.977 413.055 224.105 416.908C229.808 419.991 235.151 422.496 237.11 423.363M198.963 419.702C200.215 419.895 197.903 419.317 196.844 423.363C195.784 427.408 193.183 437.812 194.435 443.207C195.437 447.522 206.541 451.812 211.967 453.418C213.091 454.252 215.204 455.421 214.665 453.418C214.125 451.414 211.614 448.537 210.426 447.349M198.963 419.702C200.183 419.445 203.24 419.374 205.706 421.147C208.788 423.363 223.334 437.523 227.091 439.546C230.097 441.164 231.811 441.697 232.293 441.762M210.426 447.349C212.16 447.895 215.955 449.796 217.266 453.032C218.903 457.078 220.059 463.629 223.238 470.275C226.107 476.274 226.151 480.468 229.885 484.273M210.426 447.349C207.697 445.358 202.026 441.01 201.178 439.546M243.082 490.119C240.834 489.959 235.318 488.809 231.233 485.496C230.735 485.091 230.288 484.685 229.885 484.273M229.885 484.273C229.371 498.327 226.128 529.711 217.266 542.812C214.348 547.126 210.862 551.178 207.253 555.046M181.045 603.115C180.949 601.349 181.373 595.216 183.839 584.812C186.11 575.233 197.161 565.863 207.253 555.046M207.253 555.046C204.586 550.101 198.77 537.726 196.844 527.785C194.435 515.358 192.99 480.005 192.798 466.711C192.605 453.418 187.21 424.808 176.614 418.257C166.886 412.244 153.18 405.175 130.279 405.696M65.7379 410.262C68.6278 410.262 73.637 406.023 80.9581 404C88.2792 401.977 97.1416 408.142 123.921 406.023C126.116 405.849 128.235 405.742 130.279 405.696M-42.441 473.454C-38.5557 471.913 -28.8199 472.761 -20.9594 488.482C-11.1337 508.133 -4.29423 513.304 3.21954 516.498M63.9077 502.257C65.8343 498.873 69.6875 490.539 69.6875 484.273M103.692 654.856C103.05 658.741 102.151 667.34 103.692 670.654C105.233 673.968 107.738 676.915 108.798 677.975L106.293 665.837" stroke="#EDD1BF" stroke-width="1.6"/>
<path d="M-44.3492 209.498C-31.6336 180.753 -4.82164 177.741 6.99487 179.828C10.9444 177.869 21.2326 173.778 30.7885 173.085C42.7335 172.218 58.2427 178.094 72.7886 186.089C87.3344 194.085 89.55 199.287 97.3528 208.342C105.156 217.397 121.146 260.649 126.059 270.475L91.6693 259.397L86.5638 267.103C83.3207 270.411 76.0253 277.025 72.7886 277.025C68.7427 277.025 63.1555 273.268 38.8803 256.507C19.4601 243.098 5.59502 227.94 1.00328 219.817C-0.730667 230.284 -2.48395 250.843 5.06834 267.103C14.5087 287.429 29.0546 316.617 45.4308 334.727C61.8069 352.837 72.8657 363.06 82.6914 368.732L86.5638 372.296L76.8344 368.732C70.3482 365.071 55.3913 355.746 47.4537 347.732C37.5317 337.713 -4.68021 281.468 -8.89955 253.81C-12.2714 231.707 -14.538 226.72 -12.0976 219.817C-22.2444 231.472 -28.9555 236.856 -40.2261 270.475C-44.1968 282.319 -39.4042 300.305 -38.5693 308.429C-38.6977 309.681 -38.3381 316.694 -35.872 334.727C-33.406 352.76 -17.7619 373.452 -10.2482 381.544C-11.0509 380.966 -14.0243 378.557 -19.4959 373.548C-24.9674 368.539 -41.8124 344.232 -49.551 332.704C-53.9501 325.447 -63.4997 307.427 -66.5052 293.401C-70.262 275.869 -60.2437 245.429 -44.3492 209.498Z" fill="url(#paint8_linear_84_957)"/>
<path d="M27.8716 283.78C24.2496 283.626 19.9083 283.041 18.6239 281.661L16.6973 283.395L19.8762 283.78L18.6239 286.573L21.8991 284.647V287.151L25.8486 285.706L27.0046 287.151L31.4358 286.188L32.7844 286.573L34.711 285.706H36.3487L37.7936 284.261L39.4312 285.032L41.2615 283.106L43.8624 285.032V282.335L47.523 283.106L43.8624 280.697C39.9771 282.206 31.4936 283.934 27.8716 283.78Z" fill="#D0A8A8"/>
<path d="M79.7967 281.083C82.1086 279.188 87.2526 275.399 89.3334 275.399C91.4141 275.399 90.2004 283.555 89.3334 287.633C88.338 290.523 85.0371 297.285 79.7967 301.216C74.5563 305.146 71.8334 307.798 71.127 308.633" stroke="#EDD1BF" stroke-width="1.5"/>
<path d="M13.0293 262.745C13.6283 262.19 16.8927 261.413 25.1587 262.745C33.4247 264.077 41.5808 264.479 44.6256 264.514" stroke="#D0A8A8" stroke-width="1.5"/>
<path d="M-6.41797 332.427C-6.06476 331.977 -3.68219 331.348 3.0224 332.427C9.72699 333.506 14.9353 333.904 16.7013 333.968" stroke="#D0A8A8" stroke-width="1.5"/>
<g opacity="0.66">
<path d="M70.6555 434.126C66.9049 434.597 64.4405 438.548 63.6771 440.465C63.4896 440.253 62.9927 439.706 62.5057 439.219C61.8969 438.609 60.3846 437.753 59.0089 437.21C57.6331 436.666 56.6165 436.655 53.8717 436.827C51.1268 437 46.699 440.677 45.7462 446.74C44.7935 452.804 46.9952 456.482 48.7644 459.186C50.1797 461.35 56.0886 465.868 58.8661 467.857C61.6432 469.911 67.3964 474.117 68.1919 474.507C69.1863 474.995 70.1078 474.943 72.0931 472.137C74.0785 469.332 82.5334 457.435 84.2804 452.384C86.0274 447.333 83.0263 441.087 81.0866 438.273C79.1469 435.458 75.3437 433.538 70.6555 434.126Z" fill="#ED4956"/>
<path d="M69.4586 439.442C66.683 439.79 64.8591 442.714 64.2942 444.133C64.1554 443.976 63.7877 443.571 63.4273 443.21C62.9767 442.759 61.8575 442.126 60.8394 441.724C59.8213 441.321 59.0689 441.313 57.0376 441.441C55.0062 441.568 51.7293 444.289 51.0242 448.777C50.3191 453.264 51.9485 455.986 53.2579 457.988C54.3053 459.589 58.6782 462.933 60.7337 464.405C62.789 465.925 67.0467 469.038 67.6354 469.326C68.3713 469.687 69.0533 469.649 70.5226 467.572C71.9919 465.496 78.249 456.692 79.5419 452.953C80.8348 449.215 78.6138 444.593 77.1783 442.51C75.7428 440.427 72.9282 439.007 69.4586 439.442Z" fill="#EC7881"/>
<path d="M88.7812 446.795C87.4708 448.12 85.1941 446.717 84.3968 446.102L84.7921 448.666C85.2946 449.015 86.6933 450.507 88.249 449.968C90.3746 449.231 89.9237 448.747 91.4099 447.843C92.599 447.119 94.1052 447.393 94.7097 447.62L94.5054 444.686C93.0251 444.67 90.0916 445.471 88.7812 446.795Z" fill="url(#paint9_linear_84_957)"/>
<path d="M83.9483 461.697C82.4634 462.826 81.4577 459.955 80.6604 459.339L78.9701 461.721C79.4726 462.07 78.8433 464.982 80.399 464.442C82.5246 463.706 83.7441 464.676 85.2303 463.772C86.4194 463.048 89.7426 460.331 90.3471 460.558L90.1428 457.624C86.4771 457.44 87.2165 459.212 83.9483 461.697Z" fill="url(#paint10_linear_84_957)"/>
<path d="M49.1175 468.537C47.6325 469.666 46.6269 466.795 45.8296 466.179L44.1393 468.561C44.6417 468.91 44.0125 471.822 45.5682 471.282C47.6938 470.546 48.9132 471.516 50.3995 470.611C51.5885 469.888 56.6304 466.34 57.2349 466.567L54.5821 464.333C50.9164 464.148 52.3857 466.052 49.1175 468.537Z" fill="url(#paint11_linear_84_957)"/>
<path d="M42.2374 453.357C44.0951 454.547 45.5876 453.982 46.0097 453.547L47.3309 456.567C46.7846 457.027 45.1369 457.98 43.2968 457.887C40.9966 457.772 40.0919 455.625 39.0205 454.931C38.1634 454.377 36.1165 456.4 35.2002 457.481L34.1488 454.595C34.6893 453.648 36.3647 451.673 38.7425 451.354C41.7147 450.955 39.9153 451.87 42.2374 453.357Z" fill="url(#paint12_linear_84_957)"/>
<path d="M48.088 435.586C47.9964 437.775 49.2452 438.762 49.8384 438.901L47.882 441.562C47.2047 441.329 47.308 439.592 46.4542 437.975C45.3869 435.953 43.0795 437.339 43.1386 436.072C43.186 435.059 42.334 431.907 40.9287 431.674L42.9045 429.312C44.0029 429.292 43.2987 430.907 44.7835 432.774C46.6394 435.108 48.2026 432.849 48.088 435.586Z" fill="url(#paint13_linear_84_957)"/>
<path d="M82.7573 433.58C80.7684 434.539 80.3445 436.911 80.5026 437.494L77.4817 435.24C77.367 434.54 78.8271 434.801 79.8589 433.289C81.1487 431.399 78.8225 430.045 79.9758 429.496C80.8985 429.056 83.2949 426.817 82.8351 425.481L85.8718 426.083C86.4108 427.031 84.6413 427.184 83.687 429.364C82.4941 432.09 85.2435 432.38 82.7573 433.58Z" fill="url(#paint14_linear_84_957)"/>
<path d="M53.7636 446.292C53.9316 443.011 55.6747 443.799 56.5252 444.603C57.2685 445.098 58.4377 446.161 57.1677 446.463C55.5802 446.84 55.3042 446.826 54.3923 448.425C53.4804 450.024 55.6555 450.773 56.0817 453.261C56.5079 455.749 55.909 456.633 54.1496 453.164C52.3901 449.695 53.5536 450.393 53.7636 446.292Z" fill="#FFE6E6" fill-opacity="0.28"/>
</g>
</g>
<defs>
<linearGradient id="paint0_linear_84_957" x1="148.275" y1="367.864" x2="127.822" y2="455.078" gradientUnits="userSpaceOnUse">
<stop offset="0.14" stop-opacity="0"/>
<stop offset="0.995"/>
</linearGradient>
<linearGradient id="paint1_linear_84_957" x1="148.423" y1="266.478" x2="57.7262" y2="461.743" gradientUnits="userSpaceOnUse">
<stop offset="0.485" stop-opacity="0"/>
<stop offset="0.810679"/>
</linearGradient>
<linearGradient id="paint2_linear_84_957" x1="195.918" y1="245.635" x2="199.352" y2="483.988" gradientUnits="userSpaceOnUse">
<stop stop-color="#52B9CB"/>
<stop offset="1" stop-color="#295C65"/>
</linearGradient>
<linearGradient id="paint3_linear_84_957" x1="218.776" y1="174.769" x2="298.148" y2="363.522" gradientUnits="userSpaceOnUse">
<stop offset="0.152242" stop-opacity="0"/>
<stop offset="1"/>
</linearGradient>
<linearGradient id="paint4_linear_84_957" x1="190.131" y1="-26.1541" x2="190.191" y2="250.287" gradientUnits="userSpaceOnUse">
<stop stop-color="#88E9F4"/>
<stop offset="0.816382" stop-color="#6FD9E6"/>
</linearGradient>
<linearGradient id="paint5_linear_84_957" x1="98.0525" y1="-31.7723" x2="52.6941" y2="249.607" gradientUnits="userSpaceOnUse">
<stop stop-color="#88E9F4"/>
<stop offset="1" stop-color="#68D4E1"/>
</linearGradient>
<linearGradient id="paint6_linear_84_957" x1="290.258" y1="-31.2778" x2="336.861" y2="246.297" gradientUnits="userSpaceOnUse">
<stop stop-color="#88E9F4"/>
<stop offset="1" stop-color="#68D4E1"/>
</linearGradient>
<linearGradient id="paint7_linear_84_957" x1="255.341" y1="173" x2="255.341" y2="739.466" gradientUnits="userSpaceOnUse">
<stop stop-color="#B84141"/>
<stop offset="1" stop-color="#FF857F"/>
</linearGradient>
<linearGradient id="paint8_linear_84_957" x1="-40.5151" y1="173" x2="29.3821" y2="381.544" gradientUnits="userSpaceOnUse">
<stop stop-color="#CF4848"/>
<stop offset="1" stop-color="#DC6464"/>
</linearGradient>
<linearGradient id="paint9_linear_84_957" x1="84.3501" y1="447.069" x2="94.7121" y2="447.57" gradientUnits="userSpaceOnUse">
<stop stop-color="#ED4956"/>
<stop offset="1" stop-color="#0291FF" stop-opacity="0"/>
</linearGradient>
<linearGradient id="paint10_linear_84_957" x1="79.989" y1="460.007" x2="90.351" y2="460.508" gradientUnits="userSpaceOnUse">
<stop stop-color="#ED4956"/>
<stop offset="1" stop-color="#0291FF" stop-opacity="0"/>
</linearGradient>
<linearGradient id="paint11_linear_84_957" x1="45.1587" y1="466.845" x2="55.5208" y2="467.346" gradientUnits="userSpaceOnUse">
<stop stop-color="#0291FF" stop-opacity="0"/>
<stop offset="1" stop-color="#ED4956"/>
</linearGradient>
<linearGradient id="paint12_linear_84_957" x1="34.1691" y1="454.2" x2="47.3253" y2="454.874" gradientUnits="userSpaceOnUse">
<stop stop-color="#00A6FF" stop-opacity="0"/>
<stop offset="1" stop-color="#ED4956"/>
</linearGradient>
<linearGradient id="paint13_linear_84_957" x1="43.258" y1="429.129" x2="49.2719" y2="440.739" gradientUnits="userSpaceOnUse">
<stop stop-color="#00A6FF" stop-opacity="0"/>
<stop offset="1" stop-color="#ED4956"/>
</linearGradient>
<linearGradient id="paint14_linear_84_957" x1="86.2024" y1="426.304" x2="78.9213" y2="437.179" gradientUnits="userSpaceOnUse">
<stop stop-color="#00A6FF" stop-opacity="0"/>
<stop offset="1" stop-color="#ED4956"/>
</linearGradient>
<clipPath id="clip0_84_957">
<rect width="320" height="568" fill="white"/>
</clipPath>
</defs>
</svg>
