<svg width="1139" height="841" viewBox="0 0 1139 841" fill="none" xmlns="http://www.w3.org/2000/svg">
<path fill-rule="evenodd" clip-rule="evenodd" d="M29.9793 13.261C22.5602 11.9505 12.0976 11.6751 0.500137 13.7885C-23.777 18.2125 24.0222 56.2206 7.31012 94C-23.5594 163.784 -43.0165 222.904 -35.7201 256.954C-29.8829 284.194 -35.253 216.906 -26.7092 231C-11.6799 253.388 -26.7679 303.84 -16.1413 313.568C-5.51469 323.297 -5.06837 403.9 -3.50931 405.023C-18.1022 389.308 -11.3518 348.591 -16.1413 313.568C-20.9307 278.546 -11.2489 252.359 -10.9994 249.927C-10.5629 264.956 -51.1045 315.745 -26.7082 346.277C-19.0278 355.89 -9.87261 365.692 -0.414871 375C-0.280387 375.132 -0.145841 375.265 -0.0112381 375.397C20.4564 395.491 42.2607 413.226 53.5525 421.674C114.169 533.303 245.841 768.684 287.599 817.177C294.868 825.619 301.85 833.57 308.481 841C339.944 876.252 351.952 874.389 360.966 882.733C370.008 890.403 429.113 857.997 460.843 860.092C492.573 862.187 494.234 903.125 507.642 899.197C527.973 887.036 584.47 884.716 601.533 871.246C622.861 854.408 669.259 834.576 680.297 834.576C682.44 834.576 684.874 834.209 687.359 833.835C695.113 832.665 703.375 831.419 704.945 841C705.464 844.161 705.254 848.499 704.057 854.408C701.045 869.279 693.961 883.724 687.355 897.194C680.83 910.5 686.824 867.077 685.043 856.279C673.811 788.179 672.695 892.711 678.12 904.061C677.247 926.012 692.782 896.952 715.981 914.912C744.98 937.363 824.27 863.201 850.275 860.021C876.28 856.84 928.222 912.592 958.717 877.981C983.114 850.292 933.433 910.484 934.618 906.119C939.856 905.433 952.878 899.795 963.055 882.733C975.777 861.405 995.914 897.064 996.85 883.406C997.001 881.196 996.893 877.862 996.759 873.763C996.479 865.138 996.088 853.118 997.771 841C1000.23 823.282 1007.13 805.355 1025.29 797.533C1054.47 784.961 1081.85 788.927 1091.89 792.482C1099.81 794.976 1116.77 804.044 1121.26 820.358C1123.08 826.957 1124.15 834.085 1124.63 841C1125.63 855.454 1124.05 868.979 1121.26 874.8C1117.76 882.134 1135.98 862.841 1138.67 841C1139.14 837.21 1139.14 833.343 1138.48 829.525C1133.98 803.707 1131.93 793.417 1121.26 779.76C1118.05 775.65 1114.81 769.167 1111.15 761.852C1102.65 744.862 1091.9 723.381 1074.12 716.711C1053.76 709.078 1026.22 713.531 1015 716.711C1006.02 722.012 984.913 740.434 972.341 771.715C963.479 793.766 957.318 820.954 953.755 841C952.264 849.391 951.228 856.53 950.639 861.517C942.345 887.772 912.392 858.337 896.078 873.004C875.685 891.339 851.738 912.106 833.029 909.112C814.321 906.119 780.645 900.506 780.645 866.456C780.645 839.216 796.416 901.429 799.659 893.135C808.929 880.733 824.91 858.483 835.806 841C841.183 832.373 845.322 824.907 846.805 820.358C852.418 803.146 855.411 756.748 846.805 745.71C845.85 744.485 844.838 743.122 843.759 741.666C835.105 730.003 821.82 712.097 794.046 706.608C780.712 703.974 764.073 704.303 746.805 704.645C723.61 705.105 699.279 705.587 680.297 698.938C653.805 689.658 646.434 645.805 646.06 625.038C646.06 620.377 649.198 609.956 653.361 596.13C661.565 568.886 673.749 528.423 673.749 492.767C673.749 410.261 635.834 361.208 617.248 341.787C615.697 340.166 614.209 338.55 612.719 336.931C598.211 321.174 583.469 305.162 507.802 281.919C463.221 268.225 439.255 270.552 417.784 272.637C399.068 274.455 382.249 276.088 355.325 266.765C297.515 246.747 270.762 208.394 261.22 189.311C258.218 183.307 253.087 170.878 246.991 156.113C233.711 123.946 215.854 80.6925 205.468 68.639C202.482 65.1735 199.912 61.9921 197.502 59.009C187.685 46.8572 180.44 37.8878 157.76 25.4217C129.51 9.8934 99.389 -1.51896 76.1901 0.164834C57.631 1.51187 37.6499 9.45685 29.9793 13.261ZM651.226 482.275C643.256 450.598 619.479 391.14 577.96 371.16C571.268 367.94 565.195 364.97 559.6 362.235C519.367 342.562 503.876 334.988 460.843 333.181C444.731 332.505 426.255 336.396 407.54 340.338C369.316 348.389 330.096 356.65 307.992 326.633C281.65 290.862 265.835 260.591 261.22 249.927C273.88 270.382 305.971 312.377 333.062 316.717C351.927 319.74 374.625 316.782 399.279 313.568C418.878 311.014 439.714 308.298 460.843 308.298L461.781 308.298C493.192 308.295 539.116 308.289 583.572 344.781C617.858 372.924 642.145 445.122 651.226 482.275ZM304.25 826.906C314.415 840.189 327.814 844.791 346.373 858.411C349.622 860.796 352.806 863.239 355.978 865.673C375.448 880.612 394.617 895.32 427.756 895.642C428.403 895.648 429.045 895.655 429.682 895.661L430.789 895.673C435.325 850.254 441.083 882.715 442.565 882.733C458.668 802.638 487.418 896.338 515.5 882.733C528.114 876.622 552.988 887.35 566.663 872.299C585.645 851.407 605.345 829.725 624.919 828.964C651.859 827.916 663.833 828.527 666.452 828.964C655.664 825.222 630.344 818.861 615.377 823.351C596.669 828.964 558.877 854.034 531.001 877.981C503.125 901.928 410.357 879.739 372.378 858.411C341.995 841.349 318.157 838.755 304.25 826.906ZM727.768 908.364C709.807 897.737 692.09 940.481 691.217 924.453C692.402 927.26 708.198 858.823 715.981 872.443C725.71 889.468 740.489 902.19 770.798 911.919C795.044 919.701 787.186 865.945 799.659 861.517C794.483 863.7 818.767 915.997 801.854 920.338C780.713 925.763 750.218 921.647 727.768 908.364ZM675.807 706.608C696.698 709.976 743.645 716.225 764.299 714.279C790.117 711.847 816.871 721.014 824.354 738.039C831.838 755.064 837.451 769.47 835.393 794.914C834.152 810.255 826.103 828.543 819.383 841C817.186 845.072 815.132 848.521 813.503 851.04C814.701 848.164 816.045 844.761 817.444 841C825.296 819.886 834.862 787.493 829.78 773.773C829.016 771.71 828.301 769.749 827.619 767.878L827.606 767.843L827.602 767.832C821.614 751.408 818.181 741.993 806.768 732.427C797.408 724.581 772.15 722.305 749.172 720.234C740.918 719.491 732.956 718.773 726.133 717.834C705.479 714.99 684.725 709.165 675.807 706.608ZM957.748 851.04C958.307 848.124 958.995 844.728 959.793 841C964.782 817.704 974.09 781.404 983.379 767.599C985.299 764.746 987.143 761.939 988.937 759.206L988.947 759.192L988.952 759.183C999.745 742.749 1008.77 729.005 1021.92 724.195C1037.26 718.582 1055.78 716.711 1071.5 727.001C1087.21 737.291 1107.42 763.483 1107.61 767.599C1107.7 769.604 1108.39 771.572 1109.12 773.072C1105.74 768.281 1097.13 760.817 1081.04 757.496C1057.47 752.632 1046.8 752.445 1030.9 759.18C1015 765.915 990.676 789.675 981.508 806.513C976.192 816.278 968.653 830.435 963.055 841C960.931 845.009 959.086 848.501 957.748 851.04ZM938.734 894.893C945.906 878.492 971.181 925.988 977.767 904.734C984.352 883.481 989.366 868.938 991.05 864.323C991.985 873.615 981.764 809.769 963.055 867.392C957.19 885.457 950.417 888.914 941.526 893.452C940.618 893.916 939.688 894.391 938.734 894.893ZM694.328 908.102C702.71 887.597 708.921 863.762 710.979 854.408C711.915 855.031 713.786 858.149 713.786 865.633C713.786 874.987 715.538 828.777 705.81 854.408C698.027 874.913 681.8 895.455 685.043 907.241C683.858 905.495 680.403 896.727 676.063 875.623C671.553 853.699 682.791 934.832 689.594 919.23C690.977 916.06 692.559 912.43 694.328 908.102Z" fill="url(#paint0_linear_56_110)"/>
<path d="M49.8181 353.222C47.9473 354.656 41.2122 357.675 29.2385 358.273C22.6032 358.605 11.629 350.627 0 338.903L-0.5 27.9718C8.05856 24.4486 16.0353 22.1394 21.755 20.9539C42.7088 21.3904 96.1411 26.4543 142.24 43.2173C188.338 59.9804 182.027 146.116 173.109 187.088C182.838 181.912 202.407 173.281 202.856 180.166C203.305 187.05 201.546 213.467 200.611 225.815C194.687 235.419 180.48 257.096 171.051 266.974C161.622 276.853 154.276 278.324 151.781 277.826C153.028 325.034 160.612 422.706 180.967 435.728C201.322 448.749 248.443 451.955 269.459 451.93C313.937 450.918 340.556 464.646 359.449 476.326C380.028 489.048 390.505 544.613 390.879 570.431C391.254 596.249 394.06 664.91 398.737 689.045C402.479 708.352 413.774 732.387 418.954 741.99C425.963 734.479 432.733 726.608 438.4 718.23C455.612 692.786 461.91 631.834 462.908 604.539C455.657 597.148 455.571 589.003 449.999 577.353C443.825 564.444 441.58 551.722 438.4 543.864C435.855 537.578 428.484 533.886 425.116 532.826C427.424 535.134 432.301 540.721 433.348 544.613C434.396 548.504 430.292 546.234 428.11 544.613C417.571 541.495 396.006 533.163 394.06 524.781C391.628 514.305 396.679 494.099 398.737 486.241C400.795 478.384 405.285 479.506 402.853 479.132C400.421 478.758 401.169 470.713 400.421 463.604C399.672 456.494 403.601 454.249 402.853 452.566C402.105 450.882 404.344 446.586 407.904 441.714C411.215 437.184 409.386 433.681 411.035 432.567C407.65 434.178 399.872 437.037 392.563 437.037C383.022 437.037 389.008 431.612 382.46 432.36C377.222 432.959 377.035 430.115 377.596 428.618C387.138 425.5 407.83 418.254 414.265 414.213C422.31 409.161 425.678 404.11 430.542 402.8C434.433 401.752 446.632 402.364 452.244 402.8C452.805 402.675 454.078 400.218 454.676 391.388C455.275 382.557 461.786 376.982 464.966 375.298C465.216 371.931 466.463 365.832 469.456 368.376C472.45 370.92 475.693 404.235 476.94 420.574C484.735 436.663 502.047 474.866 508.932 498.963C515.817 523.06 516.166 584.837 515.48 612.713C512.736 643.707 505.751 712.954 499.764 741.99C493.778 771.026 475.817 811.961 467.585 828.799C465.346 832.54 462.848 836.648 460.158 841H357.225C349.734 806.838 329.69 756.247 321.844 727.585C314.51 700.794 311.055 676.115 310.244 667.125C303.064 672.669 294.85 677.246 289.665 679.69C290.787 700.083 293.107 745.47 293.407 763.88C293.736 784.14 289.57 815.423 296.102 841H36.1377C25.2834 820.667 12.1963 799.473 -0.5 780.361V651.349V435.284L0 423L0.296194 422.922C19.0099 417.99 39.0195 412.717 44.7668 411.406C53.298 409.461 51.689 371.806 49.8181 353.222Z" fill="#FFECE3"/>
<path d="M49.8181 353.222C47.9473 354.656 41.2121 357.675 29.2385 358.273C22.6032 358.605 11.629 350.627 0 338.903L-0.5 27.9718C8.05856 24.4486 16.0353 22.1394 21.755 20.9539C42.7088 21.3904 96.1411 26.4543 142.24 43.2173C188.338 59.9804 182.027 146.116 173.109 187.088C182.838 181.912 202.407 173.281 202.856 180.166C203.305 187.05 201.546 213.467 200.611 225.815C194.687 235.419 180.48 257.096 171.051 266.974C161.622 276.853 154.276 278.324 151.781 277.826C153.028 325.034 160.612 422.706 180.967 435.728C201.322 448.749 248.443 451.955 269.459 451.93M49.8181 353.222C51.689 371.806 53.298 409.461 44.7668 411.406C38.9892 412.724 18.7983 418.046 0 423L-0.5 435.284M49.8181 353.222C72.6429 341.498 120.126 315.58 127.46 305.702C134.793 295.823 142.738 285.746 145.794 281.941M299.393 851.063C298.074 847.842 296.989 844.473 296.102 841M289.665 679.69C290.787 700.083 293.107 745.47 293.407 763.88C293.736 784.14 289.57 815.423 296.102 841M289.665 679.69C294.85 677.246 303.064 672.669 310.244 667.125M289.665 679.69C288.729 680.251 283.042 681.673 267.776 682.871C252.509 684.068 234.723 676.385 227.739 672.394M275.82 521.601C275.321 528.586 279.525 550.263 300.329 581.095C326.334 619.635 329.14 635.912 324.089 650.879C322.188 656.512 316.624 662.2 310.244 667.125M310.244 667.125C311.055 676.115 314.51 700.794 321.844 727.585C329.69 756.247 349.734 806.838 357.225 841M359.823 856.675C359.391 852.038 358.486 846.752 357.225 841M452.244 402.8C452.805 402.675 454.078 400.218 454.676 391.388C455.275 382.557 461.786 376.982 464.966 375.298C465.216 371.931 466.463 365.832 469.456 368.376C472.45 370.92 475.693 404.235 476.94 420.574C484.735 436.663 502.047 474.866 508.932 498.963C515.817 523.06 516.166 584.837 515.48 612.713C512.736 643.707 505.751 712.954 499.764 741.99C493.778 771.026 475.817 811.961 467.585 828.799C465.346 832.54 462.848 836.648 460.158 841H357.225M452.244 402.8C446.632 402.364 434.433 401.752 430.542 402.8C425.678 404.11 422.31 409.161 414.265 414.213C407.83 418.254 387.138 425.5 377.596 428.618C377.035 430.115 377.222 432.959 382.46 432.36C389.008 431.612 383.022 437.037 392.563 437.037C400.196 437.037 408.341 433.919 411.459 432.36M452.244 402.8C458.792 411.967 472.899 430.976 476.94 433.67M411.459 432.36C409.089 433.171 411.459 436.85 407.904 441.714C404.344 446.586 402.105 450.882 402.853 452.566M411.459 432.36C412.831 429.616 417.072 424.091 423.058 423.941C430.542 423.754 460.102 455.559 467.585 459.862C474.15 463.637 479.995 465.412 481.991 466.036M402.853 452.566C403.601 454.249 399.672 456.494 400.421 463.604C401.169 470.713 400.421 478.758 402.853 479.132M402.853 452.566C404.038 450.445 407.755 446.691 413.143 448.637C419.878 451.069 437.838 466.223 451.683 473.706C462.759 479.693 473.136 484.558 476.94 486.241M402.853 479.132C405.285 479.506 400.795 478.384 398.737 486.241C396.679 494.099 391.628 514.305 394.06 524.781C396.006 533.163 417.571 541.495 428.11 544.613C430.292 546.234 434.396 548.504 433.348 544.613C432.301 540.721 427.424 535.134 425.116 532.826M402.853 479.132C405.223 478.633 411.16 478.496 415.949 481.938C421.936 486.241 450.186 513.743 457.483 517.672C463.32 520.815 466.65 521.85 467.585 521.975M425.116 532.826C428.484 533.886 435.855 537.578 438.4 543.864C441.58 551.722 443.825 564.444 449.999 577.353C455.571 589.003 455.657 597.148 462.908 604.539M425.116 532.826C419.816 528.96 408.802 520.516 407.156 517.672M488.539 615.893C484.174 615.581 473.46 613.349 465.527 606.913C464.56 606.128 463.692 605.338 462.908 604.539M462.908 604.539C461.91 631.834 455.612 692.786 438.4 718.23C432.733 726.608 425.963 734.479 418.954 741.99M368.055 835.347C367.867 831.917 368.691 820.006 373.48 799.801C377.89 781.196 399.354 762.998 418.954 741.99M418.954 741.99C413.774 732.387 402.479 708.352 398.737 689.045C394.06 664.91 391.254 596.249 390.879 570.431C390.505 544.613 380.028 489.048 359.449 476.326C340.556 464.646 313.937 450.918 269.459 451.93M144.11 460.797C149.723 460.797 159.452 452.566 173.67 448.637C187.889 444.708 205.101 456.681 257.112 452.566C261.375 452.228 265.488 452.02 269.459 451.93M22.6904 667.125C14.9456 663.832 7.56976 659.962 -0.5 651.349M140.556 639.466C144.298 632.894 151.781 616.708 151.781 604.539M108.003 464.539C94.9064 463.042 81.2489 443.959 60.8564 445.269C49.2567 446.014 22.0258 440.561 -0.5 435.284M-0.5 651.349V435.284M-0.5 651.349V780.361C12.1963 799.473 25.2834 820.667 36.1377 841H296.102" stroke="#EDD1BF" stroke-width="3"/>
<path d="M-69.6957 70.884C-45.0001 15.057 7.07265 9.20739 30.0221 13.261C37.6927 9.45685 57.6738 1.51187 76.233 0.164834C99.4318 -1.51896 129.553 9.8934 157.803 25.4217C186.054 40.95 190.357 51.0527 205.511 68.639C220.665 86.2252 251.721 170.228 261.263 189.311L194.472 167.796L184.557 182.763C178.258 189.186 164.089 202.033 157.803 202.033C149.946 202.033 139.094 194.736 91.9483 162.183C54.2314 136.14 27.3034 106.702 18.3855 90.9247C15.0179 111.255 11.6128 151.182 26.2805 182.763C44.6151 222.238 72.8654 278.926 104.67 314.098C136.475 349.271 157.953 369.124 177.036 380.14L184.557 387.062L165.661 380.14C153.064 373.031 124.015 354.921 108.599 339.355C89.3291 319.898 7.34734 210.661 -0.847252 156.944C-7.39593 114.017 -11.798 104.333 -7.05842 90.9247C-26.765 113.562 -39.7988 124.017 -61.6881 189.311C-69.3997 212.314 -60.0918 247.246 -58.4703 263.023C-58.7198 265.455 -58.0213 279.075 -53.2318 314.098C-48.4424 349.121 -18.0593 389.308 -3.46648 405.023C-5.02554 403.9 -10.8003 399.223 -21.4269 389.495C-32.0535 379.766 -64.7689 332.558 -79.7983 310.169C-88.3421 296.075 -106.889 261.078 -112.726 233.838C-120.022 199.788 -100.565 140.668 -69.6957 70.884Z" fill="url(#paint1_linear_56_110)"/>
<path d="M70.5694 215.151C63.5349 214.852 55.1034 213.717 52.6089 211.035L48.8672 214.403L55.0411 215.151L52.6089 220.577L58.9699 216.835V221.699L66.6405 218.893L68.8856 221.699L77.4916 219.828L80.1109 220.577L83.8526 218.893H87.0331L89.8394 216.086L93.0199 217.583L96.5746 213.841L101.626 217.583V212.345L108.735 213.841L101.626 209.164C94.0801 212.095 77.6039 215.45 70.5694 215.151Z" fill="#D0A8A8"/>
<path d="M171.416 209.913C175.906 206.233 185.897 198.874 189.938 198.874C193.979 198.874 191.622 214.715 189.938 222.635C188.004 228.247 181.594 241.381 171.416 249.014C161.238 256.647 155.95 261.798 154.578 263.42" stroke="#EDD1BF" stroke-width="3"/>
<path d="M41.7441 174.298C42.9075 173.22 49.2475 171.711 65.3012 174.298C81.355 176.885 97.1954 177.666 103.109 177.734" stroke="#D0A8A8" stroke-width="3"/>
<path d="M11.632 252.194C11.5696 253.816 10.5095 258.48 6.76772 264.168C3.02596 269.855 8.45151 277.015 11.632 279.883" stroke="#D0A8A8" stroke-width="3"/>
<path d="M3.97461 309.63C4.6606 308.757 9.2879 307.535 22.3092 309.63C35.3305 311.726 45.4457 312.499 48.8757 312.624" stroke="#D0A8A8" stroke-width="3"/>
<g opacity="0.66">
<path d="M153.659 507.146C146.375 508.06 141.589 515.734 140.106 519.457C139.742 519.044 138.777 517.983 137.831 517.036C136.649 515.852 133.712 514.19 131.04 513.134C128.368 512.079 126.394 512.057 121.063 512.391C115.732 512.726 107.132 519.868 105.282 531.644C103.432 543.421 107.708 550.564 111.144 555.817C113.892 560.019 125.368 568.794 130.763 572.656C136.156 576.646 147.33 584.815 148.875 585.572C150.806 586.519 152.596 586.418 156.451 580.969C160.307 575.521 176.728 552.415 180.121 542.605C183.514 532.795 177.685 520.665 173.918 515.199C170.151 509.732 162.765 506.004 153.659 507.146Z" fill="#ED4956"/>
<path d="M151.335 517.47C145.944 518.146 142.402 523.825 141.305 526.58C141.035 526.275 140.321 525.49 139.621 524.789C138.746 523.912 136.572 522.682 134.595 521.901C132.618 521.12 131.156 521.104 127.211 521.351C123.266 521.599 116.902 526.884 115.532 535.6C114.163 544.315 117.328 549.601 119.871 553.489C121.905 556.599 130.398 563.093 134.39 565.951C138.381 568.904 146.65 574.949 147.794 575.51C149.223 576.211 150.548 576.136 153.401 572.103C156.255 568.071 168.407 550.971 170.918 543.711C173.429 536.451 169.116 527.475 166.328 523.429C163.54 519.383 158.073 516.624 151.335 517.47Z" fill="#EC7881"/>
<path d="M188.863 531.751C186.318 534.323 181.896 531.6 180.348 530.404L181.116 535.385C182.091 536.062 184.808 538.959 187.829 537.912C191.958 536.482 191.082 535.542 193.968 533.786C196.278 532.38 199.203 532.912 200.377 533.353L199.98 527.654C197.105 527.623 191.408 529.179 188.863 531.751Z" fill="url(#paint2_linear_56_110)"/>
<path d="M179.475 560.693C176.591 562.886 174.638 557.309 173.09 556.113L169.807 560.739C170.782 561.417 169.56 567.072 172.582 566.025C176.71 564.594 179.078 566.478 181.965 564.722C184.274 563.317 190.728 558.04 191.902 558.481L191.506 552.782C184.386 552.424 185.822 555.866 179.475 560.693Z" fill="url(#paint3_linear_56_110)"/>
<path d="M111.829 573.977C108.945 576.17 106.992 570.593 105.444 569.397L102.161 574.024C103.137 574.701 101.915 580.356 104.936 579.309C109.064 577.878 111.433 579.762 114.319 578.006C116.628 576.601 126.421 569.71 127.595 570.152L122.442 565.811C115.323 565.454 118.177 569.15 111.829 573.977Z" fill="url(#paint4_linear_56_110)"/>
<path d="M98.4668 544.495C102.075 546.806 104.973 545.71 105.793 544.864L108.359 550.73C107.298 551.623 104.098 553.473 100.524 553.294C96.057 553.069 94.2999 548.9 92.2191 547.553C90.5544 546.476 86.5791 550.405 84.7995 552.504L82.7576 546.9C83.8073 545.06 87.0612 541.225 91.6792 540.605C97.4517 539.831 93.9569 541.607 98.4668 544.495Z" fill="url(#paint5_linear_56_110)"/>
<path d="M109.83 509.981C109.652 514.233 112.078 516.15 113.23 516.419L109.43 521.587C108.115 521.135 108.315 517.761 106.657 514.62C104.584 510.694 100.103 513.385 100.218 510.925C100.31 508.958 98.6552 502.836 95.9259 502.384L99.763 497.796C101.896 497.758 100.529 500.894 103.412 504.521C107.017 509.053 110.053 504.666 109.83 509.981Z" fill="url(#paint6_linear_56_110)"/>
<path d="M177.163 506.085C173.301 507.948 172.477 512.554 172.784 513.686L166.917 509.31C166.695 507.949 169.53 508.457 171.534 505.52C174.039 501.85 169.521 499.22 171.761 498.153C173.553 497.299 178.208 492.951 177.314 490.356L183.212 491.524C184.259 493.366 180.823 493.662 178.969 497.898C176.652 503.191 181.992 503.756 177.163 506.085Z" fill="url(#paint7_linear_56_110)"/>
<path d="M120.853 530.774C121.18 524.402 124.565 525.932 126.216 527.494C127.66 528.454 129.931 530.52 127.464 531.106C124.381 531.838 123.845 531.811 122.074 534.916C120.303 538.021 124.528 539.476 125.355 544.309C126.183 549.141 125.02 550.857 121.603 544.12C118.186 537.383 120.445 538.738 120.853 530.774Z" fill="#FFE6E6" fill-opacity="0.28"/>
</g>
<defs>
<linearGradient id="paint0_linear_56_110" x1="512.349" y1="0" x2="512.349" y2="1100.16" gradientUnits="userSpaceOnUse">
<stop stop-color="#B84141"/>
<stop offset="1" stop-color="#FF857F"/>
</linearGradient>
<linearGradient id="paint1_linear_56_110" x1="-62.2493" y1="-3.18423e-06" x2="73.5015" y2="405.023" gradientUnits="userSpaceOnUse">
<stop stop-color="#CF4848"/>
<stop offset="1" stop-color="#DC6464"/>
</linearGradient>
<linearGradient id="paint2_linear_56_110" x1="180.257" y1="532.283" x2="200.382" y2="533.256" gradientUnits="userSpaceOnUse">
<stop stop-color="#ED4956"/>
<stop offset="1" stop-color="#0291FF" stop-opacity="0"/>
</linearGradient>
<linearGradient id="paint3_linear_56_110" x1="171.785" y1="557.411" x2="191.91" y2="558.384" gradientUnits="userSpaceOnUse">
<stop stop-color="#ED4956"/>
<stop offset="1" stop-color="#0291FF" stop-opacity="0"/>
</linearGradient>
<linearGradient id="paint4_linear_56_110" x1="104.141" y1="570.691" x2="124.265" y2="571.664" gradientUnits="userSpaceOnUse">
<stop stop-color="#0291FF" stop-opacity="0"/>
<stop offset="1" stop-color="#ED4956"/>
</linearGradient>
<linearGradient id="paint5_linear_56_110" x1="82.7969" y1="546.133" x2="108.348" y2="547.442" gradientUnits="userSpaceOnUse">
<stop stop-color="#00A6FF" stop-opacity="0"/>
<stop offset="1" stop-color="#ED4956"/>
</linearGradient>
<linearGradient id="paint6_linear_56_110" x1="100.45" y1="497.44" x2="112.129" y2="519.989" gradientUnits="userSpaceOnUse">
<stop stop-color="#00A6FF" stop-opacity="0"/>
<stop offset="1" stop-color="#ED4956"/>
</linearGradient>
<linearGradient id="paint7_linear_56_110" x1="183.854" y1="491.954" x2="169.713" y2="513.075" gradientUnits="userSpaceOnUse">
<stop stop-color="#00A6FF" stop-opacity="0"/>
<stop offset="1" stop-color="#ED4956"/>
</linearGradient>
</defs>
</svg>
