<svg width="1024" height="1403" viewBox="0 0 1024 1403" fill="none" xmlns="http://www.w3.org/2000/svg">
<g clip-path="url(#clip0_84_784)">
<rect width="1024" height="1403" fill="white"/>
<path d="M221.328 1330.56C152.935 1363.62 43.5374 1350.51 0 1339.11V1403.23H1024V1323.44C1003.35 1313.56 989.412 1314.14 980.75 1318.06C973.175 1321.49 963.465 1325.29 955.79 1322.08C910.527 1303.21 823.925 1286.18 750.427 1334.84C668.355 1389.17 535.748 1370.78 479.703 1354.79C422.075 1332.94 289.722 1297.51 221.328 1330.56Z" fill="#02385A"/>
<path d="M221.328 1330.56C152.935 1363.62 43.5374 1350.51 0 1339.11V1403.23H1024V1323.44C1003.35 1313.56 989.412 1314.14 980.75 1318.06C973.175 1321.49 963.465 1325.29 955.79 1322.08C910.527 1303.21 823.925 1286.18 750.427 1334.84C668.355 1389.17 535.748 1370.78 479.703 1354.79C422.075 1332.94 289.722 1297.51 221.328 1330.56Z" fill="url(#paint0_linear_84_784)" fill-opacity="0.2"/>
<path d="M221.328 1330.56C152.935 1363.62 43.5374 1350.51 0 1339.11V993.345C12.5071 998.57 41.8909 1018.04 38.4712 1061.74C35.0516 1105.43 103.54 1135.99 138.212 1145.81C175.258 1150.4 262.269 1153.59 313.944 1129.66C365.619 1105.72 449.781 1119.68 485.403 1129.66C546.988 1146.76 695.997 1175.82 799.347 1155.3C810.418 1152.83 829.505 1147.61 849.217 1140.23C866.15 1133.89 883.544 1125.96 896.712 1116.83C932.334 1092.14 1005 1073.61 1024 1075.04V1323.44C989.043 1306.72 973.338 1319.95 969.855 1328.66C930.909 1308.08 832.499 1280.5 750.427 1334.84C668.355 1389.17 535.748 1370.78 479.703 1354.78C422.075 1332.94 289.722 1297.51 221.328 1330.56Z" fill="#116589"/>
<path d="M221.328 1330.56C152.935 1363.62 43.5374 1350.51 0 1339.11V993.345C12.5071 998.57 41.8909 1018.04 38.4712 1061.74C35.0516 1105.43 103.54 1135.99 138.212 1145.81C175.258 1150.4 262.269 1153.59 313.944 1129.66C365.619 1105.72 449.781 1119.68 485.403 1129.66C546.988 1146.76 695.997 1175.82 799.347 1155.3C810.418 1152.83 829.505 1147.61 849.217 1140.23C866.15 1133.89 883.544 1125.96 896.712 1116.83C932.334 1092.14 1005 1073.61 1024 1075.04V1323.44C989.043 1306.72 973.338 1319.95 969.855 1328.66C930.909 1308.08 832.499 1280.5 750.427 1334.84C668.355 1389.17 535.748 1370.78 479.703 1354.78C422.075 1332.94 289.722 1297.51 221.328 1330.56Z" fill="url(#paint1_linear_84_784)" fill-opacity="0.2"/>
<path d="M38.4712 1063.64C41.8909 1019.94 12.5071 1000.47 0 995.245V770.117C18.5232 797.664 122.538 812.862 174.783 816.662C196.186 818.219 213.125 822.724 229.878 831.453C254.019 844.031 277.775 865.378 313.944 899.304C362.96 945.28 503.134 969.439 567.095 975.772C586.884 981.154 639.573 1004.74 692.007 1056.04C744.442 1107.33 818.662 1134.8 849.217 1142.13C829.505 1149.51 810.418 1154.73 799.347 1157.2C695.997 1177.72 546.988 1148.65 485.403 1131.56C449.781 1121.58 365.619 1107.62 313.944 1131.56C262.269 1155.49 175.258 1152.3 138.212 1147.7C103.54 1137.89 35.0516 1107.33 38.4712 1063.64Z" fill="#2081A1"/>
<path d="M1024 1078.57C1005 1077.15 932.333 1095.67 896.712 1120.37C883.544 1129.5 866.15 1137.42 849.216 1143.76C818.661 1136.44 744.442 1108.97 692.007 1057.67C639.572 1006.38 586.884 982.788 567.094 977.405C503.134 971.073 362.959 946.913 313.944 900.938C277.774 867.011 254.019 845.664 229.877 833.086C301.912 835.914 465.264 832.544 542.396 796.448C619.529 760.351 722.404 769.059 764.2 777.925C814.387 818.296 936.608 888.779 1024 847.743V1078.57Z" fill="url(#paint2_linear_84_784)"/>
<path d="M739.978 720.247C838.388 705.048 978.404 616.707 1024 619.557V-81H0V587.26C19.6314 635.705 104.11 721.007 284.972 674.651C465.835 628.296 552.688 670.218 571.369 674.651C596.067 680.984 641.567 735.445 739.978 720.247Z" fill="#7DDEEA"/>
<path d="M0 773.442C18.5232 800.989 122.538 816.188 174.783 819.987C196.186 821.544 213.125 826.05 229.878 834.778C301.912 837.605 465.265 834.236 542.397 798.139C619.529 762.043 722.404 770.75 764.2 779.616C814.387 819.987 936.609 890.47 1024 849.434V576.336C978.404 573.486 852.637 645.679 754.226 660.878C655.816 676.076 581.818 686.209 557.121 679.876C538.439 675.443 536.698 626.206 291.622 668.952C107.69 701.033 19.6314 592.484 0 544.039V773.442Z" fill="#61C8D7"/>
<path d="M0 773.442C18.5232 800.989 122.538 816.188 174.783 819.987C196.186 821.544 213.125 826.05 229.878 834.778C301.912 837.605 465.265 834.236 542.397 798.139C619.529 762.043 722.404 770.75 764.2 779.616C814.387 819.987 936.609 890.47 1024 849.434V576.336C978.404 573.486 852.637 645.679 754.226 660.878C655.816 676.076 581.818 686.209 557.121 679.876C538.439 675.443 536.698 626.206 291.622 668.952C107.69 701.033 19.6314 592.484 0 544.039V773.442Z" fill="url(#paint3_linear_84_784)" fill-opacity="0.2"/>
<path d="M906.629 -90.5244L809.381 -70.4157L922.33 613C990.83 583.5 1037.62 570.962 1075.92 559.789L906.629 -90.5244Z" fill="url(#paint4_linear_84_784)"/>
<path d="M231.414 -2.98582L328.662 16.1436L212.624 688.159C161.455 637.069 100.42 626.288 62.1237 615.659L231.414 -2.98582Z" fill="url(#paint5_linear_84_784)"/>
<path d="M607.096 4H443.125L449.5 655.5C533.861 661.004 650.438 675.401 715.999 672.546L607.096 4Z" fill="url(#paint6_linear_84_784)"/>
<path d="M72.7509 591.536L37.1991 527.182C35.0989 527.182 31.8888 526.102 35.849 521.782L7.49821 472.729C5.54811 473.779 1.37789 475.249 0.297832 472.729C-1.05224 469.579 2.54795 467.779 3.89802 467.329L28.6486 452.928C30.8987 452.028 34.8589 451.938 32.6988 458.779L28.6486 461.029L54.2999 509.631C57.3001 509.031 62.6704 508.911 60.1502 513.232L57.4501 515.482L97.0522 588.385L117.753 585.235L123.604 507.831C120.603 506.931 115.503 504.681 119.103 502.881H124.954C125.674 502.881 127.054 468.979 127.654 452.028L118.653 451.578L117.753 444.378H103.803V437.628H110.103L111.003 416.476L92.5519 415.126V401.176H103.803L145.205 384.525L162.306 392.625L184.807 391.725C194.107 386.325 218.379 375.524 241.06 375.524C263.741 375.524 296.413 356.023 309.913 346.273L337.365 333.672L522.325 437.178H530.425V451.128H508.824V472.729H514.224V478.58H497.573V483.53H487.223L484.073 533.033C487.073 534.083 491.903 536.453 487.223 537.533C484.739 538.106 483.582 538.198 483.132 538.09L474.479 657.92C485.87 658.773 496.148 659.653 502.524 659.653L497.573 611.337H502.524L512.424 596.036L542.126 585.235V579.385H554.276L577.227 507.831C575.727 506.931 573.177 504.591 574.977 502.431C576.777 500.271 579.028 501.531 579.928 502.431L595.228 454.728L590.278 452.928L592.528 447.978L623.13 457.879L621.78 462.829H614.129L598.829 507.831L602.879 510.531C601.979 512.331 599.549 515.572 597.029 514.132L577.227 573.985H585.328V589.736L575.877 590.636L579.478 648.239C600.029 635.338 644.641 597.566 658.682 549.683L649.231 457.879H645.181V449.778L646.981 447.978C647.281 426.377 642.121 383.445 619.08 384.525L617.28 363.824H612.329V356.173H636.181C642.931 354.073 658.502 351.493 666.782 357.973H718.085L751.387 343.123L820.24 336.372V343.123H817.09V363.374C809.44 367.874 795.399 382.005 800.439 402.526L803.589 432.677H807.64V439.878H803.589L808.99 497.031C815.59 500.031 829.331 507.561 831.491 513.682C833.651 519.802 832.391 398.025 831.491 336.372C830.591 331.422 824.831 320.171 808.99 314.771V292.72H803.589V287.32H817.09V276.519H831.491V264.818H883.244V253.568L906.645 258.518C910.695 267.969 925.546 288.04 952.547 292.72C979.549 297.4 990.499 298.87 992.599 299.02C996.35 294.37 1006.55 285.52 1017.35 287.32V292.72H1013.3V314.771C1005.65 317.921 990.349 327.282 990.349 339.522C990.349 351.763 991.549 466.429 992.149 522.232L997.703 539.783C992.152 538.583 1000.94 566.915 994.102 580.956C997.156 582.453 998.576 583.862 997.762 585.147C997.805 585.164 997.786 585.194 997.703 585.235C995.781 587.916 991.417 590.057 985.336 591.741C983.025 593.132 980.518 593.731 977.83 593.444C975.742 593.833 973.533 594.188 971.223 594.509C916.863 615.213 797.96 664.182 794.292 674.34C779.591 675.99 681.336 706.742 624.93 701.341C555.904 694.733 534.325 680.654 502.524 659.653C496.148 659.653 485.87 658.773 474.479 657.92C463.764 657.118 452.066 656.339 441.707 656.339L413.685 656.339C403.711 659.653 402.286 659.653 381.863 659.653L390.018 531.232C388.068 531.082 384.347 530.062 385.067 527.182H390.918L394.518 476.33L385.067 475.43V468.679H375.617V474.529L363.016 475.43L361.216 524.482L366.166 525.382C365.866 526.882 364.276 529.612 360.316 528.532L348.141 663.928C340.067 666.303 330.669 671.566 317.37 671.566C261.224 675.327 231.973 696.318 140 671.566C89.6549 656.356 44.2227 618.736 30.872 594.585L72.7509 591.536Z" fill="#6FD4E0"/>
<path d="M452.443 539.94L441.708 656.803H412.736C416.788 603.75 421.644 534.847 422.725 536.302C423.805 537.757 426.477 535.696 427.678 534.483C428.038 531.573 424.526 531.452 422.725 531.755L425.877 481.278H436.233V474.457H447.49V482.188H456.945L453.793 533.574H447.49C446.409 536.12 450.341 538.879 452.443 539.94Z" fill="#7DDEEA"/>
<path d="M328.168 529.481L318.262 653.626C307.816 651.807 299.501 657.719 296.649 660.902C295.569 656.9 277.288 648.927 268.282 645.441L278.638 522.66H284.042V519.477H278.638L281.79 469H292.597V463.088L324.116 465.362V472.183H332.671L329.969 524.479H324.116C323.395 527.753 326.517 529.178 328.168 529.481Z" fill="#7DDEEA"/>
<path d="M246.669 522.66L236.763 647.26L205.244 650.898C208.847 606.484 216.321 518.021 217.402 519.477C218.752 521.296 223.705 517.658 223.255 516.293C222.895 515.202 219.203 514.626 217.402 514.474L220.554 463.088H231.81V458.086H242.167V465.362L252.072 466.726L246.669 517.658H242.167V521.296L246.669 522.66Z" fill="#7DDEEA"/>
<path d="M184.532 516.293L175.527 650.898C175.527 648.715 155.114 639.378 144.908 634.982L154.814 513.11C159.857 512.019 160.217 509.017 159.767 507.653H155.715L159.767 458.086H170.123V453.539H180.029V460.36H189.485L185.883 512.201H180.029C180.029 514.02 183.031 515.687 184.532 516.293Z" fill="#7DDEEA"/>
<path d="M856.335 363.954V533.119L863.99 538.121L888.754 420.797L884.252 419.888V413.976L907.215 419.888V423.071H903.613L878.398 545.397L893.707 552.594C899.203 548.072 904.644 543.947 909.467 540.483V496.285H898.66V484.007L934.682 481.278V489.009C950.892 489.009 963.349 493.859 967.552 496.285V366.228C966.201 349.857 953.683 316.661 914.42 314.842C875.156 313.023 859.337 346.825 856.335 363.954Z" fill="#7DDEEA"/>
<path d="M671.274 457.631L678.028 523.115C678.478 518.112 683.341 509.654 699.191 515.839C715.04 522.023 735.813 516.293 744.218 512.655L696.939 422.616L692.437 424.89L689.285 419.433L712.248 408.519L714.05 412.157L709.097 416.704L759.077 508.108C763.759 504.47 779.639 499.316 786.993 497.194L781.14 444.898H778.438V436.258H781.14L778.438 414.885C773.035 399.121 752.232 369.229 712.248 375.777C672.265 382.326 668.272 425.799 671.274 446.717H674.426V456.267L671.274 457.631Z" fill="#7DDEEA"/>
<path d="M860.772 1215.75C866.026 1201.29 886.251 1204.74 895.706 1208.26C891.294 1213.43 892.817 1221.26 894.13 1224.52C898.333 1228.14 899.646 1221.69 903.586 1224.52C906.738 1226.8 904.725 1235.62 903.324 1239.75C900.785 1236.74 895.076 1231.49 892.555 1234.59C890.033 1237.69 892.555 1240.87 894.13 1242.08C888.247 1249.1 880.297 1246.89 877.057 1244.92C875.587 1243.47 873.118 1244.31 872.067 1244.92C870.806 1247.19 874.869 1249.13 877.057 1249.82C864.45 1248.99 858.321 1238.46 856.832 1233.3C851.369 1230 849.478 1225.56 849.215 1223.75C857.62 1221.89 860.422 1217.64 860.772 1215.75Z" fill="#033656" fill-opacity="0.5"/>
<path d="M919.667 1238.55C924.92 1224.09 945.145 1227.53 954.601 1231.06C950.188 1236.22 951.712 1244.05 953.025 1247.32C957.228 1250.94 958.541 1244.48 962.481 1247.32C965.633 1249.59 963.619 1258.42 962.218 1262.55C959.679 1259.54 953.971 1254.29 951.449 1257.39C948.927 1260.49 951.449 1263.67 953.025 1264.87C947.141 1271.9 939.191 1269.69 935.952 1267.71C934.481 1266.27 932.012 1267.11 930.961 1267.71C929.701 1269.99 933.763 1271.93 935.952 1272.62C923.344 1271.79 917.215 1261.26 915.727 1256.1C910.264 1252.79 908.372 1248.36 908.11 1246.55C916.515 1244.69 919.317 1240.44 919.667 1238.55Z" fill="#033656" fill-opacity="0.5"/>
<path d="M913.037 1201.08C915.709 1193.69 925.993 1195.45 930.801 1197.25C928.557 1199.89 929.331 1203.89 929.999 1205.56C932.136 1207.4 932.804 1204.11 934.807 1205.56C936.41 1206.72 935.386 1211.22 934.674 1213.33C933.383 1211.8 930.48 1209.12 929.198 1210.7C927.916 1212.28 929.198 1213.9 929.999 1214.52C927.008 1218.1 922.965 1216.98 921.318 1215.97C920.57 1215.23 919.315 1215.66 918.78 1215.97C918.139 1217.13 920.205 1218.12 921.318 1218.47C914.907 1218.05 911.791 1212.67 911.034 1210.04C908.256 1208.35 907.295 1206.08 907.161 1205.16C911.435 1204.21 912.859 1202.04 913.037 1201.08Z" fill="#033656" fill-opacity="0.5"/>
<path d="M965.282 1223.87C967.953 1216.49 978.237 1218.25 983.045 1220.05C980.801 1222.69 981.576 1226.68 982.243 1228.35C984.38 1230.2 985.048 1226.9 987.051 1228.35C988.654 1229.51 987.63 1234.02 986.918 1236.13C985.627 1234.59 982.724 1231.91 981.442 1233.49C980.16 1235.08 981.442 1236.7 982.243 1237.32C979.252 1240.9 975.209 1239.78 973.562 1238.77C972.814 1238.03 971.559 1238.46 971.025 1238.77C970.384 1239.93 972.449 1240.92 973.562 1241.27C967.151 1240.85 964.035 1235.47 963.278 1232.84C960.5 1231.15 959.539 1228.88 959.405 1227.96C963.679 1227.01 965.104 1224.84 965.282 1223.87Z" fill="#033656" fill-opacity="0.5"/>
<path d="M947.927 1207.6C949.619 1202.99 956.132 1204.08 959.177 1205.21C957.756 1206.86 958.247 1209.36 958.67 1210.4C960.023 1211.55 960.446 1209.49 961.715 1210.4C962.73 1211.13 962.082 1213.94 961.63 1215.26C960.813 1214.3 958.974 1212.62 958.162 1213.61C957.35 1214.6 958.162 1215.62 958.67 1216C956.775 1218.24 954.215 1217.54 953.172 1216.91C952.698 1216.45 951.903 1216.72 951.565 1216.91C951.159 1217.63 952.467 1218.25 953.172 1218.47C949.112 1218.21 947.138 1214.85 946.659 1213.2C944.899 1212.15 944.29 1210.73 944.206 1210.15C946.912 1209.56 947.815 1208.2 947.927 1207.6Z" fill="#033656" fill-opacity="0.5"/>
<path fill-rule="evenodd" clip-rule="evenodd" d="M16.1578 353.03C-9.8528 348.436 -68.8713 355.065 -96.8609 418.339C-131.848 497.431 -153.9 564.436 -145.631 603.028C-139.015 633.901 -117.994 673.567 -108.311 689.541C-91.277 714.916 -54.1978 768.421 -42.1538 779.447C-30.1098 790.474 -23.5647 795.775 -21.7977 797.047C-38.337 779.235 -72.7727 733.689 -78.201 693.994C-83.6293 654.3 -84.4209 638.863 -84.1382 636.107C-83.6434 653.141 -75.7413 695.86 -48.091 730.466C-20.4406 765.071 24.0742 801.853 42.8753 815.919C111.577 942.437 260.813 1209.22 308.141 1264.18C355.468 1319.14 392.039 1355.78 404.408 1367.23C414.657 1375.92 444.145 1393.9 480.107 1396.28C516.069 1398.65 555.453 1390.34 570.649 1385.89C593.691 1372.11 644.61 1340.72 663.948 1325.46C688.121 1306.37 740.707 1283.9 753.218 1283.9C755.648 1283.9 758.405 1283.48 761.222 1283.06C772.909 1281.29 785.615 1279.38 780.147 1306.37C776.734 1323.23 768.705 1339.6 761.217 1354.87C753.822 1369.95 746.954 1383.95 745.584 1396.28C743.379 1416.13 755.126 1446.82 761.276 1459.68C760.286 1484.56 764.88 1539.41 791.174 1559.76C824.04 1585.21 848.001 1587.12 877.475 1583.51C906.949 1579.91 978.831 1555.31 1013.39 1516.08C1041.04 1484.7 1050.64 1466.96 1051.99 1462.01C1057.92 1461.23 1072.68 1454.85 1084.22 1435.51C1098.64 1411.33 1110.93 1354.72 1111.99 1339.24C1112.17 1336.73 1112.04 1332.96 1111.89 1328.31C1111.11 1304.24 1109.57 1256.84 1144.22 1241.91C1177.3 1227.66 1208.33 1232.16 1219.71 1236.19C1228.69 1239.01 1247.91 1249.29 1253 1267.78C1259.36 1290.89 1257.67 1319.73 1253 1329.49C1248.34 1339.24 1277.6 1307.43 1272.51 1278.17C1267.42 1248.91 1265.09 1237.25 1253 1221.77C1249.36 1217.11 1245.69 1209.76 1241.54 1201.47C1231.91 1182.22 1219.73 1157.87 1199.57 1150.31C1176.5 1141.66 1145.28 1146.71 1132.56 1150.31C1122.38 1156.32 1098.47 1177.2 1084.22 1212.65C1069.97 1248.1 1061.88 1295.28 1059.62 1314.43C1050.22 1344.19 1026.8 1407.86 1008.31 1424.48C985.193 1445.26 958.051 1468.8 936.847 1465.4C915.643 1462.01 877.475 1455.65 877.475 1417.06C877.475 1386.19 884.826 1359.67 888.501 1350.27C904.192 1329.27 936.847 1283.39 941.936 1267.78C948.297 1248.27 951.69 1195.69 941.936 1183.18C940.854 1181.79 939.707 1180.24 938.483 1178.59C928.675 1165.37 913.618 1145.08 882.14 1138.86C867.027 1135.87 848.169 1136.25 828.597 1136.63C802.308 1137.16 774.732 1137.7 753.218 1130.17C723.193 1119.65 714.838 1069.95 714.414 1046.41C714.414 1041.13 717.971 1029.31 722.689 1013.64C731.987 982.767 745.796 936.907 745.796 896.495C745.796 802.984 702.824 747.388 681.76 725.376C680.001 723.539 678.315 721.708 676.626 719.873C660.184 702.014 643.475 683.866 557.715 657.523C507.188 642.002 480.024 644.64 455.69 647.003C434.477 649.063 415.415 650.914 384.9 640.347C319.379 617.659 289.057 574.19 278.243 552.562C274.84 545.757 269.025 531.67 262.116 514.936C247.065 478.478 226.826 429.456 215.054 415.794C211.669 411.867 208.756 408.261 206.025 404.88C194.899 391.107 186.687 380.941 160.983 366.813C128.965 349.213 94.8257 336.278 68.5324 338.187C47.4978 339.714 24.8515 348.718 16.1578 353.03ZM720.27 884.603C711.236 848.701 684.288 781.312 637.231 758.667C629.646 755.017 622.763 751.652 616.422 748.551C570.823 726.255 553.265 717.67 504.492 715.622C486.231 714.856 465.291 719.267 444.079 723.734C400.757 732.859 356.306 742.222 331.253 708.201C301.398 667.659 283.473 633.35 278.243 621.264C292.591 644.447 328.963 692.043 359.667 696.963C381.049 700.389 406.774 697.036 434.717 693.394C456.93 690.499 480.545 687.421 504.492 687.421L505.555 687.421C541.156 687.417 593.206 687.41 643.592 728.769C682.451 760.666 709.977 842.494 720.27 884.603ZM327.012 1275.2C338.533 1290.26 366.834 1324.23 387.869 1339.66C391.552 1342.37 395.16 1345.14 398.755 1347.89C420.822 1364.83 442.547 1381.5 480.107 1381.86C480.841 1381.87 481.568 1381.87 482.29 1381.88L483.545 1381.9C485.293 1381.92 487.006 1381.94 488.686 1381.95C526.774 1382.4 547.727 1382.65 579.555 1367.23C593.851 1360.3 608.928 1343.71 624.427 1326.65C645.941 1302.97 668.269 1278.4 690.453 1277.54C720.987 1276.35 734.558 1277.04 737.527 1277.54C725.299 1273.29 696.603 1266.08 679.639 1271.17C658.435 1277.54 615.602 1305.95 584.008 1333.09C552.414 1360.23 460.387 1363.84 417.342 1339.66C382.907 1320.33 342.774 1288.63 327.012 1275.2ZM804.532 1552.34C784.176 1540.3 777.108 1500.96 776.118 1482.79C777.461 1485.97 782.353 1496.19 791.174 1511.63C802.2 1530.93 818.951 1545.34 853.302 1556.37C880.783 1565.19 915.925 1557.36 930.061 1552.34C924.195 1554.82 907.67 1560.99 888.501 1565.91C864.54 1572.06 829.977 1567.4 804.532 1552.34ZM748.129 1138.86C771.807 1142.68 825.016 1149.76 848.425 1147.55C877.687 1144.8 908.009 1155.19 916.491 1174.48C924.972 1193.78 931.334 1210.11 929.001 1238.94C927.135 1262.01 911.684 1290.96 904.192 1302.56C913.169 1281 929.425 1233.3 922.64 1214.98C921.774 1212.64 920.963 1210.42 920.19 1208.3L920.176 1208.26L920.171 1208.25C913.384 1189.64 909.493 1178.96 896.559 1168.12C885.951 1159.23 857.323 1156.65 831.279 1154.3C821.925 1153.46 812.901 1152.65 805.168 1151.58C781.759 1148.36 758.236 1141.76 748.129 1138.86ZM1067.68 1302.56C1072.27 1278.6 1084.51 1226.14 1096.73 1207.99C1098.9 1204.75 1100.99 1201.57 1103.03 1198.47L1103.04 1198.46L1103.04 1198.45C1115.28 1179.82 1125.51 1164.24 1140.41 1158.79C1157.8 1152.43 1178.79 1150.31 1196.6 1161.97C1214.41 1173.63 1237.31 1203.32 1237.52 1207.99C1237.63 1210.26 1238.42 1212.49 1239.24 1214.19C1235.41 1208.76 1225.65 1200.3 1207.41 1196.53C1180.7 1191.02 1168.61 1190.81 1150.59 1198.44C1132.56 1206.08 1105 1233.01 1094.61 1252.09C1086.29 1267.36 1073.19 1292.1 1067.68 1302.56ZM1056.65 1449.29C1064.78 1430.7 1082.9 1387.5 1090.37 1363.41C1097.83 1339.32 1103.51 1322.84 1105.42 1317.61C1106.48 1328.14 1105.42 1352.81 1084.22 1418.12C1077.57 1438.59 1069.89 1442.51 1059.82 1447.66C1058.79 1448.18 1057.73 1448.72 1056.65 1449.29ZM769.121 1367.23C778.621 1343.99 785.66 1316.98 787.993 1306.37C789.053 1307.08 791.174 1310.61 791.174 1319.1C791.174 1329.7 780.147 1365.11 769.121 1394.16C760.3 1417.4 765.446 1449.93 769.121 1463.28C767.778 1461.31 763.862 1451.37 758.943 1427.45C753.832 1402.6 756.045 1397.53 763.756 1379.84C765.322 1376.25 767.116 1372.13 769.121 1367.23Z" fill="url(#paint7_linear_84_784)"/>
<path d="M-87.0935 560.433C-94.3878 525.997 -92.1118 518.802 -90.0621 519.508C-89.0726 495.689 -83.5312 440.629 -69.2822 410.943C-55.0331 381.257 -12.5962 365.778 6.84106 361.749C30.5898 362.244 91.1492 367.983 143.396 386.982C195.644 405.981 188.491 503.605 178.384 550.043C189.41 544.176 211.589 534.394 212.098 542.197C212.607 550 210.614 579.941 209.554 593.935C202.839 604.82 186.738 629.389 176.051 640.585C165.364 651.781 157.038 653.449 154.211 652.883C155.624 706.389 164.219 817.089 187.289 831.847C210.359 846.605 263.766 850.239 287.585 850.21C337.996 849.063 368.165 864.623 389.578 877.86C412.903 892.279 424.777 955.256 425.201 984.518C425.625 1013.78 428.806 1091.6 434.107 1118.95C438.348 1140.84 451.15 1168.08 457.02 1178.96C464.964 1170.45 472.637 1161.53 479.06 1152.03C498.568 1123.19 505.706 1054.11 506.837 1023.17C498.619 1014.8 498.521 1005.57 492.206 992.363C485.209 977.732 482.665 963.313 479.06 954.408C476.176 947.283 467.822 943.099 464.005 941.897C466.62 944.512 472.147 950.845 473.335 955.256C474.522 959.666 469.871 957.094 467.398 955.256C455.452 951.722 431.011 942.279 428.806 932.779C426.049 920.905 431.774 898.004 434.107 889.099C436.439 880.193 441.528 881.465 438.772 881.041C436.015 880.617 436.863 871.499 436.015 863.441C435.167 855.384 439.62 852.839 438.772 850.931C437.924 849.022 440.462 844.153 444.497 838.632C448.249 833.498 446.177 829.528 448.045 828.265C444.208 830.091 435.393 833.331 427.109 833.331C416.295 833.331 423.081 827.182 415.659 828.03C409.722 828.709 409.51 825.486 410.146 823.789C420.96 820.255 444.412 812.042 451.706 807.462C460.824 801.737 464.641 796.012 470.154 794.528C474.565 793.34 488.39 794.033 494.751 794.528C495.387 794.386 496.829 791.601 497.508 781.593C498.186 771.585 505.565 765.266 509.17 763.357C509.453 759.541 510.866 752.628 514.259 755.512C517.652 758.396 521.327 796.153 522.741 814.672C531.576 832.907 551.197 876.206 559 903.517C566.803 930.828 567.199 1000.84 566.421 1032.44C563.311 1067.57 555.395 1146.05 548.61 1178.96C541.824 1211.87 521.468 1258.26 512.138 1277.35C487.471 1318.56 435.167 1399.02 423.293 1391.22C408.45 1381.46 393.395 1345.41 390.002 1308.94C386.609 1272.47 357.347 1200.59 346.957 1162.63C338.645 1132.27 334.73 1104.3 333.811 1094.11C325.672 1100.39 316.362 1105.58 310.486 1108.35C311.758 1131.46 314.388 1182.9 314.727 1203.77C315.151 1229.85 309.002 1272.05 321.512 1302.58C334.023 1333.12 353.743 1417.3 375.795 1465.85C397.848 1514.41 438.56 1540.49 473.759 1585.87C508.958 1631.25 582.961 1727.94 646.361 1814.24C697.082 1883.28 754.432 1990.87 776.768 2036.04L243.268 2200.37C206.02 2155.06 121.683 2049.61 82.3282 1990.24C33.1343 1916.02 31.65 1822.09 31.65 1734.72C31.65 1647.36 48.4014 1539.86 51.7941 1495.96C55.1868 1452.07 53.2784 1424.08 51.7941 1369.8C50.3098 1315.52 -40.2323 1187.02 -67.7979 1154.79C-95.3634 1122.56 -156.008 1002.12 -165.337 999.361C-174.667 996.604 -235.099 1043.47 -247.398 1066.79C-257.237 1085.45 -338.576 1179.46 -378.016 1224.13C-368.969 1233.38 -347.016 1257.46 -331.579 1279.68C-312.283 1307.46 -246.974 1367.68 -227.678 1382.1C-208.382 1396.52 -190.358 1400.12 -170.002 1415.18C-149.646 1430.23 -132.047 1466.91 -117.84 1495.96C-103.633 1525.01 -70.3424 1550.88 -65.4654 1553.43C-60.5884 1555.97 -42.9889 1609.83 -41.7166 1613.44C-40.4444 1617.04 -42.7769 1624.67 -44.4732 1629.55C-46.1696 1634.43 -54.2272 1674.93 -63.7691 1686.59C-71.4026 1695.92 -70.0597 1688.5 -68.434 1683.62C-69.7063 1677.61 -72.2084 1663.44 -72.0388 1654.78C-71.8267 1643.97 -62.0728 1627.85 -62.0728 1617.25C-62.0728 1608.77 -71.4026 1591.38 -76.0675 1583.75L-86.0335 1567.42C-87.5178 1568.27 -90.6561 1571.92 -91.3346 1579.72C-92.0132 1587.52 -96.8477 1610.4 -99.1802 1620.86C-100.523 1622.13 -104.693 1624.93 -110.63 1625.95C-116.568 1626.96 -122.01 1625.52 -123.989 1624.67C-125.473 1625.24 -130.181 1626.67 -137.136 1627.85C-144.091 1629.04 -151.201 1626.23 -153.887 1624.67C-154.594 1625.03 -156.941 1626.16 -160.673 1627.85C-164.404 1629.55 -179.756 1628.56 -186.966 1627.85C-190.571 1625.17 -190.486 1610.09 -192.691 1600.93C-194.896 1591.77 -183.14 1587 -180.525 1589.05C-186.039 1570.92 -195.049 1550.67 -197.78 1545.58C-210.078 1530.88 -236.329 1499.14 -242.945 1489.82C-251.215 1478.15 -249.518 1462.46 -252.063 1448.47C-254.607 1434.47 -286.414 1417.51 -302.105 1406.91C-317.796 1396.3 -352.783 1382.52 -382.045 1368.95C-405.454 1358.09 -446.223 1323.57 -463.681 1307.67C-477.818 1295.3 -506.09 1268.06 -506.09 1258.05C-506.09 1245.54 -488.49 1203.77 -463.681 1160.3C-438.872 1116.83 -388.194 1050.89 -345.15 1014.42C-302.105 977.944 -279.84 930.235 -269.238 913.483C-258.636 896.732 -216.228 838.844 -211.139 831.211C-206.05 823.577 -167.882 810.219 -143.921 818.276C-124.753 824.722 -70.201 825.203 -45.3214 824.638C-23.2689 818.771 23.2532 806.487 32.9223 804.282C42.5914 802.076 40.7679 759.399 38.6475 738.336C36.527 739.962 28.8936 743.383 15.3228 744.061C-1.64059 744.91 -43.6251 697.836 -62.7089 662.213C-81.7927 626.59 -77.9757 603.477 -87.0935 560.433Z" fill="#FFECE3"/>
<path d="M38.6475 738.336C36.527 739.962 28.8935 743.383 15.3228 744.061C-1.64059 744.91 -43.6251 697.836 -62.7089 662.213C-81.7927 626.59 -77.9757 603.477 -87.0935 560.433C-94.3878 525.997 -92.1119 518.802 -90.0621 519.508C-89.0726 495.689 -83.5313 440.629 -69.2822 410.943C-55.0331 381.257 -12.5962 365.778 6.84109 361.749C30.5899 362.244 91.1492 367.983 143.397 386.982C195.644 405.981 188.491 503.605 178.384 550.043C189.41 544.176 211.589 534.394 212.098 542.197C212.607 550 210.614 579.941 209.554 593.935C202.839 604.82 186.738 629.389 176.051 640.585C165.364 651.781 157.038 653.449 154.211 652.883C155.624 706.389 164.219 817.089 187.289 831.847C210.36 846.605 263.766 850.239 287.585 850.21M38.6475 738.336C40.7679 759.399 42.5914 802.076 32.9223 804.282C23.2532 806.487 -23.2689 818.771 -45.3214 824.638M38.6475 738.336C64.5167 725.048 118.333 695.673 126.645 684.477C134.957 673.282 143.962 661.86 147.425 657.548M-45.3214 824.638C-70.201 825.203 -124.753 824.722 -143.921 818.276C-167.882 810.219 -206.05 823.577 -211.139 831.211C-216.228 838.844 -258.636 896.732 -269.238 913.483C-279.84 930.235 -302.105 977.944 -345.15 1014.42C-388.194 1050.89 -438.872 1116.83 -463.681 1160.3C-488.49 1203.77 -506.09 1245.54 -506.09 1258.05C-506.09 1268.06 -477.818 1295.3 -463.681 1307.67C-446.223 1323.57 -405.454 1358.09 -382.045 1368.95C-352.783 1382.52 -317.796 1396.3 -302.105 1406.91C-286.414 1417.51 -254.607 1434.47 -252.063 1448.47C-249.518 1462.46 -251.215 1478.15 -242.945 1489.82C-236.329 1499.14 -210.078 1530.88 -197.78 1545.58C-193.61 1553.36 -174.795 1596.47 -176.152 1613.44C-177.509 1630.4 -178.263 1591.81 -180.525 1589.05C-183.14 1587 -194.896 1591.76 -192.691 1600.93C-190.486 1610.09 -190.571 1625.17 -186.966 1627.85C-179.756 1628.56 -164.404 1629.55 -160.673 1627.85C-156.941 1626.16 -154.594 1625.03 -153.887 1624.67M-45.3214 824.638C-20.8658 831.14 32.6679 843.849 51.158 842.661C74.2706 841.177 89.7497 862.805 104.593 864.502M-153.887 1624.67C-151.201 1626.23 -144.091 1629.04 -137.136 1627.85C-130.181 1626.67 -125.473 1625.24 -123.989 1624.67M-153.887 1624.67C-151.343 1622.06 -145.575 1613.65 -142.861 1600.93C-139.468 1585.02 -132.683 1561.27 -129.926 1558.73C-127.721 1556.69 -126.322 1554.35 -125.898 1553.43M-123.989 1624.67C-122.01 1625.52 -116.568 1626.96 -110.63 1625.95C-104.693 1624.93 -100.523 1622.13 -99.1802 1620.86C-96.8477 1610.4 -92.0132 1587.52 -91.3346 1579.72C-90.6561 1571.92 -87.5178 1568.27 -86.0335 1567.42L-76.0675 1583.75C-71.4026 1591.38 -62.0728 1608.77 -62.0728 1617.25C-62.0728 1627.85 -71.8267 1643.97 -72.0388 1654.78C-72.2084 1663.44 -69.7063 1677.61 -68.434 1683.62C-70.0597 1688.5 -71.4026 1695.92 -63.7691 1686.59C-54.2272 1674.93 -46.1696 1634.43 -44.4732 1629.55C-42.7769 1624.67 -40.4444 1617.04 -41.7166 1613.44C-42.9889 1609.83 -60.5884 1555.97 -65.4654 1553.43C-70.3424 1550.88 -103.633 1525.01 -117.84 1495.96C-132.047 1466.91 -149.646 1430.23 -170.002 1415.18C-190.358 1400.12 -208.382 1396.52 -227.678 1382.1C-246.974 1367.68 -312.283 1307.46 -331.579 1279.68C-347.016 1257.46 -368.969 1233.38 -378.016 1224.13M-123.989 1624.67C-121.303 1622.13 -115.592 1613.82 -114.235 1600.93C-112.539 1584.81 -105.117 1559.15 -102.149 1557.24M-378.016 1224.13C-338.576 1179.46 -257.237 1085.45 -247.398 1066.79C-235.099 1043.47 -174.667 996.604 -165.337 999.361M-378.016 1224.13C-380.914 1219.32 -390.654 1206.99 -406.43 1196.14C-422.206 1185.28 -435.197 1181.43 -439.721 1180.87M-165.337 999.361C-156.008 1002.12 -95.3634 1122.56 -67.7979 1154.79C-40.2323 1187.02 50.3098 1315.52 51.7941 1369.8C53.2784 1424.08 55.1868 1452.07 51.7941 1495.96C48.4014 1539.86 31.6501 1647.36 31.6501 1734.72C31.6501 1822.09 33.1344 1916.02 82.3282 1990.24C121.683 2049.61 206.02 2155.06 243.269 2200.37L776.768 2036.04C754.432 1990.87 697.082 1883.28 646.361 1814.24C582.961 1727.94 508.958 1631.25 473.759 1585.87C438.56 1540.49 397.848 1514.41 375.795 1465.85C353.743 1417.3 334.023 1333.12 321.512 1302.58C309.002 1272.05 315.151 1229.85 314.727 1203.77C314.388 1182.9 311.758 1131.46 310.486 1108.35M-165.337 999.361C-157.704 996.251 -139.935 990.328 -129.926 991.515M310.486 1108.35C316.363 1105.58 325.672 1100.39 333.811 1094.11M310.486 1108.35C309.426 1108.99 302.98 1110.6 285.677 1111.96C268.374 1113.31 248.216 1104.6 240.3 1100.08M294.795 929.175C294.229 937.091 298.993 961.659 322.572 996.604C352.046 1040.28 355.227 1058.73 349.502 1075.7C347.347 1082.08 341.041 1088.53 333.811 1094.11M333.811 1094.11C334.73 1104.3 338.645 1132.27 346.957 1162.63C357.347 1200.59 386.609 1272.47 390.002 1308.94C393.395 1345.41 408.45 1381.46 423.293 1391.22C435.167 1399.02 487.471 1318.56 512.138 1277.35C521.468 1258.26 541.824 1211.87 548.61 1178.96C555.395 1146.05 563.311 1067.57 566.421 1032.44C567.199 1000.84 566.803 930.828 559 903.517C551.197 876.206 531.576 832.907 522.741 814.672C521.327 796.153 517.652 758.396 514.259 755.512C510.866 752.628 509.453 759.541 509.17 763.357C505.565 765.266 498.186 771.585 497.508 781.593C496.829 791.601 495.387 794.386 494.751 794.528M494.751 794.528C488.39 794.033 474.565 793.34 470.154 794.528C464.641 796.012 460.824 801.737 451.706 807.462C444.412 812.042 420.96 820.255 410.146 823.789C409.51 825.486 409.722 828.709 415.659 828.03C423.081 827.182 416.295 833.331 427.109 833.331C435.761 833.331 444.992 829.797 448.526 828.03M494.751 794.528C502.172 804.918 518.161 826.461 522.741 829.515M448.526 828.03C445.84 828.949 448.526 833.119 444.497 838.632C440.462 844.153 437.924 849.022 438.772 850.931M448.526 828.03C450.081 824.92 454.887 818.658 461.672 818.488C470.154 818.276 503.657 854.324 512.138 859.201C519.579 863.479 526.204 865.491 528.466 866.198M438.772 850.931C439.62 852.839 435.167 855.384 436.015 863.441C436.863 871.499 436.015 880.617 438.772 881.041M438.772 850.931C440.115 848.528 444.327 844.273 450.434 846.478C458.068 849.235 478.424 866.41 494.115 874.892C506.668 881.677 518.429 887.19 522.741 889.099M438.772 881.041C441.528 881.465 436.439 880.193 434.107 889.099C431.774 898.004 426.049 920.905 428.806 932.779C431.011 942.279 455.452 951.722 467.398 955.256C469.871 957.094 474.522 959.666 473.335 955.256C472.147 950.845 466.62 944.512 464.005 941.897M438.772 881.041C441.458 880.475 448.186 880.32 453.615 884.222C460.4 889.099 492.419 920.269 500.688 924.722C507.304 928.284 511.078 929.457 512.138 929.599M464.005 941.897C467.822 943.099 476.176 947.283 479.06 954.408C482.665 963.313 485.209 977.732 492.206 992.363C498.521 1005.57 498.619 1014.8 506.837 1023.17M464.005 941.897C457.997 937.515 445.515 927.945 443.649 924.722M535.887 1036.04C530.94 1035.69 518.797 1033.16 509.806 1025.87C508.709 1024.98 507.726 1024.08 506.837 1023.17M506.837 1023.17C505.706 1054.11 498.568 1123.19 479.06 1152.03C472.637 1161.53 464.964 1170.45 457.02 1178.96M399.332 1284.77C399.12 1280.88 400.053 1267.38 405.481 1244.48C410.479 1223.4 434.806 1202.77 457.02 1178.96M457.02 1178.96C451.15 1168.08 438.348 1140.84 434.107 1118.95C428.806 1091.6 425.625 1013.78 425.201 984.518C424.777 955.256 412.903 892.279 389.578 877.86C368.165 864.623 337.996 849.063 287.585 850.21M145.517 860.261C151.878 860.261 162.904 850.931 179.02 846.478C195.135 842.025 214.643 855.596 273.591 850.931C278.422 850.548 283.085 850.313 287.585 850.21M-92.6069 999.361C-84.0545 995.968 -62.624 997.834 -45.3214 1032.44C-23.693 1075.7 -8.63803 1087.08 7.90128 1094.11M141.488 1062.76C145.729 1055.31 154.211 1036.97 154.211 1023.17M229.062 1398.66C227.648 1407.21 225.669 1426.14 229.062 1433.44C232.454 1440.73 237.967 1447.22 240.3 1449.55L234.787 1422.83" stroke="#EDD1BF" stroke-width="2"/>
<path d="M-96.8043 418.339C-68.8147 355.065 -9.79617 348.436 16.2144 353.03C24.9082 348.718 47.5544 339.714 68.5891 338.187C94.8823 336.278 129.021 349.213 161.04 366.813C193.058 384.412 197.935 395.862 215.11 415.794C232.286 435.726 267.485 530.934 278.299 552.562L202.6 528.177L191.362 545.14C184.223 552.42 168.164 566.981 161.04 566.981C152.134 566.981 139.835 558.711 86.4006 521.816C43.6529 492.299 13.133 458.935 3.02567 441.053C-0.791092 464.095 -4.65044 509.348 11.9737 545.14C32.7539 589.881 64.7723 654.13 100.82 693.994C136.867 733.858 161.209 756.36 182.838 768.845L191.362 776.691L169.945 768.845C155.668 760.788 122.745 740.262 105.272 722.62C83.432 700.568 -9.48483 576.76 -18.7725 515.878C-26.1946 467.225 -31.1839 456.249 -25.8121 441.053C-48.1472 466.71 -62.9196 478.559 -87.7285 552.562C-96.4688 578.633 -85.9193 618.224 -84.0816 636.107C-84.3643 638.863 -83.5727 654.3 -78.1444 693.994C-72.7161 733.689 -38.2804 779.235 -21.7411 797.047C-23.5081 795.775 -30.0531 790.474 -42.0972 779.447C-54.1412 768.421 -91.2203 714.916 -108.254 689.541C-117.938 673.567 -138.958 633.901 -145.574 603.028C-153.844 564.436 -131.791 497.431 -96.8043 418.339Z" fill="url(#paint8_linear_84_784)"/>
<path d="M62.1633 581.849C54.1905 581.51 44.6345 580.223 41.8073 577.184L37.5664 581.001L44.5638 581.849L41.8073 587.998L49.0167 583.757V589.271L57.7105 586.09L60.255 589.271L70.0089 587.15L72.9775 587.998L77.2184 586.09H80.8231L84.0037 582.909L87.6085 584.606L91.6373 580.365L97.3624 584.606V578.668L105.42 580.365L97.3624 575.064C88.81 578.386 70.1361 582.188 62.1633 581.849Z" fill="#D0A8A8"/>
<path d="M176.459 575.912C181.548 571.742 192.871 563.401 197.451 563.401C202.031 563.401 199.359 581.354 197.451 590.331C195.26 596.692 187.994 611.577 176.459 620.229C164.924 628.88 158.93 634.718 157.375 636.556" stroke="#EDD1BF" stroke-width="3"/>
<path d="M29.4902 535.546C30.8087 534.325 37.9944 532.614 56.1895 535.546C74.3846 538.479 92.3379 539.364 99.0402 539.441" stroke="#D0A8A8" stroke-width="3"/>
<path d="M-13.3164 688.93C-12.5389 687.941 -7.2944 686.556 7.46376 688.93C22.2219 691.305 33.6864 692.182 37.5738 692.323" stroke="#D0A8A8" stroke-width="3"/>
<g opacity="0.66">
<path d="M156.336 912.792C148.08 913.828 142.656 922.525 140.975 926.745C140.562 926.277 139.469 925.075 138.397 924.001C137.057 922.659 133.728 920.775 130.7 919.579C127.671 918.383 125.434 918.358 119.392 918.737C113.35 919.117 103.603 927.21 101.506 940.558C99.4086 953.905 104.255 962.001 108.149 967.955C111.265 972.717 124.271 982.663 130.385 987.04C136.498 991.562 149.162 1000.82 150.913 1001.68C153.102 1002.75 155.13 1002.64 159.501 996.462C163.871 990.287 182.482 964.099 186.327 952.981C190.173 941.862 183.567 928.115 179.297 921.919C175.028 915.723 166.656 911.498 156.336 912.792Z" fill="#ED4956"/>
<path d="M153.707 924.493C147.598 925.259 143.583 931.696 142.339 934.818C142.034 934.473 141.225 933.582 140.431 932.788C139.439 931.795 136.976 930.4 134.735 929.515C132.494 928.63 130.838 928.611 126.366 928.892C121.895 929.173 114.682 935.163 113.13 945.041C111.578 954.919 115.164 960.91 118.046 965.316C120.352 968.841 129.978 976.201 134.502 979.441C139.026 982.787 148.398 989.639 149.694 990.275C151.314 991.069 152.815 990.984 156.049 986.414C159.284 981.843 173.057 962.463 175.903 954.235C178.749 946.006 173.86 935.832 170.7 931.247C167.54 926.662 161.345 923.535 153.707 924.493Z" fill="#EC7881"/>
<path d="M196.237 940.679C193.352 943.594 188.341 940.507 186.586 939.152L187.456 944.797C188.562 945.565 191.641 948.849 195.065 947.662C199.744 946.04 198.751 944.975 202.023 942.985C204.64 941.392 207.956 941.994 209.286 942.495L208.837 936.035C205.578 936 199.121 937.764 196.237 940.679Z" fill="url(#paint9_linear_84_784)"/>
<path d="M185.597 973.481C182.329 975.966 180.115 969.645 178.36 968.29L174.639 973.533C175.745 974.301 174.36 980.711 177.785 979.524C182.464 977.902 185.148 980.038 188.419 978.047C191.037 976.454 198.352 970.474 199.682 970.974L199.233 964.515C191.164 964.109 192.791 968.01 185.597 973.481Z" fill="url(#paint10_linear_84_784)"/>
<path d="M108.929 988.537C105.66 991.023 103.447 984.701 101.692 983.346L97.971 988.59C99.077 989.358 97.6919 995.767 101.116 994.58C105.795 992.959 108.479 995.094 111.751 993.103C114.368 991.511 125.467 983.701 126.797 984.201L120.958 979.282C112.889 978.877 116.123 983.066 108.929 988.537Z" fill="url(#paint11_linear_84_784)"/>
<path d="M93.7857 955.123C97.8749 957.742 101.16 956.499 102.089 955.54L104.997 962.189C103.795 963.201 100.168 965.299 96.1176 965.095C91.0545 964.841 89.063 960.115 86.7046 958.589C84.8179 957.368 80.3123 961.82 78.2954 964.2L75.9811 957.849C77.1708 955.763 80.8588 951.417 86.0927 950.714C92.6352 949.836 88.6742 951.85 93.7857 955.123Z" fill="url(#paint12_linear_84_784)"/>
<path d="M106.665 916.005C106.464 920.824 109.212 922.996 110.518 923.302L106.212 929.159C104.721 928.647 104.948 924.823 103.069 921.263C100.72 916.813 95.6404 919.863 95.7706 917.075C95.8748 914.845 93.9996 907.907 90.9062 907.394L95.2552 902.195C97.6732 902.151 96.123 905.706 99.3913 909.816C103.477 914.953 106.918 909.981 106.665 916.005Z" fill="url(#paint13_linear_84_784)"/>
<path d="M182.978 911.589C178.599 913.7 177.666 918.921 178.014 920.205L171.365 915.245C171.112 913.702 174.326 914.278 176.597 910.949C179.436 906.789 174.316 903.808 176.855 902.599C178.886 901.631 184.161 896.703 183.149 893.763L189.833 895.086C191.02 897.174 187.125 897.51 185.024 902.31C182.398 908.31 188.45 908.949 182.978 911.589Z" fill="url(#paint14_linear_84_784)"/>
<path d="M119.158 939.571C119.527 932.349 123.364 934.084 125.236 935.854C126.873 936.942 129.446 939.283 126.651 939.947C123.156 940.777 122.549 940.747 120.541 944.266C118.534 947.785 123.322 949.434 124.26 954.911C125.198 960.388 123.88 962.333 120.007 954.697C116.134 947.061 118.695 948.598 119.158 939.571Z" fill="#FFE6E6" fill-opacity="0.28"/>
</g>
</g>
<defs>
<linearGradient id="paint0_linear_84_784" x1="474.479" y1="1160.05" x2="409.41" y2="1438.38" gradientUnits="userSpaceOnUse">
<stop offset="0.14" stop-opacity="0"/>
<stop offset="0.995"/>
</linearGradient>
<linearGradient id="paint1_linear_84_784" x1="474.954" y1="836.611" x2="186.182" y2="1460.22" gradientUnits="userSpaceOnUse">
<stop offset="0.485" stop-opacity="0"/>
<stop offset="0.810679"/>
</linearGradient>
<linearGradient id="paint2_linear_84_784" x1="626.938" y1="770.117" x2="637.862" y2="1530.52" gradientUnits="userSpaceOnUse">
<stop stop-color="#52B9CB"/>
<stop offset="1" stop-color="#295C65"/>
</linearGradient>
<linearGradient id="paint3_linear_84_784" x1="700.082" y1="544.039" x2="952.757" y2="1146.76" gradientUnits="userSpaceOnUse">
<stop offset="0.152242" stop-opacity="0"/>
<stop offset="1"/>
</linearGradient>
<linearGradient id="paint4_linear_84_784" x1="877.529" y1="-84.507" x2="1025.46" y2="788.49" gradientUnits="userSpaceOnUse">
<stop stop-color="#88E9F4"/>
<stop offset="1" stop-color="#68D4E1"/>
</linearGradient>
<linearGradient id="paint5_linear_84_784" x1="260.514" y1="2.73851" x2="126.284" y2="835.431" gradientUnits="userSpaceOnUse">
<stop stop-color="#88E9F4"/>
<stop offset="1" stop-color="#68D4E1"/>
</linearGradient>
<linearGradient id="paint6_linear_84_784" x1="558.03" y1="4" x2="558.198" y2="771.383" gradientUnits="userSpaceOnUse">
<stop stop-color="#88E9F4"/>
<stop offset="0.816382" stop-color="#6FD9E6"/>
</linearGradient>
<linearGradient id="paint7_linear_84_784" x1="562.869" y1="338" x2="562.869" y2="1584.91" gradientUnits="userSpaceOnUse">
<stop stop-color="#B84141"/>
<stop offset="1" stop-color="#FF857F"/>
</linearGradient>
<linearGradient id="paint8_linear_84_784" x1="-88.3647" y1="338" x2="65.4933" y2="797.047" gradientUnits="userSpaceOnUse">
<stop stop-color="#CF4848"/>
<stop offset="1" stop-color="#DC6464"/>
</linearGradient>
<linearGradient id="paint9_linear_84_784" x1="186.483" y1="941.281" x2="209.292" y2="942.384" gradientUnits="userSpaceOnUse">
<stop stop-color="#ED4956"/>
<stop offset="1" stop-color="#0291FF" stop-opacity="0"/>
</linearGradient>
<linearGradient id="paint10_linear_84_784" x1="176.882" y1="969.761" x2="199.691" y2="970.864" gradientUnits="userSpaceOnUse">
<stop stop-color="#ED4956"/>
<stop offset="1" stop-color="#0291FF" stop-opacity="0"/>
</linearGradient>
<linearGradient id="paint11_linear_84_784" x1="100.215" y1="984.813" x2="123.024" y2="985.916" gradientUnits="userSpaceOnUse">
<stop stop-color="#0291FF" stop-opacity="0"/>
<stop offset="1" stop-color="#ED4956"/>
</linearGradient>
<linearGradient id="paint12_linear_84_784" x1="76.0256" y1="956.979" x2="104.985" y2="958.462" gradientUnits="userSpaceOnUse">
<stop stop-color="#00A6FF" stop-opacity="0"/>
<stop offset="1" stop-color="#ED4956"/>
</linearGradient>
<linearGradient id="paint13_linear_84_784" x1="96.0334" y1="901.792" x2="109.271" y2="927.348" gradientUnits="userSpaceOnUse">
<stop stop-color="#00A6FF" stop-opacity="0"/>
<stop offset="1" stop-color="#ED4956"/>
</linearGradient>
<linearGradient id="paint14_linear_84_784" x1="190.561" y1="895.573" x2="174.534" y2="919.512" gradientUnits="userSpaceOnUse">
<stop stop-color="#00A6FF" stop-opacity="0"/>
<stop offset="1" stop-color="#ED4956"/>
</linearGradient>
<clipPath id="clip0_84_784">
<rect width="1024" height="1403" fill="white"/>
</clipPath>
</defs>
</svg>
