<svg width="1024" height="1403" viewBox="0 0 1024 1403" fill="none" xmlns="http://www.w3.org/2000/svg">
<g clip-path="url(#clip0_84_1408)">
<rect width="1024" height="1403" fill="white"/>
<path d="M221.328 1330.56C152.935 1363.62 43.5374 1350.51 0 1339.11V1403.23H1024V1323.44C1003.35 1313.56 989.412 1314.14 980.75 1318.06C973.175 1321.49 963.465 1325.29 955.79 1322.08C910.527 1303.21 823.925 1286.18 750.427 1334.84C668.355 1389.17 535.748 1370.78 479.703 1354.79C422.075 1332.94 289.722 1297.51 221.328 1330.56Z" fill="#02385A"/>
<path d="M221.328 1330.56C152.935 1363.62 43.5374 1350.51 0 1339.11V1403.23H1024V1323.44C1003.35 1313.56 989.412 1314.14 980.75 1318.06C973.175 1321.49 963.465 1325.29 955.79 1322.08C910.527 1303.21 823.925 1286.18 750.427 1334.84C668.355 1389.17 535.748 1370.78 479.703 1354.79C422.075 1332.94 289.722 1297.51 221.328 1330.56Z" fill="url(#paint0_linear_84_1408)" fill-opacity="0.2"/>
<path d="M221.328 1330.56C152.935 1363.62 43.5374 1350.51 0 1339.11V993.345C12.5071 998.57 41.8909 1018.04 38.4712 1061.74C35.0516 1105.43 103.54 1135.99 138.212 1145.81C175.258 1150.4 262.269 1153.59 313.944 1129.66C365.619 1105.72 449.781 1119.68 485.403 1129.66C546.988 1146.76 695.997 1175.82 799.347 1155.3C810.418 1152.83 829.505 1147.61 849.217 1140.23C866.15 1133.89 883.544 1125.96 896.712 1116.83C932.334 1092.14 1005 1073.61 1024 1075.04V1323.44C989.043 1306.72 973.338 1319.95 969.855 1328.66C930.909 1308.08 832.499 1280.5 750.427 1334.84C668.355 1389.17 535.748 1370.78 479.703 1354.78C422.075 1332.94 289.722 1297.51 221.328 1330.56Z" fill="#116589"/>
<path d="M221.328 1330.56C152.935 1363.62 43.5374 1350.51 0 1339.11V993.345C12.5071 998.57 41.8909 1018.04 38.4712 1061.74C35.0516 1105.43 103.54 1135.99 138.212 1145.81C175.258 1150.4 262.269 1153.59 313.944 1129.66C365.619 1105.72 449.781 1119.68 485.403 1129.66C546.988 1146.76 695.997 1175.82 799.347 1155.3C810.418 1152.83 829.505 1147.61 849.217 1140.23C866.15 1133.89 883.544 1125.96 896.712 1116.83C932.334 1092.14 1005 1073.61 1024 1075.04V1323.44C989.043 1306.72 973.338 1319.95 969.855 1328.66C930.909 1308.08 832.499 1280.5 750.427 1334.84C668.355 1389.17 535.748 1370.78 479.703 1354.78C422.075 1332.94 289.722 1297.51 221.328 1330.56Z" fill="url(#paint1_linear_84_1408)" fill-opacity="0.2"/>
<path d="M38.4712 1063.64C41.8909 1019.94 12.5071 1000.47 0 995.245V770.117C18.5232 797.664 122.538 812.862 174.783 816.662C196.186 818.219 213.125 822.724 229.878 831.453C254.019 844.031 277.775 865.378 313.944 899.304C362.96 945.28 503.134 969.439 567.095 975.772C586.884 981.154 639.573 1004.74 692.007 1056.04C744.442 1107.33 818.662 1134.8 849.217 1142.13C829.505 1149.51 810.418 1154.73 799.347 1157.2C695.997 1177.72 546.988 1148.65 485.403 1131.56C449.781 1121.58 365.619 1107.62 313.944 1131.56C262.269 1155.49 175.258 1152.3 138.212 1147.7C103.54 1137.89 35.0516 1107.33 38.4712 1063.64Z" fill="#2081A1"/>
<path d="M1024 1078.57C1005 1077.15 932.333 1095.67 896.712 1120.37C883.544 1129.5 866.15 1137.42 849.216 1143.76C818.661 1136.44 744.442 1108.97 692.007 1057.67C639.572 1006.38 586.884 982.788 567.094 977.405C503.134 971.073 362.959 946.913 313.944 900.938C277.774 867.011 254.019 845.664 229.877 833.086C301.912 835.914 465.264 832.544 542.396 796.448C619.529 760.351 722.404 769.059 764.2 777.925C814.387 818.296 936.608 888.779 1024 847.743V1078.57Z" fill="url(#paint2_linear_84_1408)"/>
<path d="M739.978 720.247C838.388 705.048 978.404 616.707 1024 619.557V-81H0V587.26C19.6314 635.705 104.11 721.007 284.972 674.651C465.835 628.296 552.688 670.218 571.369 674.651C596.067 680.984 641.567 735.445 739.978 720.247Z" fill="#7DDEEA"/>
<path d="M0 773.442C18.5232 800.989 122.538 816.188 174.783 819.987C196.186 821.544 213.125 826.05 229.878 834.778C301.912 837.605 465.265 834.236 542.397 798.139C619.529 762.043 722.404 770.75 764.2 779.616C814.387 819.987 936.609 890.47 1024 849.434V576.336C978.404 573.486 852.637 645.679 754.226 660.878C655.816 676.076 581.818 686.209 557.121 679.876C538.439 675.443 536.698 626.206 291.622 668.952C107.69 701.033 19.6314 592.484 0 544.039V773.442Z" fill="#61C8D7"/>
<path d="M0 773.442C18.5232 800.989 122.538 816.188 174.783 819.987C196.186 821.544 213.125 826.05 229.878 834.778C301.912 837.605 465.265 834.236 542.397 798.139C619.529 762.043 722.404 770.75 764.2 779.616C814.387 819.987 936.609 890.47 1024 849.434V576.336C978.404 573.486 852.637 645.679 754.226 660.878C655.816 676.076 581.818 686.209 557.121 679.876C538.439 675.443 536.698 626.206 291.622 668.952C107.69 701.033 19.6314 592.484 0 544.039V773.442Z" fill="url(#paint3_linear_84_1408)" fill-opacity="0.2"/>
<path d="M906.629 -90.5244L809.381 -70.4157L922.33 613C990.83 583.5 1037.62 570.962 1075.92 559.789L906.629 -90.5244Z" fill="url(#paint4_linear_84_1408)"/>
<path d="M231.414 -2.98582L328.662 16.1436L212.624 688.159C161.455 637.069 100.42 626.288 62.1237 615.659L231.414 -2.98582Z" fill="url(#paint5_linear_84_1408)"/>
<path d="M607.096 4H443.125L449.5 655.5C533.861 661.004 650.438 675.401 715.999 672.546L607.096 4Z" fill="url(#paint6_linear_84_1408)"/>
<path d="M72.7509 591.536L37.1991 527.182C35.0989 527.182 31.8888 526.102 35.849 521.782L7.49821 472.729C5.54811 473.779 1.37789 475.249 0.297832 472.729C-1.05224 469.579 2.54795 467.779 3.89802 467.329L28.6486 452.928C30.8987 452.028 34.8589 451.938 32.6988 458.779L28.6486 461.029L54.2999 509.631C57.3001 509.031 62.6704 508.911 60.1502 513.232L57.4501 515.482L97.0522 588.385L117.753 585.235L123.604 507.831C120.603 506.931 115.503 504.681 119.103 502.881H124.954C125.674 502.881 127.054 468.979 127.654 452.028L118.653 451.578L117.753 444.378H103.803V437.628H110.103L111.003 416.476L92.5519 415.126V401.176H103.803L145.205 384.525L162.306 392.625L184.807 391.725C194.107 386.325 218.379 375.524 241.06 375.524C263.741 375.524 296.413 356.023 309.913 346.273L337.365 333.672L522.325 437.178H530.425V451.128H508.824V472.729H514.224V478.58H497.573V483.53H487.223L484.073 533.033C487.073 534.083 491.903 536.453 487.223 537.533C484.739 538.106 483.582 538.198 483.132 538.09L474.479 657.92C485.87 658.773 496.148 659.653 502.524 659.653L497.573 611.337H502.524L512.424 596.036L542.126 585.235V579.385H554.276L577.227 507.831C575.727 506.931 573.177 504.591 574.977 502.431C576.777 500.271 579.028 501.531 579.928 502.431L595.228 454.728L590.278 452.928L592.528 447.978L623.13 457.879L621.78 462.829H614.129L598.829 507.831L602.879 510.531C601.979 512.331 599.549 515.572 597.029 514.132L577.227 573.985H585.328V589.736L575.877 590.636L579.478 648.239C600.029 635.338 644.641 597.566 658.682 549.683L649.231 457.879H645.181V449.778L646.981 447.978C647.281 426.377 642.121 383.445 619.08 384.525L617.28 363.824H612.329V356.173H636.181C642.931 354.073 658.502 351.493 666.782 357.973H718.085L751.387 343.123L820.24 336.372V343.123H817.09V363.374C809.44 367.874 795.399 382.005 800.439 402.526L803.589 432.677H807.64V439.878H803.589L808.99 497.031C815.59 500.031 829.331 507.561 831.491 513.682C833.651 519.802 832.391 398.025 831.491 336.372C830.591 331.422 824.831 320.171 808.99 314.771V292.72H803.589V287.32H817.09V276.519H831.491V264.818H883.244V253.568L906.645 258.518C910.695 267.969 925.546 288.04 952.547 292.72C979.549 297.4 990.499 298.87 992.599 299.02C996.35 294.37 1006.55 285.52 1017.35 287.32V292.72H1013.3V314.771C1005.65 317.921 990.349 327.282 990.349 339.522C990.349 351.763 991.549 466.429 992.149 522.232L997.703 539.783C992.152 538.583 1000.94 566.915 994.102 580.956C997.156 582.453 998.576 583.862 997.762 585.147C997.805 585.164 997.786 585.194 997.703 585.235C995.781 587.916 991.417 590.057 985.336 591.741C983.025 593.132 980.518 593.731 977.83 593.444C975.742 593.833 973.533 594.188 971.223 594.509C916.863 615.213 797.96 664.182 794.292 674.34C779.591 675.99 681.336 706.742 624.93 701.341C555.904 694.733 534.325 680.654 502.524 659.653C496.148 659.653 485.87 658.773 474.479 657.92C463.764 657.118 452.066 656.339 441.707 656.339L413.685 656.339C403.711 659.653 402.286 659.653 381.863 659.653L390.018 531.232C388.068 531.082 384.347 530.062 385.067 527.182H390.918L394.518 476.33L385.067 475.43V468.679H375.617V474.529L363.016 475.43L361.216 524.482L366.166 525.382C365.866 526.882 364.276 529.612 360.316 528.532L348.141 663.928C340.067 666.303 330.669 671.566 317.37 671.566C261.224 675.327 231.973 696.318 140 671.566C89.6549 656.356 44.2227 618.736 30.872 594.585L72.7509 591.536Z" fill="#6FD4E0"/>
<path d="M452.443 539.94L441.708 656.803H412.736C416.788 603.75 421.644 534.847 422.725 536.302C423.805 537.757 426.477 535.696 427.678 534.483C428.038 531.573 424.526 531.452 422.725 531.755L425.877 481.278H436.233V474.457H447.49V482.188H456.945L453.793 533.574H447.49C446.409 536.12 450.341 538.879 452.443 539.94Z" fill="#7DDEEA"/>
<path d="M328.168 529.481L318.262 653.626C307.816 651.807 299.501 657.719 296.649 660.902C295.569 656.9 277.288 648.927 268.282 645.441L278.638 522.66H284.042V519.477H278.638L281.79 469H292.597V463.088L324.116 465.362V472.183H332.671L329.969 524.479H324.116C323.395 527.753 326.517 529.178 328.168 529.481Z" fill="#7DDEEA"/>
<path d="M246.669 522.66L236.763 647.26L205.244 650.898C208.847 606.484 216.321 518.021 217.402 519.477C218.752 521.296 223.705 517.658 223.255 516.293C222.895 515.202 219.203 514.626 217.402 514.474L220.554 463.088H231.81V458.086H242.167V465.362L252.072 466.726L246.669 517.658H242.167V521.296L246.669 522.66Z" fill="#7DDEEA"/>
<path d="M184.532 516.293L175.527 650.898C175.527 648.715 155.114 639.378 144.908 634.982L154.814 513.11C159.857 512.019 160.217 509.017 159.767 507.653H155.715L159.767 458.086H170.123V453.539H180.029V460.36H189.485L185.883 512.201H180.029C180.029 514.02 183.031 515.687 184.532 516.293Z" fill="#7DDEEA"/>
<path d="M856.335 363.954V533.119L863.99 538.121L888.754 420.797L884.252 419.888V413.976L907.215 419.888V423.071H903.613L878.398 545.397L893.707 552.594C899.203 548.072 904.644 543.947 909.467 540.483V496.285H898.66V484.007L934.682 481.278V489.009C950.892 489.009 963.349 493.859 967.552 496.285V366.228C966.201 349.857 953.683 316.661 914.42 314.842C875.156 313.023 859.337 346.825 856.335 363.954Z" fill="#7DDEEA"/>
<path d="M671.274 457.631L678.028 523.115C678.478 518.112 683.341 509.654 699.191 515.839C715.04 522.023 735.813 516.293 744.218 512.655L696.939 422.616L692.437 424.89L689.285 419.433L712.248 408.519L714.05 412.157L709.097 416.704L759.077 508.108C763.759 504.47 779.639 499.316 786.993 497.194L781.14 444.898H778.438V436.258H781.14L778.438 414.885C773.035 399.121 752.232 369.229 712.248 375.777C672.265 382.326 668.272 425.799 671.274 446.717H674.426V456.267L671.274 457.631Z" fill="#7DDEEA"/>
<path d="M860.772 1215.75C866.026 1201.29 886.251 1204.74 895.706 1208.26C891.294 1213.43 892.817 1221.26 894.13 1224.52C898.333 1228.14 899.646 1221.69 903.586 1224.52C906.738 1226.8 904.725 1235.62 903.324 1239.75C900.785 1236.74 895.076 1231.49 892.555 1234.59C890.033 1237.69 892.555 1240.87 894.13 1242.08C888.247 1249.1 880.297 1246.89 877.057 1244.92C875.587 1243.47 873.118 1244.31 872.067 1244.92C870.806 1247.19 874.869 1249.13 877.057 1249.82C864.45 1248.99 858.321 1238.46 856.832 1233.3C851.369 1230 849.478 1225.56 849.215 1223.75C857.62 1221.89 860.422 1217.64 860.772 1215.75Z" fill="#033656" fill-opacity="0.5"/>
<path d="M919.667 1238.55C924.92 1224.09 945.145 1227.53 954.601 1231.06C950.188 1236.22 951.712 1244.05 953.025 1247.32C957.228 1250.94 958.541 1244.48 962.481 1247.32C965.633 1249.59 963.619 1258.42 962.218 1262.55C959.679 1259.54 953.971 1254.29 951.449 1257.39C948.927 1260.49 951.449 1263.67 953.025 1264.87C947.141 1271.9 939.191 1269.69 935.952 1267.71C934.481 1266.27 932.012 1267.11 930.961 1267.71C929.701 1269.99 933.763 1271.93 935.952 1272.62C923.344 1271.79 917.215 1261.26 915.727 1256.1C910.264 1252.79 908.372 1248.36 908.11 1246.55C916.515 1244.69 919.317 1240.44 919.667 1238.55Z" fill="#033656" fill-opacity="0.5"/>
<path d="M913.037 1201.08C915.709 1193.69 925.993 1195.45 930.801 1197.25C928.557 1199.89 929.331 1203.89 929.999 1205.56C932.136 1207.4 932.804 1204.11 934.807 1205.56C936.41 1206.72 935.386 1211.22 934.674 1213.33C933.383 1211.8 930.48 1209.12 929.198 1210.7C927.916 1212.28 929.198 1213.9 929.999 1214.52C927.008 1218.1 922.965 1216.98 921.318 1215.97C920.57 1215.23 919.315 1215.66 918.78 1215.97C918.139 1217.13 920.205 1218.12 921.318 1218.47C914.907 1218.05 911.791 1212.67 911.034 1210.04C908.256 1208.35 907.295 1206.08 907.161 1205.16C911.435 1204.21 912.859 1202.04 913.037 1201.08Z" fill="#033656" fill-opacity="0.5"/>
<path d="M965.282 1223.87C967.953 1216.49 978.237 1218.25 983.045 1220.05C980.801 1222.69 981.576 1226.68 982.243 1228.35C984.38 1230.2 985.048 1226.9 987.051 1228.35C988.654 1229.51 987.63 1234.02 986.918 1236.13C985.627 1234.59 982.724 1231.91 981.442 1233.49C980.16 1235.08 981.442 1236.7 982.243 1237.32C979.252 1240.9 975.209 1239.78 973.562 1238.77C972.814 1238.03 971.559 1238.46 971.025 1238.77C970.384 1239.93 972.449 1240.92 973.562 1241.27C967.151 1240.85 964.035 1235.47 963.278 1232.84C960.5 1231.15 959.539 1228.88 959.405 1227.96C963.679 1227.01 965.104 1224.84 965.282 1223.87Z" fill="#033656" fill-opacity="0.5"/>
<path d="M947.927 1207.6C949.619 1202.99 956.132 1204.08 959.177 1205.21C957.756 1206.86 958.247 1209.36 958.67 1210.4C960.023 1211.55 960.446 1209.49 961.715 1210.4C962.73 1211.13 962.082 1213.94 961.63 1215.26C960.813 1214.3 958.974 1212.62 958.162 1213.61C957.35 1214.6 958.162 1215.62 958.67 1216C956.775 1218.24 954.215 1217.54 953.172 1216.91C952.698 1216.45 951.903 1216.72 951.565 1216.91C951.159 1217.63 952.467 1218.25 953.172 1218.47C949.112 1218.21 947.138 1214.85 946.659 1213.2C944.899 1212.15 944.29 1210.73 944.206 1210.15C946.912 1209.56 947.815 1208.2 947.927 1207.6Z" fill="#033656" fill-opacity="0.5"/>
<path d="M829.426 -644.202C825.301 -663.678 826.588 -667.747 827.747 -667.347C828.307 -680.818 831.441 -711.958 839.499 -728.747C847.558 -745.536 871.558 -754.29 882.551 -756.569C895.982 -756.289 930.232 -753.043 959.781 -742.298C989.329 -731.553 985.284 -676.341 979.568 -650.079C985.803 -653.396 998.347 -658.929 998.635 -654.516C998.923 -650.103 997.796 -633.17 997.196 -625.255C993.398 -619.099 984.292 -605.204 978.248 -598.872C972.204 -592.54 967.495 -591.597 965.896 -591.917C966.696 -561.656 971.557 -499.049 984.604 -490.703C997.652 -482.356 1027.86 -480.302 1041.33 -480.317C1069.84 -480.966 1086.9 -472.166 1099.01 -464.68C1112.2 -456.525 1118.92 -420.909 1119.16 -404.359C1119.4 -387.81 1121.19 -343.799 1124.19 -328.329C1126.59 -315.953 1133.83 -300.547 1137.15 -294.391C1141.64 -299.206 1145.98 -304.252 1149.62 -309.621C1160.65 -325.931 1164.69 -365 1165.33 -382.497C1160.68 -387.234 1160.62 -392.455 1157.05 -399.922C1153.09 -408.197 1151.65 -416.352 1149.62 -421.388C1147.99 -425.418 1143.26 -427.784 1141.1 -428.464C1142.58 -426.985 1145.71 -423.403 1146.38 -420.909C1147.05 -418.414 1144.42 -419.869 1143.02 -420.909C1136.26 -422.907 1122.44 -428.248 1121.19 -433.62C1119.64 -440.336 1122.87 -453.287 1124.19 -458.324C1125.51 -463.361 1128.39 -462.641 1126.83 -462.881C1125.27 -463.121 1125.75 -468.278 1125.27 -472.835C1124.79 -477.392 1127.31 -478.831 1126.83 -479.91C1126.35 -480.989 1127.79 -483.743 1130.07 -486.865C1132.19 -489.77 1131.02 -492.015 1132.08 -492.729C1129.91 -491.696 1124.92 -489.863 1120.24 -489.863C1114.12 -489.863 1117.96 -493.341 1113.76 -492.861C1110.4 -492.478 1110.28 -494.301 1110.64 -495.26C1116.76 -497.259 1130.02 -501.904 1134.15 -504.494C1139.3 -507.732 1141.46 -510.97 1144.58 -511.809C1147.07 -512.481 1154.89 -512.089 1158.49 -511.809C1158.85 -511.889 1159.67 -513.464 1160.05 -519.124C1160.43 -524.785 1164.61 -528.358 1166.65 -529.438C1166.8 -531.596 1167.6 -535.506 1169.52 -533.875C1171.44 -532.244 1173.52 -510.89 1174.32 -500.417C1179.32 -490.103 1190.41 -465.615 1194.83 -450.169C1199.24 -434.724 1199.46 -395.125 1199.02 -377.257C1197.27 -357.39 1192.79 -313.003 1188.95 -294.391C1185.11 -275.78 1173.6 -249.541 1168.32 -238.748C1154.37 -215.443 1124.79 -169.937 1118.08 -174.35C1109.68 -179.866 1101.17 -200.253 1099.25 -220.88C1097.33 -241.506 1080.78 -282.159 1074.91 -303.625C1070.2 -320.798 1067.99 -336.617 1067.47 -342.38C1062.87 -338.826 1057.6 -335.892 1054.28 -334.325C1055 -321.254 1056.49 -292.161 1056.68 -280.361C1056.92 -265.61 1053.44 -241.746 1060.51 -224.477C1067.59 -207.208 1078.74 -159.6 1091.21 -132.138C1103.69 -104.676 1126.71 -89.9252 1146.62 -64.262C1166.53 -38.5989 1208.38 16.0854 1244.23 64.8934C1272.92 103.94 1305.35 164.788 1317.99 190.331L1016.26 283.27C995.197 257.647 947.501 198.006 925.243 164.428C897.421 122.456 896.582 69.3306 896.582 19.9229C896.582 -29.4849 906.056 -90.285 907.974 -115.109C909.893 -139.932 908.814 -155.762 907.974 -186.462C907.135 -217.162 855.928 -289.834 840.339 -308.062C824.749 -326.291 790.451 -394.406 785.175 -395.965C779.898 -397.524 745.721 -371.021 738.765 -357.83C733.201 -347.277 687.199 -294.112 664.894 -268.848C670.01 -263.612 682.426 -249.996 691.156 -237.429C702.069 -221.719 739.005 -187.661 749.918 -179.507C760.831 -171.352 771.024 -169.313 782.537 -160.799C793.764 -152.495 803.509 -132.558 811.437 -116.337L812.037 -115.109C820.072 -98.6795 838.9 -84.0491 841.658 -82.61C844.416 -81.171 854.37 -50.7109 855.089 -48.6722C855.809 -46.6336 854.489 -42.3164 853.53 -39.5582C852.571 -36.8 848.014 -13.895 842.617 -7.29938C838.3 -2.02283 839.06 -6.22003 839.979 -8.97821C839.259 -12.376 837.844 -20.3947 837.94 -25.2875C838.06 -31.4036 843.577 -40.5176 843.577 -46.5137C843.577 -51.3105 838.3 -61.144 835.662 -65.4612L830.025 -74.6952C829.186 -74.2155 827.411 -72.1528 827.027 -67.7397C826.644 -63.3267 823.909 -50.3911 822.59 -44.475C821.831 -43.7555 819.472 -42.1725 816.115 -41.5969C812.757 -41.0212 809.679 -41.8367 808.559 -42.3164C807.72 -41.9966 805.058 -41.1891 801.124 -40.5176C797.191 -39.8461 793.17 -41.437 791.651 -42.3164C791.251 -42.1165 789.924 -41.4769 787.813 -40.5176C785.702 -39.5582 777.02 -40.1179 772.943 -40.5176C770.904 -42.0366 770.952 -50.567 769.705 -55.7476C768.458 -60.9282 775.106 -63.6225 776.586 -62.4633C773.467 -72.7182 768.371 -84.1678 766.827 -87.0471C759.871 -95.3617 745.025 -113.31 741.284 -118.586C736.607 -125.182 737.566 -134.056 736.127 -141.971C734.688 -149.886 716.7 -159.48 707.825 -165.476C698.951 -171.472 679.164 -179.267 662.615 -186.942C649.376 -193.082 626.319 -212.605 616.445 -221.599C608.45 -228.594 592.461 -244 592.461 -249.661C592.461 -256.736 602.414 -280.361 616.445 -304.944C630.476 -329.528 659.137 -366.824 683.481 -387.45C707.825 -408.077 720.417 -435.059 726.413 -444.533C732.409 -454.007 756.394 -486.745 759.272 -491.063C762.15 -495.38 783.736 -502.935 797.287 -498.378C808.128 -494.732 838.98 -494.46 853.05 -494.78C865.522 -498.098 891.833 -505.045 897.301 -506.293C902.77 -507.54 901.738 -531.676 900.539 -543.588C899.34 -542.669 895.023 -540.734 887.348 -540.35C877.754 -539.871 854.01 -566.493 843.217 -586.64C832.424 -606.787 834.583 -619.858 829.426 -644.202Z" fill="#FFECE3"/>
<path d="M900.539 -543.588C899.34 -542.669 895.023 -540.734 887.348 -540.35C877.754 -539.871 854.01 -566.493 843.217 -586.64C832.424 -606.787 834.583 -619.858 829.426 -644.202C825.301 -663.678 826.588 -667.747 827.747 -667.347C828.307 -680.818 831.441 -711.958 839.499 -728.747C847.558 -745.536 871.558 -754.29 882.551 -756.569C895.982 -756.289 930.232 -753.043 959.781 -742.298C989.329 -731.553 985.284 -676.341 979.568 -650.079C985.803 -653.396 998.347 -658.929 998.635 -654.516C998.923 -650.103 997.796 -633.17 997.196 -625.255C993.399 -619.099 984.292 -605.204 978.248 -598.872C972.204 -592.54 967.495 -591.597 965.896 -591.917C966.696 -561.656 971.557 -499.049 984.604 -490.703C997.652 -482.356 1027.86 -480.302 1041.33 -480.317M900.539 -543.588C901.738 -531.676 902.77 -507.54 897.301 -506.293C891.833 -505.045 865.522 -498.098 853.05 -494.78M900.539 -543.588C915.17 -551.103 945.606 -567.716 950.307 -574.048C955.008 -580.38 960.1 -586.84 962.059 -589.278M853.05 -494.78C838.98 -494.46 808.128 -494.732 797.287 -498.378C783.736 -502.935 762.15 -495.38 759.272 -491.063C756.394 -486.745 732.409 -454.007 726.413 -444.533C720.417 -435.059 707.825 -408.077 683.481 -387.45C659.137 -366.824 630.476 -329.528 616.445 -304.944C602.414 -280.361 592.461 -256.736 592.461 -249.661C592.461 -244 608.45 -228.594 616.445 -221.599C626.319 -212.605 649.376 -193.082 662.615 -186.942C679.164 -179.267 698.951 -171.472 707.825 -165.476C716.7 -159.48 734.688 -149.886 736.127 -141.971C737.566 -134.056 736.607 -125.182 741.284 -118.586C745.025 -113.31 759.871 -95.3617 766.827 -87.0471C769.185 -82.65 779.826 -58.266 779.059 -48.6722C778.291 -39.0785 777.865 -60.9043 776.586 -62.4632C775.106 -63.6225 768.458 -60.9282 769.705 -55.7476C770.952 -50.567 770.904 -42.0366 772.943 -40.5176C777.02 -40.1179 785.702 -39.5583 787.813 -40.5176C789.924 -41.4769 791.251 -42.1165 791.651 -42.3164M853.05 -494.78C866.881 -491.103 897.157 -483.915 907.615 -484.587C920.686 -485.426 929.44 -473.194 937.835 -472.235M791.651 -42.3164C793.17 -41.437 797.191 -39.8461 801.124 -40.5176C805.058 -41.1891 807.72 -41.9966 808.559 -42.3164M791.651 -42.3164C793.09 -43.7954 796.351 -48.5523 797.886 -55.7476C799.805 -64.7417 803.643 -78.1729 805.202 -79.612C806.449 -80.7632 807.24 -82.0904 807.48 -82.61M808.559 -42.3164C809.679 -41.8367 812.757 -41.0212 816.115 -41.5969C819.472 -42.1725 821.831 -43.7555 822.59 -44.475C823.909 -50.3911 826.644 -63.3267 827.027 -67.7398C827.411 -72.1528 829.186 -74.2155 830.025 -74.6952L835.662 -65.4612C838.3 -61.1441 843.577 -51.3105 843.577 -46.5137C843.577 -40.5176 838.06 -31.4036 837.94 -25.2875C837.844 -20.3947 839.259 -12.376 839.979 -8.97822C839.06 -6.22004 838.3 -2.02283 842.617 -7.29935C848.014 -13.895 852.571 -36.8 853.53 -39.5582C854.489 -42.3164 855.809 -46.6336 855.089 -48.6722C854.37 -50.7109 844.416 -81.171 841.658 -82.61C838.9 -84.049 820.072 -98.6795 812.037 -115.109C804.002 -131.538 794.049 -152.284 782.537 -160.799C771.024 -169.313 760.831 -171.352 749.918 -179.507C739.005 -187.661 702.069 -221.719 691.156 -237.429C682.426 -249.996 670.01 -263.612 664.894 -268.848M808.559 -42.3164C810.078 -43.7555 813.308 -48.4564 814.076 -55.7476C815.035 -64.8616 819.233 -79.3721 820.911 -80.4514M664.894 -268.848C687.199 -294.112 733.201 -347.277 738.765 -357.83C745.721 -371.021 779.898 -397.524 785.175 -395.965M664.894 -268.848C663.255 -271.566 657.746 -278.538 648.824 -284.678C639.902 -290.818 632.555 -292.992 629.996 -293.312M785.175 -395.965C790.451 -394.406 824.749 -326.291 840.339 -308.062C855.928 -289.834 907.135 -217.162 907.974 -186.462C908.814 -155.762 909.893 -139.933 907.974 -115.109C906.056 -90.285 896.582 -29.4848 896.582 19.9229C896.582 69.3305 897.421 122.456 925.243 164.428C947.501 198.006 995.197 257.647 1016.26 283.27L1317.99 190.331C1305.35 164.788 1272.92 103.94 1244.23 64.8934C1208.38 16.0854 1166.53 -38.5989 1146.62 -64.262C1126.71 -89.9252 1103.69 -104.676 1091.21 -132.138C1078.74 -159.6 1067.59 -207.208 1060.51 -224.477C1053.44 -241.746 1056.92 -265.61 1056.68 -280.361C1056.49 -292.161 1055 -321.254 1054.28 -334.325M785.175 -395.965C789.492 -397.724 799.541 -401.074 805.202 -400.402M1054.28 -334.325C1057.6 -335.892 1062.87 -338.826 1067.47 -342.38M1054.28 -334.325C1053.68 -333.966 1050.03 -333.054 1040.25 -332.287C1030.46 -331.519 1019.06 -336.444 1014.58 -339.002M1045.4 -435.659C1045.08 -431.182 1047.78 -417.287 1061.11 -397.524C1077.78 -372.82 1079.58 -362.387 1076.34 -352.793C1075.13 -349.183 1071.56 -345.537 1067.47 -342.38M1067.47 -342.38C1067.99 -336.617 1070.2 -320.798 1074.91 -303.625C1080.78 -282.159 1097.33 -241.506 1099.25 -220.88C1101.17 -200.253 1109.68 -179.866 1118.08 -174.35C1124.79 -169.937 1154.37 -215.443 1168.32 -238.748C1173.6 -249.541 1185.11 -275.78 1188.95 -294.391C1192.79 -313.003 1197.27 -357.39 1199.02 -377.257C1199.46 -395.125 1199.24 -434.724 1194.83 -450.169C1190.41 -465.615 1179.32 -490.103 1174.32 -500.417C1173.52 -510.89 1171.44 -532.244 1169.52 -533.875C1167.6 -535.506 1166.81 -531.596 1166.65 -529.438C1164.61 -528.358 1160.43 -524.785 1160.05 -519.124C1159.67 -513.464 1158.85 -511.889 1158.49 -511.809M1158.49 -511.809C1154.89 -512.089 1147.07 -512.481 1144.58 -511.809C1141.46 -510.97 1139.3 -507.732 1134.15 -504.494C1130.02 -501.904 1116.76 -497.259 1110.64 -495.26C1110.28 -494.301 1110.4 -492.478 1113.76 -492.861C1117.96 -493.341 1114.12 -489.863 1120.24 -489.863C1125.13 -489.863 1130.35 -491.862 1132.35 -492.861M1158.49 -511.809C1162.69 -505.933 1171.73 -493.749 1174.32 -492.022M1132.35 -492.861C1130.83 -492.342 1132.35 -489.983 1130.07 -486.865C1127.79 -483.743 1126.35 -480.989 1126.83 -479.91M1132.35 -492.861C1133.23 -494.62 1135.95 -498.162 1139.78 -498.258C1144.58 -498.378 1163.53 -477.991 1168.32 -475.233C1172.53 -472.813 1176.28 -471.675 1177.56 -471.276M1126.83 -479.91C1127.31 -478.831 1124.79 -477.392 1125.27 -472.835C1125.75 -468.278 1125.27 -463.121 1126.83 -462.881M1126.83 -479.91C1127.59 -481.269 1129.97 -483.675 1133.43 -482.428C1137.74 -480.869 1149.26 -471.156 1158.13 -466.359C1165.23 -462.521 1171.88 -459.403 1174.32 -458.324M1126.83 -462.881C1128.39 -462.641 1125.51 -463.361 1124.19 -458.324C1122.87 -453.287 1119.64 -440.336 1121.19 -433.62C1122.44 -428.248 1136.26 -422.907 1143.02 -420.909C1144.42 -419.869 1147.05 -418.414 1146.38 -420.909C1145.71 -423.403 1142.58 -426.985 1141.1 -428.464M1126.83 -462.881C1128.35 -463.201 1132.16 -463.289 1135.23 -461.082C1139.06 -458.324 1157.17 -440.696 1161.85 -438.177C1165.59 -436.163 1167.72 -435.499 1168.32 -435.419M1141.1 -428.464C1143.26 -427.784 1147.99 -425.418 1149.62 -421.388C1151.65 -416.352 1153.09 -408.197 1157.05 -399.922C1160.62 -392.455 1160.68 -387.234 1165.33 -382.497M1141.1 -428.464C1137.7 -430.942 1130.64 -436.354 1129.59 -438.177M1181.76 -375.218C1178.96 -375.418 1172.09 -376.849 1167 -380.975C1166.38 -381.478 1165.83 -381.984 1165.33 -382.497M1165.33 -382.497C1164.69 -365 1160.65 -325.931 1149.62 -309.621C1145.98 -304.252 1141.64 -299.206 1137.15 -294.391M1104.53 -234.551C1104.41 -236.749 1104.93 -244.384 1108 -257.336C1110.83 -269.261 1124.59 -280.926 1137.15 -294.391M1137.15 -294.391C1133.83 -300.547 1126.59 -315.953 1124.19 -328.329C1121.19 -343.799 1119.4 -387.81 1119.16 -404.359C1118.92 -420.909 1112.2 -456.525 1099.01 -464.68C1086.9 -472.166 1069.84 -480.966 1041.33 -480.317M960.98 -474.633C964.577 -474.633 970.813 -479.91 979.927 -482.428C989.041 -484.947 1000.07 -477.272 1033.41 -479.91C1036.14 -480.126 1038.78 -480.259 1041.33 -480.317M826.308 -395.965C831.145 -397.884 843.265 -396.828 853.05 -377.257C865.282 -352.793 873.797 -346.356 883.151 -342.38M958.701 -360.108C961.1 -364.321 965.896 -374.696 965.896 -382.497M1008.23 -170.138C1007.43 -165.302 1006.31 -154.597 1008.23 -150.471C1010.15 -146.346 1013.27 -142.676 1014.58 -141.357L1011.47 -156.467" stroke="#EDD1BF" stroke-width="1.6"/>
<path d="M901.849 -58.8652C906.805 -54.3882 923.842 -45.0743 934.587 -42.1961C944.635 -39.5047 939.526 -49.4673 935.029 -55.8052C934.687 -56.2603 934.378 -56.6829 934.107 -57.0664C934.408 -56.6671 934.717 -56.2448 935.029 -55.8052C938.826 -50.7581 946.814 -41.7192 954.734 -37.759C963.368 -33.4419 976.32 -29.6444 981.716 -28.2852C992.429 -27.8455 1017.64 -25.1673 1032.8 -17.972C1047.96 -10.7767 1055.91 -4.50081 1057.99 -2.26228C1058.87 -7.77866 1063.77 -20.7062 1076.33 -28.2852C1092.04 -37.759 1099.36 -49.5114 1100.2 -51.6699C1100.87 -53.3968 1102.56 -62.7827 1103.32 -67.2597C1102.88 -63.822 1102.69 -56.6107 1105.48 -55.2676C1108.26 -53.9245 1117.03 -66.1405 1121.06 -72.4164L1124.18 -90.8843C1164.6 -49.0317 1245.54 58.442 1273.37 104.108C1308.14 161.191 1365.58 258.327 1361.27 329.441C1357.81 386.331 1327.29 444.445 1312.46 466.391C1296.19 484.419 1259.09 522.322 1240.87 529.71C1218.08 538.944 1147.69 545.299 1116.63 540.383C1085.57 535.466 1016.37 505.965 953.535 486.178C903.263 470.348 810.148 429.255 759.741 417.703C704.658 414.145 594.706 416.576 595.569 454.759C596.648 502.487 621.592 539.063 639.101 550.936C656.609 562.808 723.765 589.55 741.753 595.666C759.741 601.782 781.149 615.453 781.567 632.722C781.855 644.618 779.848 653.748 778.809 656.826C780.368 646.593 780.482 627.086 771.614 618.931C761.395 609.534 701.82 604.181 688.388 605.26C677.643 606.124 669.361 607.858 666.563 608.618C677.875 607.459 703.714 607.898 716.57 618.931C732.639 632.722 771.614 649.991 771.614 706.834C771.614 763.676 721.966 813.444 709.375 814.523C702.701 815.095 693.519 815.067 686.152 814.879C682.566 815.033 679.376 814.863 676.876 814.523C679.116 814.645 682.398 814.782 686.152 814.879C699.021 814.325 716.995 809.593 726.523 793.537C741.753 767.874 740.314 740.412 726.523 723.623C712.732 706.834 694.864 683.809 656.249 678.892C617.635 673.975 553.836 685.847 536.688 682.37C522.969 679.588 503.23 670.497 495.075 666.3C495.075 670.018 496.682 679.132 503.11 685.847C511.144 694.242 527.954 697.456 541.724 698.439C553.477 699.279 561.791 693.962 564.989 692.683C557.194 699.399 557.074 702.157 530.812 708.752C503.867 715.519 475.768 696.401 460.777 676.613C445.787 656.826 431.397 595.187 444.708 534.506C455.357 485.962 485.281 442.007 498.912 426.097C473.449 436.331 416.262 464.113 391.223 493.373C366.183 522.634 358.644 578.078 358.005 602.142C342.854 577.838 310.947 519.372 304.52 479.942C296.485 430.654 298.523 363.139 309.916 316.489C319.03 279.17 338.337 227.387 346.852 206.161C330.303 222.071 294.158 268.473 281.974 326.802C269.79 385.132 273.86 448.403 277.417 472.747C265.305 446.844 242.232 383.981 246.837 339.754C252.594 284.47 297.564 191.891 333.9 159.872C362.969 134.256 428.279 101.63 457.3 88.5183C432.556 94.3545 375.369 110.848 344.573 130.131C306.079 154.235 273.7 168.266 260.269 196.927C249.524 219.856 244.279 239.819 243 246.935C243.4 222.271 262.399 163.613 287.491 140.564C334.62 97.2726 365.08 93.9548 387.745 84.6808C413.448 80.2437 468.908 71.5134 485.121 72.0891C501.335 72.6647 509.466 74.5674 511.504 75.4469C506.507 65.0537 488.048 45.6344 454.182 51.1028C420.316 56.5712 401.136 65.8531 395.78 69.8106C408.252 56.5792 440.607 30.5722 470.251 32.395C499.896 34.2178 532.251 55.5399 544.722 65.9731C552.277 74.4875 569.282 99.2393 576.861 130.131C586.335 168.746 586.335 314.93 627.228 296.222C659.943 281.256 688.908 273.437 699.301 271.399C721.007 262.604 777.922 246.407 831.934 251.971C899.45 258.927 991.31 273.078 1030.16 311.572C999.105 273.517 933.196 189.828 918.038 159.512C899.09 121.617 892.667 64.9804 894.773 7.81113C896.452 -37.759 900.49 -55.4275 901.849 -58.8652Z" fill="url(#paint7_linear_84_1408)"/>
<path d="M759.741 417.703C810.148 429.255 903.263 470.348 953.535 486.178C1016.37 505.965 1085.57 535.466 1116.63 540.383C1147.69 545.299 1218.08 538.944 1240.87 529.71C1259.09 522.322 1296.19 484.419 1312.46 466.391C1327.29 444.445 1357.81 386.331 1361.27 329.441C1365.58 258.327 1308.14 161.191 1273.37 104.108C1245.54 58.442 1164.6 -49.0317 1124.18 -90.8843L1121.06 -72.4164C1117.03 -66.1405 1108.26 -53.9245 1105.48 -55.2676C1102.69 -56.6107 1102.88 -63.822 1103.32 -67.2597C1102.56 -62.7827 1100.87 -53.3968 1100.2 -51.6699C1099.36 -49.5114 1092.04 -37.759 1076.33 -28.2852C1063.77 -20.7062 1058.87 -7.77866 1057.99 -2.26227C1055.91 -4.50081 1047.96 -10.7767 1032.8 -17.972C1017.64 -25.1673 992.429 -27.8455 981.716 -28.2852C976.32 -29.6444 963.368 -33.4419 954.734 -37.759C946.099 -42.0762 937.385 -52.4294 934.107 -57.0664C938.744 -50.9104 945.332 -39.318 934.587 -42.1961C923.842 -45.0743 906.805 -54.3882 901.849 -58.8652C900.49 -55.4275 896.452 -37.759 894.773 7.81113C892.667 64.9804 899.09 121.617 918.038 159.512C933.196 189.828 999.105 273.517 1030.16 311.572M759.741 417.703C704.658 414.145 594.706 416.576 595.569 454.759C596.648 502.487 621.592 539.063 639.101 550.936C656.609 562.808 723.765 589.55 741.753 595.666C759.741 601.782 781.149 615.453 781.567 632.722C781.855 644.618 779.848 653.748 778.809 656.826C780.368 646.593 780.482 627.086 771.614 618.931C761.395 609.535 701.82 604.181 688.388 605.26C677.643 606.124 669.361 607.858 666.563 608.618C677.875 607.459 703.714 607.898 716.57 618.931C732.639 632.722 771.614 649.991 771.614 706.834C771.614 763.676 721.966 813.444 709.375 814.523C699.301 815.387 683.511 814.883 676.876 814.523C688.348 816.082 714.339 814.067 726.523 793.537C741.753 767.874 740.314 740.412 726.523 723.623C712.732 706.834 694.864 683.809 656.249 678.892C617.635 673.975 553.836 685.847 536.688 682.37C522.969 679.588 503.23 670.497 495.075 666.3C495.075 670.018 496.682 679.132 503.11 685.847C511.144 694.242 527.954 697.456 541.724 698.439C553.477 699.279 561.791 693.962 564.989 692.683C557.194 699.399 557.074 702.157 530.812 708.752C503.867 715.519 475.768 696.401 460.777 676.613C445.787 656.826 431.397 595.187 444.708 534.506C455.357 485.962 485.281 442.007 498.912 426.097C473.449 436.331 416.262 464.113 391.223 493.373C366.183 522.634 358.644 578.078 358.005 602.142C342.854 577.838 310.947 519.372 304.52 479.942C296.485 430.654 298.523 363.139 309.916 316.489C319.03 279.17 338.337 227.387 346.852 206.161C330.303 222.071 294.158 268.473 281.974 326.802C269.79 385.132 273.86 448.403 277.417 472.747C265.305 446.844 242.232 383.981 246.837 339.754C252.594 284.47 297.564 191.891 333.9 159.872C362.969 134.256 428.279 101.63 457.3 88.5183C432.556 94.3545 375.369 110.848 344.573 130.131C306.079 154.235 273.7 168.266 260.269 196.927C249.524 219.856 244.279 239.819 243 246.935C243.4 222.271 262.399 163.613 287.491 140.564C334.62 97.2726 365.08 93.9548 387.745 84.6808C413.448 80.2437 468.908 71.5134 485.121 72.0891C501.335 72.6647 509.466 74.5674 511.504 75.4469C506.507 65.0537 488.048 45.6344 454.182 51.1028C420.316 56.5712 401.136 65.8531 395.78 69.8106C408.252 56.5792 440.607 30.5722 470.251 32.395C499.896 34.2179 532.251 55.5399 544.722 65.9731C552.278 74.4875 569.282 99.2393 576.861 130.131C586.335 168.746 586.335 314.93 627.228 296.222C659.943 281.256 688.908 273.437 699.301 271.399M759.741 417.703L722.206 405.111C699.021 399.435 680.114 391.327 634.184 395.757C586.935 400.314 568.347 417.703 558.034 421.181C547.72 424.658 549.519 421.181 558.034 400.554C564.845 384.053 603.964 345.55 622.671 328.361M699.301 271.399C683.432 280.952 648.383 303.202 635.143 315.77M699.301 271.399C721.007 262.604 777.922 246.407 831.934 251.971C899.45 258.927 991.31 273.078 1030.16 311.572M1030.16 311.572C1061.25 342.368 1089.65 413.306 1099.96 444.925" stroke="#A94745" stroke-width="0.5"/>
</g>
<defs>
<linearGradient id="paint0_linear_84_1408" x1="474.479" y1="1160.05" x2="409.41" y2="1438.38" gradientUnits="userSpaceOnUse">
<stop offset="0.14" stop-opacity="0"/>
<stop offset="0.995"/>
</linearGradient>
<linearGradient id="paint1_linear_84_1408" x1="474.954" y1="836.611" x2="186.182" y2="1460.22" gradientUnits="userSpaceOnUse">
<stop offset="0.485" stop-opacity="0"/>
<stop offset="0.810679"/>
</linearGradient>
<linearGradient id="paint2_linear_84_1408" x1="626.938" y1="770.117" x2="637.862" y2="1530.52" gradientUnits="userSpaceOnUse">
<stop stop-color="#52B9CB"/>
<stop offset="1" stop-color="#295C65"/>
</linearGradient>
<linearGradient id="paint3_linear_84_1408" x1="700.082" y1="544.039" x2="952.757" y2="1146.76" gradientUnits="userSpaceOnUse">
<stop offset="0.152242" stop-opacity="0"/>
<stop offset="1"/>
</linearGradient>
<linearGradient id="paint4_linear_84_1408" x1="877.529" y1="-84.507" x2="1025.46" y2="788.49" gradientUnits="userSpaceOnUse">
<stop stop-color="#88E9F4"/>
<stop offset="1" stop-color="#68D4E1"/>
</linearGradient>
<linearGradient id="paint5_linear_84_1408" x1="260.514" y1="2.73851" x2="126.284" y2="835.431" gradientUnits="userSpaceOnUse">
<stop stop-color="#88E9F4"/>
<stop offset="1" stop-color="#68D4E1"/>
</linearGradient>
<linearGradient id="paint6_linear_84_1408" x1="558.03" y1="4" x2="558.198" y2="771.383" gradientUnits="userSpaceOnUse">
<stop stop-color="#88E9F4"/>
<stop offset="0.816382" stop-color="#6FD9E6"/>
</linearGradient>
<linearGradient id="paint7_linear_84_1408" x1="802.24" y1="-82.8495" x2="728.682" y2="571.922" gradientUnits="userSpaceOnUse">
<stop stop-color="#E46B68"/>
<stop offset="1" stop-color="#B04848"/>
</linearGradient>
<clipPath id="clip0_84_1408">
<rect width="1024" height="1403" fill="white"/>
</clipPath>
</defs>
</svg>
