<svg width="1024" height="1403" viewBox="0 0 1024 1403" fill="none" xmlns="http://www.w3.org/2000/svg">
<g clip-path="url(#clip0_84_1254)">
<rect width="1024" height="1403" fill="white"/>
<path d="M221.328 1330.56C152.935 1363.62 43.5374 1350.51 0 1339.11V1403.23H1024V1323.44C1003.35 1313.56 989.412 1314.14 980.75 1318.06C973.175 1321.49 963.465 1325.29 955.79 1322.08C910.527 1303.21 823.925 1286.18 750.427 1334.84C668.355 1389.17 535.748 1370.78 479.703 1354.79C422.075 1332.94 289.722 1297.51 221.328 1330.56Z" fill="#02385A"/>
<path d="M221.328 1330.56C152.935 1363.62 43.5374 1350.51 0 1339.11V1403.23H1024V1323.44C1003.35 1313.56 989.412 1314.14 980.75 1318.06C973.175 1321.49 963.465 1325.29 955.79 1322.08C910.527 1303.21 823.925 1286.18 750.427 1334.84C668.355 1389.17 535.748 1370.78 479.703 1354.79C422.075 1332.94 289.722 1297.51 221.328 1330.56Z" fill="url(#paint0_linear_84_1254)" fill-opacity="0.2"/>
<path d="M221.328 1330.56C152.935 1363.62 43.5374 1350.51 0 1339.11V993.345C12.5071 998.57 41.8909 1018.04 38.4712 1061.74C35.0516 1105.43 103.54 1135.99 138.212 1145.81C175.258 1150.4 262.269 1153.59 313.944 1129.66C365.619 1105.72 449.781 1119.68 485.403 1129.66C546.988 1146.76 695.997 1175.82 799.347 1155.3C810.418 1152.83 829.505 1147.61 849.217 1140.23C866.15 1133.89 883.544 1125.96 896.712 1116.83C932.334 1092.14 1005 1073.61 1024 1075.04V1323.44C989.043 1306.72 973.338 1319.95 969.855 1328.66C930.909 1308.08 832.499 1280.5 750.427 1334.84C668.355 1389.17 535.748 1370.78 479.703 1354.78C422.075 1332.94 289.722 1297.51 221.328 1330.56Z" fill="#116589"/>
<path d="M221.328 1330.56C152.935 1363.62 43.5374 1350.51 0 1339.11V993.345C12.5071 998.57 41.8909 1018.04 38.4712 1061.74C35.0516 1105.43 103.54 1135.99 138.212 1145.81C175.258 1150.4 262.269 1153.59 313.944 1129.66C365.619 1105.72 449.781 1119.68 485.403 1129.66C546.988 1146.76 695.997 1175.82 799.347 1155.3C810.418 1152.83 829.505 1147.61 849.217 1140.23C866.15 1133.89 883.544 1125.96 896.712 1116.83C932.334 1092.14 1005 1073.61 1024 1075.04V1323.44C989.043 1306.72 973.338 1319.95 969.855 1328.66C930.909 1308.08 832.499 1280.5 750.427 1334.84C668.355 1389.17 535.748 1370.78 479.703 1354.78C422.075 1332.94 289.722 1297.51 221.328 1330.56Z" fill="url(#paint1_linear_84_1254)" fill-opacity="0.2"/>
<path d="M38.4712 1063.64C41.8909 1019.94 12.5071 1000.47 0 995.245V770.117C18.5232 797.664 122.538 812.862 174.783 816.662C196.186 818.219 213.125 822.724 229.878 831.453C254.019 844.031 277.775 865.378 313.944 899.304C362.96 945.28 503.134 969.439 567.095 975.772C586.884 981.154 639.573 1004.74 692.007 1056.04C744.442 1107.33 818.662 1134.8 849.217 1142.13C829.505 1149.51 810.418 1154.73 799.347 1157.2C695.997 1177.72 546.988 1148.65 485.403 1131.56C449.781 1121.58 365.619 1107.62 313.944 1131.56C262.269 1155.49 175.258 1152.3 138.212 1147.7C103.54 1137.89 35.0516 1107.33 38.4712 1063.64Z" fill="#2081A1"/>
<path d="M1024 1078.57C1005 1077.15 932.333 1095.67 896.712 1120.37C883.544 1129.5 866.15 1137.42 849.216 1143.76C818.661 1136.44 744.442 1108.97 692.007 1057.67C639.572 1006.38 586.884 982.788 567.094 977.405C503.134 971.073 362.959 946.913 313.944 900.938C277.774 867.011 254.019 845.664 229.877 833.086C301.912 835.914 465.264 832.544 542.396 796.448C619.529 760.351 722.404 769.059 764.2 777.925C814.387 818.296 936.608 888.779 1024 847.743V1078.57Z" fill="url(#paint2_linear_84_1254)"/>
<path d="M739.978 720.247C838.388 705.048 978.404 616.707 1024 619.557V-81H0V587.26C19.6314 635.705 104.11 721.007 284.972 674.651C465.835 628.296 552.688 670.218 571.369 674.651C596.067 680.984 641.567 735.445 739.978 720.247Z" fill="#7DDEEA"/>
<path d="M0 773.442C18.5232 800.989 122.538 816.188 174.783 819.987C196.186 821.544 213.125 826.05 229.878 834.778C301.912 837.605 465.265 834.236 542.397 798.139C619.529 762.043 722.404 770.75 764.2 779.616C814.387 819.987 936.609 890.47 1024 849.434V576.336C978.404 573.486 852.637 645.679 754.226 660.878C655.816 676.076 581.818 686.209 557.121 679.876C538.439 675.443 536.698 626.206 291.622 668.952C107.69 701.033 19.6314 592.484 0 544.039V773.442Z" fill="#61C8D7"/>
<path d="M0 773.442C18.5232 800.989 122.538 816.188 174.783 819.987C196.186 821.544 213.125 826.05 229.878 834.778C301.912 837.605 465.265 834.236 542.397 798.139C619.529 762.043 722.404 770.75 764.2 779.616C814.387 819.987 936.609 890.47 1024 849.434V576.336C978.404 573.486 852.637 645.679 754.226 660.878C655.816 676.076 581.818 686.209 557.121 679.876C538.439 675.443 536.698 626.206 291.622 668.952C107.69 701.033 19.6314 592.484 0 544.039V773.442Z" fill="url(#paint3_linear_84_1254)" fill-opacity="0.2"/>
<path d="M906.629 -90.5244L809.381 -70.4157L922.33 613C990.83 583.5 1037.62 570.962 1075.92 559.789L906.629 -90.5244Z" fill="url(#paint4_linear_84_1254)"/>
<path d="M231.414 -2.98582L328.662 16.1436L212.624 688.159C161.455 637.069 100.42 626.288 62.1237 615.659L231.414 -2.98582Z" fill="url(#paint5_linear_84_1254)"/>
<path d="M607.096 4H443.125L449.5 655.5C533.861 661.004 650.438 675.401 715.999 672.546L607.096 4Z" fill="url(#paint6_linear_84_1254)"/>
<path d="M72.7509 591.536L37.1991 527.182C35.0989 527.182 31.8888 526.102 35.849 521.782L7.49821 472.729C5.54811 473.779 1.37789 475.249 0.297832 472.729C-1.05224 469.579 2.54795 467.779 3.89802 467.329L28.6486 452.928C30.8987 452.028 34.8589 451.938 32.6988 458.779L28.6486 461.029L54.2999 509.631C57.3001 509.031 62.6704 508.911 60.1502 513.232L57.4501 515.482L97.0522 588.385L117.753 585.235L123.604 507.831C120.603 506.931 115.503 504.681 119.103 502.881H124.954C125.674 502.881 127.054 468.979 127.654 452.028L118.653 451.578L117.753 444.378H103.803V437.628H110.103L111.003 416.476L92.5519 415.126V401.176H103.803L145.205 384.525L162.306 392.625L184.807 391.725C194.107 386.325 218.379 375.524 241.06 375.524C263.741 375.524 296.413 356.023 309.913 346.273L337.365 333.672L522.325 437.178H530.425V451.128H508.824V472.729H514.224V478.58H497.573V483.53H487.223L484.073 533.033C487.073 534.083 491.903 536.453 487.223 537.533C484.739 538.106 483.582 538.198 483.132 538.09L474.479 657.92C485.87 658.773 496.148 659.653 502.524 659.653L497.573 611.337H502.524L512.424 596.036L542.126 585.235V579.385H554.276L577.227 507.831C575.727 506.931 573.177 504.591 574.977 502.431C576.777 500.271 579.028 501.531 579.928 502.431L595.228 454.728L590.278 452.928L592.528 447.978L623.13 457.879L621.78 462.829H614.129L598.829 507.831L602.879 510.531C601.979 512.331 599.549 515.572 597.029 514.132L577.227 573.985H585.328V589.736L575.877 590.636L579.478 648.239C600.029 635.338 644.641 597.566 658.682 549.683L649.231 457.879H645.181V449.778L646.981 447.978C647.281 426.377 642.121 383.445 619.08 384.525L617.28 363.824H612.329V356.173H636.181C642.931 354.073 658.502 351.493 666.782 357.973H718.085L751.387 343.123L820.24 336.372V343.123H817.09V363.374C809.44 367.874 795.399 382.005 800.439 402.526L803.589 432.677H807.64V439.878H803.589L808.99 497.031C815.59 500.031 829.331 507.561 831.491 513.682C833.651 519.802 832.391 398.025 831.491 336.372C830.591 331.422 824.831 320.171 808.99 314.771V292.72H803.589V287.32H817.09V276.519H831.491V264.818H883.244V253.568L906.645 258.518C910.695 267.969 925.546 288.04 952.547 292.72C979.549 297.4 990.499 298.87 992.599 299.02C996.35 294.37 1006.55 285.52 1017.35 287.32V292.72H1013.3V314.771C1005.65 317.921 990.349 327.282 990.349 339.522C990.349 351.763 991.549 466.429 992.149 522.232L997.703 539.783C992.152 538.583 1000.94 566.915 994.102 580.956C997.156 582.453 998.576 583.862 997.762 585.147C997.805 585.164 997.786 585.194 997.703 585.235C995.781 587.916 991.417 590.057 985.336 591.741C983.025 593.132 980.518 593.731 977.83 593.444C975.742 593.833 973.533 594.188 971.223 594.509C916.863 615.213 797.96 664.182 794.292 674.34C779.591 675.99 681.336 706.742 624.93 701.341C555.904 694.733 534.325 680.654 502.524 659.653C496.148 659.653 485.87 658.773 474.479 657.92C463.764 657.118 452.066 656.339 441.707 656.339L413.685 656.339C403.711 659.653 402.286 659.653 381.863 659.653L390.018 531.232C388.068 531.082 384.347 530.062 385.067 527.182H390.918L394.518 476.33L385.067 475.43V468.679H375.617V474.529L363.016 475.43L361.216 524.482L366.166 525.382C365.866 526.882 364.276 529.612 360.316 528.532L348.141 663.928C340.067 666.303 330.669 671.566 317.37 671.566C261.224 675.327 231.973 696.318 140 671.566C89.6549 656.356 44.2227 618.736 30.872 594.585L72.7509 591.536Z" fill="#6FD4E0"/>
<path d="M452.443 539.94L441.708 656.803H412.736C416.788 603.75 421.644 534.847 422.725 536.302C423.805 537.757 426.477 535.696 427.678 534.483C428.038 531.573 424.526 531.452 422.725 531.755L425.877 481.278H436.233V474.457H447.49V482.188H456.945L453.793 533.574H447.49C446.409 536.12 450.341 538.879 452.443 539.94Z" fill="#7DDEEA"/>
<path d="M328.168 529.481L318.262 653.626C307.816 651.807 299.501 657.719 296.649 660.902C295.569 656.9 277.288 648.927 268.282 645.441L278.638 522.66H284.042V519.477H278.638L281.79 469H292.597V463.088L324.116 465.362V472.183H332.671L329.969 524.479H324.116C323.395 527.753 326.517 529.178 328.168 529.481Z" fill="#7DDEEA"/>
<path d="M246.669 522.66L236.763 647.26L205.244 650.898C208.847 606.484 216.321 518.021 217.402 519.477C218.752 521.296 223.705 517.658 223.255 516.293C222.895 515.202 219.203 514.626 217.402 514.474L220.554 463.088H231.81V458.086H242.167V465.362L252.072 466.726L246.669 517.658H242.167V521.296L246.669 522.66Z" fill="#7DDEEA"/>
<path d="M184.532 516.293L175.527 650.898C175.527 648.715 155.114 639.378 144.908 634.982L154.814 513.11C159.857 512.019 160.217 509.017 159.767 507.653H155.715L159.767 458.086H170.123V453.539H180.029V460.36H189.485L185.883 512.201H180.029C180.029 514.02 183.031 515.687 184.532 516.293Z" fill="#7DDEEA"/>
<path d="M856.335 363.954V533.119L863.99 538.121L888.754 420.797L884.252 419.888V413.976L907.215 419.888V423.071H903.613L878.398 545.397L893.707 552.594C899.203 548.072 904.644 543.947 909.467 540.483V496.285H898.66V484.007L934.682 481.278V489.009C950.892 489.009 963.349 493.859 967.552 496.285V366.228C966.201 349.857 953.683 316.661 914.42 314.842C875.156 313.023 859.337 346.825 856.335 363.954Z" fill="#7DDEEA"/>
<path d="M671.274 457.631L678.028 523.115C678.478 518.112 683.341 509.654 699.191 515.839C715.04 522.023 735.813 516.293 744.218 512.655L696.939 422.616L692.437 424.89L689.285 419.433L712.248 408.519L714.05 412.157L709.097 416.704L759.077 508.108C763.759 504.47 779.639 499.316 786.993 497.194L781.14 444.898H778.438V436.258H781.14L778.438 414.885C773.035 399.121 752.232 369.229 712.248 375.777C672.265 382.326 668.272 425.799 671.274 446.717H674.426V456.267L671.274 457.631Z" fill="#7DDEEA"/>
<path d="M860.772 1215.75C866.026 1201.29 886.251 1204.74 895.706 1208.26C891.294 1213.43 892.817 1221.26 894.13 1224.52C898.333 1228.14 899.646 1221.69 903.586 1224.52C906.738 1226.8 904.725 1235.62 903.324 1239.75C900.785 1236.74 895.076 1231.49 892.555 1234.59C890.033 1237.69 892.555 1240.87 894.13 1242.08C888.247 1249.1 880.297 1246.89 877.057 1244.92C875.587 1243.47 873.118 1244.31 872.067 1244.92C870.806 1247.19 874.869 1249.13 877.057 1249.82C864.45 1248.99 858.321 1238.46 856.832 1233.3C851.369 1230 849.478 1225.56 849.215 1223.75C857.62 1221.89 860.422 1217.64 860.772 1215.75Z" fill="#033656" fill-opacity="0.5"/>
<path d="M919.667 1238.55C924.92 1224.09 945.145 1227.53 954.601 1231.06C950.188 1236.22 951.712 1244.05 953.025 1247.32C957.228 1250.94 958.541 1244.48 962.481 1247.32C965.633 1249.59 963.619 1258.42 962.218 1262.55C959.679 1259.54 953.971 1254.29 951.449 1257.39C948.927 1260.49 951.449 1263.67 953.025 1264.87C947.141 1271.9 939.191 1269.69 935.952 1267.71C934.481 1266.27 932.012 1267.11 930.961 1267.71C929.701 1269.99 933.763 1271.93 935.952 1272.62C923.344 1271.79 917.215 1261.26 915.727 1256.1C910.264 1252.79 908.372 1248.36 908.11 1246.55C916.515 1244.69 919.317 1240.44 919.667 1238.55Z" fill="#033656" fill-opacity="0.5"/>
<path d="M913.037 1201.08C915.709 1193.69 925.993 1195.45 930.801 1197.25C928.557 1199.89 929.331 1203.89 929.999 1205.56C932.136 1207.4 932.804 1204.11 934.807 1205.56C936.41 1206.72 935.386 1211.22 934.674 1213.33C933.383 1211.8 930.48 1209.12 929.198 1210.7C927.916 1212.28 929.198 1213.9 929.999 1214.52C927.008 1218.1 922.965 1216.98 921.318 1215.97C920.57 1215.23 919.315 1215.66 918.78 1215.97C918.139 1217.13 920.205 1218.12 921.318 1218.47C914.907 1218.05 911.791 1212.67 911.034 1210.04C908.256 1208.35 907.295 1206.08 907.161 1205.16C911.435 1204.21 912.859 1202.04 913.037 1201.08Z" fill="#033656" fill-opacity="0.5"/>
<path d="M965.282 1223.87C967.953 1216.49 978.237 1218.25 983.045 1220.05C980.801 1222.69 981.576 1226.68 982.243 1228.35C984.38 1230.2 985.048 1226.9 987.051 1228.35C988.654 1229.51 987.63 1234.02 986.918 1236.13C985.627 1234.59 982.724 1231.91 981.442 1233.49C980.16 1235.08 981.442 1236.7 982.243 1237.32C979.252 1240.9 975.209 1239.78 973.562 1238.77C972.814 1238.03 971.559 1238.46 971.025 1238.77C970.384 1239.93 972.449 1240.92 973.562 1241.27C967.151 1240.85 964.035 1235.47 963.278 1232.84C960.5 1231.15 959.539 1228.88 959.405 1227.96C963.679 1227.01 965.104 1224.84 965.282 1223.87Z" fill="#033656" fill-opacity="0.5"/>
<path d="M947.927 1207.6C949.619 1202.99 956.132 1204.08 959.177 1205.21C957.756 1206.86 958.247 1209.36 958.67 1210.4C960.023 1211.55 960.446 1209.49 961.715 1210.4C962.73 1211.13 962.082 1213.94 961.63 1215.26C960.813 1214.3 958.974 1212.62 958.162 1213.61C957.35 1214.6 958.162 1215.62 958.67 1216C956.775 1218.24 954.215 1217.54 953.172 1216.91C952.698 1216.45 951.903 1216.72 951.565 1216.91C951.159 1217.63 952.467 1218.25 953.172 1218.47C949.112 1218.21 947.138 1214.85 946.659 1213.2C944.899 1212.15 944.29 1210.73 944.206 1210.15C946.912 1209.56 947.815 1208.2 947.927 1207.6Z" fill="#033656" fill-opacity="0.5"/>
<path fill-rule="evenodd" clip-rule="evenodd" d="M14.1011 334.487C-9.23901 330.364 -62.1982 336.313 -87.3141 393.091C-118.709 464.062 -138.497 524.188 -131.077 558.818C-125.14 586.522 -106.278 622.115 -97.5887 636.449C-82.3035 659.218 -49.0312 707.23 -38.2237 717.125C-27.4162 727.019 -21.5431 731.776 -19.9575 732.917C-34.7988 716.934 -65.699 676.064 -70.57 640.445C-75.441 604.826 -76.1513 590.974 -75.8976 588.5C-75.4537 603.786 -68.3628 642.119 -43.5513 673.172C-18.7398 704.224 21.2047 737.23 38.0755 749.851C99.7238 863.381 233.638 1102.77 276.106 1152.09C318.575 1201.41 351.391 1234.28 362.49 1244.56C371.687 1252.36 398.147 1268.5 430.417 1270.63C462.687 1272.76 498.027 1265.3 511.664 1261.3C532.34 1248.94 578.031 1220.78 595.383 1207.08C617.075 1189.95 664.262 1169.78 675.488 1169.78C677.668 1169.78 680.143 1169.41 682.67 1169.03C693.158 1167.45 704.559 1165.73 699.653 1189.95C696.59 1205.08 689.385 1219.77 682.666 1233.47C676.03 1247 669.868 1259.56 668.638 1270.63C666.66 1288.44 677.201 1315.98 682.719 1327.52C681.831 1349.84 685.953 1399.06 709.547 1417.33C739.039 1440.16 760.54 1441.87 786.988 1438.64C813.436 1435.4 877.938 1413.33 908.952 1378.13C933.764 1349.97 942.377 1334.05 943.582 1329.61C948.91 1328.91 962.153 1323.18 972.503 1305.83C985.442 1284.14 996.478 1233.33 997.429 1219.44C997.583 1217.2 997.473 1213.81 997.337 1209.64C996.635 1188.04 995.252 1145.5 1026.35 1132.11C1056.03 1119.32 1083.88 1123.36 1094.09 1126.97C1102.14 1129.51 1119.39 1138.73 1123.96 1155.32C1129.67 1176.06 1128.15 1201.94 1123.96 1210.69C1119.77 1219.44 1146.03 1190.9 1141.47 1164.65C1136.9 1138.39 1134.81 1127.92 1123.96 1114.03C1120.7 1109.85 1117.4 1103.26 1113.68 1095.82C1105.03 1078.54 1094.1 1056.69 1076.01 1049.91C1055.31 1042.15 1027.3 1046.68 1015.89 1049.91C1006.75 1055.3 985.29 1074.04 972.503 1105.85C959.717 1137.66 952.461 1179.99 950.432 1197.18C941.996 1223.88 920.978 1281.02 904.386 1295.93C883.646 1314.58 859.291 1335.7 840.264 1332.66C821.237 1329.61 786.988 1323.9 786.988 1289.27C786.988 1261.57 793.584 1237.77 796.882 1229.34C810.962 1210.5 840.264 1169.33 844.831 1155.32C850.539 1137.82 853.583 1090.63 844.831 1079.4C843.86 1078.16 842.831 1076.77 841.733 1075.29C832.931 1063.43 819.42 1045.22 791.174 1039.64C777.613 1036.96 760.691 1037.29 743.128 1037.64C719.538 1038.11 694.794 1038.6 675.488 1031.84C648.546 1022.4 641.049 977.798 640.668 956.677C640.668 951.937 643.86 941.338 648.094 927.277C656.437 899.57 668.829 858.418 668.829 822.155C668.829 738.245 630.269 688.357 611.366 668.605C609.789 666.956 608.275 665.313 606.76 663.666C592.005 647.641 577.012 631.357 500.057 607.718C454.717 593.791 430.343 596.158 408.507 598.278C389.472 600.126 372.367 601.788 344.985 592.306C286.191 571.947 258.982 532.941 249.278 513.533C246.225 507.427 241.006 494.786 234.807 479.77C221.301 447.056 203.14 403.066 192.577 390.807C189.54 387.283 186.926 384.047 184.475 381.013C174.492 368.655 167.123 359.533 144.057 346.854C115.326 331.062 84.6923 319.455 61.0985 321.168C42.2235 322.538 21.9023 330.618 14.1011 334.487ZM645.923 811.484C637.816 779.268 613.635 718.798 571.409 698.478C564.603 695.203 558.427 692.183 552.737 689.4C511.819 669.394 496.064 661.69 452.299 659.852C435.913 659.165 417.122 663.122 398.088 667.131C359.214 675.319 319.327 683.721 296.846 653.193C270.056 616.813 253.971 586.027 249.278 575.181C262.153 595.984 294.791 638.694 322.343 643.109C341.529 646.183 364.613 643.174 389.687 639.906C409.62 637.308 430.81 634.546 452.299 634.546L453.253 634.546C485.199 634.542 531.904 634.537 577.117 671.649C611.987 700.272 636.687 773.698 645.923 811.484ZM293.041 1161.98C303.379 1175.49 328.774 1205.97 347.649 1219.82C350.954 1222.25 354.192 1224.73 357.417 1227.21C377.219 1242.4 396.714 1257.36 430.417 1257.69C431.076 1257.69 431.728 1257.7 432.376 1257.71L433.502 1257.72C435.071 1257.74 436.608 1257.76 438.115 1257.77C472.293 1258.18 491.095 1258.4 519.655 1244.56C532.483 1238.34 546.012 1223.45 559.921 1208.15C579.225 1186.9 599.261 1164.85 619.168 1164.07C646.567 1163.01 658.744 1163.63 661.408 1164.07C650.436 1160.27 624.685 1153.8 609.464 1158.37C590.436 1164.07 552.001 1189.57 523.651 1213.93C495.3 1238.28 412.722 1241.52 374.097 1219.82C343.196 1202.47 307.184 1174.03 293.041 1161.98ZM721.534 1410.67C703.268 1399.86 696.926 1364.56 696.038 1348.26C697.243 1351.11 701.632 1360.28 709.547 1374.14C719.441 1391.45 734.473 1404.39 765.297 1414.28C789.956 1422.2 821.491 1415.17 834.175 1410.67C828.911 1412.89 814.083 1418.43 796.882 1422.84C775.381 1428.36 744.367 1424.18 721.534 1410.67ZM670.922 1039.64C692.169 1043.06 739.914 1049.42 760.92 1047.44C787.178 1044.96 814.387 1054.29 821.998 1071.6C829.609 1088.92 835.317 1103.57 833.224 1129.44C831.55 1150.15 817.685 1176.12 810.962 1186.53C819.017 1167.18 833.605 1124.38 827.516 1107.94C826.739 1105.85 826.011 1103.85 825.318 1101.95L825.305 1101.91L825.3 1101.9C819.21 1085.2 815.719 1075.62 804.112 1065.89C794.593 1057.91 768.905 1055.6 745.535 1053.49C737.141 1052.74 729.044 1052.01 722.105 1051.05C701.099 1048.16 679.991 1042.24 670.922 1039.64ZM957.662 1186.53C961.785 1165.03 972.77 1117.95 983.729 1101.66C985.682 1098.76 987.557 1095.91 989.382 1093.13L989.392 1093.11L989.398 1093.11C1000.37 1076.39 1009.55 1062.41 1022.93 1057.52C1038.53 1051.81 1057.36 1049.91 1073.35 1060.38C1089.33 1070.84 1109.88 1097.48 1110.07 1101.66C1110.16 1103.7 1110.87 1105.71 1111.61 1107.23C1108.18 1102.36 1099.42 1094.77 1083.05 1091.39C1059.08 1086.44 1048.23 1086.25 1032.06 1093.1C1015.89 1099.95 991.15 1124.12 981.827 1141.24C974.368 1154.94 962.609 1177.14 957.662 1186.53ZM947.768 1318.19C955.062 1301.51 971.324 1262.75 978.021 1241.13C984.719 1219.52 989.818 1204.73 991.531 1200.04C992.482 1209.49 991.531 1231.62 972.503 1290.22C966.538 1308.6 959.65 1312.11 950.607 1316.73C949.684 1317.2 948.738 1317.68 947.768 1318.19ZM689.759 1244.56C698.283 1223.71 704.6 1199.47 706.693 1189.95C707.644 1190.59 709.547 1193.76 709.547 1201.37C709.547 1210.88 699.653 1242.66 689.759 1268.72C681.843 1289.58 686.461 1318.77 689.759 1330.75C688.554 1328.98 685.04 1320.06 680.626 1298.6C676.039 1276.3 678.025 1271.75 684.944 1255.88C686.35 1252.65 687.959 1248.96 689.759 1244.56Z" fill="url(#paint7_linear_84_1254)"/>
<path d="M-78.5527 520.596C-85.0981 489.696 -83.0558 483.239 -81.2166 483.873C-80.3286 462.499 -75.3562 413.092 -62.5701 386.454C-49.7839 359.816 -11.704 345.926 5.73773 342.311C27.0482 342.755 81.3901 347.905 128.273 364.953C175.156 382.001 168.738 469.603 159.668 511.272C169.562 506.008 189.465 497.23 189.921 504.232C190.378 511.234 188.59 538.101 187.638 550.659C181.613 560.426 167.165 582.472 157.575 592.519C147.985 602.565 140.514 604.062 137.977 603.555C139.246 651.567 146.958 750.901 167.66 764.144C188.361 777.387 236.284 780.648 257.658 780.622C302.893 779.593 329.965 793.556 349.179 805.434C370.109 818.372 380.765 874.883 381.145 901.141C381.526 927.398 384.38 997.228 389.137 1021.77C392.942 1041.41 404.43 1065.85 409.698 1075.62C416.826 1067.98 423.711 1059.98 429.474 1051.46C446.979 1025.58 453.385 963.589 454.4 935.829C447.026 928.312 446.938 920.028 441.271 908.181C434.992 895.052 432.709 882.113 429.474 874.122C426.887 867.729 419.39 863.974 415.965 862.896C418.312 865.242 423.272 870.925 424.337 874.883C425.403 878.841 421.229 876.532 419.009 874.883C408.291 871.712 386.359 863.238 384.38 854.714C381.906 844.059 387.044 823.509 389.137 815.518C391.23 807.527 395.796 808.668 393.323 808.288C390.849 807.907 391.61 799.725 390.849 792.495C390.088 785.265 394.084 782.981 393.323 781.269C392.562 779.556 394.84 775.187 398.46 770.233C401.827 765.625 399.967 762.063 401.644 760.93C398.201 762.569 390.291 765.476 382.858 765.476C373.154 765.476 379.242 759.958 372.583 760.72C367.255 761.328 367.065 758.436 367.636 756.914C377.34 753.743 398.384 746.373 404.929 742.263C413.111 737.126 416.536 731.988 421.483 730.656C425.441 729.591 437.846 730.212 443.555 730.656C444.125 730.53 445.419 728.031 446.028 719.05C446.637 710.069 453.258 704.399 456.493 702.686C456.747 699.262 458.015 693.059 461.06 695.646C464.104 698.234 467.402 732.115 468.671 748.732C476.599 765.096 494.205 803.949 501.207 828.456C508.209 852.964 508.564 915.792 507.867 944.142C505.076 975.664 497.972 1046.09 491.884 1075.62C485.795 1105.15 467.529 1146.78 459.157 1163.91C437.022 1200.88 390.088 1273.09 379.433 1266.08C366.114 1257.33 352.604 1224.98 349.56 1192.26C346.516 1159.53 320.258 1095.03 310.935 1060.97C303.476 1033.72 299.962 1008.62 299.138 999.48C291.835 1005.12 283.481 1009.77 278.208 1012.26C279.349 1033 281.709 1079.16 282.013 1097.88C282.394 1121.29 276.876 1159.15 288.102 1186.55C299.328 1213.95 317.023 1289.49 336.812 1333.06C356.6 1376.63 393.132 1400.03 424.718 1440.75C456.303 1481.47 522.708 1568.24 579.599 1645.68C625.113 1707.63 676.575 1804.17 696.617 1844.7L217.891 1992.16C184.467 1951.51 108.789 1856.88 73.4747 1803.6C29.3315 1737.01 27.9996 1652.72 27.9996 1574.32C27.9996 1495.93 43.0311 1399.46 46.0755 1360.08C49.1198 1320.69 47.4074 1295.58 46.0755 1246.87C44.7436 1198.16 -36.5027 1082.85 -61.2381 1053.93C-85.9735 1025.01 -140.391 916.933 -148.763 914.46C-157.135 911.986 -211.363 954.036 -222.399 974.966C-231.228 991.71 -304.216 1076.06 -339.607 1116.15C-331.488 1124.46 -311.789 1146.06 -297.937 1166C-280.622 1190.93 -222.018 1244.96 -204.704 1257.9C-187.389 1270.84 -171.216 1274.07 -152.949 1287.58C-135.136 1300.76 -119.674 1332.39 -107.095 1358.13L-106.142 1360.08C-93.3942 1386.14 -63.5214 1409.36 -59.1451 1411.64C-54.7689 1413.92 -38.9763 1462.25 -37.8347 1465.49C-36.693 1468.72 -38.786 1475.57 -40.3082 1479.95C-41.8304 1484.33 -49.0607 1520.67 -57.623 1531.13C-64.4728 1539.5 -63.2677 1532.84 -61.809 1528.47C-62.9506 1523.08 -65.1958 1510.35 -65.0436 1502.59C-64.8533 1492.89 -56.1008 1478.43 -56.1008 1468.91C-56.1008 1461.3 -64.4728 1445.7 -68.6588 1438.85L-77.6016 1424.2C-78.9335 1424.96 -81.7495 1428.23 -82.3584 1435.24C-82.9673 1442.24 -87.3055 1462.76 -89.3985 1472.15C-90.6035 1473.29 -94.3456 1475.8 -99.6732 1476.71C-105.001 1477.63 -109.884 1476.33 -111.66 1475.57C-112.992 1476.08 -117.216 1477.36 -123.457 1478.43C-129.698 1479.49 -136.079 1476.97 -138.489 1475.57C-139.123 1475.89 -141.229 1476.9 -144.577 1478.43C-147.926 1479.95 -161.702 1479.06 -168.171 1478.43C-171.406 1476.02 -171.33 1462.48 -173.309 1454.26C-175.287 1446.04 -164.738 1441.77 -162.392 1443.61C-167.339 1427.34 -175.425 1409.17 -177.875 1404.6C-188.911 1391.41 -212.467 1362.93 -218.403 1354.56C-225.824 1344.09 -224.302 1330.01 -226.585 1317.46C-228.868 1304.9 -257.409 1289.68 -271.489 1280.16C-285.569 1270.65 -316.964 1258.28 -343.222 1246.1C-364.228 1236.36 -400.811 1205.39 -416.477 1191.12C-429.162 1180.02 -454.531 1155.57 -454.531 1146.59C-454.531 1135.37 -438.739 1097.88 -416.477 1058.88C-394.215 1019.87 -348.74 960.696 -310.114 927.969C-271.489 895.242 -251.511 852.431 -241.997 837.399C-232.483 822.368 -194.429 770.423 -189.862 763.574C-185.296 756.724 -151.047 744.737 -129.546 751.967C-112.345 757.751 -63.3946 758.183 -41.0693 757.675C-21.2809 752.411 20.4648 741.388 29.1412 739.409C37.8177 737.43 36.1813 699.135 34.2786 680.234C32.3759 681.693 25.5261 684.763 13.3487 685.372C-1.87314 686.133 -39.5471 643.892 -56.6716 611.927C-73.7961 579.961 -70.371 559.221 -78.5527 520.596Z" fill="#FFECE3"/>
<path d="M34.2786 680.234C32.3759 681.693 25.5261 684.763 13.3487 685.372C-1.87314 686.133 -39.5471 643.892 -56.6716 611.927C-73.7962 579.961 -70.371 559.221 -78.5527 520.596C-85.0981 489.696 -83.0558 483.239 -81.2165 483.873C-80.3286 462.499 -75.3562 413.092 -62.5701 386.454C-49.7839 359.816 -11.704 345.926 5.73773 342.311C27.0482 342.755 81.3901 347.905 128.273 364.953C175.156 382.001 168.738 469.603 159.668 511.272C169.562 506.008 189.465 497.23 189.921 504.232C190.378 511.234 188.59 538.101 187.638 550.659C181.613 560.426 167.165 582.472 157.575 592.519C147.985 602.565 140.514 604.062 137.977 603.555C139.246 651.567 146.958 750.901 167.66 764.144C188.361 777.387 236.284 780.648 257.658 780.622M34.2786 680.234C36.1813 699.135 37.8177 737.43 29.1412 739.409C20.4648 741.388 -21.2809 752.411 -41.0693 757.675M34.2786 680.234C57.4918 668.311 105.783 641.951 113.242 631.905C120.7 621.859 128.781 611.609 131.888 607.741M-41.0693 757.675C-63.3946 758.183 -112.345 757.751 -129.546 751.967C-151.047 744.737 -185.296 756.724 -189.862 763.574C-194.429 770.423 -232.483 822.368 -241.997 837.399C-251.511 852.431 -271.489 895.242 -310.114 927.969C-348.74 960.696 -394.215 1019.87 -416.477 1058.88C-438.739 1097.88 -454.531 1135.37 -454.531 1146.59C-454.531 1155.57 -429.162 1180.02 -416.477 1191.12C-400.811 1205.39 -364.228 1236.36 -343.222 1246.1C-316.964 1258.28 -285.569 1270.65 -271.489 1280.16C-257.409 1289.68 -228.868 1304.9 -226.585 1317.46C-224.302 1330.01 -225.824 1344.09 -218.403 1354.56C-212.467 1362.93 -188.911 1391.41 -177.875 1404.6C-174.133 1411.58 -157.25 1450.27 -158.467 1465.49C-159.685 1480.71 -160.362 1446.08 -162.392 1443.61C-164.738 1441.77 -175.287 1446.04 -173.309 1454.26C-171.33 1462.48 -171.406 1476.02 -168.171 1478.43C-161.702 1479.06 -147.926 1479.95 -144.577 1478.43C-141.229 1476.9 -139.123 1475.89 -138.489 1475.57M-41.0693 757.675C-19.1245 763.51 28.9129 774.914 45.5047 773.848C66.2444 772.516 80.1343 791.924 93.4533 793.446M-138.489 1475.57C-136.079 1476.97 -129.698 1479.49 -123.457 1478.43C-117.216 1477.36 -112.992 1476.08 -111.66 1475.57M-138.489 1475.57C-136.205 1473.23 -131.03 1465.68 -128.595 1454.26C-125.55 1439.99 -119.462 1418.68 -116.988 1416.4C-115.009 1414.57 -113.753 1412.47 -113.373 1411.64M-111.66 1475.57C-109.884 1476.33 -105.001 1477.63 -99.6732 1476.71C-94.3456 1475.8 -90.6035 1473.29 -89.3985 1472.15C-87.3055 1462.76 -82.9673 1442.24 -82.3584 1435.24C-81.7495 1428.23 -78.9335 1424.96 -77.6016 1424.2L-68.6588 1438.85C-64.4728 1445.7 -56.1008 1461.3 -56.1008 1468.91C-56.1008 1478.43 -64.8533 1492.89 -65.0436 1502.59C-65.1958 1510.35 -62.9506 1523.08 -61.809 1528.47C-63.2677 1532.84 -64.4728 1539.5 -57.623 1531.13C-49.0607 1520.67 -41.8304 1484.33 -40.3082 1479.95C-38.786 1475.57 -36.693 1468.72 -37.8346 1465.49C-38.9763 1462.25 -54.7689 1413.92 -59.1452 1411.64C-63.5214 1409.36 -93.3942 1386.14 -106.142 1360.08C-118.891 1334.01 -134.683 1301.09 -152.949 1287.58C-171.216 1274.07 -187.389 1270.84 -204.704 1257.9C-222.018 1244.96 -280.622 1190.93 -297.937 1166C-311.789 1146.06 -331.488 1124.46 -339.607 1116.15M-111.66 1475.57C-109.25 1473.29 -104.126 1465.83 -102.908 1454.26C-101.386 1439.8 -94.7261 1416.78 -92.0623 1415.07M-339.607 1116.15C-304.216 1076.06 -231.228 991.71 -222.399 974.966C-211.363 954.036 -157.135 911.986 -148.763 914.46M-339.607 1116.15C-342.207 1111.84 -350.947 1100.77 -365.103 1091.03C-379.259 1081.29 -390.917 1077.84 -394.976 1077.33M-148.763 914.46C-140.391 916.933 -85.9736 1025.01 -61.2381 1053.93C-36.5027 1082.85 44.7436 1198.16 46.0755 1246.87C47.4074 1295.58 49.1198 1320.69 46.0755 1360.08C43.0311 1399.46 27.9996 1495.93 27.9996 1574.32C27.9996 1652.72 29.3315 1737.01 73.4747 1803.6C108.789 1856.88 184.467 1951.51 217.891 1992.16L696.617 1844.7C676.575 1804.17 625.113 1707.63 579.599 1645.68C522.708 1568.24 456.303 1481.47 424.718 1440.75C393.132 1400.03 356.6 1376.63 336.812 1333.06C317.023 1289.49 299.328 1213.95 288.102 1186.55C276.876 1159.15 282.394 1121.29 282.013 1097.88C281.709 1079.16 279.35 1033 278.208 1012.26M-148.763 914.46C-141.914 911.669 -125.969 906.354 -116.988 907.42M278.208 1012.26C283.481 1009.77 291.835 1005.12 299.138 999.48M278.208 1012.26C277.257 1012.83 271.472 1014.28 255.946 1015.49C240.42 1016.71 222.331 1008.9 215.228 1004.84M264.128 851.479C263.62 858.583 267.895 880.629 289.053 911.986C315.501 951.182 318.355 967.736 313.218 982.958C311.284 988.686 305.626 994.471 299.138 999.48M299.138 999.48C299.962 1008.62 303.476 1033.72 310.935 1060.97C320.258 1095.03 346.516 1159.53 349.56 1192.26C352.604 1224.98 366.114 1257.33 379.433 1266.08C390.088 1273.09 437.022 1200.88 459.157 1163.91C467.529 1146.78 485.795 1105.15 491.884 1075.62C497.972 1046.09 505.076 975.664 507.867 944.142C508.564 915.792 508.209 852.964 501.207 828.456C494.205 803.949 476.599 765.096 468.671 748.732C467.402 732.115 464.104 698.234 461.06 695.646C458.015 693.059 456.747 699.262 456.493 702.686C453.259 704.399 446.637 710.069 446.028 719.05C445.419 728.031 444.125 730.53 443.555 730.656M443.555 730.656C437.846 730.213 425.441 729.591 421.483 730.656C416.536 731.988 413.111 737.126 404.929 742.263C398.384 746.373 377.34 753.743 367.636 756.914C367.065 758.436 367.255 761.328 372.583 760.72C379.242 759.958 373.154 765.476 382.858 765.476C390.621 765.476 398.904 762.305 402.075 760.72M443.555 730.656C450.214 739.98 464.561 759.311 468.671 762.051M402.075 760.72C399.665 761.544 402.075 765.286 398.46 770.233C394.84 775.187 392.562 779.556 393.323 781.269M402.075 760.72C403.471 757.929 407.783 752.309 413.872 752.157C421.483 751.967 451.546 784.313 459.157 788.69C465.834 792.529 471.778 794.334 473.808 794.969M393.323 781.269C394.084 782.981 390.088 785.265 390.849 792.495C391.61 799.725 390.849 807.907 393.323 808.288M393.323 781.269C394.528 779.113 398.308 775.294 403.788 777.273C410.637 779.747 428.904 795.159 442.984 802.77C454.248 808.858 464.802 813.806 468.671 815.518M393.323 808.288C395.796 808.668 391.23 807.527 389.137 815.518C387.044 823.509 381.906 844.059 384.38 854.714C386.359 863.238 408.291 871.712 419.009 874.883C421.229 876.532 425.403 878.841 424.337 874.883C423.272 870.925 418.312 865.242 415.965 862.896M393.323 808.288C395.733 807.78 401.771 807.641 406.642 811.142C412.73 815.518 441.462 843.488 448.882 847.484C454.819 850.68 458.206 851.733 459.157 851.86M415.965 862.896C419.39 863.974 426.887 867.729 429.474 874.122C432.709 882.113 434.992 895.052 441.271 908.181C446.938 920.028 447.026 928.312 454.4 935.829M415.965 862.896C410.574 858.964 399.373 850.376 397.699 847.484M480.467 947.377C476.028 947.06 465.131 944.789 457.064 938.244C456.08 937.445 455.197 936.642 454.4 935.829M454.4 935.829C453.385 963.589 446.98 1025.58 429.474 1051.46C423.711 1059.98 416.826 1067.98 409.698 1075.62M357.932 1170.57C357.742 1167.08 358.579 1154.96 363.45 1134.41C367.935 1115.49 389.764 1096.99 409.698 1075.62M409.698 1075.62C404.43 1065.85 392.942 1041.41 389.137 1021.77C384.38 997.228 381.526 927.398 381.145 901.141C380.765 874.883 370.109 818.372 349.179 805.434C329.965 793.556 302.893 779.593 257.658 780.622M130.176 789.641C135.884 789.641 145.778 781.269 160.239 777.273C174.7 773.277 192.205 785.455 245.1 781.269C249.436 780.926 253.62 780.714 257.658 780.622M-83.5 914.46C-75.8257 911.415 -56.5955 913.09 -41.0693 944.142C-21.6615 982.958 -8.15217 993.17 6.68908 999.48M126.561 971.351C130.366 964.667 137.977 948.206 137.977 935.829M205.143 1272.77C203.875 1280.44 202.099 1297.42 205.143 1303.97C208.188 1310.52 213.135 1316.34 215.228 1318.43L210.281 1294.46" stroke="#EDD1BF" stroke-width="2"/>
<path d="M-87.2672 393.091C-62.1513 336.313 -9.19212 330.364 14.148 334.487C21.9492 330.618 42.2704 322.538 61.1454 321.168C84.7392 319.455 115.373 331.062 144.104 346.854C172.835 362.647 177.212 372.922 192.624 390.807C208.036 408.693 239.621 494.125 249.325 513.533L181.398 491.652L171.313 506.873C164.907 513.406 150.497 526.471 144.104 526.471C136.113 526.471 125.077 519.051 77.1283 485.943C38.7694 459.458 11.383 429.519 2.31331 413.472C-1.11159 434.149 -4.57469 474.755 10.3427 506.873C28.9894 547.021 57.7205 604.674 90.0668 640.445C122.413 676.216 144.257 696.407 163.664 707.611L171.313 714.651L152.096 707.611C139.284 700.38 109.741 681.962 94.0625 666.131C74.4645 646.343 -8.91276 535.247 -17.2468 480.616C-23.907 436.958 -28.384 427.109 -23.5637 413.472C-43.6057 436.495 -56.8614 447.128 -79.1233 513.533C-86.9662 536.928 -77.4998 572.454 -75.8508 588.5C-76.1045 590.974 -75.3941 604.826 -70.5231 640.445C-65.6522 676.064 -34.7519 716.934 -19.9107 732.917C-21.4963 731.775 -27.3693 727.019 -38.1768 717.124C-48.9843 707.23 -82.2566 659.218 -97.5418 636.449C-106.231 622.115 -125.093 586.522 -131.03 558.818C-138.451 524.188 -118.662 464.062 -87.2672 393.091Z" fill="url(#paint8_linear_84_1254)"/>
<path d="M36.3564 1449.32C44.2211 1456.42 71.2521 1471.2 88.3005 1475.76C104.243 1480.03 96.1368 1464.23 89.0017 1454.17C88.4586 1453.45 87.9695 1452.78 87.5394 1452.17C88.0166 1452.8 88.5068 1453.47 89.0017 1454.17C95.0261 1462.18 107.699 1476.52 120.266 1482.8C133.966 1489.65 154.515 1495.68 163.078 1497.84C180.075 1498.53 220.083 1502.78 244.134 1514.2C268.184 1525.62 280.793 1535.57 284.091 1539.12C285.486 1530.37 293.262 1509.86 313.202 1497.84C338.128 1482.8 349.735 1464.16 351.067 1460.73C352.132 1457.99 354.809 1443.1 356.014 1436C355.316 1441.45 355.024 1452.89 359.439 1455.02C363.853 1457.16 377.768 1437.77 384.174 1427.82L389.121 1398.51C453.243 1464.92 581.677 1635.44 625.82 1707.9C680.999 1798.47 772.14 1952.59 765.29 2065.42C759.81 2155.68 711.379 2247.89 687.849 2282.71C662.035 2311.31 603.177 2371.45 574.256 2383.17C538.104 2397.82 426.414 2407.91 377.134 2400.11C327.853 2392.31 218.066 2345.5 118.363 2314.1C38.6013 2288.99 -109.139 2223.79 -189.117 2205.46C-276.515 2199.81 -450.969 2203.67 -449.599 2264.25C-447.887 2339.98 -408.31 2398.01 -380.53 2416.85C-352.751 2435.69 -246.198 2478.12 -217.657 2487.82C-189.117 2497.53 -155.15 2519.22 -154.487 2546.62C-154.03 2565.49 -157.214 2579.98 -158.863 2584.86C-156.39 2568.63 -156.209 2537.67 -170.279 2524.74C-186.493 2509.83 -281.018 2501.33 -302.329 2503.04C-319.377 2504.41 -332.518 2507.17 -336.958 2508.37C-319.009 2506.53 -278.012 2507.23 -257.615 2524.74C-232.118 2546.62 -170.279 2574.02 -170.279 2664.21C-170.279 2754.39 -249.052 2833.36 -269.031 2835.07C-279.619 2835.98 -294.187 2835.93 -305.876 2835.63C-311.566 2835.88 -316.628 2835.61 -320.595 2835.07C-317.041 2835.26 -311.832 2835.48 -305.876 2835.63C-285.458 2834.75 -256.94 2827.25 -241.822 2801.77C-217.657 2761.05 -219.941 2717.48 -241.822 2690.84C-263.703 2664.21 -292.054 2627.67 -353.322 2619.87C-414.589 2612.07 -515.814 2630.91 -543.023 2625.39C-564.79 2620.98 -596.109 2606.55 -609.048 2599.89C-609.048 2605.79 -606.498 2620.25 -596.299 2630.91C-583.551 2644.23 -556.88 2649.33 -535.032 2650.89C-516.385 2652.22 -503.193 2643.78 -498.119 2641.75C-510.486 2652.41 -510.677 2656.78 -552.346 2667.25C-595.097 2677.99 -639.681 2647.65 -663.466 2616.26C-687.25 2584.86 -710.082 2487.06 -688.962 2390.78C-672.066 2313.76 -624.587 2244.02 -602.959 2218.78C-643.36 2235.01 -734.095 2279.09 -773.824 2325.52C-813.552 2371.95 -825.514 2459.92 -826.529 2498.1C-850.567 2459.54 -901.192 2366.77 -911.391 2304.21C-924.139 2226.01 -920.904 2118.88 -902.828 2044.87C-888.368 1985.66 -857.734 1903.5 -844.224 1869.82C-870.482 1895.06 -927.83 1968.68 -947.162 2061.23C-966.494 2153.78 -960.037 2254.17 -954.392 2292.79C-973.61 2251.69 -1010.22 2151.95 -1002.91 2081.78C-993.778 1994.07 -922.426 1847.18 -864.774 1796.37C-818.652 1755.73 -715.029 1703.96 -668.983 1683.16C-708.243 1692.42 -798.977 1718.59 -847.839 1749.19C-908.917 1787.43 -960.29 1809.69 -981.601 1855.17C-998.649 1891.55 -1006.97 1923.22 -1009 1934.51C-1008.37 1895.38 -978.221 1802.31 -938.409 1765.74C-863.632 1697.05 -815.303 1691.79 -779.341 1677.07C-738.56 1670.03 -650.565 1656.18 -624.84 1657.09C-599.115 1658.01 -586.215 1661.03 -582.98 1662.42C-590.908 1645.93 -620.197 1615.12 -673.93 1623.8C-727.663 1632.47 -758.094 1647.2 -766.593 1653.48C-746.805 1632.48 -695.469 1591.22 -648.434 1594.11C-601.399 1597.01 -550.063 1630.84 -530.275 1647.39C-518.288 1660.9 -491.307 1700.17 -479.282 1749.19C-464.25 1810.45 -464.25 2042.4 -399.367 2012.71C-347.461 1988.97 -301.504 1976.56 -285.014 1973.33C-250.574 1959.37 -160.271 1933.67 -74.5724 1942.5C32.551 1953.54 178.3 1975.99 239.948 2037.07C190.667 1976.69 86.0936 1843.9 62.0432 1795.8C31.9802 1735.68 21.7886 1645.81 25.1304 1555.11C27.7942 1482.8 34.2001 1454.77 36.3564 1449.32Z" fill="url(#paint9_linear_84_1254)"/>
<path d="M-189.117 2205.46C-109.139 2223.79 38.6013 2288.99 118.363 2314.1C218.066 2345.5 327.853 2392.31 377.134 2400.11C426.414 2407.91 538.104 2397.82 574.256 2383.17C603.177 2371.45 662.035 2311.31 687.849 2282.71C711.379 2247.89 759.81 2155.68 765.29 2065.42C772.14 1952.59 680.999 1798.47 625.82 1707.9C581.677 1635.44 453.243 1464.92 389.121 1398.51L384.174 1427.82C377.768 1437.77 363.853 1457.16 359.439 1455.02C355.024 1452.89 355.316 1441.45 356.014 1436C354.809 1443.1 352.132 1457.99 351.067 1460.73C349.735 1464.16 338.128 1482.8 313.202 1497.84C293.262 1509.86 285.486 1530.37 284.091 1539.12C280.793 1535.57 268.184 1525.62 244.133 1514.2C220.083 1502.78 180.075 1498.53 163.077 1497.84C154.515 1495.68 133.966 1489.65 120.266 1482.8C106.567 1475.95 92.7402 1459.53 87.5394 1452.17C94.8966 1461.94 105.349 1480.33 88.3005 1475.76C71.2521 1471.2 44.221 1456.42 36.3564 1449.32C34.2001 1454.77 27.7942 1482.8 25.1304 1555.11C21.7885 1645.81 31.9802 1735.68 62.0432 1795.8C86.0936 1843.9 190.667 1976.69 239.948 2037.07M-189.117 2205.46C-276.515 2199.81 -450.969 2203.67 -449.599 2264.25C-447.887 2339.98 -408.31 2398.01 -380.53 2416.85C-352.751 2435.69 -246.198 2478.12 -217.657 2487.82C-189.117 2497.53 -155.15 2519.22 -154.487 2546.62C-154.03 2565.49 -157.214 2579.98 -158.863 2584.86C-156.39 2568.63 -156.209 2537.67 -170.279 2524.74C-186.493 2509.83 -281.018 2501.33 -302.329 2503.04C-319.377 2504.41 -332.518 2507.17 -336.958 2508.37C-319.009 2506.53 -278.012 2507.23 -257.615 2524.74C-232.118 2546.62 -170.279 2574.02 -170.279 2664.21C-170.279 2754.39 -249.052 2833.36 -269.031 2835.07C-285.014 2836.44 -310.066 2835.64 -320.595 2835.07C-302.392 2837.54 -261.154 2834.35 -241.822 2801.77C-217.657 2761.05 -219.941 2717.48 -241.822 2690.84C-263.703 2664.21 -292.054 2627.67 -353.322 2619.87C-414.589 2612.07 -515.814 2630.91 -543.023 2625.39C-564.79 2620.98 -596.109 2606.55 -609.048 2599.89C-609.048 2605.79 -606.498 2620.25 -596.299 2630.91C-583.551 2644.23 -556.88 2649.33 -535.032 2650.89C-516.385 2652.22 -503.193 2643.78 -498.119 2641.75C-510.486 2652.41 -510.677 2656.78 -552.346 2667.25C-595.097 2677.99 -639.681 2647.65 -663.466 2616.26C-687.25 2584.86 -710.082 2487.06 -688.962 2390.78C-672.066 2313.76 -624.587 2244.02 -602.959 2218.78C-643.36 2235.01 -734.095 2279.09 -773.824 2325.52C-813.552 2371.95 -825.514 2459.92 -826.529 2498.1C-850.567 2459.54 -901.192 2366.77 -911.391 2304.21C-924.139 2226.01 -920.904 2118.88 -902.828 2044.87C-888.368 1985.66 -857.734 1903.5 -844.224 1869.82C-870.482 1895.06 -927.83 1968.68 -947.162 2061.23C-966.494 2153.78 -960.037 2254.17 -954.392 2292.79C-973.61 2251.69 -1010.22 2151.95 -1002.91 2081.78C-993.778 1994.07 -922.426 1847.18 -864.774 1796.37C-818.652 1755.73 -715.029 1703.96 -668.983 1683.16C-708.243 1692.42 -798.977 1718.59 -847.839 1749.19C-908.917 1787.43 -960.29 1809.69 -981.601 1855.17C-998.649 1891.55 -1006.97 1923.22 -1009 1934.51C-1008.37 1895.38 -978.221 1802.31 -938.409 1765.74C-863.632 1697.05 -815.303 1691.79 -779.341 1677.07C-738.56 1670.03 -650.565 1656.18 -624.84 1657.09C-599.115 1658.01 -586.215 1661.03 -582.98 1662.42C-590.908 1645.93 -620.197 1615.12 -673.93 1623.8C-727.663 1632.47 -758.094 1647.2 -766.593 1653.48C-746.805 1632.48 -695.469 1591.22 -648.434 1594.11C-601.399 1597.01 -550.063 1630.84 -530.275 1647.39C-518.288 1660.9 -491.307 1700.17 -479.282 1749.19C-464.25 1810.45 -464.25 2042.4 -399.367 2012.71C-347.461 1988.97 -301.504 1976.56 -285.014 1973.33M-189.117 2205.46L-248.672 2185.48C-285.458 2176.47 -315.457 2163.61 -388.332 2170.64C-463.299 2177.87 -492.791 2205.46 -509.154 2210.98C-525.518 2216.49 -522.664 2210.98 -509.154 2178.25C-498.347 2152.07 -436.28 2090.98 -406.598 2063.71M-285.014 1973.33C-310.193 1988.48 -365.803 2023.79 -386.809 2043.73M-285.014 1973.33C-250.574 1959.37 -160.271 1933.67 -74.5724 1942.5C32.551 1953.54 178.3 1975.99 239.948 2037.07M239.948 2037.07C289.266 2085.93 334.323 2198.48 350.686 2248.65" stroke="#A94745" stroke-width="0.5"/>
<path d="M55.3821 539.813C48.2279 539.509 39.653 538.355 37.116 535.627L33.3105 539.052L39.5895 539.813L37.116 545.331L43.5853 541.526V546.473L51.3864 543.619L53.6697 546.473L62.4222 544.57L65.086 545.331L68.8915 543.619H72.1261L74.9802 540.765L78.2148 542.287L81.83 538.481L86.9674 542.287V536.959L94.1977 538.481L86.9674 533.725C79.293 536.706 62.5364 540.118 55.3821 539.813Z" fill="#D0A8A8"/>
<path d="M157.945 534.486C162.511 530.744 172.672 523.26 176.782 523.26C180.892 523.26 178.494 539.369 176.782 547.424C174.816 553.133 168.296 566.49 157.945 574.253C147.594 582.016 142.216 587.255 140.82 588.904" stroke="#EDD1BF" stroke-width="3"/>
<path d="M26.0664 498.265C27.2495 497.168 33.6975 495.634 50.0245 498.265C66.3515 500.896 82.4616 501.691 88.4758 501.759" stroke="#D0A8A8" stroke-width="3"/>
<path d="M-12.3457 635.901C-11.648 635.013 -6.94197 633.77 6.301 635.901C19.544 638.032 29.8314 638.819 33.3197 638.946" stroke="#D0A8A8" stroke-width="3"/>
<path d="M152.465 1020.52C154.404 1029.9 155.522 1051.68 144.482 1063.81C140.894 1076.42 128.937 1101.45 109.813 1100.75C98.1813 1105.64 71.5687 1110.89 58.1701 1092.72C42.7817 1077.82 50.8273 1048.5 70.9484 1071.69L83.2699 1069.02L87.3591 1061.03C86.1578 1055.89 84.4252 1045.25 87.1055 1043.86C89.2201 1042.76 84.7705 1040.1 80.7022 1038.15C79.6139 1037.63 78.5528 1037.16 77.652 1036.79C76.0342 1032.75 73.2925 1024.36 75.2687 1023.12C75.2863 1023.1 75.3039 1023.09 75.3216 1023.08C77.1657 1021.67 64.4658 1015.32 65.5881 997.855C65.7721 994.992 66.3277 991.83 67.3797 988.343C67.0923 986.135 66.5666 983.025 65.7969 979.565C64.161 972.209 61.4232 963.269 57.5313 958.049C57.5409 956.358 58.8207 953.917 63.8626 957.686L49.0448 935.568C48.7611 933.941 49.8742 931.942 56.5967 936.967C56.1427 936.225 55.556 935.318 54.8611 934.304C51.646 929.611 46.1154 922.628 40.6996 919.138C34.1133 914.894 52.3781 916.261 62.3338 917.475C62.1732 914.807 63.6065 910.103 70.6246 912.632C77.6426 915.16 100.036 924.143 111.137 930.176C111.443 930.239 111.76 930.312 112.087 930.395C122.855 933.151 143.956 947.295 143.953 971.693C145.818 974.906 148.07 979.427 150.074 984.552C154.619 996.174 157.888 1010.9 152.465 1020.52Z" fill="#D1593E" fill-opacity="0.4"/>
<path d="M59.309 959.693C59.3187 958.002 60.5984 955.561 65.6403 959.33L50.8225 937.212C50.5388 935.585 51.6519 933.586 58.3744 938.611C57.9204 937.869 57.3337 936.962 56.6388 935.948C53.4237 931.255 47.8931 924.272 42.4773 920.782C35.891 916.538 54.1558 917.905 64.1115 919.119C63.9509 916.451 65.3842 911.747 72.4023 914.275C79.4203 916.804 101.814 925.787 112.914 931.82C113.221 931.883 113.538 931.956 113.865 932.039C99.7817 933.675 89.2031 941.956 81.6717 951.737C78.197 956.25 75.3709 961.082 73.1484 965.727C70.3875 971.498 68.5583 976.982 67.5746 981.208C65.9387 973.852 63.2009 964.913 59.309 959.693Z" fill="#D1593E" fill-opacity="0.4"/>
<path d="M144.59 1064.34C141.002 1076.95 129.044 1101.98 109.92 1101.28C98.2887 1106.17 71.6761 1111.42 58.2775 1093.25C42.8891 1078.35 50.9347 1049.03 71.0558 1072.22L83.3773 1069.55L87.4665 1061.56C99.874 1064.61 128.669 1069.43 144.59 1064.34Z" fill="#D1593E" fill-opacity="0.4"/>
<path d="M80.8096 1038.68C84.8779 1040.63 89.3275 1043.29 87.2129 1044.39C104.59 1039.26 141.989 1027.41 152.572 1021.05L80.8096 1038.68Z" fill="#D1593E" fill-opacity="0.4"/>
<path d="M137.984 958.341C139.849 961.554 148.177 979.958 150.182 985.083C146.749 976.916 98.9518 1007.34 75.429 1023.61C75.4125 1023.62 75.3949 1023.63 75.3761 1023.65C75.3937 1023.63 75.4113 1023.62 75.429 1023.61C77.273 1022.2 64.5732 1015.85 65.6955 998.385C66.2809 1007.38 72.7843 1021.37 94.1147 1005.38C120.778 985.394 142.07 981.778 137.984 958.341Z" fill="#D1593E" fill-opacity="0.4"/>
<path d="M61.9657 960.672C63.0131 961.458 66.4094 972.207 67.4972 976.7L71.246 966.763C69.5147 962.071 60.4821 959.559 61.9657 960.672Z" fill="#FFAB99" fill-opacity="0.4"/>
<path d="M66.9032 957.571L72.3253 962.474L79.4244 950.794C74.5419 943.747 60.0913 939.456 53.4763 938.192L66.9032 957.571Z" fill="#FFAB99" fill-opacity="0.4"/>
<path d="M81.8946 949.244C78.7159 939.394 64.2199 935.18 57.3693 934.305C52.9965 930.188 46.7187 920.403 44.7906 919.809C43.2464 919.333 57.86 919.67 64.1249 920.673C74.3679 924.932 85.6698 934.233 88.7945 941.662L81.8946 949.244Z" fill="#FFAB99" fill-opacity="0.4"/>
<path d="M76.3442 1024.45C74.368 1025.69 77.8288 1031.99 79.4467 1036.03C80.3475 1036.4 81.5793 1036.62 82.6677 1037.14L151.734 1020.5C157.157 1010.88 154.161 996.93 149.616 985.308C146.181 977.136 99.8481 1008.19 76.3442 1024.45Z" fill="#FFAB99" fill-opacity="0.4"/>
<path d="M69.5898 988.745C68.5377 992.233 68.32 994.8 68.136 997.663C68.7214 1006.66 73.0494 1021.39 94.3797 1005.4C121.043 985.413 142.335 981.797 138.249 958.359C134.981 939.609 117.961 939.796 109.86 942.233C97.6987 947.58 74.0892 964.252 69.5898 988.745Z" fill="#FFAB99" fill-opacity="0.4"/>
<path d="M128.748 966.426C123.396 984.612 94.8373 992.845 76.2997 998.717C73.9238 999.469 71.7738 1001.51 72.1677 1003.96C72.7145 1007.36 75.6935 1008.11 77.5261 1007.97C113.346 991.263 127.782 981.84 133.83 969.376C136.131 966.848 132.272 954.453 128.748 966.426Z" fill="#FFD9D1" fill-opacity="0.8"/>
<path d="M146.921 1008.88C140.798 1020.07 120.63 1021.08 106.876 1021.91C104.445 1022.06 101.629 1023.64 102.318 1026.02C102.776 1027.6 104.295 1028.31 105.361 1028.49C132.692 1023.19 144.085 1019.22 150.052 1011.75C152.012 1010.42 151.059 1001.32 146.921 1008.88Z" fill="#FFD9D1" fill-opacity="0.8"/>
<path d="M90.9511 1058.77C89.4067 1058.3 89.419 1049.98 89.6182 1045.89L148.005 1027.24C148.656 1027.04 149.293 1027.52 149.256 1028.21C148.696 1038.33 146.897 1058.24 142.453 1060.75C136.633 1064.04 92.8817 1059.37 90.9511 1058.77Z" fill="#FFAB99" fill-opacity="0.4"/>
<path d="M141.199 1050.11C135.336 1057.23 120.88 1055.02 110.589 1053.41C108.223 1053.03 104.889 1054.32 106.084 1056.51C106.476 1057.23 107.171 1057.7 107.727 1057.92C128.735 1058.43 137.724 1057.33 143.145 1052.75C144.777 1052.08 145.273 1045.16 141.199 1050.11Z" fill="#FFD9D1" fill-opacity="0.8"/>
<path d="M88.2979 1064.42L85.7988 1071.05C101.269 1102.14 111.66 1098.87 118.531 1096.36C124.424 1094.21 134.957 1080.45 139.833 1070.72C140.26 1069.86 139.314 1068.87 138.4 1069.07C127.988 1071.4 100.728 1067.55 88.2979 1064.42Z" fill="#FFAB99" fill-opacity="0.4"/>
<path d="M124.003 1088.93C116.85 1095.55 110.104 1094.4 103.623 1088.91C101.464 1087.08 96.91 1088.57 99.4194 1089.78C112.011 1097.87 112.646 1097.48 117.288 1094.61L117.304 1094.6C118.682 1094.26 127.552 1085.65 124.003 1088.93Z" fill="#FFD9D1" fill-opacity="0.8"/>
<path d="M65.5534 918.337C74.5475 919.625 86.4476 933.39 91.2733 940.112L106.975 930.616C99.6027 928.503 85.0879 922.805 78.3861 918.588C71.2037 914.068 67.3233 916.263 65.5534 918.337Z" fill="#FFAB99" fill-opacity="0.4"/>
<path d="M81.3789 1072L71.6973 1074.11L61.3892 1093.58C70.1777 1106.26 93.9716 1104.06 104.77 1101.38C93.6635 1100.55 84.5482 1081.45 81.3789 1072Z" fill="#FFAB99" fill-opacity="0.4"/>
<path d="M55.3729 1069.55C57.8039 1062.53 65.2815 1068.75 68.7164 1072.73L57.8976 1089.27C56.0431 1085.62 52.9418 1076.56 55.3729 1069.55Z" fill="#FFAB99" fill-opacity="0.4"/>
<path d="M93.7461 1100.09C81.5526 1100.2 75.2541 1099.06 69.0753 1093.79C66.9204 1091.95 62.369 1093.44 64.8785 1094.65C77.4849 1102.75 80.3297 1102.64 84.779 1101.02C86.1573 1100.68 98.3591 1100.04 93.7461 1100.09Z" fill="#FFD9D1" fill-opacity="0.8"/>
<path d="M57.3594 1081.28C55.5973 1079.96 55.5825 1075.52 56.021 1071.64C56.1418 1070.57 57.4399 1070.5 57.6359 1071.54C58.6257 1076.83 59.3051 1082.73 57.3594 1081.28Z" fill="#FFD9D1" fill-opacity="0.8"/>
<path d="M167.335 1018.38C168.809 1027.86 174.019 1048.76 183.071 1056.52C188.319 1067.2 201.29 1086.82 211.186 1079.8C218.623 1080.55 234.053 1076.65 236.281 1055.09C240.428 1035.94 228.38 1010.99 223.945 1039.52L216.734 1041.09L212.452 1034.93C211.716 1029.68 209.797 1019.08 208.013 1018.66C206.605 1018.33 208.243 1014.35 209.871 1011.16C210.306 1010.31 210.741 1009.52 211.116 1008.86C210.894 1004.52 210.105 995.704 208.733 995.192C207.257 994.641 212.4 984.4 207.112 968.178C206.252 965.541 205.118 962.747 203.634 959.811C203.198 957.636 202.647 954.532 202.132 951.016C201.036 943.542 200.099 934.211 200.762 928.001C200.307 926.411 198.982 924.536 197.327 929.762L199.252 904.003C198.968 902.376 197.849 900.862 195.642 907.829C195.684 906.979 195.751 905.93 195.848 904.743C196.294 899.255 197.351 890.839 199.278 885.753C201.621 879.568 192.353 886.921 187.427 891.371C186.801 888.804 184.793 884.848 181.765 889.561C178.738 894.274 169.321 910.174 165.073 919.544C164.928 919.705 164.781 919.879 164.631 920.066C159.686 926.238 152.325 946.57 158.823 969.555C158.695 973.201 158.711 978.209 159.018 983.703C159.716 996.161 161.913 1011.12 167.335 1018.38Z" fill="#D1593E" fill-opacity="0.4"/>
<path d="M200.247 930.135C199.792 928.545 198.467 926.671 196.812 931.896L198.737 906.138C198.453 904.51 197.334 902.997 195.127 909.963C195.169 909.114 195.237 908.064 195.333 906.878C195.779 901.389 196.836 892.974 198.763 887.887C201.106 881.702 191.838 889.055 186.912 893.505C186.286 890.938 184.278 886.983 181.25 891.695C178.223 896.408 168.806 912.308 164.559 921.678C164.414 921.839 164.266 922.013 164.116 922.2C171.978 919.064 179.761 923.353 186.337 930.067C189.37 933.164 192.147 936.778 194.556 940.416C197.548 944.936 199.973 949.495 201.617 953.15C200.521 945.677 199.585 936.345 200.247 930.135Z" fill="#D1593E" fill-opacity="0.4"/>
<path d="M184.004 1056.91C189.23 1067.6 202.138 1087.24 211.96 1080.24C219.348 1081 234.67 1077.12 236.856 1055.56C240.953 1036.41 228.954 1011.44 224.584 1039.97L217.423 1041.53L213.162 1035.36C207.477 1042.34 193.687 1056.43 184.004 1056.91Z" fill="#D1593E" fill-opacity="0.4"/>
<path d="M210.569 1011.59C208.956 1014.77 207.333 1018.75 208.732 1019.08C198.275 1020.01 175.553 1021.23 168.325 1018.74L210.569 1011.59Z" fill="#D1593E" fill-opacity="0.4"/>
<path d="M160.022 984.046C159.71 978.551 159.18 958.443 159.302 954.796C163.39 978.243 175.495 974.597 194.759 984.605C210.171 992.61 209.858 977.266 207.775 968.593C213.048 984.826 207.952 995.06 209.419 995.613C192.798 988.073 159.649 975.204 160.022 984.046Z" fill="#D1593E" fill-opacity="0.4"/>
<path d="M199.092 931.95C198.749 933.039 199.82 944.293 200.443 948.888L195.82 940.771C195.484 935.776 199.578 930.409 199.092 931.95Z" fill="#FFAB99" fill-opacity="0.4"/>
<path d="M195.663 930.669L194.109 937.088L187.256 928.443C187.954 920.182 194.432 911.341 197.583 907.952L195.663 930.669Z" fill="#FFAB99" fill-opacity="0.4"/>
<path d="M185.54 927.802C184.594 917.466 191.116 908.683 194.495 905.583C195.705 900.252 196.41 888.949 197.269 887.749C197.956 886.788 190.34 891.958 187.304 894.984C183.036 902.399 179.553 914.914 179.883 922.951L185.54 927.802Z" fill="#FFAB99" fill-opacity="0.4"/>
<path d="M207.877 995.803C209.25 996.316 209.987 1005.21 210.21 1009.56C209.835 1010.21 209.293 1010.76 208.858 1011.62L168.5 1018.63C163.079 1011.37 160.303 995.909 159.605 983.45C159.241 974.61 191.154 988.29 207.877 995.803Z" fill="#FFAB99" fill-opacity="0.4"/>
<path d="M203.573 960.447C205.057 963.383 206.191 966.177 207.051 968.813C209.137 977.482 209.433 992.824 193.928 984.843C174.546 974.867 162.355 978.532 158.27 955.094C155.001 936.344 164.025 930.868 168.946 930.474C176.783 931.472 194.679 938.866 203.573 960.447Z" fill="#FFAB99" fill-opacity="0.4"/>
<path d="M165.404 959.544C172.614 973.99 188.31 973.316 199.585 972.666C202.282 972.511 204.973 973.951 205.317 976.653C205.703 979.684 204.425 981.224 203.476 981.674C180.139 977.829 170.017 973.745 163.51 964.011C161.623 962.393 160.358 949.434 165.404 959.544Z" fill="#FFD9D1" fill-opacity="0.8"/>
<path d="M167.128 1005.58C172.882 1013.46 182.671 1009.1 190.025 1005.41C192.36 1004.24 195.263 1004.59 195.242 1007.53C195.233 1008.85 194.713 1009.8 194.265 1010.25C178.44 1014.33 171.376 1014.38 166.241 1009.32C164.854 1008.72 162.933 999.832 167.128 1005.58Z" fill="#FFD9D1" fill-opacity="0.8"/>
<path d="M209.957 1033.99C210.645 1033.03 208.425 1025.2 207.229 1021.41L172.004 1023.21C171.338 1023.24 170.867 1023.91 171.07 1024.55C174.059 1033.9 180.312 1052.07 183.326 1052.96C187.272 1054.13 209.097 1035.19 209.957 1033.99Z" fill="#FFAB99" fill-opacity="0.4"/>
<path d="M181.117 1042.52C185.749 1046.94 192.15 1041.32 197.041 1036.54C198.852 1034.77 201.903 1034.53 201.249 1037.67C201.155 1038.13 200.999 1038.5 200.846 1038.76C189.905 1046.22 184.873 1048.17 180.795 1045.66C179.756 1045.57 177.651 1039.21 181.117 1042.52Z" fill="#FFD9D1" fill-opacity="0.8"/>
<path d="M212.836 1038.43L215.918 1043.84C216.04 1078.27 209.689 1078.64 205.398 1078.56C201.743 1078.49 192.627 1069.15 187.445 1061.63C186.931 1060.89 187.72 1059.48 188.594 1059.18C195.044 1056.96 207.391 1045.16 212.836 1038.43Z" fill="#FFAB99" fill-opacity="0.4"/>
<path d="M200.548 1073.38C205.892 1077.1 209.109 1074.14 211.084 1067.32C211.851 1064.67 214.881 1063.76 213.736 1066.01C209.25 1077.82 208.811 1077.66 205.6 1076.5L205.589 1076.5C204.772 1076.63 197.803 1071.47 200.548 1073.38Z" fill="#FFD9D1" fill-opacity="0.8"/>
<path d="M185.929 893.253C181.529 897.454 178.919 914.374 178.164 922.309L167.356 918.577C170.681 914.138 176.818 903.95 179.229 897.751C181.813 891.108 184.444 891.887 185.929 893.253Z" fill="#FFAB99" fill-opacity="0.4"/>
<path d="M218.498 1043.28L224.163 1042.05L234.784 1056.97C233.527 1071.84 220.394 1077.67 213.984 1078.72C219.62 1074.25 219.342 1053.23 218.498 1043.28Z" fill="#FFAB99" fill-opacity="0.4"/>
<path d="M231.558 1032.33C228.408 1026.53 226.119 1034.86 225.368 1039.76L235.478 1051.75C235.483 1047.69 234.708 1038.13 231.558 1032.33Z" fill="#FFAB99" fill-opacity="0.4"/>
<path d="M219.463 1073.84C225.693 1070.04 228.722 1066.96 230.594 1060.45C231.357 1057.8 234.384 1056.88 233.238 1059.13C228.748 1070.95 227.218 1071.79 224.441 1071.74C223.624 1071.88 217.02 1075.33 219.463 1073.84Z" fill="#FFD9D1" fill-opacity="0.8"/>
<path d="M233.657 1044.04C234.077 1042.72 233.573 1040.15 232.78 1037.49C232.449 1036.38 231.224 1036.76 231.438 1037.91C232.234 1042.15 233.136 1045.69 233.657 1044.04Z" fill="#FFD9D1" fill-opacity="0.8"/>
<path d="M140.281 931.742C145.351 964.158 148.649 976.85 144.707 976.457L150.014 984.438C157.083 982.032 152.017 974.021 152.556 971.404C154.452 975.283 155.16 982.25 159.539 982.367L161.79 981.287L162.715 974.077C152.3 974.328 147.806 942.472 147.348 930.892C144.916 928.42 140.771 930.385 140.281 931.742Z" fill="#D1593E" fill-opacity="0.4"/>
</g>
<defs>
<linearGradient id="paint0_linear_84_1254" x1="474.479" y1="1160.05" x2="409.41" y2="1438.38" gradientUnits="userSpaceOnUse">
<stop offset="0.14" stop-opacity="0"/>
<stop offset="0.995"/>
</linearGradient>
<linearGradient id="paint1_linear_84_1254" x1="474.954" y1="836.611" x2="186.182" y2="1460.22" gradientUnits="userSpaceOnUse">
<stop offset="0.485" stop-opacity="0"/>
<stop offset="0.810679"/>
</linearGradient>
<linearGradient id="paint2_linear_84_1254" x1="626.938" y1="770.117" x2="637.862" y2="1530.52" gradientUnits="userSpaceOnUse">
<stop stop-color="#52B9CB"/>
<stop offset="1" stop-color="#295C65"/>
</linearGradient>
<linearGradient id="paint3_linear_84_1254" x1="700.082" y1="544.039" x2="952.757" y2="1146.76" gradientUnits="userSpaceOnUse">
<stop offset="0.152242" stop-opacity="0"/>
<stop offset="1"/>
</linearGradient>
<linearGradient id="paint4_linear_84_1254" x1="877.529" y1="-84.507" x2="1025.46" y2="788.49" gradientUnits="userSpaceOnUse">
<stop stop-color="#88E9F4"/>
<stop offset="1" stop-color="#68D4E1"/>
</linearGradient>
<linearGradient id="paint5_linear_84_1254" x1="260.514" y1="2.73851" x2="126.284" y2="835.431" gradientUnits="userSpaceOnUse">
<stop stop-color="#88E9F4"/>
<stop offset="1" stop-color="#68D4E1"/>
</linearGradient>
<linearGradient id="paint6_linear_84_1254" x1="558.03" y1="4" x2="558.198" y2="771.383" gradientUnits="userSpaceOnUse">
<stop stop-color="#88E9F4"/>
<stop offset="0.816382" stop-color="#6FD9E6"/>
</linearGradient>
<linearGradient id="paint7_linear_84_1254" x1="504.682" y1="321" x2="504.682" y2="1439.89" gradientUnits="userSpaceOnUse">
<stop stop-color="#B84141"/>
<stop offset="1" stop-color="#FF857F"/>
</linearGradient>
<linearGradient id="paint8_linear_84_1254" x1="-79.6941" y1="321" x2="58.3674" y2="732.917" gradientUnits="userSpaceOnUse">
<stop stop-color="#CF4848"/>
<stop offset="1" stop-color="#DC6464"/>
</linearGradient>
<linearGradient id="paint9_linear_84_1254" x1="-121.686" y1="1411.26" x2="-238.397" y2="2450.15" gradientUnits="userSpaceOnUse">
<stop stop-color="#E46B68"/>
<stop offset="1" stop-color="#B04848"/>
</linearGradient>
<clipPath id="clip0_84_1254">
<rect width="1024" height="1403" fill="white"/>
</clipPath>
</defs>
</svg>
