<svg width="320" height="568" viewBox="0 0 320 568" fill="none" xmlns="http://www.w3.org/2000/svg">
<g clip-path="url(#clip0_84_1005)">
<rect width="320" height="568" fill="white"/>
<path d="M69.1651 539.155C47.7922 552.277 13.6054 547.073 0 542.549V568H320V536.327C319.659 536.12 319.324 535.924 318.994 535.74C310.838 531.174 295.072 533.326 286.087 530.752C271.413 526.549 251.8 526.311 234.508 540.852C208.861 562.42 167.421 555.117 149.907 548.77C131.899 540.098 90.538 526.033 69.1651 539.155Z" fill="#02385A"/>
<path d="M69.1651 539.155C47.7922 552.277 13.6054 547.073 0 542.549V568H320V536.327C319.659 536.12 319.324 535.924 318.994 535.74C310.838 531.174 295.072 533.326 286.087 530.752C271.413 526.549 251.8 526.311 234.508 540.852C208.861 562.42 167.421 555.117 149.907 548.77C131.899 540.098 90.538 526.033 69.1651 539.155Z" fill="url(#paint0_linear_84_1005)" fill-opacity="0.2"/>
<path d="M69.1651 539.155C47.7922 552.276 13.6054 547.073 0 542.548V405.299C3.90847 407.373 13.0909 415.102 12.0223 432.447C10.9536 449.792 32.3562 461.92 43.1911 465.817C54.7681 467.639 81.9592 468.909 98.1076 459.407C114.256 449.905 140.557 455.448 151.688 459.407C170.934 466.194 217.499 477.732 249.796 469.587C253.256 468.607 259.22 466.532 265.38 463.603C270.672 461.087 276.108 457.941 280.223 454.316C291.354 444.513 314.063 437.16 320 437.726V536.327C309.076 529.69 304.168 534.944 303.08 538.4C290.909 530.231 260.156 519.284 234.508 540.851C208.861 562.419 167.421 555.117 149.907 548.77C131.899 540.097 90.538 526.033 69.1651 539.155Z" fill="#116589"/>
<path d="M69.1651 539.155C47.7922 552.276 13.6054 547.073 0 542.548V405.299C3.90847 407.373 13.0909 415.102 12.0223 432.447C10.9536 449.792 32.3562 461.92 43.1911 465.817C54.7681 467.639 81.9592 468.909 98.1076 459.407C114.256 449.905 140.557 455.448 151.688 459.407C170.934 466.194 217.499 477.732 249.796 469.587C253.256 468.607 259.22 466.532 265.38 463.603C270.672 461.087 276.108 457.941 280.223 454.316C291.354 444.513 314.063 437.16 320 437.726V536.327C309.076 529.69 304.168 534.944 303.08 538.4C290.909 530.231 260.156 519.284 234.508 540.851C208.861 562.419 167.421 555.117 149.907 548.77C131.899 540.097 90.538 526.033 69.1651 539.155Z" fill="url(#paint1_linear_84_1005)" fill-opacity="0.2"/>
<path d="M12.0223 433.202C13.0909 415.857 3.90847 408.127 0 406.053V316.69C5.7885 327.625 38.2931 333.658 54.6197 335.166C61.308 335.784 66.6014 337.573 71.8367 341.037C79.3811 346.03 86.8046 354.504 98.1076 367.97C113.425 386.22 157.229 395.81 177.217 398.324C183.401 400.46 199.866 409.824 216.252 430.185C232.638 450.546 255.832 461.45 265.38 464.357C259.22 467.286 253.256 469.361 249.796 470.342C217.499 478.486 170.934 466.948 151.688 460.161C140.557 456.202 114.256 450.659 98.1076 460.161C81.9592 469.663 54.7681 468.394 43.1911 466.571C32.3562 462.675 10.9536 450.546 12.0223 433.202Z" fill="#2081A1"/>
<path d="M319.999 439.129C314.062 438.563 291.354 445.916 280.222 455.719C276.107 459.343 270.671 462.49 265.38 465.006C255.831 462.099 232.637 451.195 216.252 430.833C199.866 410.472 183.401 401.109 177.216 398.972C157.229 396.458 113.424 386.869 98.1068 368.619C86.8038 355.152 79.3803 346.679 71.8359 341.686C94.3468 342.808 145.394 341.471 169.498 327.142C193.602 312.814 225.751 316.271 238.812 319.79C254.495 335.815 292.689 363.792 319.999 347.504V439.129Z" fill="url(#paint2_linear_84_1005)"/>
<path d="M231.243 318.049C261.996 312.016 305.751 276.949 320 278.081V0H0V265.261C6.13482 284.491 32.5343 318.35 89.0538 299.95C145.573 281.55 172.715 298.19 178.553 299.95C186.271 302.464 200.49 324.082 231.243 318.049Z" fill="#7DDEEA"/>
<path d="M0 318.01C5.7885 328.945 38.2931 334.977 54.6197 336.486C61.308 337.104 66.6014 338.892 71.8367 342.357C94.3476 343.479 145.395 342.142 169.499 327.813C193.603 313.485 225.751 316.942 238.813 320.461C254.496 336.486 292.69 364.463 320 348.174V239.77C305.751 238.639 266.449 267.295 235.696 273.328C204.942 279.361 181.818 283.383 174.1 280.87C168.262 279.11 167.718 259.566 91.1317 276.533C33.6531 289.268 6.13482 246.18 0 226.95V318.01Z" fill="#61C8D7"/>
<path d="M0 318.01C5.7885 328.945 38.2931 334.977 54.6197 336.486C61.308 337.104 66.6014 338.892 71.8367 342.357C94.3476 343.479 145.395 342.142 169.499 327.813C193.603 313.485 225.751 316.942 238.813 320.461C254.496 336.486 292.69 364.463 320 348.174V239.77C305.751 238.639 266.449 267.295 235.696 273.328C204.942 279.361 181.818 283.383 174.1 280.87C168.262 279.11 167.718 259.566 91.1317 276.533C33.6531 289.268 6.13482 246.18 0 226.95V318.01Z" fill="url(#paint3_linear_84_1005)" fill-opacity="0.2"/>
<path d="M207.795 -26.1541H148.765L148 209.649C178.37 211.632 223.398 215.711 247 214.682L207.795 -26.1541Z" fill="url(#paint4_linear_84_1005)"/>
<path d="M88.2189 -33.7067L121.081 -27.2426L81.7265 203.954C64.4357 186.691 32.9386 201.455 19.9976 197.863L88.2189 -33.7067Z" fill="url(#paint5_linear_84_1005)"/>
<path d="M299.467 -33.1693L268.69 -26.8484L304 189.346C325.682 180.019 339.379 181.869 351.5 178.346L299.467 -33.1693Z" fill="url(#paint6_linear_84_1005)"/>
<path d="M22.7347 189.184L11.6247 169.074C10.9684 169.074 9.96524 168.737 11.2028 167.386L2.34319 152.058C1.73378 152.386 0.43059 152.845 0.0930726 152.058C-0.328825 151.073 0.796235 150.511 1.21813 150.37L8.95268 145.87C9.65584 145.588 10.8934 145.56 10.2184 147.698L8.95268 148.401L16.9687 163.589C17.9063 163.402 19.5845 163.364 18.797 164.714L17.9532 165.418L30.3288 188.2L36.7979 187.216L38.6261 163.027C37.6886 162.746 36.0947 162.042 37.2198 161.48H39.048C39.273 161.48 39.7043 150.886 39.8918 145.588L37.0792 145.448L36.7979 143.198H32.4383V141.088H34.4072L34.6884 134.479L28.9225 134.057V129.697H32.4383L45.3765 124.494L50.7205 127.025L57.7521 126.744C60.6585 125.056 68.2433 121.681 75.3312 121.681C82.4191 121.681 92.629 115.587 96.8479 112.54L105.427 108.602L163.226 140.948H165.758V145.307H159.007V152.058H160.695V153.886H155.492V155.433H152.257L151.273 170.902C152.21 171.23 153.72 171.971 152.257 172.309C151.481 172.488 151.119 172.516 150.979 172.483L148.275 209.93C151.834 210.196 155.046 210.471 157.039 210.471L155.492 195.372H157.039L160.133 190.591L169.414 187.216V185.387H173.211L180.384 163.027C179.915 162.746 179.118 162.014 179.68 161.339C180.243 160.664 180.946 161.058 181.227 161.339L186.009 146.432L184.462 145.87L185.165 144.323L194.728 147.417L194.306 148.964H191.915L187.134 163.027L188.4 163.871C188.118 164.433 187.359 165.446 186.571 164.996L180.384 183.7H182.915V188.622L179.962 188.903L181.087 206.904C187.509 202.873 201.45 191.069 205.838 176.106L202.885 147.417H201.619V144.885L202.182 144.323C202.275 137.572 200.663 124.156 193.462 124.494L192.9 118.025H191.353V115.634H198.806C200.916 114.977 205.782 114.171 208.369 116.196H224.402L234.808 111.555L256.325 109.446V111.555H255.341V117.884C252.95 119.29 248.562 123.706 250.137 130.119L251.122 139.541H252.387V141.791H251.122L252.809 159.652C254.872 160.589 259.166 162.943 259.841 164.855C260.516 166.768 260.122 128.713 259.841 109.446C259.56 107.899 257.76 104.383 252.809 102.696V95.8046H251.122V94.117H255.341V90.7418H259.841V87.0854H276.014V83.5696L283.327 85.1165C284.592 88.0698 289.233 94.342 297.671 95.8046C306.109 97.2672 309.531 97.7266 310.187 97.7735C311.359 96.3203 314.547 93.5545 317.922 94.117V95.8046H316.656V102.696C314.266 103.68 309.484 106.605 309.484 110.43C309.484 114.256 309.859 150.089 310.047 167.527L311.782 173.012C310.048 172.637 312.795 181.491 310.657 185.878C311.611 186.346 312.055 186.786 311.801 187.188C311.814 187.193 311.808 187.203 311.782 187.216C311.181 188.053 309.818 188.722 307.917 189.249C307.195 189.683 306.412 189.87 305.572 189.781C304.919 189.903 304.229 190.013 303.507 190.114C286.52 196.584 249.363 211.887 248.216 215.061C243.622 215.577 212.917 225.186 195.291 223.499C173.72 221.434 166.977 217.034 157.039 210.471C155.046 210.471 151.834 210.196 148.275 209.93C144.926 209.679 141.271 209.436 138.033 209.436L129.276 209.436C126.16 210.471 125.714 210.471 119.332 210.471L121.881 170.34C121.271 170.293 120.109 169.974 120.334 169.074H122.162L123.287 153.183L120.334 152.901V150.792H117.38V152.62L113.443 152.901L112.88 168.23L114.427 168.512C114.333 168.98 113.836 169.833 112.599 169.496L108.794 211.807C106.271 212.549 103.334 214.194 99.1782 214.194C81.6327 215.369 72.3779 219.842 43.6364 212.108C27.9035 207.354 13.8196 197.685 9.6475 190.137L22.7347 189.184Z" fill="#6FD4E0"/>
<path d="M141.388 173.061L138.033 209.581H128.979C130.246 193.001 131.763 171.469 132.101 171.924C132.439 172.379 133.273 171.735 133.649 171.356C133.761 170.446 132.664 170.408 132.101 170.503L133.086 154.729H136.322V152.597H139.84V155.013H142.795L141.81 171.071H139.84C139.502 171.867 140.731 172.729 141.388 173.061Z" fill="#7DDEEA"/>
<path d="M102.552 169.792L99.4563 208.588C96.1919 208.019 93.5934 209.867 92.7023 210.862C92.3646 209.611 86.6518 207.119 83.8376 206.03L87.0739 167.661H88.7624V166.666H87.0739L88.0589 150.892H91.4359V149.045L101.286 149.755V151.887H103.959L103.115 168.229H101.286C101.06 169.252 102.036 169.698 102.552 169.792Z" fill="#7DDEEA"/>
<path d="M77.0835 167.661L73.9879 206.598L64.1383 207.735C65.2639 193.856 67.5997 166.211 67.9374 166.666C68.3595 167.234 69.9073 166.098 69.7666 165.671C69.6541 165.33 68.5003 165.15 67.9374 165.103L68.9224 149.045H72.4401V147.482H75.6764V149.755L78.772 150.182L77.0835 166.098H75.6764V167.234L77.0835 167.661Z" fill="#7DDEEA"/>
<path d="M57.6656 165.671L54.8514 207.735C54.8514 207.053 48.4726 204.135 45.2832 202.761L48.3788 164.677C49.9548 164.335 50.0673 163.398 49.9266 162.971H48.6602L49.9266 147.482H53.1629V146.06H56.2585V148.192H59.2134L58.0878 164.392H56.2585C56.2585 164.961 57.1966 165.482 57.6656 165.671Z" fill="#7DDEEA"/>
<path d="M267.604 118.065V170.929L269.996 172.492L277.735 135.829L276.328 135.544V133.697L283.504 135.544V136.539H282.379L274.499 174.766L279.283 177.015C281 175.602 282.701 174.313 284.208 173.231V159.419H280.831V155.582L292.088 154.729V157.145C297.153 157.145 301.046 158.661 302.359 159.419V118.776C301.937 113.66 298.025 103.286 285.756 102.718C273.486 102.149 268.542 112.713 267.604 118.065Z" fill="#7DDEEA"/>
<path d="M209.772 147.339L211.883 167.803C212.024 166.24 213.544 163.597 218.496 165.529C223.449 167.462 229.941 165.671 232.567 164.534L217.793 136.397L216.386 137.108L215.401 135.402L222.577 131.992L223.14 133.129L221.592 134.55L237.211 163.113C238.674 161.977 243.637 160.366 245.935 159.703L244.106 143.36H243.261V140.66H244.106L243.261 133.981C241.573 129.055 235.072 119.714 222.577 121.76C210.082 123.806 208.834 137.392 209.772 143.929H210.757V146.913L209.772 147.339Z" fill="#7DDEEA"/>
<path d="M268.992 385.501C270.634 380.984 276.954 382.06 279.909 383.162C278.53 384.775 279.006 387.222 279.417 388.244C280.73 389.373 281.14 387.356 282.372 388.244C283.357 388.953 282.727 391.712 282.289 393.003C281.496 392.061 279.712 390.421 278.924 391.389C278.136 392.357 278.924 393.352 279.417 393.728C277.578 395.922 275.094 395.234 274.081 394.616C273.622 394.164 272.85 394.428 272.522 394.616C272.128 395.326 273.397 395.933 274.081 396.148C270.141 395.89 268.226 392.599 267.761 390.986C266.054 389.954 265.463 388.566 265.381 388.002C268.007 387.421 268.883 386.093 268.992 385.501Z" fill="#033656" fill-opacity="0.5"/>
<path d="M287.395 392.625C289.036 388.108 295.357 389.184 298.311 390.286C296.932 391.899 297.409 394.346 297.819 395.368C299.132 396.497 299.543 394.481 300.774 395.368C301.759 396.078 301.13 398.836 300.692 400.127C299.898 399.186 298.114 397.546 297.326 398.514C296.538 399.482 297.326 400.476 297.819 400.853C295.98 403.047 293.496 402.358 292.484 401.74C292.024 401.288 291.252 401.552 290.924 401.74C290.53 402.45 291.8 403.057 292.484 403.273C288.544 403.014 286.628 399.723 286.163 398.11C284.456 397.078 283.865 395.69 283.783 395.126C286.41 394.545 287.285 393.217 287.395 392.625Z" fill="#033656" fill-opacity="0.5"/>
<path d="M285.324 380.915C286.158 378.609 289.372 379.158 290.875 379.721C290.173 380.545 290.415 381.794 290.624 382.316C291.292 382.893 291.501 381.863 292.127 382.316C292.628 382.678 292.308 384.087 292.085 384.746C291.681 384.265 290.774 383.428 290.374 383.922C289.973 384.416 290.374 384.924 290.624 385.117C289.689 386.237 288.426 385.886 287.911 385.57C287.678 385.339 287.285 385.474 287.118 385.57C286.918 385.932 287.563 386.242 287.911 386.352C285.908 386.221 284.934 384.54 284.698 383.716C283.829 383.189 283.529 382.481 283.487 382.192C284.823 381.896 285.268 381.218 285.324 380.915Z" fill="#033656" fill-opacity="0.5"/>
<path d="M301.65 388.04C302.485 385.733 305.698 386.282 307.201 386.845C306.5 387.669 306.742 388.918 306.95 389.44C307.618 390.017 307.827 388.987 308.453 389.44C308.954 389.803 308.634 391.211 308.411 391.87C308.008 391.39 307.101 390.552 306.7 391.046C306.299 391.541 306.7 392.049 306.95 392.241C306.015 393.361 304.752 393.01 304.237 392.694C304.004 392.463 303.611 392.598 303.444 392.694C303.244 393.056 303.89 393.367 304.237 393.477C302.234 393.345 301.26 391.664 301.024 390.841C300.156 390.313 299.855 389.605 299.813 389.317C301.149 389.02 301.594 388.342 301.65 388.04Z" fill="#033656" fill-opacity="0.5"/>
<path d="M296.226 382.954C296.755 381.513 298.79 381.856 299.742 382.208C299.298 382.723 299.451 383.503 299.583 383.83C300.006 384.19 300.138 383.546 300.535 383.83C300.852 384.056 300.649 384.936 300.508 385.348C300.253 385.048 299.678 384.525 299.425 384.834C299.171 385.142 299.425 385.46 299.583 385.58C298.991 386.28 298.191 386.061 297.865 385.863C297.717 385.719 297.468 385.803 297.363 385.863C297.236 386.09 297.645 386.284 297.865 386.352C296.596 386.27 295.979 385.22 295.83 384.705C295.28 384.375 295.089 383.933 295.063 383.752C295.909 383.567 296.191 383.143 296.226 382.954Z" fill="#033656" fill-opacity="0.5"/>
<path fill-rule="evenodd" clip-rule="evenodd" d="M6.97144 111.828C-4.84509 109.741 -31.657 112.753 -44.3726 141.498C-60.2671 177.429 -70.2855 207.869 -66.5286 225.401C-63.5231 239.427 -53.9735 257.447 -49.5744 264.704C-41.8359 276.232 -24.9909 300.539 -19.5193 305.548C-14.0478 310.557 -11.0744 312.966 -10.2716 313.544C-17.7854 305.452 -33.4294 284.76 -35.8955 266.727C-38.3615 248.694 -38.7212 241.681 -38.5927 240.429C-38.368 248.168 -34.778 267.575 -22.2166 283.296C-9.6551 299.017 10.5678 315.727 19.1091 322.117C50.3202 379.594 118.117 500.791 139.618 525.759C161.119 550.728 177.733 567.374 183.352 572.576C188.008 576.525 201.405 584.694 217.742 585.773C234.08 586.852 251.972 583.076 258.875 581.053C269.343 574.792 292.475 560.535 301.261 553.599C312.242 544.929 336.132 534.718 341.816 534.718C342.919 534.718 344.172 534.529 345.452 534.336C350.761 533.535 356.534 532.665 354.05 544.929C352.499 552.586 348.851 560.024 345.45 566.96C342.09 573.811 338.97 580.173 338.348 585.773C337.346 594.79 342.683 608.732 345.476 614.576C345.027 625.879 347.114 650.796 359.059 660.044C373.99 671.604 384.875 672.47 398.265 670.833C411.655 669.195 444.311 658.021 460.013 640.2C472.575 625.943 476.935 617.883 477.545 615.636C480.242 615.282 486.947 612.38 492.187 603.594C498.738 592.613 504.325 566.892 504.807 559.86C504.885 558.722 504.829 557.006 504.76 554.895C504.405 543.961 503.705 522.427 519.449 515.645C534.476 509.171 548.573 511.214 553.742 513.044C557.82 514.328 566.554 518.997 568.866 527.397C571.756 537.897 570.986 550.998 568.866 555.429C566.747 559.86 580.041 545.411 577.729 532.117C575.417 518.824 574.357 513.525 568.866 506.493C567.214 504.377 565.544 501.039 563.66 497.273C559.283 488.525 553.749 477.464 544.591 474.03C534.11 470.1 519.93 472.392 514.151 474.03C509.527 476.759 498.661 486.245 492.187 502.351C485.714 518.458 482.041 539.888 481.013 548.59C476.742 562.108 466.101 591.033 457.701 598.585C447.201 608.025 434.871 618.718 425.238 617.177C415.605 615.636 398.265 612.746 398.265 595.214C398.265 581.188 401.605 569.14 403.274 564.87C410.403 555.333 425.238 534.487 427.55 527.397C430.44 518.535 431.981 494.645 427.55 488.961C427.058 488.331 426.537 487.629 425.981 486.879C421.525 480.874 414.685 471.654 400.385 468.828C393.519 467.472 384.952 467.641 376.06 467.817C364.117 468.054 351.59 468.302 341.816 464.879C328.175 460.101 324.38 437.521 324.187 426.828C324.187 424.428 325.803 419.062 327.947 411.943C332.171 397.916 338.444 377.082 338.444 358.723C338.444 316.241 318.922 290.984 309.352 280.984C308.554 280.149 307.788 279.317 307.02 278.484C299.55 270.371 291.96 262.126 252.999 250.158C230.045 243.107 217.705 244.306 206.649 245.379C197.013 246.315 188.353 247.156 174.49 242.356C144.724 232.048 130.949 212.301 126.036 202.475C124.49 199.384 121.848 192.984 118.709 185.381C111.872 168.819 102.677 146.548 97.3294 140.342C95.7918 138.557 94.4685 136.919 93.2276 135.383C88.1733 129.126 84.4426 124.508 72.7651 118.089C58.2192 110.094 42.7101 104.218 30.7651 105.085C21.2091 105.778 10.921 109.869 6.97144 111.828ZM326.847 353.32C322.743 337.01 310.501 306.396 289.123 296.108C285.677 294.45 282.55 292.921 279.67 291.512C258.954 281.383 250.978 277.483 228.82 276.553C220.525 276.205 211.011 278.208 201.375 280.238C181.694 284.383 161.5 288.637 150.118 273.181C136.555 254.763 128.412 239.177 126.036 233.686C132.554 244.218 149.078 265.841 163.027 268.076C172.74 269.632 184.427 268.109 197.122 266.454C207.213 265.139 217.941 263.741 228.82 263.741L229.303 263.741C245.477 263.739 269.123 263.736 292.013 282.525C309.667 297.016 322.172 334.19 326.847 353.32ZM148.192 530.769C153.426 537.608 166.283 553.04 175.839 560.053C177.512 561.281 179.151 562.539 180.784 563.792C190.809 571.484 200.679 579.057 217.742 579.223C218.076 579.226 218.406 579.229 218.734 579.233L219.304 579.239C220.098 579.248 220.876 579.257 221.639 579.266C238.943 579.469 248.462 579.581 262.921 572.576C269.416 569.429 276.265 561.891 283.307 554.141C293.08 543.384 303.224 532.22 313.302 531.828C327.174 531.289 333.339 531.603 334.687 531.828C329.132 529.902 316.096 526.626 308.389 528.938C298.756 531.828 279.297 544.736 264.944 557.067C250.591 569.397 208.784 571.035 189.228 560.053C173.584 551.268 155.352 536.869 148.192 530.769ZM365.128 656.672C355.88 651.201 352.669 633.328 352.219 625.076C352.829 626.521 355.052 631.164 359.059 638.177C364.068 646.943 371.678 653.493 387.284 658.503C399.768 662.51 415.733 658.952 422.155 656.672C419.49 657.796 411.983 660.603 403.274 662.837C392.389 665.631 376.687 663.512 365.128 656.672ZM339.504 468.828C350.261 470.562 374.433 473.78 385.068 472.778C398.362 471.525 412.137 476.246 415.99 485.012C419.843 493.778 422.733 501.195 421.674 514.296C420.826 524.777 413.807 537.929 410.403 543.195C414.481 533.402 421.866 511.734 418.784 503.411C418.39 502.349 418.022 501.339 417.671 500.376L417.664 500.357L417.662 500.352C414.579 491.895 412.811 487.047 406.935 482.122C402.116 478.082 389.11 476.91 377.279 475.844C373.029 475.461 368.93 475.092 365.417 474.608C354.782 473.144 344.096 470.145 339.504 468.828ZM484.674 543.195C486.761 532.31 492.322 508.478 497.871 500.232C498.859 498.763 499.808 497.318 500.733 495.911L500.738 495.903L500.74 495.899C506.297 487.437 510.945 480.36 517.715 477.883C525.614 474.993 535.151 474.03 543.242 479.328C551.334 484.626 561.738 498.113 561.834 500.232C561.881 501.264 562.24 502.277 562.615 503.05C560.875 500.583 556.442 496.74 548.155 495.03C536.018 492.525 530.527 492.429 522.339 495.897C514.151 499.365 501.628 511.599 496.908 520.269C493.131 527.204 487.178 538.443 484.674 543.195ZM479.664 609.856C483.357 601.411 491.59 581.785 494.981 570.842C498.372 559.899 500.953 552.411 501.82 550.035C502.302 554.819 501.82 566.025 492.187 595.695C489.167 604.997 485.68 606.777 481.102 609.114C480.634 609.352 480.155 609.597 479.664 609.856ZM349.04 572.576C353.356 562.018 356.554 549.746 357.614 544.929C358.096 545.25 359.059 546.856 359.059 550.709C359.059 555.525 354.05 571.613 349.04 584.81C345.033 595.368 347.371 610.145 349.04 616.214C348.43 615.314 346.651 610.8 344.417 599.934C342.095 588.645 343.1 586.339 346.603 578.306C347.315 576.673 348.13 574.805 349.04 572.576Z" fill="url(#paint7_linear_84_1005)"/>
<path d="M-39.9363 206.051C-43.2501 190.407 -42.2161 187.138 -41.2849 187.459C-40.8354 176.638 -38.318 151.624 -31.8447 138.138C-25.3714 124.651 -6.09242 117.619 2.7379 115.789C13.5269 116.014 41.0388 118.621 64.7746 127.252C88.5104 135.884 85.2609 180.234 80.6691 201.33C85.6783 198.665 95.7545 194.221 95.9856 197.766C96.2168 201.311 95.3113 214.913 94.8297 221.271C91.7792 226.216 84.4645 237.377 79.6095 242.463C74.7544 247.55 70.9719 248.307 69.6875 248.051C70.3297 272.358 74.2343 322.649 84.715 329.353C95.1957 336.058 119.458 337.709 130.279 337.696C153.18 337.175 166.886 344.243 176.614 350.257C187.21 356.808 192.605 385.418 192.798 398.711C192.99 412.005 194.435 447.358 196.844 459.785C198.77 469.726 204.586 482.101 207.253 487.046C210.862 483.178 214.348 479.126 217.266 474.812C226.128 461.711 229.371 430.327 229.885 416.273C226.151 412.468 226.107 408.274 223.238 402.275C220.059 395.629 218.903 389.078 217.266 385.032C215.955 381.796 212.16 379.895 210.426 379.349C211.614 380.537 214.125 383.414 214.665 385.418C215.204 387.421 213.091 386.252 211.967 385.418C206.541 383.812 195.437 379.522 194.435 375.207C193.183 369.812 195.784 359.408 196.844 355.363C197.903 351.317 200.215 351.895 198.963 351.702C197.71 351.509 198.096 347.367 197.71 343.707C197.325 340.046 199.348 338.89 198.963 338.023C198.577 337.156 199.731 334.944 201.564 332.436C203.268 330.103 202.327 328.3 203.176 327.726C201.433 328.556 197.428 330.028 193.665 330.028C188.752 330.028 191.834 327.234 188.463 327.619C185.766 327.928 185.669 326.463 185.958 325.693C190.871 324.087 201.525 320.356 204.839 318.275C208.981 315.674 210.715 313.074 213.22 312.399C215.223 311.86 221.504 312.174 224.394 312.399C224.683 312.335 225.338 311.07 225.646 306.523C225.955 301.976 229.307 299.106 230.944 298.239C231.073 296.505 231.715 293.364 233.256 294.674C234.798 295.985 236.467 313.138 237.11 321.551C241.123 329.835 250.037 349.506 253.582 361.913C257.127 374.32 257.307 406.129 256.954 420.482C255.541 436.441 251.944 472.096 248.862 487.046C245.779 501.997 236.532 523.074 232.293 531.743C221.087 550.464 197.325 587.018 191.931 583.473C185.188 579.042 178.348 562.665 176.807 546.097C175.266 529.528 161.972 496.872 157.252 479.629C153.476 465.834 151.697 453.127 151.279 448.498C147.582 451.353 143.353 453.71 140.683 454.968C141.261 465.468 142.455 488.838 142.61 498.317C142.802 510.165 140.009 529.335 145.692 543.207C151.376 557.078 160.334 595.321 170.353 617.381C180.371 639.441 198.866 651.289 214.857 671.904C230.848 692.519 264.467 736.445 293.27 775.652C316.312 807.017 342.367 855.895 352.513 876.413L110.146 951.069C93.2242 930.487 54.9104 882.578 37.0315 855.606C14.6828 821.89 14.0085 779.216 14.0085 739.528C14.0085 699.84 21.6186 651 23.1599 631.06C24.7012 611.12 23.8342 598.404 23.1599 573.743C22.4856 549.083 -18.6474 490.707 -31.1704 476.064C-43.6933 461.422 -71.2438 406.707 -75.4823 405.454C-79.7209 404.202 -107.175 425.491 -112.762 436.087C-117.232 444.564 -154.184 487.271 -172.102 507.564C-167.992 511.771 -158.018 522.708 -151.005 532.803C-142.239 545.422 -112.569 572.78 -103.803 579.331C-95.0374 585.881 -86.8493 587.519 -77.6016 594.358C-68.5829 601.028 -60.7552 617.043 -54.3866 630.073L-53.9043 631.06C-47.4502 644.257 -32.3263 656.01 -30.1107 657.165C-27.8951 658.321 -19.8997 682.789 -19.3217 684.427C-18.7438 686.065 -19.8034 689.532 -20.5741 691.748C-21.3447 693.964 -25.0052 712.363 -29.3401 717.661C-32.808 721.899 -32.1979 718.528 -31.4594 716.312C-32.0373 713.583 -33.1741 707.142 -33.097 703.211C-33.0007 698.298 -28.5695 690.977 -28.5695 686.161C-28.5695 682.308 -32.808 674.409 -34.9273 670.941L-39.4548 663.523C-40.1291 663.909 -41.5548 665.565 -41.8631 669.11C-42.1713 672.655 -44.3676 683.046 -45.4273 687.798C-46.0374 688.376 -47.9319 689.648 -50.6291 690.11C-53.3264 690.573 -55.7988 689.918 -56.6979 689.532C-57.3722 689.789 -59.5108 690.438 -62.6704 690.977C-65.83 691.517 -69.0603 690.239 -70.2805 689.532C-70.6016 689.693 -71.6676 690.207 -73.3631 690.977C-75.0585 691.748 -82.0328 691.298 -85.308 690.977C-86.9456 689.757 -86.9071 682.905 -87.9089 678.743C-88.9108 674.582 -83.57 672.418 -82.3819 673.349C-84.8869 665.111 -88.9803 655.914 -90.2209 653.601C-95.808 646.922 -107.734 632.505 -110.739 628.266C-114.496 622.968 -113.725 615.84 -114.881 609.482C-116.037 603.124 -130.487 595.418 -137.615 590.601C-144.744 585.785 -160.638 579.523 -173.932 573.358C-184.567 568.426 -203.088 552.743 -211.019 545.519C-217.441 539.899 -230.285 527.524 -230.285 522.977C-230.285 517.294 -222.29 498.317 -211.019 478.569C-199.748 458.821 -176.725 428.863 -157.17 412.294C-137.615 395.725 -127.501 374.051 -122.684 366.441C-117.868 358.83 -98.6016 332.532 -96.2897 329.064C-93.9778 325.596 -76.6383 319.528 -65.753 323.188C-57.0447 326.117 -32.2621 326.335 -20.9594 326.078C-10.941 323.413 10.1939 317.832 14.5865 316.83C18.9792 315.829 18.1507 296.441 17.1874 286.872C16.2241 287.61 12.7563 289.164 6.59113 289.473C-1.11531 289.858 -20.1887 268.473 -28.8585 252.289C-37.5282 236.106 -35.7941 225.606 -39.9363 206.051Z" fill="#FFECE3"/>
<path d="M17.1874 286.872C16.2241 287.61 12.7563 289.164 6.59112 289.473C-1.11531 289.858 -20.1887 268.473 -28.8585 252.289C-37.5282 236.106 -35.7941 225.606 -39.9363 206.051C-43.2501 190.407 -42.2161 187.138 -41.2849 187.459C-40.8354 176.638 -38.318 151.624 -31.8447 138.138C-25.3714 124.651 -6.09242 117.619 2.73789 115.789C13.5269 116.014 41.0388 118.621 64.7746 127.252C88.5104 135.884 85.2609 180.234 80.6691 201.33C85.6783 198.665 95.7544 194.221 95.9856 197.766C96.2168 201.311 95.3113 214.913 94.8297 221.271C91.7792 226.216 84.4645 237.377 79.6095 242.463C74.7544 247.55 70.9719 248.307 69.6875 248.051C70.3297 272.358 74.2343 322.649 84.715 329.353C95.1957 336.058 119.458 337.709 130.279 337.696M17.1874 286.872C18.1507 296.441 18.9792 315.829 14.5865 316.83C10.1939 317.832 -10.941 323.413 -20.9594 326.078M17.1874 286.872C28.9397 280.835 53.3884 267.49 57.1645 262.404C60.9407 257.318 65.0315 252.129 66.6049 250.17M-20.9594 326.078C-32.2621 326.335 -57.0447 326.117 -65.753 323.188C-76.6383 319.528 -93.9777 325.596 -96.2897 329.064C-98.6016 332.532 -117.868 358.83 -122.684 366.441C-127.501 374.051 -137.615 395.725 -157.17 412.294C-176.725 428.863 -199.748 458.821 -211.019 478.569C-222.29 498.317 -230.285 517.294 -230.285 522.977C-230.285 527.524 -217.441 539.899 -211.019 545.519C-203.088 552.743 -184.567 568.426 -173.932 573.358C-160.638 579.523 -144.744 585.785 -137.615 590.601C-130.487 595.418 -116.037 603.124 -114.881 609.482C-113.725 615.84 -114.496 622.968 -110.739 628.266C-107.734 632.505 -95.808 646.922 -90.2209 653.601C-88.3264 657.133 -79.7787 676.72 -80.3952 684.427C-81.0117 692.133 -81.3544 674.601 -82.3819 673.349C-83.57 672.418 -88.9108 674.582 -87.9089 678.743C-86.9071 682.905 -86.9456 689.757 -85.308 690.977C-82.0328 691.298 -75.0585 691.748 -73.3631 690.977C-71.6676 690.207 -70.6016 689.693 -70.2805 689.532M-20.9594 326.078C-9.84926 329.032 14.4709 334.806 22.8709 334.266C33.3709 333.592 40.4031 343.418 47.1462 344.188M-70.2805 689.532C-69.0603 690.239 -65.83 691.517 -62.6704 690.977C-59.5107 690.438 -57.3722 689.789 -56.6979 689.532M-70.2805 689.532C-69.1245 688.344 -66.5043 684.523 -65.2713 678.743C-63.73 671.519 -60.6475 660.73 -59.3952 659.574C-58.3933 658.649 -57.7575 657.583 -57.5649 657.165M-56.6979 689.532C-55.7988 689.918 -53.3264 690.573 -50.6291 690.11C-47.9319 689.648 -46.0374 688.376 -45.4273 687.798C-44.3676 683.046 -42.1713 672.655 -41.863 669.11C-41.5548 665.565 -40.1291 663.909 -39.4548 663.523L-34.9273 670.941C-32.808 674.409 -28.5695 682.308 -28.5695 686.161C-28.5695 690.977 -33.0007 698.298 -33.097 703.211C-33.1741 707.142 -32.0373 713.583 -31.4594 716.312C-32.1979 718.528 -32.808 721.899 -29.3401 717.661C-25.0052 712.363 -21.3447 693.964 -20.574 691.748C-19.8034 689.532 -18.7438 686.065 -19.3217 684.427C-19.8997 682.789 -27.8951 658.321 -30.1107 657.165C-32.3263 656.009 -47.4502 644.257 -53.9043 631.06C-60.3585 617.863 -68.3539 601.197 -77.6016 594.358C-86.8493 587.519 -95.0374 585.881 -103.803 579.331C-112.569 572.78 -142.239 545.422 -151.005 532.803C-158.018 522.708 -167.992 511.771 -172.102 507.564M-56.6979 689.532C-55.4777 688.376 -52.8832 684.6 -52.2667 678.743C-51.4961 671.422 -48.1245 659.766 -46.7759 658.899M-172.102 507.564C-154.184 487.271 -117.232 444.564 -112.762 436.087C-107.175 425.491 -79.7209 404.202 -75.4823 405.454M-172.102 507.564C-173.418 505.381 -177.843 499.781 -185.01 494.849C-192.177 489.917 -198.079 488.17 -200.134 487.913M-75.4823 405.454C-71.2438 406.707 -43.6933 461.422 -31.1704 476.064C-18.6474 490.707 22.4856 549.083 23.1599 573.743C23.8342 598.404 24.7012 611.12 23.1599 631.06C21.6186 651 14.0085 699.84 14.0085 739.528C14.0085 779.216 14.6829 821.89 37.0315 855.606C54.9104 882.578 93.2242 930.487 110.146 951.069L352.513 876.413C342.366 855.895 316.312 807.017 293.27 775.652C264.467 736.445 230.848 692.519 214.857 671.904C198.866 651.289 180.371 639.441 170.353 617.381C160.334 595.321 151.376 557.078 145.692 543.207C140.009 529.335 142.802 510.165 142.61 498.317C142.455 488.838 141.261 465.468 140.683 454.968M-75.4823 405.454C-72.0144 404.041 -63.942 401.351 -59.3952 401.89M140.683 454.968C143.353 453.71 147.582 451.353 151.279 448.498M140.683 454.968C140.201 455.257 137.273 455.989 129.412 456.606C121.552 457.222 112.394 453.266 108.798 451.211M133.554 373.569C133.298 377.165 135.462 388.327 146.174 404.202C159.564 424.046 161.009 432.427 158.408 440.133C157.429 443.034 154.564 445.962 151.279 448.498M151.279 448.498C151.697 453.127 153.476 465.834 157.252 479.629C161.972 496.872 175.266 529.528 176.807 546.097C178.348 562.665 185.188 579.042 191.931 583.473C197.325 587.018 221.087 550.464 232.293 531.743C236.532 523.074 245.779 501.997 248.862 487.046C251.944 472.096 255.541 436.441 256.954 420.482C257.307 406.129 257.127 374.32 253.582 361.913C250.037 349.506 241.123 329.835 237.11 321.551C236.467 313.138 234.798 295.985 233.256 294.674C231.715 293.364 231.073 296.505 230.944 298.239C229.307 299.106 225.955 301.976 225.646 306.523C225.338 311.07 224.683 312.335 224.394 312.399M224.394 312.399C221.504 312.174 215.223 311.86 213.22 312.399C210.715 313.074 208.981 315.674 204.839 318.275C201.525 320.356 190.871 324.087 185.958 325.693C185.669 326.463 185.765 327.928 188.463 327.619C191.834 327.234 188.752 330.028 193.665 330.028C197.595 330.028 201.788 328.422 203.394 327.619M224.394 312.399C227.766 317.119 235.029 326.907 237.11 328.294M203.394 327.619C202.174 328.037 203.394 329.931 201.564 332.436C199.731 334.944 198.577 337.156 198.963 338.023M203.394 327.619C204.1 326.207 206.284 323.362 209.366 323.285C213.22 323.188 228.44 339.564 232.293 341.78C235.673 343.724 238.683 344.638 239.71 344.959M198.963 338.023C199.348 338.89 197.325 340.046 197.71 343.707C198.096 347.367 197.71 351.509 198.963 351.702M198.963 338.023C199.573 336.931 201.487 334.998 204.261 336C207.729 337.252 216.977 345.055 224.105 348.908C229.808 351.991 235.151 354.496 237.11 355.363M198.963 351.702C200.215 351.895 197.903 351.317 196.844 355.363C195.784 359.408 193.183 369.812 194.435 375.207C195.437 379.522 206.541 383.812 211.967 385.418C213.091 386.252 215.204 387.421 214.665 385.418C214.125 383.414 211.614 380.537 210.426 379.349M198.963 351.702C200.183 351.445 203.24 351.374 205.706 353.147C208.788 355.363 223.334 369.523 227.091 371.546C230.097 373.164 231.811 373.697 232.293 373.762M210.426 379.349C212.16 379.895 215.955 381.796 217.266 385.032C218.903 389.078 220.059 395.629 223.238 402.275C226.107 408.274 226.151 412.468 229.885 416.273M210.426 379.349C207.697 377.358 202.026 373.01 201.178 371.546M243.082 422.119C240.834 421.959 235.318 420.809 231.233 417.496C230.735 417.091 230.288 416.685 229.885 416.273M229.885 416.273C229.371 430.327 226.128 461.711 217.266 474.812C214.348 479.126 210.862 483.178 207.253 487.046M181.045 535.115C180.949 533.349 181.373 527.216 183.839 516.812C186.11 507.233 197.161 497.863 207.253 487.046M207.253 487.046C204.586 482.101 198.77 469.726 196.844 459.785C194.435 447.358 192.99 412.005 192.798 398.711C192.605 385.418 187.21 356.808 176.614 350.257C166.886 344.244 153.18 337.175 130.279 337.696M65.7379 342.262C68.6278 342.262 73.637 338.023 80.9581 336C88.2792 333.977 97.1416 340.142 123.921 338.023C126.116 337.849 128.235 337.742 130.279 337.696M-42.441 405.454C-38.5557 403.913 -28.8199 404.761 -20.9594 420.482C-11.1337 440.133 -4.29423 445.304 3.21954 448.498M63.9077 434.257C65.8343 430.873 69.6875 422.539 69.6875 416.273M103.692 586.856C103.05 590.741 102.151 599.34 103.692 602.654C105.233 605.968 107.738 608.915 108.798 609.975L106.293 597.837" stroke="#EDD1BF" stroke-width="1.6"/>
<path d="M-44.3492 141.498C-31.6336 112.753 -4.82164 109.741 6.99487 111.828C10.9444 109.869 21.2326 105.778 30.7885 105.085C42.7335 104.218 58.2427 110.094 72.7886 118.089C87.3344 126.085 89.55 131.287 97.3528 140.342C105.156 149.397 121.146 192.649 126.059 202.475L91.6693 191.397L86.5638 199.103C83.3207 202.411 76.0253 209.025 72.7886 209.025C68.7427 209.025 63.1555 205.268 38.8803 188.507C19.4601 175.098 5.59502 159.94 1.00328 151.817C-0.730667 162.284 -2.48395 182.843 5.06834 199.103C14.5087 219.429 29.0546 248.617 45.4308 266.727C61.8069 284.837 72.8657 295.06 82.6914 300.732L86.5638 304.296L76.8344 300.732C70.3482 297.071 55.3913 287.746 47.4537 279.732C37.5317 269.713 -4.68021 213.468 -8.89955 185.81C-12.2714 163.707 -14.538 158.72 -12.0976 151.817C-22.2444 163.472 -28.9555 168.856 -40.2261 202.475C-44.1968 214.319 -39.4042 232.305 -38.5693 240.429C-38.6977 241.681 -38.3381 248.694 -35.872 266.727C-33.406 284.76 -17.7619 305.452 -10.2482 313.544C-11.0509 312.966 -14.0243 310.557 -19.4959 305.548C-24.9674 300.539 -41.8124 276.232 -49.551 264.704C-53.9501 257.447 -63.4997 239.427 -66.5052 225.401C-70.262 207.869 -60.2437 177.429 -44.3492 141.498Z" fill="url(#paint8_linear_84_1005)"/>
<path d="M27.8716 215.78C24.2496 215.626 19.9083 215.041 18.6239 213.661L16.6973 215.395L19.8762 215.78L18.6239 218.573L21.8991 216.647V219.151L25.8486 217.706L27.0046 219.151L31.4358 218.188L32.7844 218.573L34.711 217.706H36.3487L37.7936 216.261L39.4312 217.032L41.2615 215.106L43.8624 217.032V214.335L47.523 215.106L43.8624 212.697C39.9771 214.206 31.4936 215.934 27.8716 215.78Z" fill="#D0A8A8"/>
<path d="M79.7967 213.083C82.1086 211.188 87.2526 207.399 89.3334 207.399C91.4141 207.399 90.2004 215.555 89.3334 219.633C88.338 222.523 85.0371 229.285 79.7967 233.216C74.5563 237.146 71.8334 239.798 71.127 240.633" stroke="#EDD1BF" stroke-width="1.5"/>
<path d="M13.0293 194.745C13.6283 194.19 16.8927 193.413 25.1587 194.745C33.4247 196.077 41.5808 196.479 44.6256 196.514" stroke="#D0A8A8" stroke-width="1.5"/>
<path d="M-6.41797 264.427C-6.06476 263.977 -3.68219 263.348 3.0224 264.427C9.72699 265.506 14.9353 265.904 16.7013 265.968" stroke="#D0A8A8" stroke-width="1.5"/>
<path d="M75.0353 459.443C76.1592 464.878 76.8072 477.504 70.4088 484.535C68.3292 491.841 61.399 506.35 50.3149 505.94C43.5736 508.777 28.1495 511.817 20.3839 501.287C11.4651 492.652 16.1282 475.659 27.79 489.102L34.9313 487.549L37.3013 482.922C36.605 479.94 35.6009 473.775 37.1543 472.967C38.3799 472.33 35.801 470.789 33.4431 469.662C32.8123 469.361 32.1973 469.089 31.6752 468.871C30.7376 466.53 29.1486 461.666 30.2939 460.947C31.5255 460.174 24.0269 456.518 24.6833 446.306C24.7899 444.647 25.1119 442.814 25.7216 440.793C25.5551 439.514 25.2503 437.711 24.8043 435.706C23.8561 431.442 22.2694 426.261 20.0137 423.236C20.0193 422.255 20.761 420.841 23.6831 423.025L15.0951 410.206C14.9306 409.263 15.5758 408.104 19.472 411.017C19.2088 410.587 18.8688 410.061 18.4661 409.473C16.6026 406.754 13.3972 402.706 10.2584 400.684C6.44107 398.224 17.027 399.016 22.7971 399.72C22.704 398.173 23.5348 395.447 27.6023 396.913C31.6698 398.378 44.6488 403.585 51.0824 407.081C51.2601 407.117 51.4438 407.16 51.6331 407.208C57.8741 408.805 70.1035 417.003 70.1019 431.143C71.1827 433.006 72.4882 435.626 73.6498 438.596C76.284 445.332 78.1786 453.868 75.0353 459.443Z" fill="#D1593E" fill-opacity="0.4"/>
<path d="M21.0435 424.189C21.0491 423.208 21.7908 421.794 24.713 423.978L16.1249 411.159C15.9605 410.216 16.6056 409.057 20.5018 411.97C20.2387 411.54 19.8986 411.014 19.4959 410.426C17.6325 407.706 14.4271 403.659 11.2882 401.637C7.47092 399.177 18.0568 399.969 23.827 400.673C23.7339 399.126 24.5646 396.4 28.6321 397.865C32.6996 399.331 45.6786 404.537 52.1122 408.034C52.2899 408.07 52.4737 408.112 52.6629 408.161C44.5007 409.109 38.3696 413.909 34.0045 419.578C31.9906 422.193 30.3527 424.993 29.0646 427.686C27.4644 431.031 26.4042 434.209 25.8341 436.658C24.886 432.395 23.2992 427.214 21.0435 424.189Z" fill="#D1593E" fill-opacity="0.4"/>
<path d="M70.4716 484.842C68.392 492.148 61.4618 506.657 50.3778 506.248C43.6364 509.084 28.2123 512.125 20.4468 501.594C11.5279 492.959 16.191 475.966 27.8528 489.41L34.9941 487.857L37.3642 483.229C44.5553 484.995 61.2443 487.789 70.4716 484.842Z" fill="#D1593E" fill-opacity="0.4"/>
<path d="M33.5059 469.969C35.8638 471.096 38.4427 472.637 37.2171 473.274C47.2884 470.301 68.9643 463.434 75.0982 459.751L33.5059 469.969Z" fill="#D1593E" fill-opacity="0.4"/>
<path d="M73.7126 438.904C72.551 435.933 67.7239 425.267 66.6432 423.405C69.0112 436.989 56.6706 439.084 41.2173 450.669C28.8546 459.937 25.0854 451.827 24.7461 446.613C24.0898 456.825 31.5883 460.482 30.3567 461.255C43.9792 451.831 71.7218 434.167 73.7126 438.904Z" fill="#D1593E" fill-opacity="0.4"/>
<path d="M22.5837 424.756C23.1907 425.212 25.1592 431.441 25.7897 434.046L27.9624 428.286C26.9589 425.567 21.7238 424.111 22.5837 424.756Z" fill="#FFAB99" fill-opacity="0.4"/>
<path d="M25.4454 422.959L28.588 425.8L32.7024 419.031C29.8726 414.947 21.4973 412.46 17.6634 411.727L25.4454 422.959Z" fill="#FFAB99" fill-opacity="0.4"/>
<path d="M34.1341 418.132C32.2918 412.423 23.8902 409.981 19.9197 409.474C17.3853 407.088 13.7468 401.417 12.6294 401.072C11.7344 400.797 20.2041 400.992 23.8351 401.573C29.7718 404.042 36.3222 409.432 38.1331 413.738L34.1341 418.132Z" fill="#FFAB99" fill-opacity="0.4"/>
<path d="M30.9175 461.72C29.7721 462.439 31.7779 466.089 32.7156 468.431C33.2377 468.648 33.9517 468.773 34.5825 469.074L74.6117 459.43C77.7549 453.854 76.0189 445.771 73.3846 439.035C71.3938 434.298 44.5399 452.296 30.9175 461.72Z" fill="#FFAB99" fill-opacity="0.4"/>
<path d="M27.0028 441.027C26.393 443.048 26.2668 444.536 26.1602 446.196C26.4994 451.409 29.0079 459.947 41.3705 450.68C56.8239 439.095 69.1644 437 66.7964 423.415C64.902 412.548 55.0378 412.657 50.3425 414.069C43.2941 417.168 29.6105 426.831 27.0028 441.027Z" fill="#FFAB99" fill-opacity="0.4"/>
<path d="M61.2902 428.091C58.3396 438.117 43.2187 442.923 32.5033 446.297C30.1263 447.046 27.5147 449.568 29.1955 451.33C29.8798 452.047 30.8907 452.224 31.6029 452.17C52.3635 442.486 60.7303 437.025 64.2355 429.8C65.569 428.335 63.3326 421.151 61.2902 428.091Z" fill="#FFD9D1" fill-opacity="0.8"/>
<path d="M71.8218 452.697C68.5103 458.747 58.1124 459.661 50.2594 460.149C47.8291 460.301 44.8446 462.769 47.0434 463.84C47.281 463.956 47.5231 464.028 47.7343 464.063C63.5753 460.989 70.178 458.688 73.6366 454.362C74.7723 453.59 74.2201 448.316 71.8218 452.697Z" fill="#FFD9D1" fill-opacity="0.8"/>
<path d="M39.3831 481.613C38.4879 481.338 38.495 476.519 38.6105 474.144L71.8942 463.517C72.5458 463.309 73.1825 463.798 73.1414 464.484C72.782 470.501 71.7247 481.35 69.2327 482.76C65.8592 484.668 40.502 481.957 39.3831 481.613Z" fill="#FFAB99" fill-opacity="0.4"/>
<path d="M68.5056 476.591C65.3354 480.44 57.8302 479.588 51.9946 478.694C49.8591 478.367 47.0781 480.311 49.1061 481.116C61.2819 481.413 66.4918 480.779 69.6338 478.125C70.5797 477.736 70.867 473.724 68.5056 476.591Z" fill="#FFD9D1" fill-opacity="0.8"/>
<path d="M37.8451 484.887L36.3967 488.726C45.3627 506.75 51.3854 504.853 55.3676 503.4C58.5757 502.229 64.1556 495.121 67.1633 489.588C67.6194 488.749 66.669 487.656 65.7442 487.78C59.0532 488.674 44.6335 486.593 37.8451 484.887Z" fill="#FFAB99" fill-opacity="0.4"/>
<path d="M58.5396 499.094C54.3941 502.926 50.4843 502.264 46.7279 499.078C45.4765 498.017 42.8371 498.884 44.2915 499.582C51.5896 504.273 51.9575 504.046 54.6479 502.384L54.6571 502.379C55.456 502.182 60.5969 497.193 58.5396 499.094Z" fill="#FFD9D1" fill-opacity="0.8"/>
<path d="M24.6628 400.22C29.8756 400.966 36.7727 408.944 39.5696 412.84L48.6698 407.336C44.3971 406.111 35.9846 402.809 32.1004 400.365C27.9376 397.745 25.6886 399.017 24.6628 400.22Z" fill="#FFAB99" fill-opacity="0.4"/>
<path d="M33.8349 489.281L28.2237 490.501L22.2493 501.787C27.343 509.139 41.1334 507.863 47.392 506.307C40.9548 505.826 35.6718 494.756 33.8349 489.281Z" fill="#FFAB99" fill-opacity="0.4"/>
<path d="M18.7624 487.859C20.1714 483.793 24.5052 487.393 26.496 489.702L20.2256 499.29C19.1508 497.173 17.3534 491.925 18.7624 487.859Z" fill="#FFAB99" fill-opacity="0.4"/>
<path d="M41.0032 505.557C33.9361 505.621 30.2856 504.961 26.7045 501.908C25.4556 500.843 22.8177 501.708 24.2721 502.406C31.5785 507.102 33.2273 507.038 35.806 506.099C36.6049 505.903 43.6768 505.533 41.0032 505.557Z" fill="#FFD9D1" fill-opacity="0.8"/>
<path d="M19.9141 494.657C19.1715 494.102 18.9643 492.591 19.0042 490.942C19.0302 489.868 20.2279 489.793 20.3846 490.848C20.7444 493.27 20.8176 495.332 19.9141 494.657Z" fill="#FFD9D1" fill-opacity="0.8"/>
<path d="M83.6545 458.205C84.5087 463.698 87.5288 475.808 92.7748 480.307C95.8166 486.499 103.334 497.867 109.07 493.8C113.38 494.234 122.323 491.976 123.614 479.476C126.018 468.379 119.035 453.919 116.465 470.456L112.285 471.365L109.804 467.793C109.377 464.752 108.265 458.61 107.231 458.365C106.415 458.172 107.364 455.864 108.308 454.019C108.56 453.525 108.812 453.065 109.029 452.687C108.9 450.17 108.444 445.06 107.648 444.763C106.793 444.444 109.773 438.509 106.708 429.106C106.21 427.578 105.553 425.959 104.693 424.257C104.44 422.997 104.121 421.197 103.822 419.16C103.187 414.828 102.644 409.42 103.028 405.821C102.764 404.899 101.997 403.813 101.037 406.841L102.153 391.912C101.989 390.969 101.34 390.092 100.061 394.129C100.085 393.637 100.124 393.029 100.18 392.341C100.439 389.16 101.051 384.282 102.168 381.335C103.526 377.75 98.1549 382.011 95.2995 384.59C94.9368 383.103 93.7729 380.81 92.0182 383.542C90.2635 386.273 84.8056 395.488 82.344 400.919C82.2599 401.012 82.1743 401.113 82.0874 401.222C79.2216 404.799 74.9554 416.583 78.7211 429.904C78.647 432.018 78.6563 434.92 78.8346 438.104C79.2389 445.325 80.5125 453.996 83.6545 458.205Z" fill="#D1593E" fill-opacity="0.4"/>
<path d="M102.73 407.057C102.466 406.136 101.698 405.049 100.739 408.078L101.854 393.149C101.69 392.205 101.041 391.328 99.762 395.366C99.7863 394.873 99.8256 394.265 99.8815 393.578C100.14 390.396 100.753 385.519 101.869 382.571C103.227 378.986 97.8561 383.248 95.0007 385.827C94.6381 384.339 93.4742 382.047 91.7194 384.778C89.9647 387.51 84.5068 396.725 82.0452 402.156C81.9612 402.249 81.8755 402.35 81.7886 402.458C86.3451 400.64 90.8562 403.126 94.6673 407.017C96.4257 408.813 98.035 410.907 99.4311 413.016C101.165 415.636 102.571 418.278 103.524 420.396C102.888 416.065 102.346 410.656 102.73 407.057Z" fill="#D1593E" fill-opacity="0.4"/>
<path d="M93.3153 480.533C96.3445 486.731 103.826 498.112 109.518 494.053C113.8 494.493 122.681 492.249 123.948 479.749C126.322 468.655 119.368 454.181 116.835 470.717L112.685 471.62L110.215 468.043C106.92 472.09 98.9274 480.253 93.3153 480.533Z" fill="#D1593E" fill-opacity="0.4"/>
<path d="M108.712 454.265C107.777 456.109 106.837 458.416 107.648 458.61C101.587 459.145 88.4175 459.853 84.2286 458.413L108.712 454.265Z" fill="#D1593E" fill-opacity="0.4"/>
<path d="M79.4161 438.303C79.235 435.118 78.9281 423.464 78.999 421.35C81.3681 434.94 88.3837 432.827 99.5491 438.627C108.481 443.267 108.3 434.373 107.093 429.346C110.149 438.755 107.195 444.686 108.045 445.007C98.4121 440.637 79.1998 433.178 79.4161 438.303Z" fill="#D1593E" fill-opacity="0.4"/>
<path d="M102.06 408.109C101.861 408.74 102.482 415.263 102.843 417.926L100.164 413.221C99.9689 410.326 102.342 407.216 102.06 408.109Z" fill="#FFAB99" fill-opacity="0.4"/>
<path d="M100.073 407.366L99.172 411.087L95.2 406.076C95.6048 401.288 99.3591 396.164 101.186 394.2L100.073 407.366Z" fill="#FFAB99" fill-opacity="0.4"/>
<path d="M94.2058 405.705C93.6573 399.715 97.4374 394.624 99.3961 392.827C100.097 389.737 100.506 383.187 101.004 382.491C101.402 381.934 96.9877 384.931 95.2278 386.684C92.7546 390.981 90.7356 398.235 90.927 402.893L94.2058 405.705Z" fill="#FFAB99" fill-opacity="0.4"/>
<path d="M107.152 445.117C107.947 445.414 108.375 450.571 108.504 453.089C108.286 453.467 107.973 453.788 107.72 454.282L84.3296 458.349C81.1876 454.14 79.5789 445.178 79.1745 437.957C78.9632 432.834 97.4594 440.763 107.152 445.117Z" fill="#FFAB99" fill-opacity="0.4"/>
<path d="M104.658 424.625C105.517 426.327 106.175 427.947 106.673 429.474C107.882 434.499 108.054 443.391 99.0671 438.765C87.8338 432.983 80.7683 435.107 78.4003 421.523C76.5059 410.656 81.7363 407.482 84.5884 407.253C89.1303 407.832 99.5027 412.117 104.658 424.625Z" fill="#FFAB99" fill-opacity="0.4"/>
<path d="M82.5356 424.102C86.3311 431.707 94.1838 432.082 100.489 431.805C103.186 431.686 106.516 433.31 105.491 435.883C105.265 436.449 104.904 436.784 104.601 436.928C91.0755 434.699 85.2094 432.333 81.4376 426.691C80.3444 425.754 79.6108 418.242 82.5356 424.102Z" fill="#FFD9D1" fill-opacity="0.8"/>
<path d="M83.535 450.783C86.5353 454.894 91.4289 453.261 95.4842 451.333C97.652 450.303 101.148 451.587 99.2629 453.491C90.0912 455.856 85.9968 455.881 83.0211 452.954C82.2167 452.604 81.1038 447.452 83.535 450.783Z" fill="#FFD9D1" fill-opacity="0.8"/>
<path d="M108.358 467.251C108.756 466.694 107.47 462.157 106.776 459.958L86.923 460.972C86.2573 461.006 85.7871 461.679 85.992 462.314C87.7826 467.861 91.2319 477.743 92.9225 478.244C95.2095 478.921 107.859 467.947 108.358 467.251Z" fill="#FFAB99" fill-opacity="0.4"/>
<path d="M91.6429 472.192C94.2046 474.637 97.6996 471.784 100.477 469.11C101.773 467.862 104.135 468.241 103.077 470.012C96.7359 474.335 93.8197 475.468 91.4563 474.011C90.854 473.959 89.6343 470.275 91.6429 472.192Z" fill="#FFD9D1" fill-opacity="0.8"/>
<path d="M110.027 469.822L111.813 472.958C111.884 492.916 108.203 493.129 105.716 493.082C103.739 493.045 99.006 488.33 95.9416 484.156C95.4062 483.427 96.1714 481.829 96.9995 481.407C100.903 479.422 107.139 473.389 110.027 469.822Z" fill="#FFAB99" fill-opacity="0.4"/>
<path d="M102.905 490.08C106.002 492.237 107.867 490.518 109.011 486.568C109.455 485.033 111.212 484.505 110.548 485.808C107.948 492.651 107.694 492.559 105.833 491.888L105.826 491.885C105.353 491.965 101.314 488.972 102.905 490.08Z" fill="#FFD9D1" fill-opacity="0.8"/>
<path d="M94.4319 385.682C91.8817 388.116 90.3689 397.922 89.9312 402.521L83.6672 400.359C85.5941 397.786 89.151 391.881 90.5485 388.288C92.0462 384.438 93.5709 384.89 94.4319 385.682Z" fill="#FFAB99" fill-opacity="0.4"/>
<path d="M113.308 472.633L116.592 471.919L122.747 480.567C122.018 489.185 114.407 492.563 110.692 493.175C113.959 490.585 113.797 478.401 113.308 472.633Z" fill="#FFAB99" fill-opacity="0.4"/>
<path d="M120.877 466.288C119.052 462.925 117.725 467.756 117.29 470.592L123.149 477.543C123.152 475.192 122.703 469.65 120.877 466.288Z" fill="#FFAB99" fill-opacity="0.4"/>
<path d="M113.867 490.346C117.478 488.141 119.233 486.356 120.318 482.584C120.76 481.047 122.514 480.519 121.851 481.822C119.248 488.672 118.361 489.159 116.752 489.131C116.278 489.211 112.451 491.212 113.867 490.346Z" fill="#FFD9D1" fill-opacity="0.8"/>
<path d="M122.093 473.076C122.158 472.872 122.185 472.618 122.181 472.325C122.166 471.152 121.15 471.444 121.501 472.549C121.731 473.27 121.941 473.559 122.093 473.076Z" fill="#FFD9D1" fill-opacity="0.8"/>
<path d="M67.974 407.988C70.9125 426.776 72.824 434.132 70.5393 433.904L73.6151 438.53C77.7125 437.136 74.7762 432.493 75.0886 430.976C76.1875 433.224 76.5979 437.262 79.1355 437.33L80.4402 436.704L80.9767 432.525C74.9404 432.67 72.3358 414.207 72.0701 407.496C70.6604 406.063 68.2579 407.202 67.974 407.988Z" fill="#D1593E" fill-opacity="0.4"/>
</g>
<defs>
<linearGradient id="paint0_linear_84_1005" x1="148.275" y1="471.473" x2="116.478" y2="578.547" gradientUnits="userSpaceOnUse">
<stop offset="0.14" stop-opacity="0"/>
<stop offset="0.995"/>
</linearGradient>
<linearGradient id="paint1_linear_84_1005" x1="148.423" y1="343.084" x2="17.0528" y2="566.431" gradientUnits="userSpaceOnUse">
<stop offset="0.485" stop-opacity="0"/>
<stop offset="0.810679"/>
</linearGradient>
<linearGradient id="paint2_linear_84_1005" x1="195.918" y1="316.69" x2="201.425" y2="618.488" gradientUnits="userSpaceOnUse">
<stop stop-color="#52B9CB"/>
<stop offset="1" stop-color="#295C65"/>
</linearGradient>
<linearGradient id="paint3_linear_84_1005" x1="218.776" y1="226.95" x2="335.474" y2="446.098" gradientUnits="userSpaceOnUse">
<stop offset="0.152242" stop-opacity="0"/>
<stop offset="1"/>
</linearGradient>
<linearGradient id="paint4_linear_84_1005" x1="190.131" y1="-26.1541" x2="190.191" y2="250.287" gradientUnits="userSpaceOnUse">
<stop stop-color="#88E9F4"/>
<stop offset="0.816382" stop-color="#6FD9E6"/>
</linearGradient>
<linearGradient id="paint5_linear_84_1005" x1="98.0525" y1="-31.7723" x2="52.6941" y2="249.607" gradientUnits="userSpaceOnUse">
<stop stop-color="#88E9F4"/>
<stop offset="1" stop-color="#68D4E1"/>
</linearGradient>
<linearGradient id="paint6_linear_84_1005" x1="290.258" y1="-31.2778" x2="336.861" y2="246.297" gradientUnits="userSpaceOnUse">
<stop stop-color="#88E9F4"/>
<stop offset="1" stop-color="#68D4E1"/>
</linearGradient>
<linearGradient id="paint7_linear_84_1005" x1="255.341" y1="105" x2="255.341" y2="671.466" gradientUnits="userSpaceOnUse">
<stop stop-color="#B84141"/>
<stop offset="1" stop-color="#FF857F"/>
</linearGradient>
<linearGradient id="paint8_linear_84_1005" x1="-40.5151" y1="105" x2="29.3821" y2="313.544" gradientUnits="userSpaceOnUse">
<stop stop-color="#CF4848"/>
<stop offset="1" stop-color="#DC6464"/>
</linearGradient>
<clipPath id="clip0_84_1005">
<rect width="320" height="568" fill="white"/>
</clipPath>
</defs>
</svg>
