<svg width="1440" height="1024" viewBox="0 0 1440 1024" fill="none" xmlns="http://www.w3.org/2000/svg">
<g clip-path="url(#clip0_84_1474)">
<rect width="1440" height="1024" fill="white"/>
<path d="M1040.59 793.029C1178.98 776.089 1375.88 677.628 1440 680.805V-100H0V644.808C27.6067 698.803 146.404 793.875 400.742 742.21C655.08 690.545 777.217 737.269 803.488 742.21C838.219 749.268 902.204 809.968 1040.59 793.029Z" fill="#7DDEEA"/>
<path d="M376.414 -6.52449L473.662 13.5842L357.624 720C306.455 666.295 245.42 654.962 207.124 643.789L376.414 -6.52449Z" fill="url(#paint0_linear_84_1474)"/>
<path d="M1234.8 -39.5245L1137.55 -19.4158L1253.59 687C1304.76 633.295 1365.79 621.962 1404.09 610.789L1234.8 -39.5245Z" fill="url(#paint1_linear_84_1474)"/>
<path d="M752.047 1H588L594.378 685.696C678.778 691.481 795.409 706.61 861 703.61L752.047 1Z" fill="url(#paint2_linear_84_1474)"/>
<path d="M184.956 614.96L142.463 538.041C139.952 538.041 136.115 536.75 140.849 531.586L106.962 472.955C104.631 474.21 99.6469 475.967 98.356 472.955C96.7423 469.19 101.045 467.038 102.659 466.5L132.243 449.288C134.932 448.212 139.666 448.104 137.084 456.28L132.243 458.97L162.903 517.063C166.489 516.346 172.907 516.202 169.895 521.366L166.668 524.055L214.003 611.195L238.746 607.429L245.739 514.911C242.153 513.835 236.056 511.146 240.36 508.994H247.352C248.213 508.994 249.862 468.473 250.58 448.212L239.822 447.674L238.746 439.068H222.071V430.999H229.602L230.678 405.718L208.624 404.105V387.43H222.071L271.558 367.528L291.998 377.21L318.892 376.134C330.009 369.679 359.02 356.77 386.129 356.77C413.239 356.77 452.291 333.461 468.428 321.807L501.239 306.745L722.314 430.462H731.997V447.136H706.178V472.955H712.632V479.948H692.73V485.865H680.359L676.593 545.033C680.179 546.288 685.953 549.121 680.359 550.412C677.39 551.097 676.007 551.207 675.469 551.078L665.126 694.307C678.741 695.326 691.027 696.378 698.647 696.378L692.73 638.627H698.647L710.481 620.339L745.982 607.429V600.437H760.505L787.938 514.911C786.145 513.835 783.097 511.038 785.248 508.456C787.4 505.875 790.089 507.381 791.165 508.456L809.454 451.439L803.537 449.288L806.226 443.371L842.803 455.205L841.189 461.122H832.045L813.757 514.911L818.598 518.139C817.522 520.29 814.617 524.163 811.605 522.442L787.938 593.982H797.62V612.808L786.324 613.884L790.627 682.735C815.191 667.315 868.515 622.168 885.297 564.936L874.001 455.205H869.16V445.523L871.312 443.371C871.67 417.552 865.502 366.237 837.962 367.528L835.81 342.785H829.894V333.64H858.402C866.471 331.13 885.082 328.046 894.979 335.792H956.299L996.104 318.041L1078.4 309.973V318.041H1074.64V342.247C1065.49 347.626 1048.71 364.516 1054.73 389.044L1058.5 425.083H1063.34V433.689H1058.5L1064.95 502.002C1072.84 505.588 1089.27 514.588 1091.85 521.904C1094.43 529.219 1092.92 383.665 1091.85 309.973C1090.77 304.056 1083.89 290.609 1064.95 284.154V257.797H1058.5V251.342H1074.64V238.433H1091.85V224.447H1153.71V211L1181.68 216.917C1186.52 228.213 1204.27 252.203 1236.54 257.797C1268.82 263.391 1281.91 265.148 1284.42 265.327C1288.9 259.769 1301.09 249.191 1314 251.342V257.797H1309.16V284.154C1300.01 287.919 1281.73 299.107 1281.73 313.738C1281.73 328.369 1283.16 465.425 1283.88 532.124L1290.52 553.102C1283.97 551.686 1289.75 637.944 1282.04 656.314C1281.99 656.509 1281.92 656.693 1281.81 656.866C1281.85 656.909 1281.82 656.954 1281.73 657C1280.31 659.9 1278.91 660.789 1277.47 660.193C1272.41 662.369 1264.23 662.646 1254.15 661.576C1193.01 672.785 1051.84 701.592 1047.39 713.933C1029.82 715.905 912.375 752.661 844.955 746.206C762.45 738.307 736.658 721.48 698.647 696.378C691.027 696.378 678.741 695.326 665.126 694.307C652.32 693.348 638.337 692.417 625.955 692.417L592.461 692.417C580.54 696.378 578.837 696.378 554.426 696.378L564.173 542.882C561.842 542.702 557.396 541.483 558.256 538.041H565.249L569.552 477.258L558.256 476.183V468.114H546.96V475.107L531.899 476.183L529.748 534.813L535.665 535.889C535.306 537.682 533.405 540.945 528.672 539.654L514.12 701.487C504.469 704.326 493.236 710.618 477.341 710.618C410.232 715.112 374.932 754.084 265 724.5C214.101 759.863 148.2 721.284 132.243 692.417L184.956 614.96Z" fill="#6FD4E0"/>
<path d="M638.785 553.29L625.954 692.972H591.325C596.169 629.559 601.973 547.202 603.265 548.941C604.556 550.681 607.75 548.217 609.185 546.767C609.615 543.289 605.417 543.144 603.265 543.506L607.032 483.173H619.41V475.02H632.865V484.26H644.167L640.4 545.68H632.865C631.573 548.724 636.274 552.021 638.785 553.29Z" fill="#7DDEEA"/>
<path d="M490.245 540.788L478.404 689.174C465.918 687 455.98 694.066 452.571 697.871C451.28 693.088 429.429 683.558 418.665 679.391L431.044 532.635H437.502V528.83H431.044L434.811 468.498H447.728V461.432L485.401 464.149V472.302H495.627L492.397 534.809H485.401C484.54 538.723 488.271 540.426 490.245 540.788Z" fill="#7DDEEA"/>
<path d="M392.832 532.635L380.992 681.565L343.319 685.913C347.624 632.828 356.558 527.091 357.85 528.83C359.464 531.005 365.384 526.656 364.846 525.026C364.416 523.721 360.003 523.033 357.85 522.852L361.617 461.432H375.072V455.453H387.45V464.149L399.29 465.78L392.832 526.656H387.45V531.005L392.832 532.635Z" fill="#7DDEEA"/>
<path d="M318.562 525.026L307.798 685.913C307.798 683.304 283.4 672.143 271.201 666.889L283.041 521.221C289.069 519.916 289.5 516.329 288.961 514.698H284.118L288.961 455.453H301.34V450.017H313.18V458.17H324.482L320.177 520.134H313.18C313.18 522.308 316.768 524.301 318.562 525.026Z" fill="#7DDEEA"/>
<path d="M1121.54 342.94V545.137L1130.69 551.116L1160.29 410.883L1154.91 409.796V402.73L1182.36 409.796V413.6H1178.05L1147.91 559.812L1166.21 568.415C1172.78 563.009 1179.28 558.079 1185.05 553.939V501.11H1172.13V486.434L1215.19 483.173V492.413C1234.56 492.413 1249.45 498.211 1254.48 501.11V345.658C1252.86 326.091 1237.9 286.412 1190.97 284.238C1144.04 282.064 1125.13 322.467 1121.54 342.94Z" fill="#7DDEEA"/>
<path d="M900.346 454.909L908.419 533.179C908.957 527.2 914.769 517.09 933.714 524.482C952.658 531.874 977.486 525.026 987.533 520.677L931.023 413.057L925.641 415.774L921.873 409.252L949.321 396.207L951.474 400.555L945.554 405.991L1005.29 515.242C1010.89 510.894 1029.87 504.734 1038.66 502.197L1031.66 439.69H1028.44V429.363H1031.66L1028.44 403.817C1021.98 384.974 997.112 349.245 949.321 357.072C901.53 364.899 896.758 416.862 900.346 441.864H904.113V453.279L900.346 454.909Z" fill="#7DDEEA"/>
<path d="M311.243 972.467C215.065 995.909 61.2245 986.613 0 978.53V1024H1440V967.415C1403.69 958.658 1382.15 961.489 1371.4 966.056C1366.27 968.234 1360.43 970.184 1355.01 968.896C1295.28 954.71 1164.92 938.897 1055.29 975.498C939.874 1014.03 753.395 1000.98 674.583 989.645C593.544 974.151 407.421 949.024 311.243 972.467Z" fill="#02385A"/>
<path d="M311.243 972.467C215.065 995.909 61.2245 986.613 0 978.53V1024H1440V967.415C1403.69 958.658 1382.15 961.489 1371.4 966.056C1366.27 968.234 1360.43 970.184 1355.01 968.896C1295.28 954.71 1164.92 938.897 1055.29 975.498C939.874 1014.03 753.395 1000.98 674.583 989.645C593.544 974.151 407.421 949.024 311.243 972.467Z" fill="url(#paint3_linear_84_1474)" fill-opacity="0.2"/>
<path d="M311.243 972.401C215.065 995.673 61.2245 986.444 0 978.42V735C17.5881 738.678 58.9091 752.387 54.1002 783.149C49.2913 813.911 145.603 835.422 194.36 842.332C246.456 845.564 368.816 847.816 441.484 830.963C514.152 814.111 632.505 823.942 682.597 830.963C769.202 843.001 978.746 863.464 1124.08 849.019C1139.65 847.281 1166.49 843.601 1194.21 838.406C1218.02 833.943 1242.48 828.363 1261 821.936C1311.09 804.548 1413.28 791.508 1440 792.511V967.385C1390.84 955.616 1368.76 964.933 1363.86 971.063C1309.09 956.574 1170.7 937.159 1055.29 975.41C939.874 1013.66 753.395 1000.71 674.583 989.454C593.544 974.073 407.421 949.129 311.243 972.401Z" fill="#116589"/>
<path d="M311.243 972.401C215.065 995.673 61.2245 986.444 0 978.42V735C17.5881 738.678 58.9091 752.387 54.1002 783.149C49.2913 813.911 145.603 835.422 194.36 842.332C246.456 845.564 368.816 847.816 441.484 830.963C514.152 814.111 632.505 823.942 682.597 830.963C769.202 843.001 978.746 863.464 1124.08 849.019C1139.65 847.281 1166.49 843.601 1194.21 838.406C1218.02 833.943 1242.48 828.363 1261 821.936C1311.09 804.548 1413.28 791.508 1440 792.511V967.385C1390.84 955.616 1368.76 964.933 1363.86 971.063C1309.09 956.574 1170.7 937.159 1055.29 975.41C939.874 1013.66 753.395 1000.71 674.583 989.454C593.544 974.073 407.421 949.129 311.243 972.401Z" fill="url(#paint4_linear_84_1474)" fill-opacity="0.2"/>
<path d="M44.8121 827.313C49.7732 810.593 7.14467 803.142 -11 801.143V715C15.8725 725.541 166.772 731.356 242.566 732.81C273.616 733.406 298.19 735.13 322.494 738.47C357.518 743.283 391.981 751.451 444.454 764.432C515.563 782.024 718.921 791.269 811.711 793.692C840.421 795.752 916.859 804.778 992.928 824.405C1069 844.033 1173.67 854.142 1218 856.944C1189.4 859.768 1169.56 862.387 1153.5 863.332C1003.57 871.183 782.542 859.844 693.197 853.302C641.519 849.485 519.421 844.142 444.454 853.302C369.487 862.461 243.255 861.237 189.51 859.481C139.21 855.725 39.851 844.033 44.8121 827.313Z" fill="#2081A1"/>
<path d="M1440 844.34C1411.34 843.691 1301.71 852.119 1247.98 863.356C1228.11 867.51 1201.87 871.116 1176.33 874C1130.23 870.668 1018.26 858.169 939.161 834.831C860.059 811.493 780.575 800.761 750.72 798.312C654.23 795.43 442.765 784.438 368.822 763.521C314.257 748.085 278.42 738.373 242 732.65C350.67 733.936 597.101 732.403 713.462 715.98C829.823 699.557 985.018 703.519 1048.07 707.552C1123.78 725.92 1308.16 757.989 1440 739.318V844.34Z" fill="url(#paint5_linear_84_1474)"/>
<path d="M-29 731.465C-2.42718 751.574 146.789 762.669 221.738 765.443C252.442 766.579 276.742 769.868 300.776 776.24C404.114 778.304 638.455 775.844 749.107 749.494C859.759 723.143 1007.34 729.5 1067.3 735.972C1139.3 765.443 1314.63 816.895 1440 786.939V587.577C1374.59 585.497 1194.17 638.197 1052.99 649.292C911.814 660.387 805.659 667.784 770.229 663.161C743.429 659.925 740.93 623.982 389.352 655.187C125.489 678.606 -0.837355 599.365 -29 564V731.465Z" fill="#61C8D7"/>
<path d="M-29 731.465C-2.42718 751.574 146.789 762.669 221.738 765.443C252.442 766.579 276.742 769.868 300.776 776.24C404.114 778.304 638.455 775.844 749.107 749.494C859.759 723.143 1007.34 729.5 1067.3 735.972C1139.3 765.443 1314.63 816.895 1440 786.939V587.577C1374.59 585.497 1194.17 638.197 1052.99 649.292C911.814 660.387 805.659 667.784 770.229 663.161C743.429 659.925 740.93 623.982 389.352 655.187C125.489 678.606 -0.837355 599.365 -29 564V731.465Z" fill="url(#paint6_linear_84_1474)" fill-opacity="0.2"/>
<path d="M1279.17 895.132C1284.7 879.916 1305.99 883.539 1315.94 887.252C1311.3 892.687 1312.9 900.929 1314.28 904.371C1318.71 908.175 1320.09 901.382 1324.24 904.371C1327.56 906.762 1325.44 916.055 1323.96 920.403C1321.29 917.233 1315.28 911.707 1312.62 914.968C1309.97 918.229 1312.62 921.58 1314.28 922.848C1308.09 930.239 1299.72 927.92 1296.31 925.837C1294.76 924.316 1292.16 925.203 1291.06 925.837C1289.73 928.228 1294.01 930.275 1296.31 931C1283.04 930.13 1276.59 919.044 1275.02 913.61C1269.27 910.131 1267.28 905.458 1267 903.556C1275.85 901.599 1278.8 897.125 1279.17 895.132Z" fill="#033656" fill-opacity="0.5"/>
<path d="M1341.17 919.132C1346.7 903.916 1367.99 907.539 1377.94 911.252C1373.3 916.687 1374.9 924.929 1376.28 928.371C1380.71 932.175 1382.09 925.382 1386.24 928.371C1389.56 930.762 1387.44 940.055 1385.96 944.403C1383.29 941.233 1377.28 935.707 1374.62 938.968C1371.97 942.229 1374.62 945.58 1376.28 946.848C1370.09 954.239 1361.72 951.92 1358.31 949.837C1356.76 948.316 1354.16 949.203 1353.06 949.837C1351.73 952.228 1356.01 954.275 1358.31 955C1345.04 954.13 1338.59 943.044 1337.02 937.61C1331.27 934.131 1329.28 929.458 1329 927.556C1337.85 925.599 1340.8 921.125 1341.17 919.132Z" fill="#033656" fill-opacity="0.5"/>
<path d="M1334.19 879.685C1337 871.914 1347.82 873.764 1352.89 875.661C1350.52 878.436 1351.34 882.645 1352.04 884.402C1354.29 886.345 1355 882.876 1357.1 884.402C1358.79 885.623 1357.71 890.369 1356.96 892.589C1355.6 890.97 1352.55 888.149 1351.2 889.814C1349.85 891.479 1351.2 893.19 1352.04 893.837C1348.89 897.611 1344.64 896.427 1342.9 895.364C1342.12 894.587 1340.79 895.04 1340.23 895.364C1339.56 896.585 1341.73 897.63 1342.9 898C1336.15 897.556 1332.87 891.895 1332.08 889.12C1329.15 887.344 1328.14 884.957 1328 883.986C1332.5 882.987 1334 880.702 1334.19 879.685Z" fill="#033656" fill-opacity="0.5"/>
<path d="M1389.19 903.685C1392 895.914 1402.82 897.764 1407.89 899.661C1405.52 902.436 1406.34 906.645 1407.04 908.402C1409.29 910.345 1410 906.876 1412.1 908.402C1413.79 909.623 1412.71 914.369 1411.96 916.589C1410.6 914.97 1407.55 912.149 1406.2 913.814C1404.85 915.479 1406.2 917.19 1407.04 917.837C1403.89 921.611 1399.64 920.427 1397.9 919.364C1397.12 918.587 1395.79 919.04 1395.23 919.364C1394.56 920.585 1396.73 921.63 1397.9 922C1391.15 921.556 1387.87 915.895 1387.08 913.12C1384.15 911.344 1383.14 908.957 1383 907.986C1387.5 906.987 1389 904.702 1389.19 903.685Z" fill="#033656" fill-opacity="0.5"/>
<path d="M1370.92 886.553C1372.7 881.696 1379.56 882.853 1382.76 884.038C1381.27 885.772 1381.78 888.403 1382.23 889.501C1383.65 890.715 1384.1 888.547 1385.43 889.501C1386.5 890.264 1385.82 893.23 1385.34 894.618C1384.48 893.606 1382.55 891.843 1381.69 892.883C1380.84 893.924 1381.69 894.994 1382.23 895.398C1380.23 897.757 1377.54 897.017 1376.44 896.352C1375.94 895.867 1375.1 896.15 1374.75 896.352C1374.32 897.115 1375.7 897.769 1376.44 898C1372.16 897.722 1370.09 894.184 1369.58 892.45C1367.73 891.34 1367.09 889.848 1367 889.241C1369.85 888.617 1370.8 887.189 1370.92 886.553Z" fill="#033656" fill-opacity="0.5"/>
<path fill-rule="evenodd" clip-rule="evenodd" d="M12.1011 106.487C-11.239 102.364 -64.1982 108.313 -89.3141 165.091C-120.709 236.062 -140.497 296.188 -133.077 330.818C-127.14 358.522 -108.278 394.115 -99.5887 408.449C-84.3035 431.218 -51.0312 479.23 -40.2237 489.125C-29.4162 499.019 -23.5431 503.776 -21.9575 504.917C-36.7988 488.934 -67.699 448.064 -72.57 412.445C-77.441 376.826 -78.1513 362.974 -77.8976 360.5C-77.4537 375.786 -70.3628 414.119 -45.5513 445.172C-20.7398 476.224 19.2047 509.23 36.0755 521.851C97.7238 635.381 231.638 874.769 274.106 924.087C316.575 973.406 349.391 1006.28 360.49 1016.56C369.687 1024.36 396.147 1040.5 428.417 1042.63C460.688 1044.76 496.027 1037.3 509.664 1033.3C530.34 1020.94 576.031 992.776 593.383 979.076C615.075 961.951 662.262 941.783 673.488 941.783C675.668 941.783 678.143 941.409 680.67 941.028C691.158 939.446 702.559 937.727 697.653 961.951C694.59 977.076 687.385 991.766 680.666 1005.47C674.03 1019 667.868 1031.56 666.638 1042.63C664.66 1060.44 675.201 1087.98 680.719 1099.52C679.831 1121.84 683.953 1171.06 707.547 1189.33C737.039 1212.16 758.54 1213.87 784.988 1210.64C811.436 1207.4 875.938 1185.33 906.953 1150.13C931.764 1121.97 940.377 1106.05 941.582 1101.61C946.91 1100.91 960.153 1095.18 970.503 1077.83C983.442 1056.14 994.478 1005.33 995.429 991.444C995.583 989.196 995.473 985.805 995.337 981.636C994.635 960.04 993.252 917.505 1024.35 904.109C1054.03 891.322 1081.88 895.356 1092.09 898.971C1100.14 901.508 1117.39 910.73 1121.96 927.322C1127.67 948.062 1126.15 973.939 1121.96 982.691C1117.77 991.444 1144.03 962.903 1139.47 936.645C1134.9 910.388 1132.81 899.923 1121.96 886.033C1118.7 881.853 1115.4 875.26 1111.68 867.82C1103.03 850.541 1092.1 828.694 1074.01 821.911C1053.31 814.148 1025.3 818.676 1013.89 821.911C1004.75 827.302 983.29 846.037 970.503 877.851C957.717 909.665 950.461 951.994 948.432 969.182C939.996 995.883 918.978 1053.02 902.386 1067.93C881.646 1086.58 857.291 1107.7 838.264 1104.66C819.237 1101.61 784.988 1095.9 784.988 1061.27C784.988 1033.57 791.584 1009.77 794.882 1001.34C808.962 982.501 838.264 941.326 842.831 927.322C848.539 909.817 851.583 862.629 842.831 851.403C841.86 850.158 840.831 848.771 839.733 847.291C830.932 835.429 817.42 817.218 789.174 811.636C775.613 808.957 758.691 809.292 741.128 809.64C717.538 810.107 692.794 810.597 673.488 803.835C646.546 794.398 639.049 749.798 638.668 728.677C638.668 723.937 641.86 713.339 646.094 699.277C654.437 671.57 666.829 630.418 666.829 594.155C666.829 510.245 628.269 460.357 609.366 440.605C607.789 438.956 606.275 437.313 604.76 435.666C590.005 419.641 575.012 403.357 498.057 379.718C452.717 365.791 428.343 368.158 406.507 370.278C387.472 372.126 370.367 373.788 342.985 364.306C284.191 343.947 256.982 304.941 247.278 285.533C244.225 279.427 239.006 266.786 232.807 251.77C219.301 219.056 201.14 175.066 190.577 162.807C187.54 159.283 184.926 156.047 182.475 153.013C172.492 140.655 165.123 131.533 142.057 118.854C113.326 103.062 82.6923 91.4552 59.0985 93.1676C40.2235 94.5376 19.9023 102.618 12.1011 106.487ZM643.923 583.484C635.816 551.268 611.635 490.798 569.409 470.478C562.603 467.203 556.427 464.183 550.737 461.4C509.819 441.394 494.064 433.69 450.299 431.852C433.913 431.165 415.122 435.122 396.088 439.131C357.214 447.319 317.327 455.721 294.846 425.193C268.056 388.813 251.971 358.027 247.278 347.181C260.153 367.984 292.791 410.694 320.343 415.109C339.529 418.183 362.613 415.174 387.687 411.906C407.62 409.308 428.81 406.546 450.299 406.546L451.253 406.546C483.199 406.542 529.904 406.537 575.117 443.649C609.987 472.272 634.687 545.698 643.923 583.484ZM291.041 933.981C301.379 947.491 326.774 977.972 345.649 991.824C348.954 994.25 352.192 996.734 355.417 999.209C375.219 1014.4 394.714 1029.36 428.417 1029.69C429.076 1029.69 429.728 1029.7 430.376 1029.71L431.502 1029.72C433.071 1029.74 434.608 1029.76 436.115 1029.77C470.293 1030.18 489.095 1030.4 517.655 1016.56C530.483 1010.34 544.012 995.454 557.92 980.147C577.225 958.9 597.261 936.849 617.168 936.074C644.567 935.009 656.744 935.63 659.408 936.074C648.436 932.269 622.685 925.8 607.464 930.366C588.436 936.074 550.001 961.571 521.651 985.926C493.3 1010.28 410.722 1013.52 372.097 991.824C341.196 974.471 305.184 946.032 291.041 933.981ZM719.534 1182.67C701.268 1171.86 694.926 1136.56 694.038 1120.26C695.243 1123.11 699.632 1132.28 707.547 1146.14C717.441 1163.45 732.473 1176.39 763.297 1186.28C787.956 1194.2 819.491 1187.17 832.175 1182.67C826.911 1184.89 812.083 1190.43 794.882 1194.84C773.381 1200.36 742.367 1196.18 719.534 1182.67ZM668.922 811.636C690.169 815.061 737.914 821.416 758.92 819.437C785.178 816.964 812.387 826.287 819.998 843.602C827.609 860.917 833.317 875.568 831.224 901.445C829.55 922.146 815.685 948.125 808.962 958.526C817.017 939.182 831.605 896.384 825.516 879.944C824.739 877.846 824.011 875.851 823.318 873.949L823.305 873.913L823.3 873.901C817.21 857.199 813.719 847.623 802.112 837.894C792.593 829.915 766.905 827.6 743.535 825.494C735.141 824.738 727.044 824.008 720.105 823.052C699.099 820.16 677.991 814.237 668.922 811.636ZM955.662 958.526C959.785 937.026 970.77 889.952 981.729 873.665C983.682 870.764 985.557 867.909 987.382 865.13L987.392 865.115L987.398 865.106C998.374 848.392 1007.55 834.414 1020.93 829.522C1036.53 823.814 1055.36 821.911 1071.35 832.376C1087.33 842.841 1107.88 869.479 1108.07 873.665C1108.16 875.704 1108.87 877.705 1109.61 879.231C1106.18 874.358 1097.42 866.768 1081.05 863.39C1057.08 858.443 1046.23 858.253 1030.06 865.103C1013.89 871.953 989.15 896.117 979.827 913.242C972.368 926.941 960.609 949.14 955.662 958.526ZM945.768 1090.19C953.062 1073.51 969.324 1034.75 976.021 1013.13C982.719 991.52 987.818 976.729 989.531 972.036C990.482 981.486 989.531 1003.62 970.503 1062.22C964.538 1080.6 957.65 1084.11 948.607 1088.73C947.684 1089.2 946.738 1089.68 945.768 1090.19ZM687.759 1016.56C696.283 995.706 702.6 971.465 704.693 961.951C705.644 962.586 707.547 965.757 707.547 973.368C707.547 982.881 697.653 1014.66 687.759 1040.72C679.843 1061.58 684.461 1090.77 687.759 1102.75C686.554 1100.98 683.04 1092.06 678.626 1070.6C674.039 1048.3 676.025 1043.74 682.944 1027.88C684.35 1024.65 685.959 1020.96 687.759 1016.56Z" fill="url(#paint7_linear_84_1474)"/>
<path d="M-80.5527 292.596C-87.0981 261.696 -85.0558 255.239 -83.2166 255.873C-82.3286 234.499 -77.3562 185.092 -64.5701 158.454C-51.7839 131.816 -13.704 117.926 3.73773 114.311C25.0482 114.755 79.3901 119.905 126.273 136.953C173.156 154.001 166.738 241.603 157.668 283.272C167.562 278.008 187.465 269.23 187.921 276.232C188.378 283.234 186.59 310.101 185.638 322.659C179.613 332.426 165.165 354.472 155.575 364.519C145.985 374.565 138.514 376.062 135.977 375.555C137.246 423.567 144.958 522.901 165.66 536.144C186.361 549.387 234.284 552.648 255.658 552.622C300.893 551.593 327.965 565.556 347.179 577.434C368.109 590.372 378.765 646.883 379.145 673.141C379.526 699.398 382.38 769.228 387.137 793.773C390.942 813.409 402.43 837.853 407.698 847.62C414.826 839.981 421.711 831.976 427.474 823.456C444.979 797.579 451.385 735.589 452.4 707.829C445.026 700.312 444.938 692.028 439.271 680.181C432.992 667.052 430.709 654.113 427.474 646.122C424.887 639.729 417.39 635.974 413.965 634.896C416.312 637.242 421.272 642.925 422.337 646.883C423.403 650.841 419.229 648.532 417.009 646.883C406.291 643.712 384.359 635.238 382.38 626.714C379.906 616.059 385.044 595.509 387.137 587.518C389.23 579.527 393.796 580.668 391.323 580.288C388.849 579.907 389.61 571.725 388.849 564.495C388.088 557.265 392.084 554.981 391.323 553.269C390.562 551.556 392.84 547.187 396.46 542.233C399.827 537.625 397.967 534.063 399.644 532.93C396.201 534.569 388.291 537.476 380.858 537.476C371.154 537.476 377.242 531.958 370.583 532.72C365.255 533.328 365.065 530.436 365.636 528.914C375.34 525.743 396.384 518.373 402.929 514.263C411.111 509.126 414.536 503.988 419.483 502.656C423.441 501.591 435.846 502.212 441.555 502.656C442.125 502.53 443.419 500.031 444.028 491.05C444.637 482.069 451.258 476.399 454.493 474.686C454.747 471.262 456.015 465.059 459.06 467.646C462.104 470.234 465.402 504.115 466.671 520.732C474.599 537.096 492.205 575.949 499.207 600.456C506.209 624.964 506.564 687.792 505.867 716.142C503.076 747.664 495.972 818.09 489.884 847.62C483.795 877.151 465.529 918.782 457.157 935.907C435.022 972.883 388.088 1045.09 377.433 1038.08C364.114 1029.33 350.604 996.984 347.56 964.257C344.516 931.53 318.258 867.028 308.935 832.969C301.476 805.722 297.962 780.624 297.138 771.48C289.835 777.119 281.481 781.774 276.208 784.26C277.349 804.999 279.709 851.159 280.013 869.882C280.394 893.286 274.876 931.15 286.102 958.549C297.328 985.948 315.023 1061.49 334.812 1105.06C354.6 1148.63 391.132 1172.03 422.718 1212.75C454.303 1253.47 520.708 1340.24 577.599 1417.68C623.113 1479.63 674.575 1576.17 694.617 1616.7L215.891 1764.16C182.467 1723.51 106.789 1628.88 71.4747 1575.6C27.3315 1509.01 25.9996 1424.72 25.9996 1346.32C25.9996 1267.93 41.0311 1171.46 44.0755 1132.08C47.1198 1092.69 45.4074 1067.58 44.0755 1018.87C42.7436 970.156 -38.5027 854.851 -63.2381 825.929C-87.9735 797.008 -142.391 688.933 -150.763 686.46C-159.135 683.986 -213.363 726.036 -224.399 746.966C-233.228 763.71 -306.216 848.064 -341.607 888.148C-333.488 896.457 -313.789 918.059 -299.937 938C-282.622 962.925 -224.018 1016.96 -206.704 1029.9C-189.389 1042.84 -173.216 1046.07 -154.949 1059.58C-137.136 1072.76 -121.674 1104.39 -109.095 1130.13L-108.142 1132.08C-95.3942 1158.14 -65.5214 1181.36 -61.1451 1183.64C-56.7689 1185.92 -40.9763 1234.25 -39.8347 1237.49C-38.693 1240.72 -40.786 1247.57 -42.3082 1251.95C-43.8304 1256.33 -51.0607 1292.67 -59.623 1303.13C-66.4728 1311.5 -65.2677 1304.84 -63.809 1300.47C-64.9506 1295.08 -67.1958 1282.35 -67.0436 1274.59C-66.8533 1264.89 -58.1008 1250.43 -58.1008 1240.91C-58.1008 1233.3 -66.4728 1217.7 -70.6588 1210.85L-79.6016 1196.2C-80.9335 1196.96 -83.7495 1200.23 -84.3584 1207.24C-84.9673 1214.24 -89.3055 1234.76 -91.3985 1244.15C-92.6035 1245.29 -96.3456 1247.8 -101.673 1248.71C-107.001 1249.63 -111.884 1248.33 -113.66 1247.57C-114.992 1248.08 -119.216 1249.36 -125.457 1250.43C-131.698 1251.49 -138.079 1248.97 -140.489 1247.57C-141.123 1247.89 -143.229 1248.9 -146.577 1250.43C-149.926 1251.95 -163.702 1251.06 -170.171 1250.43C-173.406 1248.02 -173.33 1234.48 -175.309 1226.26C-177.287 1218.04 -166.738 1213.77 -164.392 1215.61C-169.339 1199.34 -177.425 1181.17 -179.875 1176.6C-190.911 1163.41 -214.467 1134.93 -220.403 1126.56C-227.824 1116.09 -226.302 1102.01 -228.585 1089.46C-230.868 1076.9 -259.409 1061.68 -273.489 1052.16C-287.569 1042.65 -318.964 1030.28 -345.222 1018.1C-366.228 1008.36 -402.811 977.386 -418.477 963.116C-431.162 952.016 -456.531 927.573 -456.531 918.592C-456.531 907.366 -440.739 869.882 -418.477 830.876C-396.215 791.871 -350.74 732.696 -312.114 699.969C-273.489 667.242 -253.511 624.431 -243.997 609.399C-234.483 594.368 -196.429 542.423 -191.862 535.574C-187.296 528.724 -153.047 516.737 -131.546 523.967C-114.345 529.751 -65.3946 530.183 -43.0693 529.675C-23.2809 524.411 18.4648 513.388 27.1412 511.409C35.8177 509.43 34.1813 471.135 32.2786 452.234C30.3759 453.693 23.5261 456.763 11.3487 457.372C-3.87314 458.133 -41.5471 415.892 -58.6716 383.927C-75.7961 351.961 -72.371 331.221 -80.5527 292.596Z" fill="#FFECE3"/>
<path d="M32.2786 452.234C30.3759 453.693 23.5261 456.763 11.3487 457.372C-3.87314 458.133 -41.5471 415.892 -58.6716 383.927C-75.7962 351.961 -72.371 331.221 -80.5527 292.596C-87.0981 261.696 -85.0558 255.239 -83.2165 255.873C-82.3286 234.499 -77.3562 185.092 -64.5701 158.454C-51.7839 131.816 -13.704 117.926 3.73773 114.311C25.0482 114.755 79.3901 119.905 126.273 136.953C173.156 154.001 166.738 241.603 157.668 283.272C167.562 278.008 187.465 269.23 187.921 276.232C188.378 283.234 186.59 310.101 185.638 322.659C179.613 332.426 165.165 354.472 155.575 364.519C145.985 374.565 138.514 376.062 135.977 375.555C137.246 423.567 144.958 522.901 165.66 536.144C186.361 549.387 234.284 552.648 255.658 552.622M32.2786 452.234C34.1813 471.135 35.8177 509.43 27.1412 511.409C18.4648 513.388 -23.2809 524.411 -43.0693 529.675M32.2786 452.234C55.4918 440.311 103.783 413.951 111.242 403.905C118.7 393.859 126.781 383.609 129.888 379.741M-43.0693 529.675C-65.3946 530.183 -114.345 529.751 -131.546 523.967C-153.047 516.737 -187.296 528.724 -191.862 535.574C-196.429 542.423 -234.483 594.368 -243.997 609.399C-253.511 624.431 -273.489 667.242 -312.114 699.969C-350.74 732.696 -396.215 791.871 -418.477 830.876C-440.739 869.882 -456.531 907.366 -456.531 918.592C-456.531 927.573 -431.162 952.016 -418.477 963.116C-402.811 977.386 -366.228 1008.36 -345.222 1018.1C-318.964 1030.28 -287.569 1042.65 -273.489 1052.16C-259.409 1061.68 -230.868 1076.9 -228.585 1089.46C-226.302 1102.01 -227.824 1116.09 -220.403 1126.56C-214.467 1134.93 -190.911 1163.41 -179.875 1176.6C-176.133 1183.58 -159.25 1222.27 -160.467 1237.49C-161.685 1252.71 -162.362 1218.08 -164.392 1215.61C-166.738 1213.77 -177.287 1218.04 -175.309 1226.26C-173.33 1234.48 -173.406 1248.02 -170.171 1250.43C-163.702 1251.06 -149.926 1251.95 -146.577 1250.43C-143.229 1248.9 -141.123 1247.89 -140.489 1247.57M-43.0693 529.675C-21.1245 535.51 26.9129 546.914 43.5047 545.848C64.2444 544.516 78.1343 563.924 91.4533 565.446M-140.489 1247.57C-138.079 1248.97 -131.698 1251.49 -125.457 1250.43C-119.216 1249.36 -114.992 1248.08 -113.66 1247.57M-140.489 1247.57C-138.205 1245.23 -133.03 1237.68 -130.595 1226.26C-127.55 1211.99 -121.462 1190.68 -118.988 1188.4C-117.009 1186.57 -115.753 1184.47 -115.373 1183.64M-113.66 1247.57C-111.884 1248.33 -107.001 1249.63 -101.673 1248.71C-96.3456 1247.8 -92.6035 1245.29 -91.3985 1244.15C-89.3055 1234.76 -84.9673 1214.24 -84.3584 1207.24C-83.7495 1200.23 -80.9335 1196.96 -79.6016 1196.2L-70.6588 1210.85C-66.4728 1217.7 -58.1008 1233.3 -58.1008 1240.91C-58.1008 1250.43 -66.8533 1264.89 -67.0436 1274.59C-67.1958 1282.35 -64.9506 1295.08 -63.809 1300.47C-65.2677 1304.84 -66.4728 1311.5 -59.623 1303.13C-51.0607 1292.67 -43.8304 1256.33 -42.3082 1251.95C-40.786 1247.57 -38.693 1240.72 -39.8346 1237.49C-40.9763 1234.25 -56.7689 1185.92 -61.1452 1183.64C-65.5214 1181.36 -95.3942 1158.14 -108.142 1132.08C-120.891 1106.01 -136.683 1073.09 -154.949 1059.58C-173.216 1046.07 -189.389 1042.84 -206.704 1029.9C-224.018 1016.96 -282.622 962.925 -299.937 938C-313.789 918.059 -333.488 896.457 -341.607 888.148M-113.66 1247.57C-111.25 1245.29 -106.126 1237.83 -104.908 1226.26C-103.386 1211.8 -96.7261 1188.78 -94.0623 1187.07M-341.607 888.148C-306.216 848.064 -233.228 763.71 -224.399 746.966C-213.363 726.036 -159.135 683.986 -150.763 686.46M-341.607 888.148C-344.207 883.836 -352.947 872.774 -367.103 863.032C-381.259 853.29 -392.917 849.84 -396.976 849.333M-150.763 686.46C-142.391 688.933 -87.9736 797.008 -63.2381 825.929C-38.5027 854.851 42.7436 970.156 44.0755 1018.87C45.4074 1067.58 47.1198 1092.69 44.0755 1132.08C41.0311 1171.46 25.9996 1267.93 25.9996 1346.32C25.9996 1424.72 27.3315 1509.01 71.4747 1575.6C106.789 1628.88 182.467 1723.51 215.891 1764.16L694.617 1616.7C674.575 1576.17 623.113 1479.63 577.599 1417.68C520.708 1340.24 454.303 1253.47 422.718 1212.75C391.132 1172.03 354.6 1148.63 334.812 1105.06C315.023 1061.49 297.328 985.948 286.102 958.549C274.876 931.15 280.394 893.286 280.013 869.882C279.709 851.159 277.35 804.999 276.208 784.26M-150.763 686.46C-143.914 683.669 -127.969 678.354 -118.988 679.42M276.208 784.26C281.481 781.774 289.835 777.119 297.138 771.48M276.208 784.26C275.257 784.83 269.472 786.277 253.946 787.494C238.42 788.712 220.331 780.898 213.228 776.839M262.128 623.479C261.62 630.583 265.895 652.629 287.053 683.986C313.501 723.182 316.355 739.736 311.218 754.958C309.284 760.686 303.626 766.471 297.138 771.48M297.138 771.48C297.962 780.624 301.476 805.722 308.935 832.969C318.258 867.028 344.516 931.53 347.56 964.257C350.604 996.984 364.114 1029.33 377.433 1038.08C388.088 1045.09 435.022 972.883 457.157 935.907C465.529 918.782 483.795 877.151 489.884 847.62C495.972 818.09 503.076 747.664 505.867 716.142C506.564 687.792 506.209 624.964 499.207 600.456C492.205 575.949 474.599 537.096 466.671 520.732C465.402 504.115 462.104 470.234 459.06 467.646C456.015 465.059 454.747 471.262 454.493 474.686C451.259 476.399 444.637 482.069 444.028 491.05C443.419 500.031 442.125 502.53 441.555 502.656M441.555 502.656C435.846 502.213 423.441 501.591 419.483 502.656C414.536 503.988 411.111 509.126 402.929 514.263C396.384 518.373 375.34 525.743 365.636 528.914C365.065 530.436 365.255 533.328 370.583 532.72C377.242 531.958 371.154 537.476 380.858 537.476C388.621 537.476 396.904 534.305 400.075 532.72M441.555 502.656C448.214 511.98 462.561 531.311 466.671 534.051M400.075 532.72C397.665 533.544 400.075 537.286 396.46 542.233C392.84 547.187 390.562 551.556 391.323 553.269M400.075 532.72C401.471 529.929 405.783 524.309 411.872 524.157C419.483 523.967 449.546 556.313 457.157 560.69C463.834 564.529 469.778 566.334 471.808 566.969M391.323 553.269C392.084 554.981 388.088 557.265 388.849 564.495C389.61 571.725 388.849 579.907 391.323 580.288M391.323 553.269C392.528 551.113 396.308 547.294 401.788 549.273C408.637 551.747 426.904 567.159 440.984 574.77C452.248 580.858 462.802 585.806 466.671 587.518M391.323 580.288C393.796 580.668 389.23 579.527 387.137 587.518C385.044 595.509 379.906 616.059 382.38 626.714C384.359 635.238 406.291 643.712 417.009 646.883C419.229 648.532 423.403 650.841 422.337 646.883C421.272 642.925 416.312 637.242 413.965 634.896M391.323 580.288C393.733 579.78 399.771 579.641 404.642 583.142C410.73 587.518 439.462 615.488 446.882 619.484C452.819 622.68 456.206 623.733 457.157 623.86M413.965 634.896C417.39 635.974 424.887 639.729 427.474 646.122C430.709 654.113 432.992 667.052 439.271 680.181C444.938 692.028 445.026 700.312 452.4 707.829M413.965 634.896C408.574 630.964 397.373 622.376 395.699 619.484M478.467 719.377C474.028 719.06 463.131 716.789 455.064 710.244C454.08 709.445 453.197 708.642 452.4 707.829M452.4 707.829C451.385 735.589 444.98 797.579 427.474 823.456C421.711 831.976 414.826 839.981 407.698 847.62M355.932 942.566C355.742 939.078 356.579 926.964 361.45 906.415C365.935 887.494 387.764 868.985 407.698 847.62M407.698 847.62C402.43 837.853 390.942 813.409 387.137 793.773C382.38 769.228 379.526 699.398 379.145 673.141C378.765 646.883 368.109 590.372 347.179 577.434C327.965 565.556 300.893 551.593 255.658 552.622M128.176 561.641C133.884 561.641 143.778 553.269 158.239 549.273C172.7 545.277 190.205 557.455 243.1 553.269C247.436 552.926 251.62 552.714 255.658 552.622M-85.5 686.46C-77.8257 683.415 -58.5955 685.09 -43.0693 716.142C-23.6615 754.958 -10.1522 765.17 4.68908 771.48M124.561 743.351C128.366 736.667 135.977 720.206 135.977 707.829M203.143 1044.77C201.875 1052.44 200.099 1069.42 203.143 1075.97C206.188 1082.52 211.135 1088.34 213.228 1090.43L208.281 1066.46" stroke="#EDD1BF" stroke-width="2"/>
<path d="M-89.2672 165.091C-64.1513 108.313 -11.1921 102.364 12.148 106.487C19.9492 102.618 40.2704 94.5376 59.1454 93.1676C82.7392 91.4552 113.373 103.062 142.104 118.854C170.835 134.647 175.212 144.922 190.624 162.807C206.036 180.693 237.621 266.125 247.325 285.533L179.398 263.652L169.313 278.873C162.907 285.406 148.497 298.471 142.104 298.471C134.113 298.471 123.077 291.051 75.1283 257.943C36.7694 231.458 9.38297 201.519 0.313309 185.472C-3.11159 206.149 -6.57469 246.755 8.34267 278.873C26.9894 319.021 55.7205 376.674 88.0668 412.445C120.413 448.216 142.257 468.407 161.664 479.611L169.313 486.651L150.096 479.611C137.284 472.38 107.741 453.962 92.0625 438.131C72.4645 418.343 -10.9128 307.247 -19.2468 252.616C-25.907 208.958 -30.384 199.109 -25.5637 185.472C-45.6057 208.495 -58.8614 219.128 -81.1233 285.533C-88.9662 308.928 -79.4998 344.454 -77.8508 360.5C-78.1045 362.974 -77.3941 376.826 -72.5231 412.445C-67.6522 448.064 -36.7519 488.934 -21.9107 504.917C-23.4963 503.775 -29.3693 499.019 -40.1768 489.124C-50.9843 479.23 -84.2566 431.218 -99.5418 408.449C-108.231 394.115 -127.093 358.522 -133.03 330.818C-140.451 296.188 -120.662 236.062 -89.2672 165.091Z" fill="url(#paint8_linear_84_1474)"/>
<path d="M53.3821 311.813C46.2279 311.509 37.653 310.355 35.116 307.627L31.3105 311.052L37.5895 311.813L35.116 317.331L41.5853 313.526V318.473L49.3864 315.619L51.6697 318.473L60.4222 316.57L63.086 317.331L66.8915 315.619H70.1261L72.9802 312.765L76.2148 314.287L79.83 310.481L84.9674 314.287V308.959L92.1977 310.481L84.9674 305.725C77.293 308.706 60.5364 312.118 53.3821 311.813Z" fill="#D0A8A8"/>
<path d="M155.945 306.486C160.511 302.744 170.672 295.26 174.782 295.26C178.892 295.26 176.494 311.369 174.782 319.424C172.816 325.133 166.296 338.49 155.945 346.253C145.594 354.016 140.216 359.255 138.82 360.904" stroke="#EDD1BF" stroke-width="3"/>
<path d="M24.0664 270.265C25.2495 269.168 31.6975 267.634 48.0245 270.265C64.3515 272.896 80.4616 273.691 86.4758 273.759" stroke="#D0A8A8" stroke-width="3"/>
<path d="M-14.3457 407.901C-13.648 407.013 -8.94197 405.77 4.301 407.901C17.544 410.032 27.8314 410.819 31.3197 410.946" stroke="#D0A8A8" stroke-width="3"/>
<path d="M156.465 798.521C158.404 807.898 159.522 829.683 148.482 841.814C144.894 854.42 132.937 879.454 113.813 878.747C102.181 883.641 75.5687 888.887 62.1701 870.717C46.7817 855.819 54.8273 826.5 74.9484 849.694L87.2699 847.015L91.3591 839.031C90.1578 833.886 88.4252 823.249 91.1055 821.855C93.2201 820.756 88.7705 818.097 84.7022 816.152C83.6139 815.632 82.5528 815.163 81.652 814.788C80.0342 810.748 77.2925 802.357 79.2687 801.116C79.2863 801.104 79.3039 801.092 79.3216 801.08C81.1657 799.67 68.4658 793.317 69.5881 775.855C69.7721 772.992 70.3277 769.83 71.3797 766.343C71.0923 764.135 70.5666 761.025 69.7969 757.565C68.161 750.209 65.4232 741.269 61.5313 736.049C61.5409 734.358 62.8207 731.917 67.8626 735.686L53.0448 713.568C52.7611 711.941 53.8742 709.942 60.5967 714.967C60.1427 714.225 59.556 713.318 58.8611 712.304C55.646 707.611 50.1154 700.628 44.6996 697.138C38.1133 692.894 56.3781 694.261 66.3338 695.475C66.1732 692.807 67.6065 688.103 74.6246 690.632C81.6426 693.16 104.036 702.143 115.137 708.176C115.443 708.239 115.76 708.312 116.087 708.395C126.855 711.151 147.956 725.295 147.953 749.693C149.818 752.906 152.07 757.427 154.074 762.552C158.619 774.174 161.888 788.901 156.465 798.521Z" fill="#D1593E" fill-opacity="0.4"/>
<path d="M63.309 737.693C63.3187 736.002 64.5984 733.561 69.6403 737.33L54.8225 715.212C54.5388 713.585 55.6519 711.586 62.3744 716.611C61.9204 715.869 61.3337 714.962 60.6388 713.948C57.4237 709.255 51.8931 702.272 46.4773 698.782C39.891 694.538 58.1558 695.905 68.1115 697.119C67.9509 694.451 69.3842 689.747 76.4023 692.275C83.4203 694.804 105.814 703.787 116.914 709.82C117.221 709.883 117.538 709.956 117.865 710.039C103.782 711.675 93.2031 719.956 85.6717 729.737C82.197 734.25 79.3709 739.082 77.1484 743.727C74.3875 749.498 72.5583 754.982 71.5746 759.208C69.9387 751.852 67.2009 742.913 63.309 737.693Z" fill="#D1593E" fill-opacity="0.4"/>
<path d="M148.59 842.344C145.002 854.95 133.044 879.984 113.92 879.277C102.289 884.171 75.6761 889.417 62.2775 871.248C46.8891 856.349 54.9347 827.03 75.0558 850.225L87.3773 847.546L91.4665 839.561C103.874 842.607 132.669 847.428 148.59 842.344Z" fill="#D1593E" fill-opacity="0.4"/>
<path d="M84.8096 816.683C88.8779 818.628 93.3275 821.286 91.2129 822.385C108.59 817.256 145.989 805.407 156.572 799.052L84.8096 816.683Z" fill="#D1593E" fill-opacity="0.4"/>
<path d="M141.984 736.341C143.849 739.554 152.177 757.958 154.182 763.083C150.749 754.916 102.952 785.341 79.429 801.61C79.4125 801.623 79.3949 801.635 79.3761 801.647C79.3937 801.635 79.4113 801.622 79.429 801.61C81.273 800.2 68.5732 793.848 69.6955 776.385C70.2809 785.38 76.7843 799.372 98.1147 783.382C124.778 763.394 146.07 759.778 141.984 736.341Z" fill="#D1593E" fill-opacity="0.4"/>
<path d="M65.9657 738.672C67.0131 739.458 70.4094 750.207 71.4972 754.7L75.246 744.763C73.5147 740.071 64.4821 737.559 65.9657 738.672Z" fill="#FFAB99" fill-opacity="0.4"/>
<path d="M70.9032 735.571L76.3253 740.474L83.4244 728.794C78.5419 721.747 64.0913 717.456 57.4763 716.192L70.9032 735.571Z" fill="#FFAB99" fill-opacity="0.4"/>
<path d="M85.8946 727.244C82.7159 717.394 68.2199 713.18 61.3693 712.305C56.9965 708.188 50.7187 698.403 48.7906 697.809C47.2464 697.333 61.86 697.67 68.1249 698.673C78.3679 702.932 89.6698 712.233 92.7945 719.662L85.8946 727.244Z" fill="#FFAB99" fill-opacity="0.4"/>
<path d="M80.3442 802.449C78.368 803.69 81.8288 809.988 83.4467 814.028C84.3475 814.403 85.5793 814.617 86.6677 815.138L155.734 798.497C161.157 788.877 158.161 774.93 153.616 763.308C150.181 755.136 103.848 786.189 80.3442 802.449Z" fill="#FFAB99" fill-opacity="0.4"/>
<path d="M73.5898 766.745C72.5377 770.233 72.32 772.8 72.136 775.663C72.7214 784.658 77.0494 799.391 98.3797 783.4C125.043 763.413 146.335 759.797 142.249 736.359C138.981 717.609 121.961 717.796 113.86 720.233C101.699 725.58 78.0892 742.252 73.5898 766.745Z" fill="#FFAB99" fill-opacity="0.4"/>
<path d="M132.748 744.426C127.396 762.612 98.8373 770.845 80.2997 776.717C77.9238 777.469 75.7738 779.506 76.1677 781.959C76.7145 785.364 79.6935 786.112 81.5261 785.972C117.346 769.263 131.782 759.84 137.83 747.376C140.131 744.848 136.272 732.453 132.748 744.426Z" fill="#FFD9D1" fill-opacity="0.8"/>
<path d="M150.921 786.882C144.798 798.068 124.63 799.078 110.876 799.913C108.445 800.06 105.629 801.636 106.318 804.016C106.776 805.599 108.295 806.315 109.361 806.491C136.692 801.188 148.085 797.218 154.052 789.754C156.012 788.422 155.059 779.323 150.921 786.882Z" fill="#FFD9D1" fill-opacity="0.8"/>
<path d="M94.9511 836.772C93.4067 836.297 93.419 827.983 93.6182 823.885L152.005 805.243C152.656 805.035 153.293 805.52 153.256 806.207C152.696 816.331 150.897 836.237 146.453 838.75C140.633 842.043 96.8817 837.366 94.9511 836.772Z" fill="#FFAB99" fill-opacity="0.4"/>
<path d="M145.199 828.109C139.336 835.227 124.88 833.025 114.589 831.407C112.223 831.035 108.889 832.318 110.084 834.509C110.476 835.226 111.171 835.696 111.727 835.916C132.735 836.428 141.724 835.333 147.145 830.755C148.777 830.084 149.273 823.162 145.199 828.109Z" fill="#FFD9D1" fill-opacity="0.8"/>
<path d="M92.2979 842.422L89.7988 849.046C105.269 880.145 115.66 876.872 122.531 874.364C128.424 872.213 138.957 858.45 143.833 848.718C144.26 847.864 143.314 846.866 142.4 847.07C131.988 849.399 104.728 845.546 92.2979 842.422Z" fill="#FFAB99" fill-opacity="0.4"/>
<path d="M128.003 866.935C120.85 873.545 114.104 872.404 107.623 866.907C105.464 865.076 100.91 866.572 103.419 867.777C116.011 875.87 116.646 875.478 121.288 872.612L121.304 872.602C122.682 872.262 131.552 863.654 128.003 866.935Z" fill="#FFD9D1" fill-opacity="0.8"/>
<path d="M69.5534 696.337C78.5475 697.625 90.4476 711.39 95.2733 718.112L110.975 708.616C103.603 706.503 89.0879 700.805 82.3861 696.588C75.2037 692.068 71.3233 694.263 69.5534 696.337Z" fill="#FFAB99" fill-opacity="0.4"/>
<path d="M85.3789 850.003L75.6973 852.108L65.3892 871.58C74.1777 884.265 97.9716 882.064 108.77 879.379C97.6635 878.55 88.5482 859.449 85.3789 850.003Z" fill="#FFAB99" fill-opacity="0.4"/>
<path d="M59.3729 847.549C61.8039 840.533 69.2815 846.746 72.7164 850.729L61.8976 867.271C60.0431 863.62 56.9418 854.564 59.3729 847.549Z" fill="#FFAB99" fill-opacity="0.4"/>
<path d="M97.7461 878.086C85.5526 878.196 79.2541 877.056 73.0753 871.789C70.9204 869.952 66.369 871.445 68.8785 872.649C81.4849 880.752 84.3297 880.64 88.779 879.021C90.1573 878.682 102.359 878.044 97.7461 878.086Z" fill="#FFD9D1" fill-opacity="0.8"/>
<path d="M61.3594 859.278C59.5973 857.961 59.5825 853.523 60.021 849.639C60.1418 848.569 61.4399 848.496 61.6359 849.543C62.6257 854.828 63.3051 860.732 61.3594 859.278Z" fill="#FFD9D1" fill-opacity="0.8"/>
<path d="M171.335 796.383C172.809 805.861 178.019 826.757 187.071 834.519C192.319 845.203 205.29 864.817 215.186 857.8C222.623 858.548 238.053 854.652 240.281 833.085C244.428 813.939 232.38 788.989 227.945 817.523L220.734 819.091L216.452 812.927C215.716 807.681 213.797 797.084 212.013 796.661C210.605 796.327 212.243 792.345 213.871 789.162C214.306 788.31 214.741 787.516 215.116 786.864C214.894 782.52 214.105 773.704 212.733 773.192C211.257 772.641 216.4 762.4 211.112 746.178C210.252 743.541 209.118 740.747 207.634 737.811C207.198 735.636 206.647 732.532 206.132 729.016C205.036 721.542 204.099 712.211 204.762 706.001C204.307 704.411 202.982 702.536 201.327 707.762L203.252 682.003C202.968 680.376 201.849 678.862 199.642 685.829C199.684 684.979 199.751 683.93 199.848 682.743C200.294 677.255 201.351 668.839 203.278 663.753C205.621 657.568 196.353 664.921 191.427 669.371C190.801 666.804 188.793 662.848 185.765 667.561C182.738 672.274 173.321 688.174 169.073 697.544C168.928 697.705 168.781 697.879 168.631 698.066C163.686 704.238 156.325 724.57 162.823 747.555C162.695 751.201 162.711 756.209 163.018 761.703C163.716 774.161 165.913 789.121 171.335 796.383Z" fill="#D1593E" fill-opacity="0.4"/>
<path d="M204.247 708.135C203.792 706.545 202.467 704.671 200.812 709.896L202.737 684.138C202.453 682.51 201.334 680.997 199.127 687.963C199.169 687.114 199.237 686.064 199.333 684.878C199.779 679.389 200.836 670.974 202.763 665.887C205.106 659.702 195.838 667.055 190.912 671.505C190.286 668.938 188.278 664.983 185.25 669.695C182.223 674.408 172.806 690.308 168.559 699.678C168.414 699.839 168.266 700.013 168.116 700.2C175.978 697.064 183.761 701.353 190.337 708.067C193.37 711.164 196.147 714.778 198.556 718.416C201.548 722.936 203.973 727.495 205.617 731.15C204.521 723.677 203.585 714.345 204.247 708.135Z" fill="#D1593E" fill-opacity="0.4"/>
<path d="M188.004 834.909C193.23 845.603 206.138 865.24 215.96 858.237C223.348 858.996 238.67 855.124 240.856 833.557C244.953 814.415 232.954 789.443 228.584 817.974L221.423 819.531L217.162 813.359C211.477 820.341 197.687 834.426 188.004 834.909Z" fill="#D1593E" fill-opacity="0.4"/>
<path d="M214.569 789.587C212.956 792.768 211.333 796.749 212.732 797.084C202.275 798.006 179.553 799.229 172.325 796.744L214.569 789.587Z" fill="#D1593E" fill-opacity="0.4"/>
<path d="M164.022 762.046C163.71 756.551 163.18 736.443 163.302 732.796C167.39 756.243 179.495 752.597 198.759 762.605C214.171 770.61 213.858 755.266 211.775 746.593C217.048 762.826 211.952 773.06 213.419 773.613C196.798 766.073 163.649 753.204 164.022 762.046Z" fill="#D1593E" fill-opacity="0.4"/>
<path d="M203.092 709.95C202.749 711.039 203.82 722.293 204.443 726.888L199.82 718.771C199.484 713.776 203.578 708.409 203.092 709.95Z" fill="#FFAB99" fill-opacity="0.4"/>
<path d="M199.663 708.669L198.109 715.088L191.256 706.443C191.954 698.182 198.432 689.341 201.583 685.952L199.663 708.669Z" fill="#FFAB99" fill-opacity="0.4"/>
<path d="M189.54 705.802C188.594 695.466 195.116 686.683 198.495 683.583C199.705 678.252 200.41 666.949 201.269 665.749C201.956 664.788 194.34 669.958 191.304 672.984C187.036 680.399 183.553 692.914 183.883 700.951L189.54 705.802Z" fill="#FFAB99" fill-opacity="0.4"/>
<path d="M211.877 773.803C213.25 774.316 213.987 783.214 214.21 787.558C213.835 788.21 213.293 788.764 212.858 789.615L172.5 796.634C167.079 789.371 164.303 773.909 163.605 761.45C163.241 752.61 195.154 766.29 211.877 773.803Z" fill="#FFAB99" fill-opacity="0.4"/>
<path d="M207.573 738.447C209.057 741.383 210.191 744.177 211.051 746.813C213.137 755.482 213.433 770.824 197.928 762.843C178.546 752.867 166.355 756.532 162.27 733.094C159.001 714.344 168.025 708.868 172.946 708.474C180.783 709.472 198.679 716.866 207.573 738.447Z" fill="#FFAB99" fill-opacity="0.4"/>
<path d="M169.404 737.544C176.614 751.99 192.31 751.316 203.585 750.666C206.282 750.511 208.973 751.951 209.317 754.653C209.703 757.684 208.425 759.224 207.476 759.674C184.139 755.829 174.017 751.745 167.51 742.011C165.623 740.393 164.358 727.434 169.404 737.544Z" fill="#FFD9D1" fill-opacity="0.8"/>
<path d="M171.128 783.58C176.882 791.463 186.671 787.102 194.025 783.411C196.36 782.239 199.263 782.586 199.242 785.527C199.233 786.849 198.713 787.8 198.265 788.252C182.44 792.332 175.376 792.376 170.241 787.325C168.854 786.721 166.933 777.832 171.128 783.58Z" fill="#FFD9D1" fill-opacity="0.8"/>
<path d="M213.957 811.992C214.645 811.032 212.425 803.203 211.229 799.409L176.004 801.209C175.338 801.243 174.867 801.912 175.07 802.548C178.059 811.897 184.312 830.067 187.326 830.959C191.272 832.129 213.097 813.193 213.957 811.992Z" fill="#FFAB99" fill-opacity="0.4"/>
<path d="M185.117 820.518C189.749 824.939 196.15 819.321 201.041 814.539C202.852 812.768 205.903 812.534 205.249 815.674C205.155 816.127 204.999 816.502 204.846 816.758C193.905 824.216 188.873 826.17 184.795 823.657C183.756 823.567 181.651 817.21 185.117 820.518Z" fill="#FFD9D1" fill-opacity="0.8"/>
<path d="M216.836 816.428L219.918 821.839C220.04 856.275 213.689 856.642 209.398 856.562C205.743 856.493 196.627 847.155 191.445 839.631C190.931 838.885 191.72 837.484 192.594 837.183C199.044 834.963 211.391 823.156 216.836 816.428Z" fill="#FFAB99" fill-opacity="0.4"/>
<path d="M204.548 851.382C209.892 855.104 213.109 852.137 215.084 845.322C215.851 842.673 218.881 841.763 217.736 844.011C213.25 855.818 212.811 855.659 209.6 854.5L209.589 854.496C208.772 854.634 201.803 849.471 204.548 851.382Z" fill="#FFD9D1" fill-opacity="0.8"/>
<path d="M189.929 671.253C185.529 675.454 182.919 692.374 182.164 700.309L171.356 696.577C174.681 692.138 180.818 681.95 183.229 675.751C185.813 669.108 188.444 669.887 189.929 671.253Z" fill="#FFAB99" fill-opacity="0.4"/>
<path d="M222.498 821.278L228.163 820.046L238.784 834.968C237.527 849.837 224.394 855.666 217.984 856.722C223.62 852.253 223.342 831.231 222.498 821.278Z" fill="#FFAB99" fill-opacity="0.4"/>
<path d="M235.558 810.33C232.408 804.528 230.119 812.864 229.368 817.757L239.478 829.749C239.483 825.694 238.708 816.132 235.558 810.33Z" fill="#FFAB99" fill-opacity="0.4"/>
<path d="M223.463 851.841C229.693 848.036 232.722 844.956 234.594 838.448C235.357 835.797 238.384 834.885 237.238 837.133C232.748 848.953 231.218 849.792 228.441 849.745C227.624 849.883 221.02 853.334 223.463 851.841Z" fill="#FFD9D1" fill-opacity="0.8"/>
<path d="M237.657 822.043C238.077 820.717 237.573 818.146 236.78 815.492C236.449 814.381 235.224 814.763 235.438 815.908C236.234 820.147 237.136 823.687 237.657 822.043Z" fill="#FFD9D1" fill-opacity="0.8"/>
<path d="M144.281 709.742C149.351 742.158 152.649 754.85 148.707 754.457L154.014 762.438C161.083 760.032 156.017 752.021 156.556 749.404C158.452 753.283 159.16 760.25 163.539 760.367L165.79 759.287L166.715 752.077C156.3 752.328 151.806 720.472 151.348 708.892C148.916 706.42 144.771 708.385 144.281 709.742Z" fill="#D1593E" fill-opacity="0.4"/>
</g>
<defs>
<linearGradient id="paint0_linear_84_1474" x1="405.514" y1="-0.507126" x2="257.583" y2="872.49" gradientUnits="userSpaceOnUse">
<stop stop-color="#88E9F4"/>
<stop offset="1" stop-color="#68D4E1"/>
</linearGradient>
<linearGradient id="paint1_linear_84_1474" x1="1205.7" y1="-33.5071" x2="1353.63" y2="839.49" gradientUnits="userSpaceOnUse">
<stop stop-color="#88E9F4"/>
<stop offset="1" stop-color="#68D4E1"/>
</linearGradient>
<linearGradient id="paint2_linear_84_1474" x1="702.958" y1="1" x2="703.143" y2="807.483" gradientUnits="userSpaceOnUse">
<stop stop-color="#88E9F4"/>
<stop offset="0.816382" stop-color="#6FD9E6"/>
</linearGradient>
<linearGradient id="paint3_linear_84_1474" x1="667.236" y1="851.549" x2="643.03" y2="1056.86" gradientUnits="userSpaceOnUse">
<stop offset="0.14" stop-opacity="0"/>
<stop offset="0.995"/>
</linearGradient>
<linearGradient id="paint4_linear_84_1474" x1="667.904" y1="624.659" x2="550.61" y2="1130.63" gradientUnits="userSpaceOnUse">
<stop offset="0.485" stop-opacity="0"/>
<stop offset="0.810679"/>
</linearGradient>
<linearGradient id="paint5_linear_84_1474" x1="841" y1="704" x2="842.499" y2="1050.03" gradientUnits="userSpaceOnUse">
<stop stop-color="#52B9CB"/>
<stop offset="1" stop-color="#295C65"/>
</linearGradient>
<linearGradient id="paint6_linear_84_1474" x1="975.316" y1="564" x2="1080.87" y2="1058.79" gradientUnits="userSpaceOnUse">
<stop offset="0.152242" stop-opacity="0"/>
<stop offset="1"/>
</linearGradient>
<linearGradient id="paint7_linear_84_1474" x1="502.682" y1="93" x2="502.682" y2="1211.89" gradientUnits="userSpaceOnUse">
<stop stop-color="#B84141"/>
<stop offset="1" stop-color="#FF857F"/>
</linearGradient>
<linearGradient id="paint8_linear_84_1474" x1="-81.6941" y1="93" x2="56.3674" y2="504.917" gradientUnits="userSpaceOnUse">
<stop stop-color="#CF4848"/>
<stop offset="1" stop-color="#DC6464"/>
</linearGradient>
<clipPath id="clip0_84_1474">
<rect width="1440" height="1024" fill="white"/>
</clipPath>
</defs>
</svg>
