<svg width="73" height="41" viewBox="0 0 73 41" fill="none" xmlns="http://www.w3.org/2000/svg">
<path d="M6.05693 10.5207C8.81019 2.9451 19.4102 4.74882 24.3661 6.59763C22.0534 9.30321 22.8518 13.4067 23.5401 15.1202C25.7427 17.0141 26.431 13.6322 28.496 15.1202C30.1479 16.3107 29.0925 20.9372 28.3583 23.1017C27.0276 21.5234 24.0357 18.7728 22.7141 20.3961C21.3926 22.0195 22.7141 23.6879 23.5401 24.3192C20.4565 27.9988 16.2899 26.8444 14.592 25.8073C13.8211 25.0497 12.5271 25.4916 11.9764 25.8073C11.3157 26.9977 13.4448 28.0168 14.592 28.3776C7.98421 27.9447 4.77208 22.4253 3.99199 19.7197C1.1286 17.9881 0.137424 15.6613 -0.000238419 14.7144C4.40497 13.7404 5.87338 11.5128 6.05693 10.5207Z" fill="#7DDEEA" fill-opacity="0.69"/>
<path d="M36.9241 22.4692C39.6774 14.8936 50.2774 16.6973 55.2333 18.5461C52.9205 21.2517 53.719 25.3552 54.4073 27.0687C56.6099 28.9626 57.2982 25.5806 59.3632 27.0687C61.0151 28.2592 59.9597 32.8857 59.2255 35.0502C57.8948 33.4719 54.9029 30.7212 53.5813 32.3446C52.2598 33.9679 53.5813 35.6364 54.4073 36.2677C51.3237 39.9473 47.1571 38.7929 45.4592 37.7558C44.6883 36.9982 43.3943 37.4401 42.8436 37.7558C42.1828 38.9462 44.312 39.9653 45.4592 40.3261C38.8514 39.8932 35.6393 34.3738 34.8592 31.6682C31.9958 29.9366 31.0046 27.6098 30.8669 26.6629C35.2722 25.6889 36.7406 23.4613 36.9241 22.4692Z" fill="#7DDEEA" fill-opacity="0.69"/>
<path d="M33.449 2.83007C34.849 -1.03834 40.2388 -0.117293 42.7588 0.826783C41.5828 2.20835 41.9888 4.30374 42.3388 5.17874C43.4588 6.14585 43.8088 4.41888 44.8587 5.17874C45.6987 5.78664 45.162 8.14913 44.7887 9.25439C44.1121 8.44847 42.5908 7.04387 41.9188 7.87281C41.2468 8.70176 41.9188 9.55373 42.3388 9.87609C40.7708 11.755 38.6522 11.1656 37.7889 10.636C37.3969 10.2491 36.7389 10.4748 36.459 10.636C36.123 11.2439 37.2056 11.7642 37.7889 11.9485C34.429 11.7274 32.7957 8.90899 32.3991 7.52742C30.9431 6.64321 30.4391 5.45506 30.3691 4.97151C32.6091 4.47414 33.3557 3.33664 33.449 2.83007Z" fill="#7DDEEA" fill-opacity="0.69"/>
<path d="M60.8309 14.7786C62.2308 10.9101 67.6207 11.8312 70.1406 12.7753C68.9646 14.1568 69.3706 16.2522 69.7206 17.1272C70.8406 18.0943 71.1906 16.3674 72.2406 17.1272C73.0805 17.7351 72.5439 20.0976 72.1706 21.2029C71.4939 20.397 69.9726 18.9924 69.3006 19.8213C68.6287 20.6502 69.3006 21.5022 69.7206 21.8246C68.1527 23.7035 66.0341 23.1141 65.1708 22.5844C64.7788 22.1976 64.1208 22.4233 63.8408 22.5844C63.5048 23.1923 64.5874 23.7127 65.1708 23.8969C61.8108 23.6759 60.1776 20.8575 59.7809 19.4759C58.3249 18.5917 57.821 17.4035 57.751 16.92C59.9909 16.4226 60.7375 15.2851 60.8309 14.7786Z" fill="#7DDEEA" fill-opacity="0.69"/>
<path d="M51.736 6.2495C52.6227 3.83175 56.0363 4.4074 57.6322 4.99745C56.8874 5.86093 57.1446 7.17055 57.3662 7.71743C58.0755 8.32187 58.2972 7.24251 58.9622 7.71743C59.4942 8.09736 59.1543 9.57392 58.9179 10.2647C58.4893 9.76101 57.5258 8.88313 57.1002 9.40122C56.6746 9.91931 57.1002 10.4518 57.3662 10.6533C56.3732 11.8276 55.0314 11.4592 54.4846 11.1282C54.2364 10.8864 53.8197 11.0274 53.6423 11.1282C53.4295 11.5081 54.1152 11.8334 54.4846 11.9485C52.3567 11.8103 51.3223 10.0488 51.0711 9.18535C50.149 8.63272 49.8298 7.89012 49.7854 7.5879C51.2041 7.27705 51.6769 6.56611 51.736 6.2495Z" fill="#7DDEEA" fill-opacity="0.69"/>
</svg>
