<svg width="1214" height="1214" viewBox="0 0 1214 1214" fill="none" xmlns="http://www.w3.org/2000/svg">
<circle cx="607" cy="607" r="607" fill="#68D4E1"/>
<path d="M420.179 470.09C479.784 301.644 709.265 341.75 816.555 382.859C766.487 443.018 783.772 534.26 798.674 572.362C846.358 614.473 861.259 539.274 905.963 572.362C941.727 598.832 918.878 701.705 902.983 749.832C874.174 714.739 809.403 653.577 780.792 689.673C752.181 725.768 780.792 762.867 798.674 776.904C731.915 858.721 641.712 833.053 604.956 809.992C588.266 793.147 560.252 802.973 548.33 809.992C534.025 836.462 580.12 859.122 604.956 867.143C461.902 857.518 392.363 734.792 375.474 674.633C313.485 636.131 292.027 584.393 289.046 563.338C384.415 541.68 416.205 492.149 420.179 470.09Z" fill="#023554"/>
</svg>
