<svg width="21" height="21" viewBox="0 0 21 21" fill="none" xmlns="http://www.w3.org/2000/svg">
<circle cx="10.5" cy="10.5" r="10.5" fill="#68D4E1"/>
<path d="M7.54702 5.17531C7.26941 5.45652 6.55588 5.33823 6.13282 5.21662C6.06706 5.19772 6 5.2461 6 5.31451V6.35062C6 6.66403 6.37108 8.21646 6.5 9C6.75784 10.0447 6.88676 11.7424 7.27351 12.9177C7.66027 14.093 9.4808 16.5366 10.2543 16.9284C10.6457 17.1266 11.8013 16.9284 12.5748 16.1448C12.8903 15.8253 13.5203 14.5 14.5 14.5C15.5 14.5 15.8608 13.5326 16 13C16.1353 12.4821 16.5275 11.2354 16.5218 10.3228C16.5212 10.2244 16.3958 10.2001 16.347 10.2855C16.0724 10.7659 15.6836 11.3164 15.5 11.5L14.5 12.5C14.3176 12.6824 13.9236 12.8174 13.6481 12.9329C13.5794 12.9618 13.5 12.9119 13.5 12.8374V12V10.8083V8.4503C13.5 8.34333 13.3547 8.31109 13.3094 8.40801L12.1953 10.7928C12.1905 10.8031 12.1844 10.8115 12.1777 10.8207C11.9929 11.0733 11.8084 13.0251 12.1881 13.7942C12.5748 14.5778 11.8013 15.7531 11.0278 15.7531C10.4132 15.7531 9.74772 14.9801 9.4861 14.5858C9.48247 14.5803 9.47855 14.5755 9.47399 14.5708C8.7104 13.7784 9.23536 11.1042 9.4808 10.2683C10 8.5 10.2543 8 9.86756 6.74238C9.60781 5.89776 8.92535 4.67987 8.41609 4.10273C8.3706 4.05118 8.2887 4.06402 8.25656 4.12479C8.1003 4.42032 7.81406 4.90481 7.54702 5.17531Z" fill="#023554" stroke="#023554" stroke-width="0.5"/>
</svg>
