<svg width="21" height="21" viewBox="0 0 21 21" fill="none" xmlns="http://www.w3.org/2000/svg">
<circle cx="10.5" cy="10.5" r="10.5" fill="#68D4E1"/>
<path d="M12.0381 6.53747C12.1549 6.56718 12.0955 6.4572 12.0433 6.38724C12.0393 6.38221 12.0357 6.37755 12.0326 6.37331C12.0361 6.37772 12.0396 6.38238 12.0433 6.38724C12.0874 6.44295 12.1802 6.54273 12.2723 6.58645C12.4712 6.6809 12.6981 6.68857 12.9145 6.72886C13.0094 6.74653 13.105 6.77123 13.1797 6.80487C13.3091 6.86322 13.5441 6.78291 13.6628 6.70504C13.6701 6.70021 13.6778 6.69553 13.6856 6.69103C13.8682 6.58645 13.9532 6.45671 13.963 6.43288C13.9708 6.41382 13.9904 6.31021 13.9992 6.26079C13.9941 6.29874 13.992 6.37834 14.0243 6.39317C14.0542 6.40685 14.1432 6.29311 14.1937 6.22101C14.2016 6.20974 14.2068 6.19686 14.2092 6.18332C14.223 6.10562 14.3173 6.07559 14.3714 6.13302C14.8673 6.65925 15.6799 7.69136 15.9757 8.15251C16.3799 8.78264 17.0475 9.85492 16.9973 10.6399C16.9572 11.268 16.6024 11.9095 16.43 12.1517C16.2409 12.3507 15.8098 12.7692 15.5979 12.8507C15.3331 12.9526 14.5149 13.0228 14.1539 12.9685C13.7929 12.9142 12.9887 12.5886 12.2584 12.3702C11.6741 12.1954 10.5918 11.7418 10.0059 11.6143C9.36572 11.575 8.08778 11.6018 8.09781 12.0233C8.11036 12.5502 8.40027 12.954 8.60377 13.085C8.80727 13.2161 9.5878 13.5113 9.79688 13.5788C10.0059 13.6463 10.2548 13.7972 10.2596 13.9878C10.2604 14.0178 10.229 14.0155 10.2225 13.9862C10.2089 13.9259 10.1845 13.871 10.1439 13.8356C10.0252 13.7319 9.33274 13.6728 9.17663 13.6847C9.15207 13.6866 9.15464 13.7221 9.17912 13.7248C9.29786 13.7379 9.42319 13.7696 9.50418 13.8356C9.69095 13.9878 10.1439 14.1785 10.1439 14.806C10.1439 15.4334 9.5669 15.9828 9.42055 15.9947C9.34299 16.0011 9.23627 16.0007 9.15064 15.9987C9.10896 16.0004 9.07188 15.9985 9.04282 15.9947C9.06885 15.9961 9.10701 15.9976 9.15064 15.9987C9.30021 15.9925 9.50911 15.9403 9.61986 15.7631C9.79688 15.4798 9.78015 15.1766 9.61986 14.9913C9.45957 14.806 9.25189 14.5518 8.80309 14.4975C8.35428 14.4432 7.61277 14.5743 7.41345 14.5359C7.33461 14.5207 7.23867 14.4885 7.15036 14.4542C7.04686 14.414 6.94438 14.4961 7.02318 14.5743C7.11657 14.667 7.31195 14.7024 7.47199 14.7133C7.52377 14.7168 7.55023 14.7712 7.50055 14.7862C7.45967 14.7985 7.40907 14.8119 7.34516 14.8271C7.03199 14.9018 6.70539 14.6908 6.53117 14.4724C6.35694 14.2539 6.18968 13.5735 6.3444 12.9036C6.42202 12.5676 6.04578 12.1425 5.7936 12.3778C5.76812 12.4016 5.7444 12.4256 5.72275 12.4496C5.45873 12.7426 4.88318 12.8817 4.76565 12.5051C4.74341 12.4339 4.72601 12.3653 4.71503 12.3013C4.62164 11.7572 4.64533 11.0119 4.77775 10.497C4.85336 10.2029 4.621 10.0745 4.52291 10.3619C4.49548 10.4422 4.47178 10.5254 4.45299 10.6108C4.44634 10.6411 4.4401 10.6714 4.43426 10.7019C4.38372 10.9653 4.01537 11.0205 4.0446 10.7538C4.1115 10.1435 4.63419 9.12154 5.05651 8.76808C5.11269 8.72107 5.1805 8.67191 5.25609 8.62197C5.38706 8.53542 5.31549 8.35953 5.18056 8.43977C4.73315 8.70586 4.35682 8.86075 4.20071 9.17713C4.17353 9.23223 4.11854 9.21731 4.14104 9.16014C4.2339 8.92413 4.366 8.68678 4.51711 8.55495C4.56749 8.51099 4.61624 8.47077 4.66342 8.43388C5.26114 7.96665 6.05587 7.77349 6.81411 7.79905C6.92092 7.80265 6.99305 7.67648 6.89789 7.62785C6.78918 7.57229 6.6422 7.5386 6.45451 7.56739C6.37801 7.57912 6.30143 7.42132 6.37528 7.39817C6.46308 7.37066 6.55321 7.35573 6.64128 7.36087C6.68918 7.36367 6.73769 7.37063 6.7861 7.38084C7.31218 7.49186 7.74591 7.91919 7.88038 8.43977C7.99049 8.86604 7.99049 10.4798 8.46578 10.2732C8.84602 10.108 9.18267 10.0217 9.30347 9.99922C9.55575 9.90214 10.2173 9.72334 10.845 9.78476C11.6297 9.86154 12.6974 10.0178 13.149 10.4427C12.788 10.0226 12.022 9.09877 11.8458 8.76411C11.6256 8.34578 11.5509 7.72058 11.5754 7.08949C11.5802 6.966 11.5866 6.86107 11.5938 6.77247C11.6109 6.56355 11.835 6.48578 12.0381 6.53747Z" fill="#023554"/>
</svg>
