<svg width="1440" height="1024" viewBox="0 0 1440 1024" fill="none" xmlns="http://www.w3.org/2000/svg">
<g clip-path="url(#clip0_84_1596)">
<rect width="1440" height="1024" fill="white"/>
<path d="M1040.59 793.029C1178.98 776.089 1375.88 677.628 1440 680.805V-100H0V644.808C27.6067 698.803 146.404 793.875 400.742 742.21C655.08 690.545 777.217 737.269 803.488 742.21C838.219 749.268 902.204 809.968 1040.59 793.029Z" fill="#7DDEEA"/>
<path d="M376.414 -6.52449L473.662 13.5842L357.624 720C306.455 666.295 245.42 654.962 207.124 643.789L376.414 -6.52449Z" fill="url(#paint0_linear_84_1596)"/>
<path d="M1234.8 -39.5245L1137.55 -19.4158L1253.59 687C1304.76 633.295 1365.79 621.962 1404.09 610.789L1234.8 -39.5245Z" fill="url(#paint1_linear_84_1596)"/>
<path d="M752.047 1H588L594.378 685.696C678.778 691.481 795.409 706.61 861 703.61L752.047 1Z" fill="url(#paint2_linear_84_1596)"/>
<path d="M184.956 614.96L142.463 538.041C139.952 538.041 136.115 536.75 140.849 531.586L106.962 472.955C104.631 474.21 99.6469 475.967 98.356 472.955C96.7423 469.19 101.045 467.038 102.659 466.5L132.243 449.288C134.932 448.212 139.666 448.104 137.084 456.28L132.243 458.97L162.903 517.063C166.489 516.346 172.907 516.202 169.895 521.366L166.668 524.055L214.003 611.195L238.746 607.429L245.739 514.911C242.153 513.835 236.056 511.146 240.36 508.994H247.352C248.213 508.994 249.862 468.473 250.58 448.212L239.822 447.674L238.746 439.068H222.071V430.999H229.602L230.678 405.718L208.624 404.105V387.43H222.071L271.558 367.528L291.998 377.21L318.892 376.134C330.009 369.679 359.02 356.77 386.129 356.77C413.239 356.77 452.291 333.461 468.428 321.807L501.239 306.745L722.314 430.462H731.997V447.136H706.178V472.955H712.632V479.948H692.73V485.865H680.359L676.593 545.033C680.179 546.288 685.953 549.121 680.359 550.412C677.39 551.097 676.007 551.207 675.469 551.078L665.126 694.307C678.741 695.326 691.027 696.378 698.647 696.378L692.73 638.627H698.647L710.481 620.339L745.982 607.429V600.437H760.505L787.938 514.911C786.145 513.835 783.097 511.038 785.248 508.456C787.4 505.875 790.089 507.381 791.165 508.456L809.454 451.439L803.537 449.288L806.226 443.371L842.803 455.205L841.189 461.122H832.045L813.757 514.911L818.598 518.139C817.522 520.29 814.617 524.163 811.605 522.442L787.938 593.982H797.62V612.808L786.324 613.884L790.627 682.735C815.191 667.315 868.515 622.168 885.297 564.936L874.001 455.205H869.16V445.523L871.312 443.371C871.67 417.552 865.502 366.237 837.962 367.528L835.81 342.785H829.894V333.64H858.402C866.471 331.13 885.082 328.046 894.979 335.792H956.299L996.104 318.041L1078.4 309.973V318.041H1074.64V342.247C1065.49 347.626 1048.71 364.516 1054.73 389.044L1058.5 425.083H1063.34V433.689H1058.5L1064.95 502.002C1072.84 505.588 1089.27 514.588 1091.85 521.904C1094.43 529.219 1092.92 383.665 1091.85 309.973C1090.77 304.056 1083.89 290.609 1064.95 284.154V257.797H1058.5V251.342H1074.64V238.433H1091.85V224.447H1153.71V211L1181.68 216.917C1186.52 228.213 1204.27 252.203 1236.54 257.797C1268.82 263.391 1281.91 265.148 1284.42 265.327C1288.9 259.769 1301.09 249.191 1314 251.342V257.797H1309.16V284.154C1300.01 287.919 1281.73 299.107 1281.73 313.738C1281.73 328.369 1283.16 465.425 1283.88 532.124L1290.52 553.102C1283.97 551.686 1289.75 637.944 1282.04 656.314C1281.99 656.509 1281.92 656.693 1281.81 656.866C1281.85 656.909 1281.82 656.954 1281.73 657C1280.31 659.9 1278.91 660.789 1277.47 660.193C1272.41 662.369 1264.23 662.646 1254.15 661.576C1193.01 672.785 1051.84 701.592 1047.39 713.933C1029.82 715.905 912.375 752.661 844.955 746.206C762.45 738.307 736.658 721.48 698.647 696.378C691.027 696.378 678.741 695.326 665.126 694.307C652.32 693.348 638.337 692.417 625.955 692.417L592.461 692.417C580.54 696.378 578.837 696.378 554.426 696.378L564.173 542.882C561.842 542.702 557.396 541.483 558.256 538.041H565.249L569.552 477.258L558.256 476.183V468.114H546.96V475.107L531.899 476.183L529.748 534.813L535.665 535.889C535.306 537.682 533.405 540.945 528.672 539.654L514.12 701.487C504.469 704.326 493.236 710.618 477.341 710.618C410.232 715.112 374.932 754.084 265 724.5C214.101 759.863 148.2 721.284 132.243 692.417L184.956 614.96Z" fill="#6FD4E0"/>
<path d="M638.785 553.29L625.954 692.972H591.325C596.169 629.559 601.973 547.202 603.265 548.941C604.556 550.681 607.75 548.217 609.185 546.767C609.615 543.289 605.417 543.144 603.265 543.506L607.032 483.173H619.41V475.02H632.865V484.26H644.167L640.4 545.68H632.865C631.573 548.724 636.274 552.021 638.785 553.29Z" fill="#7DDEEA"/>
<path d="M490.245 540.788L478.404 689.174C465.918 687 455.98 694.066 452.571 697.871C451.28 693.088 429.429 683.558 418.665 679.391L431.044 532.635H437.502V528.83H431.044L434.811 468.498H447.728V461.432L485.401 464.149V472.302H495.627L492.397 534.809H485.401C484.54 538.723 488.271 540.426 490.245 540.788Z" fill="#7DDEEA"/>
<path d="M392.832 532.635L380.992 681.565L343.319 685.913C347.624 632.828 356.558 527.091 357.85 528.83C359.464 531.005 365.384 526.656 364.846 525.026C364.416 523.721 360.003 523.033 357.85 522.852L361.617 461.432H375.072V455.453H387.45V464.149L399.29 465.78L392.832 526.656H387.45V531.005L392.832 532.635Z" fill="#7DDEEA"/>
<path d="M318.562 525.026L307.798 685.913C307.798 683.304 283.4 672.143 271.201 666.889L283.041 521.221C289.069 519.916 289.5 516.329 288.961 514.698H284.118L288.961 455.453H301.34V450.017H313.18V458.17H324.482L320.177 520.134H313.18C313.18 522.308 316.768 524.301 318.562 525.026Z" fill="#7DDEEA"/>
<path d="M1121.54 342.94V545.137L1130.69 551.116L1160.29 410.883L1154.91 409.796V402.73L1182.36 409.796V413.6H1178.05L1147.91 559.812L1166.21 568.415C1172.78 563.009 1179.28 558.079 1185.05 553.939V501.11H1172.13V486.434L1215.19 483.173V492.413C1234.56 492.413 1249.45 498.211 1254.48 501.11V345.658C1252.86 326.091 1237.9 286.412 1190.97 284.238C1144.04 282.064 1125.13 322.467 1121.54 342.94Z" fill="#7DDEEA"/>
<path d="M900.346 454.909L908.419 533.179C908.957 527.2 914.769 517.09 933.714 524.482C952.658 531.874 977.486 525.026 987.533 520.677L931.023 413.057L925.641 415.774L921.873 409.252L949.321 396.207L951.474 400.555L945.554 405.991L1005.29 515.242C1010.89 510.894 1029.87 504.734 1038.66 502.197L1031.66 439.69H1028.44V429.363H1031.66L1028.44 403.817C1021.98 384.974 997.112 349.245 949.321 357.072C901.53 364.899 896.758 416.862 900.346 441.864H904.113V453.279L900.346 454.909Z" fill="#7DDEEA"/>
<path d="M311.243 972.467C215.065 995.909 61.2245 986.613 0 978.53V1024H1440V967.415C1403.69 958.658 1382.15 961.489 1371.4 966.056C1366.27 968.234 1360.43 970.184 1355.01 968.896C1295.28 954.71 1164.92 938.897 1055.29 975.498C939.874 1014.03 753.395 1000.98 674.583 989.645C593.544 974.151 407.421 949.024 311.243 972.467Z" fill="#02385A"/>
<path d="M311.243 972.467C215.065 995.909 61.2245 986.613 0 978.53V1024H1440V967.415C1403.69 958.658 1382.15 961.489 1371.4 966.056C1366.27 968.234 1360.43 970.184 1355.01 968.896C1295.28 954.71 1164.92 938.897 1055.29 975.498C939.874 1014.03 753.395 1000.98 674.583 989.645C593.544 974.151 407.421 949.024 311.243 972.467Z" fill="url(#paint3_linear_84_1596)" fill-opacity="0.2"/>
<path d="M311.243 972.401C215.065 995.673 61.2245 986.444 0 978.42V735C17.5881 738.678 58.9091 752.387 54.1002 783.149C49.2913 813.911 145.603 835.422 194.36 842.332C246.456 845.564 368.816 847.816 441.484 830.963C514.152 814.111 632.505 823.942 682.597 830.963C769.202 843.001 978.746 863.464 1124.08 849.019C1139.65 847.281 1166.49 843.601 1194.21 838.406C1218.02 833.943 1242.48 828.363 1261 821.936C1311.09 804.548 1413.28 791.508 1440 792.511V967.385C1390.84 955.616 1368.76 964.933 1363.86 971.063C1309.09 956.574 1170.7 937.159 1055.29 975.41C939.874 1013.66 753.395 1000.71 674.583 989.454C593.544 974.073 407.421 949.129 311.243 972.401Z" fill="#116589"/>
<path d="M311.243 972.401C215.065 995.673 61.2245 986.444 0 978.42V735C17.5881 738.678 58.9091 752.387 54.1002 783.149C49.2913 813.911 145.603 835.422 194.36 842.332C246.456 845.564 368.816 847.816 441.484 830.963C514.152 814.111 632.505 823.942 682.597 830.963C769.202 843.001 978.746 863.464 1124.08 849.019C1139.65 847.281 1166.49 843.601 1194.21 838.406C1218.02 833.943 1242.48 828.363 1261 821.936C1311.09 804.548 1413.28 791.508 1440 792.511V967.385C1390.84 955.616 1368.76 964.933 1363.86 971.063C1309.09 956.574 1170.7 937.159 1055.29 975.41C939.874 1013.66 753.395 1000.71 674.583 989.454C593.544 974.073 407.421 949.129 311.243 972.401Z" fill="url(#paint4_linear_84_1596)" fill-opacity="0.2"/>
<path d="M44.8121 827.313C49.7732 810.593 7.14467 803.142 -11 801.143V715C15.8725 725.541 166.772 731.356 242.566 732.81C273.616 733.406 298.19 735.13 322.494 738.47C357.518 743.283 391.981 751.451 444.454 764.432C515.563 782.024 718.921 791.269 811.711 793.692C840.421 795.752 916.859 804.778 992.928 824.405C1069 844.033 1173.67 854.142 1218 856.944C1189.4 859.768 1169.56 862.387 1153.5 863.332C1003.57 871.183 782.542 859.844 693.197 853.302C641.519 849.485 519.421 844.142 444.454 853.302C369.487 862.461 243.255 861.237 189.51 859.481C139.21 855.725 39.851 844.033 44.8121 827.313Z" fill="#2081A1"/>
<path d="M1440 844.34C1411.34 843.691 1301.71 852.119 1247.98 863.356C1228.11 867.51 1201.87 871.116 1176.33 874C1130.23 870.668 1018.26 858.169 939.161 834.831C860.059 811.493 780.575 800.761 750.72 798.312C654.23 795.43 442.765 784.438 368.822 763.521C314.257 748.085 278.42 738.373 242 732.65C350.67 733.936 597.101 732.403 713.462 715.98C829.823 699.557 985.018 703.519 1048.07 707.552C1123.78 725.92 1308.16 757.989 1440 739.318V844.34Z" fill="url(#paint5_linear_84_1596)"/>
<path d="M-29 731.465C-2.42718 751.574 146.789 762.669 221.738 765.443C252.442 766.579 276.742 769.868 300.776 776.24C404.114 778.304 638.455 775.844 749.107 749.494C859.759 723.143 1007.34 729.5 1067.3 735.972C1139.3 765.443 1314.63 816.895 1440 786.939V587.577C1374.59 585.497 1194.17 638.197 1052.99 649.292C911.814 660.387 805.659 667.784 770.229 663.161C743.429 659.925 740.93 623.982 389.352 655.187C125.489 678.606 -0.837355 599.365 -29 564V731.465Z" fill="#61C8D7"/>
<path d="M-29 731.465C-2.42718 751.574 146.789 762.669 221.738 765.443C252.442 766.579 276.742 769.868 300.776 776.24C404.114 778.304 638.455 775.844 749.107 749.494C859.759 723.143 1007.34 729.5 1067.3 735.972C1139.3 765.443 1314.63 816.895 1440 786.939V587.577C1374.59 585.497 1194.17 638.197 1052.99 649.292C911.814 660.387 805.659 667.784 770.229 663.161C743.429 659.925 740.93 623.982 389.352 655.187C125.489 678.606 -0.837355 599.365 -29 564V731.465Z" fill="url(#paint6_linear_84_1596)" fill-opacity="0.2"/>
<path d="M1279.17 895.132C1284.7 879.916 1305.99 883.539 1315.94 887.252C1311.3 892.687 1312.9 900.929 1314.28 904.371C1318.71 908.175 1320.09 901.382 1324.24 904.371C1327.56 906.762 1325.44 916.055 1323.96 920.403C1321.29 917.233 1315.28 911.707 1312.62 914.968C1309.97 918.229 1312.62 921.58 1314.28 922.848C1308.09 930.239 1299.72 927.92 1296.31 925.837C1294.76 924.316 1292.16 925.203 1291.06 925.837C1289.73 928.228 1294.01 930.275 1296.31 931C1283.04 930.13 1276.59 919.044 1275.02 913.61C1269.27 910.131 1267.28 905.458 1267 903.556C1275.85 901.599 1278.8 897.125 1279.17 895.132Z" fill="#033656" fill-opacity="0.5"/>
<path d="M1341.17 919.132C1346.7 903.916 1367.99 907.539 1377.94 911.252C1373.3 916.687 1374.9 924.929 1376.28 928.371C1380.71 932.175 1382.09 925.382 1386.24 928.371C1389.56 930.762 1387.44 940.055 1385.96 944.403C1383.29 941.233 1377.28 935.707 1374.62 938.968C1371.97 942.229 1374.62 945.58 1376.28 946.848C1370.09 954.239 1361.72 951.92 1358.31 949.837C1356.76 948.316 1354.16 949.203 1353.06 949.837C1351.73 952.228 1356.01 954.275 1358.31 955C1345.04 954.13 1338.59 943.044 1337.02 937.61C1331.27 934.131 1329.28 929.458 1329 927.556C1337.85 925.599 1340.8 921.125 1341.17 919.132Z" fill="#033656" fill-opacity="0.5"/>
<path d="M1334.19 879.685C1337 871.914 1347.82 873.764 1352.89 875.661C1350.52 878.436 1351.34 882.645 1352.04 884.402C1354.29 886.345 1355 882.876 1357.1 884.402C1358.79 885.623 1357.71 890.369 1356.96 892.589C1355.6 890.97 1352.55 888.149 1351.2 889.814C1349.85 891.479 1351.2 893.19 1352.04 893.837C1348.89 897.611 1344.64 896.427 1342.9 895.364C1342.12 894.587 1340.79 895.04 1340.23 895.364C1339.56 896.585 1341.73 897.63 1342.9 898C1336.15 897.556 1332.87 891.895 1332.08 889.12C1329.15 887.344 1328.14 884.957 1328 883.986C1332.5 882.987 1334 880.702 1334.19 879.685Z" fill="#033656" fill-opacity="0.5"/>
<path d="M1389.19 903.685C1392 895.914 1402.82 897.764 1407.89 899.661C1405.52 902.436 1406.34 906.645 1407.04 908.402C1409.29 910.345 1410 906.876 1412.1 908.402C1413.79 909.623 1412.71 914.369 1411.96 916.589C1410.6 914.97 1407.55 912.149 1406.2 913.814C1404.85 915.479 1406.2 917.19 1407.04 917.837C1403.89 921.611 1399.64 920.427 1397.9 919.364C1397.12 918.587 1395.79 919.04 1395.23 919.364C1394.56 920.585 1396.73 921.63 1397.9 922C1391.15 921.556 1387.87 915.895 1387.08 913.12C1384.15 911.344 1383.14 908.957 1383 907.986C1387.5 906.987 1389 904.702 1389.19 903.685Z" fill="#033656" fill-opacity="0.5"/>
<path d="M1370.92 886.553C1372.7 881.696 1379.56 882.853 1382.76 884.038C1381.27 885.772 1381.78 888.403 1382.23 889.501C1383.65 890.715 1384.1 888.547 1385.43 889.501C1386.5 890.264 1385.82 893.23 1385.34 894.618C1384.48 893.606 1382.55 891.843 1381.69 892.883C1380.84 893.924 1381.69 894.994 1382.23 895.398C1380.23 897.757 1377.54 897.017 1376.44 896.352C1375.94 895.867 1375.1 896.15 1374.75 896.352C1374.32 897.115 1375.7 897.769 1376.44 898C1372.16 897.722 1370.09 894.184 1369.58 892.45C1367.73 891.34 1367.09 889.848 1367 889.241C1369.85 888.617 1370.8 887.189 1370.92 886.553Z" fill="#033656" fill-opacity="0.5"/>
<path d="M1321.43 -663.202C1317.3 -682.678 1318.59 -686.747 1319.75 -686.347C1320.31 -699.818 1323.44 -730.958 1331.5 -747.747C1339.56 -764.536 1363.56 -773.29 1374.55 -775.569C1387.98 -775.289 1422.23 -772.043 1451.78 -761.298C1481.33 -750.553 1477.28 -695.341 1471.57 -669.079C1477.8 -672.396 1490.35 -677.929 1490.64 -673.516C1490.92 -669.103 1489.8 -652.17 1489.2 -644.255C1485.4 -638.099 1476.29 -624.204 1470.25 -617.872C1464.2 -611.54 1459.5 -610.597 1457.9 -610.917C1458.7 -580.656 1463.56 -518.049 1476.6 -509.703C1489.65 -501.356 1519.86 -499.302 1533.33 -499.317C1561.84 -499.966 1578.9 -491.166 1591.01 -483.68C1604.2 -475.525 1610.92 -439.909 1611.16 -423.359C1611.4 -406.81 1613.19 -362.799 1616.19 -347.329C1618.59 -334.953 1625.83 -319.547 1629.15 -313.391C1633.64 -318.206 1637.98 -323.252 1641.62 -328.621C1652.65 -344.931 1656.69 -384 1657.33 -401.497C1652.68 -406.234 1652.62 -411.455 1649.05 -418.922C1645.09 -427.197 1643.65 -435.352 1641.62 -440.388C1639.99 -444.418 1635.26 -446.784 1633.1 -447.464C1634.58 -445.985 1637.71 -442.403 1638.38 -439.909C1639.05 -437.414 1636.42 -438.869 1635.02 -439.909C1628.26 -441.907 1614.44 -447.248 1613.19 -452.62C1611.64 -459.336 1614.87 -472.287 1616.19 -477.324C1617.51 -482.361 1620.39 -481.641 1618.83 -481.881C1617.27 -482.121 1617.75 -487.278 1617.27 -491.835C1616.79 -496.392 1619.31 -497.831 1618.83 -498.91C1618.35 -499.989 1619.79 -502.743 1622.07 -505.865C1624.19 -508.77 1623.02 -511.015 1624.08 -511.729C1621.91 -510.696 1616.92 -508.863 1612.24 -508.863C1606.12 -508.863 1609.96 -512.341 1605.76 -511.861C1602.4 -511.478 1602.28 -513.301 1602.64 -514.26C1608.76 -516.259 1622.02 -520.904 1626.15 -523.494C1631.3 -526.732 1633.46 -529.97 1636.58 -530.809C1639.07 -531.481 1646.89 -531.089 1650.49 -530.809C1650.85 -530.889 1651.67 -532.464 1652.05 -538.124C1652.43 -543.785 1656.61 -547.358 1658.65 -548.438C1658.8 -550.596 1659.6 -554.506 1661.52 -552.875C1663.44 -551.244 1665.52 -529.89 1666.32 -519.417C1671.32 -509.103 1682.41 -484.615 1686.83 -469.169C1691.24 -453.724 1691.46 -414.125 1691.02 -396.257C1689.27 -376.39 1684.79 -332.003 1680.95 -313.391C1677.11 -294.78 1665.6 -268.541 1660.32 -257.748C1646.37 -234.443 1616.79 -188.937 1610.08 -193.35C1601.68 -198.866 1593.17 -219.253 1591.25 -239.88C1589.33 -260.506 1572.78 -301.159 1566.91 -322.625C1562.2 -339.798 1559.99 -355.617 1559.47 -361.38C1554.87 -357.826 1549.6 -354.892 1546.28 -353.325C1547 -340.254 1548.49 -311.161 1548.68 -299.361C1548.92 -284.61 1545.44 -260.746 1552.51 -243.477C1559.59 -226.208 1570.74 -178.6 1583.21 -151.138C1595.69 -123.676 1618.71 -108.925 1638.62 -83.262C1658.53 -57.5989 1700.38 -2.91455 1736.23 45.8934C1764.92 84.9399 1797.35 145.788 1809.99 171.331L1508.26 264.27C1487.2 238.647 1439.5 179.006 1417.24 145.428C1389.42 103.456 1388.58 50.3306 1388.58 0.922852C1388.58 -48.4849 1398.06 -109.285 1399.97 -134.109C1401.89 -158.932 1400.81 -174.762 1399.97 -205.462C1399.13 -236.162 1347.93 -308.834 1332.34 -327.062C1316.75 -345.291 1282.45 -413.406 1277.17 -414.965C1271.9 -416.524 1237.72 -390.021 1230.77 -376.83C1225.2 -366.277 1179.2 -313.112 1156.89 -287.848C1162.01 -282.612 1174.43 -268.996 1183.16 -256.429C1194.07 -240.719 1231.01 -206.661 1241.92 -198.507C1252.83 -190.352 1263.02 -188.313 1274.54 -179.799C1285.76 -171.495 1295.51 -151.558 1303.44 -135.337L1304.04 -134.109C1312.07 -117.68 1330.9 -103.049 1333.66 -101.61C1336.42 -100.171 1346.37 -69.7109 1347.09 -67.6722C1347.81 -65.6336 1346.49 -61.3164 1345.53 -58.5582C1344.57 -55.8 1340.01 -32.895 1334.62 -26.2994C1330.3 -21.0228 1331.06 -25.22 1331.98 -27.9782C1331.26 -31.376 1329.84 -39.3947 1329.94 -44.2875C1330.06 -50.4036 1335.58 -59.5176 1335.58 -65.5137C1335.58 -70.3105 1330.3 -80.144 1327.66 -84.4612L1322.03 -93.6952C1321.19 -93.2155 1319.41 -91.1528 1319.03 -86.7397C1318.64 -82.3267 1315.91 -69.3911 1314.59 -63.475C1313.83 -62.7555 1311.47 -61.1725 1308.11 -60.5969C1304.76 -60.0212 1301.68 -60.8367 1300.56 -61.3164C1299.72 -60.9966 1297.06 -60.1891 1293.12 -59.5176C1289.19 -58.8461 1285.17 -60.437 1283.65 -61.3164C1283.25 -61.1165 1281.92 -60.4769 1279.81 -59.5176C1277.7 -58.5582 1269.02 -59.1179 1264.94 -59.5176C1262.9 -61.0366 1262.95 -69.567 1261.7 -74.7476C1260.46 -79.9282 1267.11 -82.6225 1268.59 -81.4633C1265.47 -91.7182 1260.37 -103.168 1258.83 -106.047C1251.87 -114.362 1237.03 -132.31 1233.28 -137.586C1228.61 -144.182 1229.57 -153.056 1228.13 -160.971C1226.69 -168.886 1208.7 -178.48 1199.83 -184.476C1190.95 -190.472 1171.16 -198.267 1154.62 -205.942C1141.38 -212.082 1118.32 -231.605 1108.45 -240.599C1100.45 -247.594 1084.46 -263 1084.46 -268.661C1084.46 -275.736 1094.41 -299.361 1108.45 -323.944C1122.48 -348.528 1151.14 -385.824 1175.48 -406.45C1199.83 -427.077 1212.42 -454.059 1218.41 -463.533C1224.41 -473.007 1248.39 -505.745 1251.27 -510.063C1254.15 -514.38 1275.74 -521.935 1289.29 -517.378C1300.13 -513.732 1330.98 -513.46 1345.05 -513.78C1357.52 -517.098 1383.83 -524.045 1389.3 -525.293C1394.77 -526.54 1393.74 -550.676 1392.54 -562.588C1391.34 -561.669 1387.02 -559.734 1379.35 -559.35C1369.75 -558.871 1346.01 -585.493 1335.22 -605.64C1324.42 -625.787 1326.58 -638.858 1321.43 -663.202Z" fill="#FFECE3"/>
<path d="M1392.54 -562.588C1391.34 -561.669 1387.02 -559.734 1379.35 -559.35C1369.75 -558.871 1346.01 -585.493 1335.22 -605.64C1324.42 -625.787 1326.58 -638.858 1321.43 -663.202C1317.3 -682.678 1318.59 -686.747 1319.75 -686.347C1320.31 -699.818 1323.44 -730.958 1331.5 -747.747C1339.56 -764.536 1363.56 -773.29 1374.55 -775.569C1387.98 -775.289 1422.23 -772.043 1451.78 -761.298C1481.33 -750.553 1477.28 -695.341 1471.57 -669.079C1477.8 -672.396 1490.35 -677.929 1490.64 -673.516C1490.92 -669.103 1489.8 -652.17 1489.2 -644.255C1485.4 -638.099 1476.29 -624.204 1470.25 -617.872C1464.2 -611.54 1459.5 -610.597 1457.9 -610.917C1458.7 -580.656 1463.56 -518.049 1476.6 -509.703C1489.65 -501.356 1519.86 -499.302 1533.33 -499.317M1392.54 -562.588C1393.74 -550.676 1394.77 -526.54 1389.3 -525.293C1383.83 -524.045 1357.52 -517.098 1345.05 -513.78M1392.54 -562.588C1407.17 -570.103 1437.61 -586.716 1442.31 -593.048C1447.01 -599.38 1452.1 -605.84 1454.06 -608.278M1345.05 -513.78C1330.98 -513.46 1300.13 -513.732 1289.29 -517.378C1275.74 -521.935 1254.15 -514.38 1251.27 -510.063C1248.39 -505.745 1224.41 -473.007 1218.41 -463.533C1212.42 -454.059 1199.83 -427.077 1175.48 -406.45C1151.14 -385.824 1122.48 -348.528 1108.45 -323.944C1094.41 -299.361 1084.46 -275.736 1084.46 -268.661C1084.46 -263 1100.45 -247.594 1108.45 -240.599C1118.32 -231.605 1141.38 -212.082 1154.62 -205.942C1171.16 -198.267 1190.95 -190.472 1199.83 -184.476C1208.7 -178.48 1226.69 -168.886 1228.13 -160.971C1229.57 -153.056 1228.61 -144.182 1233.28 -137.586C1237.03 -132.31 1251.87 -114.362 1258.83 -106.047C1261.19 -101.65 1271.83 -77.266 1271.06 -67.6722C1270.29 -58.0785 1269.86 -79.9043 1268.59 -81.4632C1267.11 -82.6225 1260.46 -79.9282 1261.7 -74.7476C1262.95 -69.567 1262.9 -61.0366 1264.94 -59.5176C1269.02 -59.1179 1277.7 -58.5583 1279.81 -59.5176C1281.92 -60.4769 1283.25 -61.1165 1283.65 -61.3164M1345.05 -513.78C1358.88 -510.103 1389.16 -502.915 1399.61 -503.587C1412.69 -504.426 1421.44 -492.194 1429.83 -491.235M1283.65 -61.3164C1285.17 -60.437 1289.19 -58.8461 1293.12 -59.5176C1297.06 -60.1891 1299.72 -60.9966 1300.56 -61.3164M1283.65 -61.3164C1285.09 -62.7954 1288.35 -67.5523 1289.89 -74.7476C1291.81 -83.7417 1295.64 -97.1729 1297.2 -98.612C1298.45 -99.7632 1299.24 -101.09 1299.48 -101.61M1300.56 -61.3164C1301.68 -60.8367 1304.76 -60.0212 1308.11 -60.5969C1311.47 -61.1725 1313.83 -62.7555 1314.59 -63.475C1315.91 -69.3911 1318.64 -82.3267 1319.03 -86.7398C1319.41 -91.1528 1321.19 -93.2155 1322.03 -93.6952L1327.66 -84.4612C1330.3 -80.1441 1335.58 -70.3105 1335.58 -65.5137C1335.58 -59.5176 1330.06 -50.4036 1329.94 -44.2875C1329.84 -39.3947 1331.26 -31.376 1331.98 -27.9782C1331.06 -25.22 1330.3 -21.0228 1334.62 -26.2993C1340.01 -32.895 1344.57 -55.8 1345.53 -58.5582C1346.49 -61.3164 1347.81 -65.6336 1347.09 -67.6722C1346.37 -69.7109 1336.42 -100.171 1333.66 -101.61C1330.9 -103.049 1312.07 -117.68 1304.04 -134.109C1296 -150.538 1286.05 -171.284 1274.54 -179.799C1263.02 -188.313 1252.83 -190.352 1241.92 -198.507C1231.01 -206.661 1194.07 -240.719 1183.16 -256.429C1174.43 -268.996 1162.01 -282.612 1156.89 -287.848M1300.56 -61.3164C1302.08 -62.7555 1305.31 -67.4564 1306.08 -74.7476C1307.04 -83.8616 1311.23 -98.3721 1312.91 -99.4514M1156.89 -287.848C1179.2 -313.112 1225.2 -366.277 1230.77 -376.83C1237.72 -390.021 1271.9 -416.524 1277.17 -414.965M1156.89 -287.848C1155.25 -290.566 1149.75 -297.538 1140.82 -303.678C1131.9 -309.818 1124.55 -311.992 1122 -312.312M1277.17 -414.965C1282.45 -413.406 1316.75 -345.291 1332.34 -327.062C1347.93 -308.834 1399.13 -236.162 1399.97 -205.462C1400.81 -174.762 1401.89 -158.933 1399.97 -134.109C1398.06 -109.285 1388.58 -48.4848 1388.58 0.922853C1388.58 50.3305 1389.42 103.456 1417.24 145.428C1439.5 179.006 1487.2 238.647 1508.26 264.27L1809.99 171.331C1797.35 145.788 1764.92 84.9399 1736.23 45.8934C1700.38 -2.91458 1658.53 -57.5989 1638.62 -83.262C1618.71 -108.925 1595.69 -123.676 1583.21 -151.138C1570.74 -178.6 1559.59 -226.208 1552.51 -243.477C1545.44 -260.746 1548.92 -284.61 1548.68 -299.361C1548.49 -311.161 1547 -340.254 1546.28 -353.325M1277.17 -414.965C1281.49 -416.724 1291.54 -420.074 1297.2 -419.402M1546.28 -353.325C1549.6 -354.892 1554.87 -357.826 1559.47 -361.38M1546.28 -353.325C1545.68 -352.966 1542.03 -352.054 1532.25 -351.287C1522.46 -350.519 1511.06 -355.444 1506.58 -358.002M1537.4 -454.659C1537.08 -450.182 1539.78 -436.287 1553.11 -416.524C1569.78 -391.82 1571.58 -381.387 1568.34 -371.793C1567.13 -368.183 1563.56 -364.537 1559.47 -361.38M1559.47 -361.38C1559.99 -355.617 1562.2 -339.798 1566.91 -322.625C1572.78 -301.159 1589.33 -260.506 1591.25 -239.88C1593.17 -219.253 1601.68 -198.866 1610.08 -193.35C1616.79 -188.937 1646.37 -234.443 1660.32 -257.748C1665.6 -268.541 1677.11 -294.78 1680.95 -313.391C1684.79 -332.003 1689.27 -376.39 1691.02 -396.257C1691.46 -414.125 1691.24 -453.724 1686.83 -469.169C1682.41 -484.615 1671.32 -509.103 1666.32 -519.417C1665.52 -529.89 1663.44 -551.244 1661.52 -552.875C1659.6 -554.506 1658.81 -550.596 1658.65 -548.438C1656.61 -547.358 1652.43 -543.785 1652.05 -538.124C1651.67 -532.464 1650.85 -530.889 1650.49 -530.809M1650.49 -530.809C1646.89 -531.089 1639.07 -531.481 1636.58 -530.809C1633.46 -529.97 1631.3 -526.732 1626.15 -523.494C1622.02 -520.904 1608.76 -516.259 1602.64 -514.26C1602.28 -513.301 1602.4 -511.478 1605.76 -511.861C1609.96 -512.341 1606.12 -508.863 1612.24 -508.863C1617.13 -508.863 1622.35 -510.862 1624.35 -511.861M1650.49 -530.809C1654.69 -524.933 1663.73 -512.749 1666.32 -511.022M1624.35 -511.861C1622.83 -511.342 1624.35 -508.983 1622.07 -505.865C1619.79 -502.743 1618.35 -499.989 1618.83 -498.91M1624.35 -511.861C1625.23 -513.62 1627.95 -517.162 1631.78 -517.258C1636.58 -517.378 1655.53 -496.991 1660.32 -494.233C1664.53 -491.813 1668.28 -490.675 1669.56 -490.276M1618.83 -498.91C1619.31 -497.831 1616.79 -496.392 1617.27 -491.835C1617.75 -487.278 1617.27 -482.121 1618.83 -481.881M1618.83 -498.91C1619.59 -500.269 1621.97 -502.675 1625.43 -501.428C1629.74 -499.869 1641.26 -490.156 1650.13 -485.359C1657.23 -481.521 1663.88 -478.403 1666.32 -477.324M1618.83 -481.881C1620.39 -481.641 1617.51 -482.361 1616.19 -477.324C1614.87 -472.287 1611.64 -459.336 1613.19 -452.62C1614.44 -447.248 1628.26 -441.907 1635.02 -439.909C1636.42 -438.869 1639.05 -437.414 1638.38 -439.909C1637.71 -442.403 1634.58 -445.985 1633.1 -447.464M1618.83 -481.881C1620.35 -482.201 1624.16 -482.289 1627.23 -480.082C1631.06 -477.324 1649.17 -459.696 1653.85 -457.177C1657.59 -455.163 1659.72 -454.499 1660.32 -454.419M1633.1 -447.464C1635.26 -446.784 1639.99 -444.418 1641.62 -440.388C1643.65 -435.352 1645.09 -427.197 1649.05 -418.922C1652.62 -411.455 1652.68 -406.234 1657.33 -401.497M1633.1 -447.464C1629.7 -449.942 1622.64 -455.354 1621.59 -457.177M1673.76 -394.218C1670.96 -394.418 1664.09 -395.849 1659 -399.975C1658.38 -400.478 1657.83 -400.984 1657.33 -401.497M1657.33 -401.497C1656.69 -384 1652.65 -344.931 1641.62 -328.621C1637.98 -323.252 1633.64 -318.206 1629.15 -313.391M1596.53 -253.551C1596.41 -255.749 1596.93 -263.384 1600 -276.336C1602.83 -288.261 1616.59 -299.926 1629.15 -313.391M1629.15 -313.391C1625.83 -319.547 1618.59 -334.953 1616.19 -347.329C1613.19 -362.799 1611.4 -406.81 1611.16 -423.359C1610.92 -439.909 1604.2 -475.525 1591.01 -483.68C1578.9 -491.166 1561.84 -499.966 1533.33 -499.317M1452.98 -493.633C1456.58 -493.633 1462.81 -498.91 1471.93 -501.428C1481.04 -503.947 1492.07 -496.272 1525.41 -498.91C1528.14 -499.126 1530.78 -499.259 1533.33 -499.317M1318.31 -414.965C1323.14 -416.884 1335.26 -415.828 1345.05 -396.257C1357.28 -371.793 1365.8 -365.356 1375.15 -361.38M1450.7 -379.108C1453.1 -383.321 1457.9 -393.696 1457.9 -401.497M1500.23 -189.138C1499.43 -184.302 1498.31 -173.597 1500.23 -169.471C1502.15 -165.346 1505.27 -161.676 1506.58 -160.357L1503.47 -175.467" stroke="#EDD1BF" stroke-width="1.6"/>
<path d="M1393.85 -77.8652C1398.81 -73.3882 1415.84 -64.0743 1426.59 -61.1961C1436.63 -58.5047 1431.53 -68.4673 1427.03 -74.8052C1426.69 -75.2603 1426.38 -75.6829 1426.11 -76.0664C1426.41 -75.6671 1426.72 -75.2448 1427.03 -74.8052C1430.83 -69.7581 1438.81 -60.7192 1446.73 -56.759C1455.37 -52.4419 1468.32 -48.6444 1473.72 -47.2852C1484.43 -46.8455 1509.64 -44.1673 1524.8 -36.972C1539.96 -29.7767 1547.91 -23.5008 1549.99 -21.2623C1550.87 -26.7787 1555.77 -39.7062 1568.33 -47.2852C1584.04 -56.759 1591.36 -68.5114 1592.2 -70.6699C1592.87 -72.3968 1594.56 -81.7827 1595.32 -86.2597C1594.88 -82.822 1594.69 -75.6107 1597.48 -74.2676C1600.26 -72.9245 1609.03 -85.1405 1613.06 -91.4164L1616.18 -109.884C1656.6 -68.0317 1737.54 39.442 1765.37 85.1081C1800.14 142.191 1857.58 239.327 1853.27 310.441C1849.81 367.331 1819.29 425.445 1804.46 447.391C1788.19 465.419 1751.09 503.322 1732.87 510.71C1710.08 519.944 1639.69 526.299 1608.63 521.383C1577.57 516.466 1508.37 486.965 1445.53 467.178C1395.26 451.348 1302.15 410.255 1251.74 398.703C1196.66 395.145 1086.71 397.576 1087.57 435.759C1088.65 483.487 1113.59 520.063 1131.1 531.936C1148.61 543.808 1215.77 570.55 1233.75 576.666C1251.74 582.782 1273.15 596.453 1273.57 613.722C1273.86 625.618 1271.85 634.748 1270.81 637.826C1272.37 627.593 1272.48 608.086 1263.61 599.931C1253.39 590.534 1193.82 585.181 1180.39 586.26C1169.64 587.124 1161.36 588.858 1158.56 589.618C1169.88 588.459 1195.71 588.898 1208.57 599.931C1224.64 613.722 1263.61 630.991 1263.61 687.834C1263.61 744.676 1213.97 794.444 1201.37 795.523C1194.7 796.095 1185.52 796.067 1178.15 795.879C1174.57 796.033 1171.38 795.863 1168.88 795.523C1171.12 795.645 1174.4 795.782 1178.15 795.879C1191.02 795.325 1208.99 790.593 1218.52 774.537C1233.75 748.874 1232.31 721.412 1218.52 704.623C1204.73 687.834 1186.86 664.809 1148.25 659.892C1109.63 654.975 1045.84 666.847 1028.69 663.37C1014.97 660.588 995.23 651.497 987.075 647.3C987.075 651.018 988.682 660.132 995.11 666.847C1003.14 675.242 1019.95 678.456 1033.72 679.439C1045.48 680.279 1053.79 674.962 1056.99 673.683C1049.19 680.399 1049.07 683.157 1022.81 689.752C995.867 696.519 967.768 677.401 952.777 657.613C937.787 637.826 923.397 576.187 936.708 515.506C947.357 466.962 977.281 423.007 990.912 407.097C965.449 417.331 908.262 445.113 883.223 474.373C858.183 503.634 850.644 559.078 850.005 583.142C834.854 558.838 802.947 500.372 796.52 460.942C788.485 411.654 790.523 344.139 801.916 297.489C811.03 260.17 830.337 208.387 838.852 187.161C822.303 203.071 786.158 249.473 773.974 307.802C761.79 366.132 765.86 429.403 769.417 453.747C757.305 427.844 734.232 364.981 738.837 320.754C744.594 265.47 789.564 172.891 825.9 140.872C854.969 115.256 920.279 82.6297 949.3 69.5183C924.556 75.3545 867.369 91.8477 836.573 111.131C798.079 135.235 765.7 149.266 752.269 177.927C741.524 200.856 736.279 220.819 735 227.935C735.4 203.271 754.399 144.613 779.491 121.564C826.62 78.2726 857.08 74.9548 879.745 65.6808C905.448 61.2437 960.908 52.5134 977.121 53.0891C993.335 53.6647 1001.47 55.5674 1003.5 56.4469C998.507 46.0537 980.048 26.6344 946.182 32.1028C912.316 37.5712 893.136 46.8531 887.78 50.8106C900.252 37.5792 932.607 11.5722 962.251 13.395C991.896 15.2178 1024.25 36.5399 1036.72 46.9731C1044.28 55.4875 1061.28 80.2393 1068.86 111.131C1078.34 149.746 1078.34 295.93 1119.23 277.222C1151.94 262.256 1180.91 254.437 1191.3 252.399C1213.01 243.604 1269.92 227.407 1323.93 232.971C1391.45 239.927 1483.31 254.078 1522.16 292.572C1491.1 254.517 1425.2 170.828 1410.04 140.512C1391.09 102.617 1384.67 45.9804 1386.77 -11.1889C1388.45 -56.759 1392.49 -74.4275 1393.85 -77.8652Z" fill="url(#paint7_linear_84_1596)"/>
<path d="M1251.74 398.703C1302.15 410.255 1395.26 451.348 1445.53 467.178C1508.37 486.965 1577.57 516.466 1608.63 521.383C1639.69 526.299 1710.08 519.944 1732.87 510.71C1751.09 503.322 1788.19 465.419 1804.46 447.391C1819.29 425.445 1849.81 367.331 1853.27 310.441C1857.58 239.327 1800.14 142.191 1765.37 85.1081C1737.54 39.442 1656.6 -68.0317 1616.18 -109.884L1613.06 -91.4164C1609.03 -85.1405 1600.26 -72.9245 1597.48 -74.2676C1594.69 -75.6107 1594.88 -82.822 1595.32 -86.2597C1594.56 -81.7827 1592.87 -72.3968 1592.2 -70.6699C1591.36 -68.5114 1584.04 -56.759 1568.33 -47.2852C1555.77 -39.7062 1550.87 -26.7787 1549.99 -21.2623C1547.91 -23.5008 1539.96 -29.7767 1524.8 -36.972C1509.64 -44.1673 1484.43 -46.8455 1473.72 -47.2852C1468.32 -48.6444 1455.37 -52.4419 1446.73 -56.759C1438.1 -61.0762 1429.39 -71.4294 1426.11 -76.0664C1430.74 -69.9104 1437.33 -58.318 1426.59 -61.1961C1415.84 -64.0743 1398.81 -73.3882 1393.85 -77.8652C1392.49 -74.4275 1388.45 -56.759 1386.77 -11.1889C1384.67 45.9804 1391.09 102.617 1410.04 140.512C1425.2 170.828 1491.1 254.517 1522.16 292.572M1251.74 398.703C1196.66 395.145 1086.71 397.576 1087.57 435.759C1088.65 483.487 1113.59 520.063 1131.1 531.936C1148.61 543.808 1215.77 570.55 1233.75 576.666C1251.74 582.782 1273.15 596.453 1273.57 613.722C1273.86 625.618 1271.85 634.748 1270.81 637.826C1272.37 627.593 1272.48 608.086 1263.61 599.931C1253.39 590.535 1193.82 585.181 1180.39 586.26C1169.64 587.124 1161.36 588.858 1158.56 589.618C1169.88 588.459 1195.71 588.898 1208.57 599.931C1224.64 613.722 1263.61 630.991 1263.61 687.834C1263.61 744.676 1213.97 794.444 1201.37 795.523C1191.3 796.387 1175.51 795.883 1168.88 795.523C1180.35 797.082 1206.34 795.067 1218.52 774.537C1233.75 748.874 1232.31 721.412 1218.52 704.623C1204.73 687.834 1186.86 664.809 1148.25 659.892C1109.63 654.975 1045.84 666.847 1028.69 663.37C1014.97 660.588 995.23 651.497 987.075 647.3C987.075 651.018 988.682 660.132 995.11 666.847C1003.14 675.242 1019.95 678.456 1033.72 679.439C1045.48 680.279 1053.79 674.962 1056.99 673.683C1049.19 680.399 1049.07 683.157 1022.81 689.752C995.867 696.519 967.768 677.401 952.777 657.613C937.787 637.826 923.397 576.187 936.708 515.506C947.357 466.962 977.281 423.007 990.912 407.097C965.449 417.331 908.262 445.113 883.223 474.373C858.183 503.634 850.644 559.078 850.005 583.142C834.854 558.838 802.947 500.372 796.52 460.942C788.485 411.654 790.523 344.139 801.916 297.489C811.03 260.17 830.337 208.387 838.852 187.161C822.303 203.071 786.158 249.473 773.974 307.802C761.79 366.132 765.86 429.403 769.417 453.747C757.305 427.844 734.232 364.981 738.837 320.754C744.594 265.47 789.564 172.891 825.9 140.872C854.969 115.256 920.279 82.6297 949.3 69.5183C924.556 75.3545 867.369 91.8477 836.573 111.131C798.079 135.235 765.7 149.266 752.269 177.927C741.524 200.856 736.279 220.819 735 227.935C735.4 203.271 754.399 144.613 779.491 121.564C826.62 78.2726 857.08 74.9548 879.745 65.6808C905.448 61.2437 960.908 52.5134 977.121 53.0891C993.335 53.6647 1001.47 55.5674 1003.5 56.4469C998.507 46.0537 980.048 26.6344 946.182 32.1028C912.316 37.5712 893.136 46.8531 887.78 50.8106C900.252 37.5792 932.607 11.5722 962.251 13.395C991.896 15.2179 1024.25 36.5399 1036.72 46.9731C1044.28 55.4875 1061.28 80.2393 1068.86 111.131C1078.34 149.746 1078.34 295.93 1119.23 277.222C1151.94 262.256 1180.91 254.437 1191.3 252.399M1251.74 398.703L1214.21 386.111C1191.02 380.435 1172.11 372.327 1126.18 376.757C1078.93 381.314 1060.35 398.703 1050.03 402.181C1039.72 405.658 1041.52 402.181 1050.03 381.554C1056.85 365.053 1095.96 326.55 1114.67 309.361M1191.3 252.399C1175.43 261.952 1140.38 284.202 1127.14 296.77M1191.3 252.399C1213.01 243.604 1269.92 227.407 1323.93 232.971C1391.45 239.927 1483.31 254.078 1522.16 292.572M1522.16 292.572C1553.25 323.368 1581.65 394.306 1591.96 425.925" stroke="#A94745" stroke-width="0.5"/>
</g>
<defs>
<linearGradient id="paint0_linear_84_1596" x1="405.514" y1="-0.507126" x2="257.583" y2="872.49" gradientUnits="userSpaceOnUse">
<stop stop-color="#88E9F4"/>
<stop offset="1" stop-color="#68D4E1"/>
</linearGradient>
<linearGradient id="paint1_linear_84_1596" x1="1205.7" y1="-33.5071" x2="1353.63" y2="839.49" gradientUnits="userSpaceOnUse">
<stop stop-color="#88E9F4"/>
<stop offset="1" stop-color="#68D4E1"/>
</linearGradient>
<linearGradient id="paint2_linear_84_1596" x1="702.958" y1="1" x2="703.143" y2="807.483" gradientUnits="userSpaceOnUse">
<stop stop-color="#88E9F4"/>
<stop offset="0.816382" stop-color="#6FD9E6"/>
</linearGradient>
<linearGradient id="paint3_linear_84_1596" x1="667.236" y1="851.549" x2="643.03" y2="1056.86" gradientUnits="userSpaceOnUse">
<stop offset="0.14" stop-opacity="0"/>
<stop offset="0.995"/>
</linearGradient>
<linearGradient id="paint4_linear_84_1596" x1="667.904" y1="624.659" x2="550.61" y2="1130.63" gradientUnits="userSpaceOnUse">
<stop offset="0.485" stop-opacity="0"/>
<stop offset="0.810679"/>
</linearGradient>
<linearGradient id="paint5_linear_84_1596" x1="841" y1="704" x2="842.499" y2="1050.03" gradientUnits="userSpaceOnUse">
<stop stop-color="#52B9CB"/>
<stop offset="1" stop-color="#295C65"/>
</linearGradient>
<linearGradient id="paint6_linear_84_1596" x1="975.316" y1="564" x2="1080.87" y2="1058.79" gradientUnits="userSpaceOnUse">
<stop offset="0.152242" stop-opacity="0"/>
<stop offset="1"/>
</linearGradient>
<linearGradient id="paint7_linear_84_1596" x1="1294.24" y1="-101.85" x2="1220.68" y2="552.922" gradientUnits="userSpaceOnUse">
<stop stop-color="#E46B68"/>
<stop offset="1" stop-color="#B04848"/>
</linearGradient>
<clipPath id="clip0_84_1596">
<rect width="1440" height="1024" fill="white"/>
</clipPath>
</defs>
</svg>
