<svg width="320" height="568" viewBox="0 0 320 568" fill="none" xmlns="http://www.w3.org/2000/svg">
<g clip-path="url(#clip0_84_1187)">
<rect width="320" height="568" fill="white"/>
<path d="M69.1651 539.155C47.7922 552.277 13.6054 547.073 0 542.549V568H320V536.327C319.659 536.12 319.324 535.924 318.994 535.74C310.838 531.174 295.072 533.326 286.087 530.752C271.413 526.549 251.8 526.311 234.508 540.852C208.861 562.42 167.421 555.117 149.907 548.77C131.899 540.098 90.538 526.033 69.1651 539.155Z" fill="#02385A"/>
<path d="M69.1651 539.155C47.7922 552.277 13.6054 547.073 0 542.549V568H320V536.327C319.659 536.12 319.324 535.924 318.994 535.74C310.838 531.174 295.072 533.326 286.087 530.752C271.413 526.549 251.8 526.311 234.508 540.852C208.861 562.42 167.421 555.117 149.907 548.77C131.899 540.098 90.538 526.033 69.1651 539.155Z" fill="url(#paint0_linear_84_1187)" fill-opacity="0.2"/>
<path d="M69.1651 539.155C47.7922 552.276 13.6054 547.073 0 542.548V405.299C3.90847 407.373 13.0909 415.102 12.0223 432.447C10.9536 449.792 32.3562 461.92 43.1911 465.817C54.7681 467.639 81.9592 468.909 98.1076 459.407C114.256 449.905 140.557 455.448 151.688 459.407C170.934 466.194 217.499 477.732 249.796 469.587C253.256 468.607 259.22 466.532 265.38 463.603C270.672 461.087 276.108 457.941 280.223 454.316C291.354 444.513 314.063 437.16 320 437.726V548.77C309.076 542.133 304.469 542 300 539C287.829 530.83 260.156 519.284 234.508 540.851C208.861 562.419 167.421 555.117 149.907 548.77C131.899 540.097 90.538 526.033 69.1651 539.155Z" fill="#116589"/>
<path d="M69.1651 539.155C47.7922 552.276 13.6054 547.073 0 542.548V405.299C3.90847 407.373 13.0909 415.102 12.0223 432.447C10.9536 449.792 32.3562 461.92 43.1911 465.817C54.7681 467.639 81.9592 468.909 98.1076 459.407C114.256 449.905 140.557 455.448 151.688 459.407C170.934 466.194 217.499 477.732 249.796 469.587C253.256 468.607 259.22 466.532 265.38 463.603C270.672 461.087 276.108 457.941 280.223 454.316C291.354 444.513 314.063 437.16 320 437.726V548.77C309.076 542.133 304.469 542 300 539C287.829 530.83 260.156 519.284 234.508 540.851C208.861 562.419 167.421 555.117 149.907 548.77C131.899 540.097 90.538 526.033 69.1651 539.155Z" fill="url(#paint1_linear_84_1187)" fill-opacity="0.2"/>
<path d="M12.0223 433.202C13.0909 415.857 3.90847 408.127 0 406.053V316.69C5.7885 327.625 38.2931 333.658 54.6197 335.166C61.308 335.784 66.6014 337.573 71.8367 341.037C79.3811 346.03 86.8046 354.504 98.1076 367.97C113.425 386.22 157.229 395.81 177.217 398.324C183.401 400.46 199.866 409.824 216.252 430.185C232.638 450.546 255.832 461.45 265.38 464.357C259.22 467.286 253.256 469.361 249.796 470.342C217.499 478.486 170.934 466.948 151.688 460.161C140.557 456.202 114.256 450.659 98.1076 460.161C81.9592 469.663 54.7681 468.394 43.1911 466.571C32.3562 462.675 10.9536 450.546 12.0223 433.202Z" fill="#2081A1"/>
<path d="M319.999 439.129C314.062 438.563 291.354 445.916 280.222 455.719C276.107 459.343 270.671 462.49 265.38 465.006C255.831 462.099 232.637 451.195 216.252 430.833C199.866 410.472 183.401 401.109 177.216 398.972C157.229 396.458 113.424 386.869 98.1068 368.619C86.8038 355.152 79.3803 346.679 71.8359 341.686C94.3468 342.808 145.394 341.471 169.498 327.142C193.602 312.814 225.751 316.271 238.812 319.79C254.495 335.815 292.689 363.792 319.999 347.504V439.129Z" fill="url(#paint2_linear_84_1187)"/>
<path d="M231.243 318.049C261.996 312.016 305.751 276.949 320 278.081V0H0V265.261C6.13482 284.491 32.5343 318.35 89.0538 299.95C145.573 281.55 172.715 298.19 178.553 299.95C186.271 302.464 200.49 324.082 231.243 318.049Z" fill="#7DDEEA"/>
<path d="M0 318.01C5.7885 328.945 38.2931 334.977 54.6197 336.486C61.308 337.104 66.6014 338.892 71.8367 342.357C94.3475 343.479 145.395 342.142 169.499 327.813C193.603 313.485 217.939 324.294 231 327.813C246.683 343.838 292.69 364.463 320 348.174V239.77C305.751 238.639 266.449 267.295 235.696 273.328C204.942 279.361 181.818 283.383 174.1 280.87C168.262 279.11 167.718 259.566 91.1317 276.533C33.6531 289.268 6.13482 246.18 0 226.95V318.01Z" fill="#61C8D7"/>
<path d="M0 318.01C5.7885 328.945 38.2931 334.977 54.6197 336.486C61.308 337.104 66.6014 338.892 71.8367 342.357C94.3475 343.479 145.395 342.142 169.499 327.813C193.603 313.485 217.939 324.294 231 327.813C246.683 343.838 292.69 364.463 320 348.174V239.77C305.751 238.639 266.449 267.295 235.696 273.328C204.942 279.361 181.818 283.383 174.1 280.87C168.262 279.11 167.718 259.566 91.1317 276.533C33.6531 289.268 6.13482 246.18 0 226.95V318.01Z" fill="url(#paint3_linear_84_1187)" fill-opacity="0.2"/>
<path d="M207.795 -26.1541H148.765L148 209.649C178.37 211.632 223.398 215.711 247 214.682L207.795 -26.1541Z" fill="url(#paint4_linear_84_1187)"/>
<path d="M88.2189 -33.7067L121.081 -27.2426L81.7265 203.954C64.4357 186.691 32.9386 201.455 19.9976 197.863L88.2189 -33.7067Z" fill="url(#paint5_linear_84_1187)"/>
<path d="M299.467 -33.1693L268.69 -26.8484L304 189.346C325.682 180.019 339.379 181.869 351.5 178.346L299.467 -33.1693Z" fill="url(#paint6_linear_84_1187)"/>
<path d="M22.7347 189.184L11.6247 169.074C10.9684 169.074 9.96524 168.737 11.2028 167.386L2.34319 152.058C1.73378 152.386 0.43059 152.845 0.0930726 152.058C-0.328825 151.073 0.796235 150.511 1.21813 150.37L8.95268 145.87C9.65584 145.588 10.8934 145.56 10.2184 147.698L8.95268 148.401L16.9687 163.589C17.9063 163.402 19.5845 163.364 18.797 164.714L17.9532 165.418L30.3288 188.2L36.7979 187.216L38.6261 163.027C37.6886 162.746 36.0947 162.042 37.2198 161.48H39.048C39.273 161.48 39.7043 150.886 39.8918 145.588L37.0792 145.448L36.7979 143.198H32.4383V141.088H34.4072L34.6884 134.479L28.9225 134.057V129.697H32.4383L45.3765 124.494L50.7205 127.025L57.7521 126.744C60.6585 125.056 68.2433 121.681 75.3312 121.681C82.4191 121.681 92.629 115.587 96.8479 112.54L105.427 108.602L163.226 140.948H165.758V145.307H159.007V152.058H160.695V153.886H155.492V155.433H152.257L151.273 170.902C152.21 171.23 153.72 171.971 152.257 172.309C151.481 172.488 151.119 172.516 150.979 172.483L148.275 209.93C151.834 210.196 155.046 210.471 157.039 210.471L155.492 195.372H157.039L160.133 190.591L169.414 187.216V185.387H173.211L180.384 163.027C179.915 162.746 179.118 162.014 179.68 161.339C180.243 160.664 180.946 161.058 181.227 161.339L186.009 146.432L184.462 145.87L185.165 144.323L194.728 147.417L194.306 148.964H191.915L187.134 163.027L188.4 163.871C188.118 164.433 187.359 165.446 186.571 164.996L180.384 183.7H182.915V188.622L179.962 188.903L181.087 206.904C187.509 202.873 201.45 191.069 205.838 176.106L202.885 147.417H201.619V144.885L202.182 144.323C202.275 137.572 200.663 124.156 193.462 124.494L192.9 118.025H191.353V115.634H198.806C200.916 114.977 205.782 114.171 208.369 116.196H224.402L234.808 111.555L256.325 109.446V111.555H255.341V117.884C252.95 119.29 248.562 123.706 250.137 130.119L251.122 139.541H252.387V141.791H251.122L252.809 159.652C254.872 160.589 259.166 162.943 259.841 164.855C260.516 166.768 260.122 128.713 259.841 109.446C259.56 107.899 257.76 104.383 252.809 102.696V95.8046H251.122V94.117H255.341V90.7418H259.841V87.0854H276.014V83.5696L283.327 85.1165C284.592 88.0698 289.233 94.342 297.671 95.8046C306.109 97.2672 309.531 97.7266 310.187 97.7735C311.359 96.3203 314.547 93.5545 317.922 94.117V95.8046H316.656V102.696C314.266 103.68 309.484 106.605 309.484 110.43C309.484 114.256 309.859 150.089 310.047 167.527L311.782 173.012C310.048 172.637 312.795 181.491 310.657 185.878C311.611 186.346 312.055 186.786 311.801 187.188C311.814 187.193 311.808 187.203 311.782 187.216C311.181 188.053 309.818 188.722 307.917 189.249C307.195 189.683 306.412 189.87 305.572 189.781C304.919 189.903 304.229 190.013 303.507 190.114C286.52 196.584 249.363 211.887 248.216 215.061C243.622 215.577 212.917 225.186 195.291 223.499C173.72 221.434 166.977 217.034 157.039 210.471C155.046 210.471 151.834 210.196 148.275 209.93C144.926 209.679 141.271 209.436 138.033 209.436L129.276 209.436C126.16 210.471 125.714 210.471 119.332 210.471L121.881 170.34C121.271 170.293 120.109 169.974 120.334 169.074H122.162L123.287 153.183L120.334 152.901V150.792H117.38V152.62L113.443 152.901L112.88 168.23L114.427 168.512C114.333 168.98 113.836 169.833 112.599 169.496L108.794 211.807C106.271 212.549 103.334 214.194 99.1782 214.194C81.6327 215.369 72.3779 219.842 43.6364 212.108C27.9035 207.354 13.8196 197.685 9.6475 190.137L22.7347 189.184Z" fill="#6FD4E0"/>
<path d="M141.388 173.061L138.033 209.581H128.979C130.246 193.001 131.763 171.469 132.101 171.924C132.439 172.379 133.273 171.735 133.649 171.356C133.761 170.446 132.664 170.408 132.101 170.503L133.086 154.729H136.322V152.597H139.84V155.013H142.795L141.81 171.071H139.84C139.502 171.867 140.731 172.729 141.388 173.061Z" fill="#7DDEEA"/>
<path d="M102.552 169.792L99.4563 208.588C96.1919 208.019 93.5934 209.867 92.7023 210.862C92.3646 209.611 86.6518 207.119 83.8376 206.03L87.0739 167.661H88.7624V166.666H87.0739L88.0589 150.892H91.4359V149.045L101.286 149.755V151.887H103.959L103.115 168.229H101.286C101.06 169.252 102.036 169.698 102.552 169.792Z" fill="#7DDEEA"/>
<path d="M77.0835 167.661L73.9879 206.598L64.1383 207.735C65.2639 193.856 67.5997 166.211 67.9374 166.666C68.3595 167.234 69.9073 166.098 69.7666 165.671C69.6541 165.33 68.5003 165.15 67.9374 165.103L68.9224 149.045H72.4401V147.482H75.6764V149.755L78.772 150.182L77.0835 166.098H75.6764V167.234L77.0835 167.661Z" fill="#7DDEEA"/>
<path d="M57.6656 165.671L54.8514 207.735C54.8514 207.053 48.4726 204.135 45.2832 202.761L48.3788 164.677C49.9548 164.335 50.0673 163.398 49.9266 162.971H48.6602L49.9266 147.482H53.1629V146.06H56.2585V148.192H59.2134L58.0878 164.392H56.2585C56.2585 164.961 57.1966 165.482 57.6656 165.671Z" fill="#7DDEEA"/>
<path d="M267.604 118.065V170.929L269.996 172.492L277.735 135.829L276.328 135.544V133.697L283.504 135.544V136.539H282.379L274.499 174.766L279.283 177.015C281 175.602 282.701 174.313 284.208 173.231V159.419H280.831V155.582L292.088 154.729V157.145C297.153 157.145 301.046 158.661 302.359 159.419V118.776C301.937 113.66 298.025 103.286 285.756 102.718C273.486 102.149 268.542 112.713 267.604 118.065Z" fill="#7DDEEA"/>
<path d="M209.772 147.339L211.883 167.803C212.024 166.24 213.544 163.597 218.496 165.529C223.449 167.462 229.941 165.671 232.567 164.534L217.793 136.397L216.386 137.108L215.401 135.402L222.577 131.992L223.14 133.129L221.592 134.55L237.211 163.113C238.674 161.977 243.637 160.366 245.935 159.703L244.106 143.36H243.261V140.66H244.106L243.261 133.981C241.573 129.055 235.072 119.714 222.577 121.76C210.082 123.806 208.834 137.392 209.772 143.929H210.757V146.913L209.772 147.339Z" fill="#7DDEEA"/>
<path d="M268.992 385.501C270.634 380.984 276.954 382.06 279.909 383.162C278.53 384.775 279.006 387.222 279.417 388.244C280.73 389.373 281.14 387.356 282.372 388.244C283.357 388.953 282.727 391.712 282.289 393.003C281.496 392.061 279.712 390.421 278.924 391.389C278.136 392.357 278.924 393.352 279.417 393.728C277.578 395.922 275.094 395.234 274.081 394.616C273.622 394.164 272.85 394.428 272.522 394.616C272.128 395.326 273.397 395.933 274.081 396.148C270.141 395.89 268.226 392.599 267.761 390.986C266.054 389.954 265.463 388.566 265.381 388.002C268.007 387.421 268.883 386.093 268.992 385.501Z" fill="#033656" fill-opacity="0.5"/>
<path d="M287.395 392.625C289.036 388.108 295.357 389.184 298.311 390.286C296.932 391.899 297.409 394.346 297.819 395.368C299.132 396.497 299.543 394.481 300.774 395.368C301.759 396.078 301.13 398.836 300.692 400.127C299.898 399.186 298.114 397.546 297.326 398.514C296.538 399.482 297.326 400.476 297.819 400.853C295.98 403.047 293.496 402.358 292.484 401.74C292.024 401.288 291.252 401.552 290.924 401.74C290.53 402.45 291.8 403.057 292.484 403.273C288.544 403.014 286.628 399.723 286.163 398.11C284.456 397.078 283.865 395.69 283.783 395.126C286.41 394.545 287.285 393.217 287.395 392.625Z" fill="#033656" fill-opacity="0.5"/>
<path d="M285.324 380.915C286.158 378.609 289.372 379.158 290.875 379.721C290.173 380.545 290.415 381.794 290.624 382.316C291.292 382.893 291.501 381.863 292.127 382.316C292.628 382.678 292.308 384.087 292.085 384.746C291.681 384.265 290.774 383.428 290.374 383.922C289.973 384.416 290.374 384.924 290.624 385.117C289.689 386.237 288.426 385.886 287.911 385.57C287.678 385.339 287.285 385.474 287.118 385.57C286.918 385.932 287.563 386.242 287.911 386.352C285.908 386.221 284.934 384.54 284.698 383.716C283.829 383.189 283.529 382.481 283.487 382.192C284.823 381.896 285.268 381.218 285.324 380.915Z" fill="#033656" fill-opacity="0.5"/>
<path d="M301.65 388.04C302.485 385.733 305.698 386.282 307.201 386.845C306.5 387.669 306.742 388.918 306.95 389.44C307.618 390.017 307.827 388.987 308.453 389.44C308.954 389.803 308.634 391.211 308.411 391.87C308.008 391.39 307.101 390.552 306.7 391.046C306.299 391.541 306.7 392.049 306.95 392.241C306.015 393.361 304.752 393.01 304.237 392.694C304.004 392.463 303.611 392.598 303.444 392.694C303.244 393.056 303.89 393.367 304.237 393.477C302.234 393.345 301.26 391.664 301.024 390.841C300.156 390.313 299.855 389.605 299.813 389.317C301.149 389.02 301.594 388.342 301.65 388.04Z" fill="#033656" fill-opacity="0.5"/>
<path d="M296.226 382.954C296.755 381.513 298.79 381.856 299.742 382.208C299.298 382.723 299.451 383.503 299.583 383.83C300.006 384.19 300.138 383.546 300.535 383.83C300.852 384.056 300.649 384.936 300.508 385.348C300.253 385.048 299.678 384.525 299.425 384.834C299.171 385.142 299.425 385.46 299.583 385.58C298.991 386.28 298.191 386.061 297.865 385.863C297.717 385.719 297.468 385.803 297.363 385.863C297.236 386.09 297.645 386.284 297.865 386.352C296.596 386.27 295.979 385.22 295.83 384.705C295.28 384.375 295.089 383.933 295.063 383.752C295.909 383.567 296.191 383.143 296.226 382.954Z" fill="#033656" fill-opacity="0.5"/>
<path d="M254.156 -184.928C252.973 -190.513 253.342 -191.679 253.674 -191.565C253.835 -195.428 254.733 -204.357 257.044 -209.171C259.355 -213.985 266.237 -216.495 269.389 -217.149C273.24 -217.068 283.061 -216.138 291.534 -213.057C300.007 -209.976 298.847 -194.144 297.208 -186.613C298.996 -187.564 302.593 -189.151 302.675 -187.885C302.758 -186.62 302.435 -181.765 302.263 -179.495C301.174 -177.73 298.563 -173.746 296.83 -171.93C295.097 -170.114 293.746 -169.844 293.288 -169.935C293.517 -161.258 294.911 -143.306 298.652 -140.913C302.394 -138.52 311.054 -137.93 314.917 -137.935C323.092 -138.121 327.985 -135.598 331.457 -133.451C335.24 -131.113 337.166 -120.9 337.234 -116.154C337.303 -111.409 337.819 -98.7889 338.679 -94.353C339.366 -90.8043 341.442 -86.3867 342.394 -84.6215C343.683 -86.0022 344.927 -87.4489 345.969 -88.9886C349.132 -93.6653 350.29 -104.868 350.473 -109.885C349.141 -111.244 349.125 -112.741 348.101 -114.882C346.966 -117.255 346.553 -119.593 345.969 -121.037C345.501 -122.193 344.146 -122.871 343.527 -123.066C343.951 -122.642 344.848 -121.615 345.04 -120.9C345.233 -120.184 344.479 -120.602 344.077 -120.9C342.14 -121.473 338.177 -123.004 337.819 -124.545C337.372 -126.47 338.3 -130.184 338.679 -131.628C339.057 -133.073 339.882 -132.866 339.435 -132.935C338.988 -133.004 339.126 -134.483 338.988 -135.789C338.851 -137.096 339.573 -137.509 339.435 -137.818C339.298 -138.128 339.709 -138.917 340.364 -139.813C340.972 -140.645 340.636 -141.289 340.939 -141.494C340.317 -141.198 338.887 -140.672 337.544 -140.672C335.79 -140.672 336.89 -141.669 335.687 -141.532C334.724 -141.422 334.69 -141.944 334.793 -142.22C336.547 -142.793 340.35 -144.125 341.533 -144.867C343.011 -145.796 343.63 -146.724 344.524 -146.965C345.24 -147.158 347.482 -147.045 348.513 -146.965C348.616 -146.988 348.85 -147.44 348.96 -149.063C349.07 -150.686 350.267 -151.71 350.852 -152.02C350.897 -152.639 351.127 -153.76 351.677 -153.292C352.227 -152.825 352.823 -146.701 353.052 -143.698C354.485 -140.741 357.667 -133.719 358.932 -129.29C360.198 -124.861 360.262 -113.507 360.136 -108.383C359.632 -102.686 358.348 -89.9584 357.248 -84.6215C356.147 -79.2847 352.846 -71.7608 351.333 -68.666C347.333 -61.9835 338.851 -48.9348 336.925 -50.2002C334.518 -51.782 332.076 -57.6278 331.526 -63.5423C330.976 -69.4569 326.231 -81.1141 324.546 -87.2693C323.198 -92.1935 322.563 -96.7294 322.414 -98.3819C321.094 -97.3629 319.584 -96.5215 318.631 -96.0724C318.837 -92.3242 319.264 -83.9819 319.319 -80.5983C319.388 -76.3687 318.39 -69.5257 320.419 -64.5739C322.448 -59.6222 325.646 -45.9706 329.222 -38.096C332.798 -30.2214 339.401 -25.9918 345.109 -18.633C350.817 -11.2742 362.818 4.40622 373.1 18.4017C381.325 29.5981 390.626 47.046 394.248 54.3704L307.73 81.0202C301.69 73.6729 288.013 56.5711 281.631 46.9428C273.653 34.9074 273.412 19.674 273.412 5.50658C273.412 -8.66083 276.129 -26.095 276.679 -33.2131C277.229 -40.3312 276.92 -44.8702 276.679 -53.6733C276.438 -62.4763 261.755 -83.3148 257.285 -88.5416C252.814 -93.7684 242.98 -113.3 241.467 -113.747C239.954 -114.194 230.154 -106.595 228.159 -102.812C226.564 -99.7861 213.373 -84.5413 206.977 -77.2971C208.444 -75.7955 212.004 -71.8915 214.507 -68.2877C217.637 -63.783 228.228 -54.0172 231.357 -51.6788C234.486 -49.3405 237.409 -48.756 240.71 -46.3145C244.011 -43.873 246.866 -37.9241 249.169 -33.2131C251.473 -28.5021 256.872 -24.3069 257.663 -23.8942C258.454 -23.4816 261.308 -14.7473 261.514 -14.1627C261.721 -13.5782 261.342 -12.3402 261.067 -11.5493C260.792 -10.7584 259.486 -4.19052 257.938 -2.29926C256.7 -0.78624 256.918 -1.98976 257.182 -2.78065C256.975 -3.75496 256.57 -6.05429 256.597 -7.45728C256.631 -9.21103 258.213 -11.8244 258.213 -13.5438C258.213 -14.9192 256.7 -17.739 255.944 -18.9769L254.328 -21.6247C254.087 -21.4871 253.578 -20.8957 253.468 -19.6302C253.358 -18.3648 252.574 -14.6556 252.196 -12.9592C251.978 -12.7529 251.301 -12.299 250.339 -12.1339C249.376 -11.9688 248.493 -12.2027 248.172 -12.3402C247.932 -12.2485 247.168 -12.017 246.04 -11.8244C244.912 -11.6319 243.759 -12.0881 243.324 -12.3402C243.209 -12.2829 242.829 -12.0995 242.223 -11.8244C241.618 -11.5493 239.128 -11.7098 237.959 -11.8244C237.375 -12.26 237.389 -14.706 237.031 -16.1916C236.673 -17.6771 238.58 -18.4496 239.004 -18.1172C238.11 -21.0578 236.648 -24.3409 236.206 -25.1665C234.211 -27.5507 229.954 -32.6973 228.881 -34.2103C227.54 -36.1016 227.815 -38.6462 227.403 -40.9157C226.99 -43.1853 221.832 -45.9362 219.287 -47.6556C216.743 -49.3749 211.069 -51.6101 206.323 -53.8109C202.527 -55.5715 195.916 -61.1696 193.084 -63.7487C190.792 -65.7546 186.207 -70.1721 186.207 -71.7952C186.207 -73.824 189.061 -80.5983 193.084 -87.6476C197.108 -94.6969 205.326 -105.391 212.307 -111.306C219.287 -117.22 222.898 -124.957 224.617 -127.674C226.337 -130.391 233.214 -139.778 234.039 -141.016C234.865 -142.254 241.054 -144.42 244.94 -143.114C248.048 -142.068 256.895 -141.99 260.93 -142.082C264.506 -143.033 272.051 -145.026 273.619 -145.383C275.187 -145.741 274.891 -152.662 274.547 -156.078C274.203 -155.814 272.965 -155.259 270.764 -155.149C268.013 -155.012 261.205 -162.645 258.11 -168.422C255.015 -174.199 255.634 -177.948 254.156 -184.928Z" fill="#FFECE3"/>
<path d="M274.547 -156.078C274.203 -155.814 272.965 -155.259 270.764 -155.149C268.013 -155.012 261.205 -162.645 258.11 -168.422C255.015 -174.199 255.634 -177.948 254.156 -184.928C252.973 -190.513 253.342 -191.679 253.674 -191.565C253.835 -195.428 254.733 -204.357 257.044 -209.171C259.355 -213.985 266.237 -216.495 269.389 -217.149C273.24 -217.068 283.061 -216.138 291.534 -213.057C300.007 -209.976 298.847 -194.144 297.208 -186.613C298.996 -187.564 302.593 -189.151 302.675 -187.885C302.758 -186.62 302.435 -181.765 302.263 -179.495C301.174 -177.73 298.563 -173.746 296.83 -171.93C295.097 -170.114 293.746 -169.844 293.288 -169.935C293.517 -161.258 294.911 -143.306 298.652 -140.913C302.394 -138.52 311.054 -137.93 314.917 -137.935M274.547 -156.078C274.891 -152.662 275.187 -145.741 273.619 -145.383C272.051 -145.026 264.506 -143.033 260.93 -142.082M274.547 -156.078C278.742 -158.232 287.47 -162.996 288.818 -164.812C290.166 -166.627 291.626 -168.48 292.187 -169.179M260.93 -142.082C256.895 -141.99 248.048 -142.068 244.94 -143.114C241.054 -144.42 234.865 -142.254 234.039 -141.016C233.214 -139.778 226.337 -130.391 224.617 -127.674C222.898 -124.957 219.287 -117.22 212.307 -111.306C205.326 -105.391 197.108 -94.6969 193.084 -87.6476C189.061 -80.5982 186.207 -73.824 186.207 -71.7952C186.207 -70.1721 190.792 -65.7546 193.084 -63.7487C195.916 -61.1696 202.527 -55.5715 206.323 -53.8108C211.069 -51.6101 216.743 -49.3749 219.287 -47.6556C221.832 -45.9362 226.99 -43.1853 227.403 -40.9157C227.815 -38.6462 227.54 -36.1016 228.881 -34.2103C229.954 -32.6973 234.211 -27.5507 236.206 -25.1665C236.882 -23.9057 239.933 -16.9137 239.713 -14.1627C239.493 -11.4118 239.371 -17.6702 239.004 -18.1172C238.58 -18.4496 236.673 -17.6771 237.031 -16.1916C237.389 -14.706 237.375 -12.26 237.959 -11.8244C239.128 -11.7098 241.618 -11.5493 242.223 -11.8244C242.829 -12.0995 243.209 -12.2829 243.324 -12.3402M260.93 -142.082C264.896 -141.028 273.577 -138.967 276.576 -139.159C280.324 -139.4 282.834 -135.892 285.241 -135.617M243.324 -12.3402C243.759 -12.0881 244.912 -11.6319 246.04 -11.8244C247.168 -12.017 247.932 -12.2485 248.172 -12.3402M243.324 -12.3402C243.736 -12.7643 244.672 -14.1283 245.112 -16.1916C245.662 -18.7706 246.762 -22.6219 247.209 -23.0345C247.567 -23.3647 247.794 -23.7452 247.863 -23.8942M248.172 -12.3402C248.493 -12.2027 249.376 -11.9688 250.339 -12.1339C251.301 -12.299 251.978 -12.7529 252.196 -12.9592C252.574 -14.6556 253.358 -18.3648 253.468 -19.6302C253.578 -20.8957 254.087 -21.4871 254.328 -21.6247L255.944 -18.9769C256.7 -17.739 258.213 -14.9192 258.213 -13.5438C258.213 -11.8244 256.631 -9.21102 256.597 -7.45728C256.57 -6.05429 256.975 -3.75496 257.182 -2.78066C256.918 -1.98976 256.7 -0.786234 257.938 -2.29925C259.486 -4.19052 260.792 -10.7584 261.067 -11.5493C261.342 -12.3402 261.721 -13.5782 261.514 -14.1627C261.308 -14.7473 258.454 -23.4816 257.663 -23.8942C256.872 -24.3069 251.473 -28.5021 249.169 -33.2131C246.866 -37.9241 244.011 -43.873 240.71 -46.3145C237.409 -48.756 234.486 -49.3405 231.357 -51.6789C228.228 -54.0172 217.637 -63.783 214.507 -68.2877C212.004 -71.8915 208.444 -75.7955 206.977 -77.2971M248.172 -12.3402C248.608 -12.7529 249.534 -14.1008 249.754 -16.1916C250.029 -18.805 251.233 -22.9658 251.714 -23.2753M206.977 -77.2971C213.373 -84.5413 226.564 -99.7861 228.159 -102.812C230.154 -106.595 239.954 -114.194 241.467 -113.747M206.977 -77.2971C206.507 -78.0765 204.927 -80.0756 202.369 -81.8362C199.81 -83.5968 197.704 -84.2203 196.97 -84.312M241.467 -113.747C242.98 -113.3 252.814 -93.7684 257.285 -88.5416C261.755 -83.3148 276.438 -62.4763 276.679 -53.6733C276.92 -44.8702 277.229 -40.3312 276.679 -33.2131C276.129 -26.095 273.412 -8.66083 273.412 5.50658C273.412 19.674 273.653 34.9074 281.631 46.9428C288.013 56.5711 301.69 73.6729 307.73 81.0202L394.248 54.3704C390.626 47.046 381.325 29.5981 373.1 18.4017C362.818 4.40622 350.817 -11.2742 345.109 -18.633C339.401 -25.9918 332.798 -30.2214 329.222 -38.096C325.646 -45.9706 322.448 -59.6222 320.419 -64.5739C318.39 -69.5257 319.388 -76.3687 319.319 -80.5983C319.264 -83.9819 318.837 -92.3242 318.631 -96.0724M241.467 -113.747C242.705 -114.252 245.586 -115.212 247.209 -115.02M318.631 -96.0724C319.584 -96.5215 321.094 -97.3629 322.414 -98.3819M318.631 -96.0724C318.459 -95.9692 317.414 -95.7079 314.608 -95.4878C311.802 -95.2677 308.533 -96.6799 307.249 -97.4134M316.086 -125.129C315.995 -123.846 316.767 -119.861 320.591 -114.194C325.371 -107.111 325.887 -104.119 324.958 -101.368C324.609 -100.333 323.586 -99.2871 322.414 -98.3819M322.414 -98.3819C322.563 -96.7294 323.198 -92.1935 324.546 -87.2693C326.231 -81.1141 330.976 -69.4569 331.526 -63.5423C332.076 -57.6278 334.518 -51.782 336.925 -50.2002C338.851 -48.9348 347.333 -61.9835 351.333 -68.666C352.846 -71.7608 356.147 -79.2847 357.248 -84.6215C358.348 -89.9584 359.632 -102.686 360.136 -108.383C360.262 -113.507 360.198 -124.861 358.932 -129.29C357.667 -133.719 354.485 -140.741 353.052 -143.698C352.823 -146.701 352.227 -152.825 351.677 -153.292C351.127 -153.76 350.897 -152.639 350.852 -152.02C350.267 -151.71 349.07 -150.686 348.96 -149.063C348.85 -147.44 348.616 -146.988 348.513 -146.965M348.513 -146.965C347.482 -147.045 345.24 -147.158 344.524 -146.965C343.63 -146.724 343.011 -145.796 341.533 -144.867C340.35 -144.125 336.547 -142.793 334.793 -142.22C334.69 -141.944 334.724 -141.422 335.687 -141.532C336.89 -141.669 335.79 -140.672 337.544 -140.672C338.947 -140.672 340.444 -141.245 341.017 -141.532M348.513 -146.965C349.717 -145.28 352.31 -141.786 353.052 -141.291M341.017 -141.532C340.581 -141.383 341.017 -140.707 340.364 -139.813C339.709 -138.917 339.298 -138.128 339.435 -137.818M341.017 -141.532C341.269 -142.036 342.049 -143.052 343.149 -143.079C344.524 -143.114 349.958 -137.268 351.333 -136.477C352.54 -135.783 353.614 -135.457 353.981 -135.342M339.435 -137.818C339.573 -137.509 338.851 -137.096 338.988 -135.789C339.126 -134.483 338.988 -133.004 339.435 -132.935M339.435 -137.818C339.653 -138.208 340.336 -138.898 341.326 -138.54C342.564 -138.093 345.865 -135.308 348.41 -133.932C350.446 -132.832 352.353 -131.938 353.052 -131.628M339.435 -132.935C339.882 -132.866 339.057 -133.073 338.679 -131.628C338.3 -130.184 337.372 -126.47 337.819 -124.545C338.177 -123.004 342.14 -121.473 344.077 -120.9C344.479 -120.602 345.233 -120.184 345.04 -120.9C344.848 -121.615 343.951 -122.642 343.527 -123.066M339.435 -132.935C339.871 -133.027 340.962 -133.052 341.842 -132.419C342.943 -131.628 348.135 -126.574 349.476 -125.851C350.549 -125.274 351.161 -125.083 351.333 -125.061M343.527 -123.066C344.146 -122.871 345.501 -122.193 345.969 -121.037C346.553 -119.593 346.966 -117.255 348.101 -114.882C349.125 -112.741 349.141 -111.244 350.473 -109.885M343.527 -123.066C342.553 -123.777 340.529 -125.329 340.226 -125.851M355.184 -107.798C354.382 -107.856 352.413 -108.266 350.955 -109.449C350.777 -109.593 350.617 -109.738 350.473 -109.885M350.473 -109.885C350.29 -104.868 349.132 -93.6653 345.969 -88.9886C344.927 -87.4489 343.683 -86.0022 342.394 -84.6215M333.039 -67.4625C333.005 -68.0929 333.156 -70.2822 334.036 -73.996C334.847 -77.4154 338.792 -80.7603 342.394 -84.6215M342.394 -84.6215C341.442 -86.3867 339.366 -90.8043 338.679 -94.353C337.819 -98.7889 337.303 -111.409 337.234 -116.154C337.166 -120.9 335.24 -131.113 331.457 -133.451C327.985 -135.598 323.092 -138.121 314.917 -137.935M291.878 -136.305C292.91 -136.305 294.698 -137.818 297.311 -138.54C299.925 -139.262 303.088 -137.062 312.648 -137.818C313.431 -137.88 314.187 -137.918 314.917 -137.935M253.262 -113.747C254.648 -114.297 258.124 -113.995 260.93 -108.383C264.437 -101.368 266.879 -99.5222 269.561 -98.3819M291.225 -103.466C291.912 -104.673 293.288 -107.649 293.288 -109.885M305.426 -48.9926C305.197 -47.6056 304.876 -44.536 305.426 -43.3531C305.977 -42.1702 306.871 -41.118 307.249 -40.7397L306.355 -45.0725" stroke="#EDD1BF" stroke-width="1.6"/>
<path d="M274.922 -17.0855C276.343 -15.8018 281.228 -13.131 284.309 -12.3058C287.19 -11.534 285.725 -14.3908 284.436 -16.2081C284.338 -16.3386 284.249 -16.4598 284.172 -16.5697C284.258 -16.4552 284.347 -16.3342 284.436 -16.2081C285.525 -14.7609 287.815 -12.169 290.086 -11.0334C292.562 -9.79551 296.276 -8.70659 297.823 -8.31688C300.895 -8.19079 308.126 -7.42282 312.472 -5.3596C316.819 -3.29639 319.097 -1.49681 319.693 -0.854916C319.946 -2.43671 321.351 -6.14362 324.955 -8.31688C329.459 -11.0334 331.557 -14.4034 331.798 -15.0223C331.99 -15.5175 332.474 -18.2088 332.692 -19.4926C332.566 -18.5069 332.513 -16.4391 333.311 -16.0539C334.108 -15.6688 336.623 -19.1717 337.781 -20.9713L338.675 -26.2668C350.263 -14.2658 373.475 16.5517 381.452 29.6463C391.425 46.0145 407.896 73.8679 406.658 94.2593C405.668 110.572 396.915 127.236 392.662 133.529C387.997 138.699 377.36 149.567 372.133 151.685C365.6 154.333 345.415 156.156 336.509 154.746C327.602 153.336 307.761 144.877 289.742 139.203C275.327 134.664 248.627 122.881 234.173 119.568C218.378 118.548 186.85 119.245 187.097 130.194C187.407 143.88 194.559 154.368 199.58 157.772C204.6 161.176 223.857 168.845 229.015 170.598C234.173 172.352 240.312 176.272 240.432 181.224C240.514 184.635 239.939 187.253 239.641 188.136C240.088 185.201 240.12 179.608 237.577 177.269C234.647 174.575 217.564 173.04 213.713 173.349C210.632 173.597 208.257 174.094 207.455 174.312C210.698 173.98 218.108 174.106 221.794 177.269C226.402 181.224 237.577 186.176 237.577 202.475C237.577 218.774 223.341 233.045 219.731 233.354C217.817 233.518 215.184 233.51 213.072 233.456C212.044 233.501 211.129 233.452 210.412 233.354C211.054 233.389 211.995 233.429 213.072 233.456C216.762 233.297 221.916 231.941 224.648 227.337C229.015 219.978 228.602 212.103 224.648 207.289C220.693 202.475 215.57 195.873 204.497 194.463C193.425 193.053 175.131 196.457 170.214 195.46C166.28 194.662 160.62 192.056 158.281 190.852C158.281 191.918 158.742 194.532 160.585 196.457C162.889 198.864 167.709 199.786 171.658 200.068C175.028 200.309 177.412 198.784 178.329 198.417C176.094 200.343 176.059 201.134 168.529 203.025C160.802 204.965 152.745 199.483 148.447 193.809C144.148 188.136 140.022 170.461 143.839 153.061C146.892 139.141 155.473 126.537 159.382 121.975C152.08 124.909 135.682 132.876 128.502 141.266C121.322 149.657 119.16 165.555 118.977 172.455C114.633 165.486 105.484 148.721 103.64 137.415C101.337 123.282 101.921 103.922 105.188 90.5455C107.801 79.8443 113.338 64.996 115.779 58.9095C111.034 63.4715 100.669 76.777 97.1757 93.5028C93.682 110.229 94.8488 128.371 95.869 135.352C92.3959 127.924 85.7799 109.898 87.1004 97.2166C88.7509 81.3642 101.646 54.8175 112.065 45.6362C120.401 38.2911 139.128 28.9356 147.449 25.176C140.354 26.8495 123.956 31.5788 115.126 37.1082C104.088 44.02 94.8031 48.0433 90.9517 56.2617C87.8706 62.8365 86.3668 68.5608 86 70.6011C86.1146 63.5288 91.5625 46.7091 98.7575 40.0999C112.272 27.6862 121.006 26.7349 127.505 24.0756C134.875 22.8033 150.778 20.2999 155.427 20.465C160.076 20.63 162.408 21.1756 162.992 21.4278C161.56 18.4476 156.266 12.8792 146.555 14.4473C136.844 16.0153 131.345 18.6768 129.809 19.8116C133.385 16.0176 142.663 8.56022 151.163 9.0829C159.664 9.60558 168.941 15.7196 172.517 18.7112C174.684 21.1527 179.56 28.2502 181.733 37.1082C184.45 48.1808 184.45 90.0985 196.176 84.7341C205.556 80.4426 213.862 78.2006 216.842 77.616C223.066 75.0943 239.386 70.4498 254.874 72.0453C274.234 74.0398 300.574 78.0974 311.716 89.1356C302.809 78.2235 283.91 54.226 279.564 45.533C274.131 34.6668 272.289 18.4266 272.893 2.03358C273.374 -11.0334 274.532 -16.0998 274.922 -17.0855Z" fill="url(#paint7_linear_84_1187)"/>
<path d="M234.173 119.568C248.627 122.881 275.327 134.664 289.742 139.203C307.761 144.877 327.602 153.336 336.509 154.746C345.415 156.156 365.6 154.333 372.133 151.685C377.36 149.567 387.997 138.699 392.662 133.529C396.915 127.236 405.668 110.572 406.658 94.2593C407.896 73.8678 391.425 46.0144 381.452 29.6463C373.475 16.5517 350.263 -14.2658 338.675 -26.2668L337.781 -20.9713C336.623 -19.1717 334.108 -15.6688 333.311 -16.0539C332.513 -16.4391 332.566 -18.5069 332.692 -19.4926C332.474 -18.2088 331.99 -15.5175 331.798 -15.0223C331.557 -14.4034 329.459 -11.0334 324.955 -8.31688C321.351 -6.14362 319.946 -2.43671 319.693 -0.854916C319.097 -1.49681 316.819 -3.29639 312.472 -5.3596C308.126 -7.42282 300.895 -8.19079 297.823 -8.31688C296.276 -8.70659 292.562 -9.79551 290.086 -11.0334C287.61 -12.2714 285.112 -15.2401 284.172 -16.5697C285.501 -14.8045 287.39 -11.4805 284.309 -12.3058C281.228 -13.131 276.343 -15.8018 274.922 -17.0855C274.532 -16.0998 273.374 -11.0334 272.893 2.03358C272.289 18.4266 274.131 34.6668 279.564 45.533C283.91 54.226 302.809 78.2235 311.716 89.1356M234.173 119.568C218.378 118.548 186.85 119.245 187.097 130.194C187.407 143.88 194.559 154.368 199.58 157.772C204.6 161.176 223.857 168.845 229.015 170.598C234.173 172.352 240.312 176.272 240.432 181.224C240.514 184.635 239.939 187.253 239.641 188.136C240.088 185.201 240.12 179.608 237.577 177.269C234.647 174.575 217.564 173.04 213.713 173.349C210.632 173.597 208.257 174.094 207.455 174.312C210.698 173.98 218.108 174.106 221.794 177.269C226.402 181.224 237.577 186.176 237.577 202.475C237.577 218.774 223.341 233.045 219.731 233.354C216.842 233.602 212.315 233.458 210.412 233.354C213.701 233.801 221.154 233.224 224.648 227.337C229.015 219.978 228.602 212.103 224.648 207.289C220.694 202.475 215.57 195.873 204.497 194.463C193.425 193.053 175.131 196.457 170.214 195.46C166.28 194.662 160.62 192.056 158.281 190.852C158.281 191.918 158.742 194.532 160.585 196.457C162.889 198.864 167.709 199.786 171.658 200.068C175.028 200.309 177.412 198.784 178.329 198.417C176.094 200.343 176.059 201.134 168.529 203.025C160.802 204.965 152.745 199.483 148.447 193.809C144.148 188.136 140.022 170.461 143.839 153.061C146.892 139.141 155.473 126.537 159.382 121.975C152.08 124.909 135.682 132.876 128.502 141.266C121.322 149.657 119.16 165.555 118.977 172.455C114.633 165.486 105.484 148.721 103.64 137.415C101.337 123.282 101.921 103.922 105.188 90.5455C107.801 79.8443 113.338 64.996 115.779 58.9095C111.034 63.4715 100.669 76.777 97.1757 93.5028C93.682 110.229 94.8488 128.371 95.869 135.352C92.3959 127.924 85.7799 109.898 87.1004 97.2166C88.7509 81.3642 101.646 54.8175 112.065 45.6362C120.401 38.2911 139.128 28.9356 147.449 25.176C140.354 26.8495 123.956 31.5788 115.126 37.1082C104.088 44.02 94.8031 48.0433 90.9517 56.2617C87.8706 62.8365 86.3668 68.5608 86 70.6011C86.1146 63.5288 91.5625 46.7091 98.7575 40.0999C112.272 27.6862 121.006 26.7349 127.505 24.0756C134.875 22.8033 150.778 20.2999 155.427 20.465C160.076 20.63 162.408 21.1756 162.992 21.4278C161.56 18.4476 156.266 12.8792 146.555 14.4473C136.844 16.0153 131.345 18.6769 129.809 19.8116C133.385 16.0176 142.663 8.56022 151.163 9.0829C159.664 9.60558 168.941 15.7196 172.517 18.7112C174.684 21.1527 179.56 28.2502 181.733 37.1082C184.45 48.1808 184.45 90.0985 196.176 84.7341C205.556 80.4426 213.862 78.2006 216.842 77.616M234.173 119.568L223.41 115.957C216.762 114.33 211.34 112.005 198.17 113.275C184.622 114.582 179.292 119.568 176.334 120.565C173.377 121.562 173.893 120.565 176.334 114.651C178.288 109.919 189.505 98.8786 194.869 93.9498M216.842 77.616C212.292 80.3555 202.242 86.7354 198.445 90.3392M216.842 77.616C223.066 75.0943 239.386 70.4498 254.874 72.0453C274.234 74.0398 300.574 78.0974 311.716 89.1356M311.716 89.1356C320.629 97.9662 328.772 118.307 331.729 127.374" stroke="#A94745" stroke-width="0.5"/>
</g>
<defs>
<linearGradient id="paint0_linear_84_1187" x1="148.275" y1="471.473" x2="116.478" y2="578.547" gradientUnits="userSpaceOnUse">
<stop offset="0.14" stop-opacity="0"/>
<stop offset="0.995"/>
</linearGradient>
<linearGradient id="paint1_linear_84_1187" x1="148.423" y1="343.084" x2="17.0528" y2="566.431" gradientUnits="userSpaceOnUse">
<stop offset="0.485" stop-opacity="0"/>
<stop offset="0.810679"/>
</linearGradient>
<linearGradient id="paint2_linear_84_1187" x1="195.918" y1="316.69" x2="201.425" y2="618.488" gradientUnits="userSpaceOnUse">
<stop stop-color="#52B9CB"/>
<stop offset="1" stop-color="#295C65"/>
</linearGradient>
<linearGradient id="paint3_linear_84_1187" x1="218.776" y1="226.95" x2="335.474" y2="446.098" gradientUnits="userSpaceOnUse">
<stop offset="0.152242" stop-opacity="0"/>
<stop offset="1"/>
</linearGradient>
<linearGradient id="paint4_linear_84_1187" x1="190.131" y1="-26.1541" x2="190.191" y2="250.287" gradientUnits="userSpaceOnUse">
<stop stop-color="#88E9F4"/>
<stop offset="0.816382" stop-color="#6FD9E6"/>
</linearGradient>
<linearGradient id="paint5_linear_84_1187" x1="98.0525" y1="-31.7723" x2="52.6941" y2="249.607" gradientUnits="userSpaceOnUse">
<stop stop-color="#88E9F4"/>
<stop offset="1" stop-color="#68D4E1"/>
</linearGradient>
<linearGradient id="paint6_linear_84_1187" x1="290.258" y1="-31.2778" x2="336.861" y2="246.297" gradientUnits="userSpaceOnUse">
<stop stop-color="#88E9F4"/>
<stop offset="1" stop-color="#68D4E1"/>
</linearGradient>
<linearGradient id="paint7_linear_84_1187" x1="246.359" y1="-23.9629" x2="225.267" y2="163.79" gradientUnits="userSpaceOnUse">
<stop stop-color="#E46B68"/>
<stop offset="1" stop-color="#B04848"/>
</linearGradient>
<clipPath id="clip0_84_1187">
<rect width="320" height="568" fill="white"/>
</clipPath>
</defs>
</svg>
