<svg width="320" height="197" viewBox="0 0 320 197" fill="none" xmlns="http://www.w3.org/2000/svg">
<path d="M273.323 20C279.435 18.1511 314.943 7.7037 335 0L335 197H-5V158.867C18.2397 150.97 65.6741 135.524 69.4944 136.911C74.2696 138.644 132.528 141.533 137.303 141.533C142.079 141.533 162.135 127.667 169.775 122.467C177.416 117.267 194.607 115.533 206.067 110.911C217.528 106.289 214.663 92.4222 214.663 88.9556C214.663 86.1822 221.667 84.7185 225.169 84.3333C224.214 77.5926 222.303 63.6489 222.303 61.8C222.303 59.4889 232.809 60.0667 232.809 50.2444C232.809 40.4222 255.73 38.1111 253.82 36.3778C251.91 34.6444 265.682 22.3111 273.323 20Z" fill="#00263D"/>
</svg>
