<svg width="1024" height="646" viewBox="0 0 1024 646" fill="none" xmlns="http://www.w3.org/2000/svg">
<path d="M31.08 480.932C21.8505 473.602 21.36 440.006 37.56 435.913L69.96 418.178C76.44 415.45 87.78 408.629 81.3 403.172C73.2 396.351 53.76 403.172 45.66 385.438C37.56 367.703 21.36 348.604 31.08 336.327C40.8 324.049 52.14 314.499 47.28 311.771C42.42 309.043 37.56 313.135 34.32 310.407C31.08 307.678 16.5 272.209 6.78 269.481C-0.24 240.378 -2.292 174.805 45.66 145.339C105.6 108.505 217.38 53.9372 220.62 25.289C223.212 2.37041 221.7 -6.99709 220.62 -8.81602H215.76H-7.8L-9.42 -6.08762L-24 646H1029V-17.0012C1016.97 -3.31844 1003.08 -22.458 983.64 -19.7296L943.14 -8.81596L949.62 43.0236C972.3 67.5792 960.96 234.012 884.82 243.561C796.696 254.613 790.712 454.686 781.482 456.152C772.253 457.618 773.092 431.963 771.414 429.031C769.735 426.099 751.276 382.852 744.564 443.691C737.852 504.531 716.141 550.772 659.086 562.5C602.031 574.228 597.068 578.74 594.868 570.5C592.465 561.494 575.343 572.091 579.034 562.5C582.113 554.5 567.834 541.602 563.639 546C559.444 550.398 556.993 540.448 546.925 539.715C536.856 538.982 515.33 522.301 507.778 524.5C500.227 526.699 511.31 519.191 476.909 530.919C434.118 558.773 405.59 554.375 383.775 539.715C361.96 525.055 355.248 530.186 341.823 530.919C328.398 531.652 265.98 535.5 253.02 568.24C242.895 593.819 168.78 582.982 168.78 573.697C168.78 563.966 178.922 552.562 197.94 549.142C205.771 547.92 216.83 532.575 152.58 509.58C87.78 486.389 45.8343 521.532 40.8 516.401L35.94 509.58C41.9811 509.58 32.7581 483.131 31.08 480.932Z" fill="url(#paint0_linear_49_44)"/>
<defs>
<linearGradient id="paint0_linear_49_44" x1="502.5" y1="-20" x2="502.5" y2="646" gradientUnits="userSpaceOnUse">
<stop stop-color="#4C9BA7"/>
<stop offset="1" stop-color="#4294A2"/>
</linearGradient>
</defs>
</svg>
