<svg width="320" height="139" viewBox="0 0 320 139" fill="none" xmlns="http://www.w3.org/2000/svg">
<path d="M14.5339 57.3116C12.494 54.4071 3.99469 49.5317 0 47.4571V139H320V0C316.345 4.8408 308.424 15.2485 305.976 18.153C302.916 21.7836 299.092 20.7463 299.092 19.709C299.092 18.6716 301.386 10.3731 302.406 6.2239C303.426 2.07464 300.876 3.11196 299.092 6.2239C297.307 9.33584 277.928 31.8974 275.633 31.8974C273.798 31.8974 274.189 29.477 274.614 28.2668C273.594 28.699 269.412 33.4015 260.845 48.7537C250.135 67.944 247.586 71.3153 244.781 71.834C241.976 72.3526 242.231 63.2761 241.721 62.2388C241.211 61.2015 235.602 45.9011 233.562 67.4254C231.522 88.9496 211.378 98.8041 194.04 102.953C176.701 107.103 173.131 99.0635 173.896 98.8041C174.661 98.5448 186.645 92.8396 188.43 89.987C190.215 87.1343 186.135 88.431 184.861 89.987C183.586 91.5429 180.526 91.8023 177.466 91.5429C174.406 91.2836 173.896 93.3582 171.602 94.1362C169.307 94.9142 162.677 94.1362 152.223 98.2855C139.219 108.14 130.55 106.584 123.92 101.397C117.291 96.2108 115.251 98.0261 111.171 98.2855C107.092 98.5448 81.5936 116.957 72.1594 119.291C62.7251 121.625 52.0159 114.882 51.506 112.549C51.098 110.681 62.5551 107.794 68.3347 106.584C70.7145 106.152 70.1705 105.339 48.9562 105.547C22.4382 105.806 9.94422 94.1362 8.41434 92.3209C7.19044 90.8687 8.9243 89.987 9.94422 89.7276C12.409 90.0734 17.7976 90.7649 19.6335 90.7649C21.4693 90.7649 20.9084 89.209 20.3984 88.431C17.5936 85.8377 11.2701 80.0288 8.41434 77.5392C4.84462 74.4273 1.78486 63.0168 2.29482 60.4235C2.80478 57.8302 6.62948 60.1642 7.6494 60.4235C8.66932 60.6829 16.3187 66.1287 17.3386 66.1287C18.3586 66.1287 17.0837 60.9422 14.5339 57.3116Z" fill="#023554"/>
</svg>
