<svg width="320" height="531" viewBox="0 0 320 531" fill="none" xmlns="http://www.w3.org/2000/svg">
<path d="M9.15692 397.161C6.28202 391.218 6.12923 363.978 11.1754 360.659L21.2677 346.28C23.2862 344.068 26.8185 338.537 24.8 334.113C22.2769 328.582 16.2215 334.113 13.6985 319.733C11.1754 305.354 6.12923 289.868 9.15692 279.913C12.1846 269.958 15.7169 262.216 14.2031 260.003C12.6892 257.791 11.1754 261.11 10.1662 258.897C9.15692 256.685 4.61539 227.926 1.58769 225.714C-0.598974 202.117 -1.23815 148.95 13.6985 125.058C32.3692 95.1934 67.1877 50.9491 68.1969 27.7208C69.0043 9.13818 68.5333 1.5429 68.1969 0.0680933H66.6831H-2.95385L-3.45846 2.28031L-8 531H320V-6.56851C316.254 4.52559 311.926 -10.9929 305.871 -8.78072L293.255 0.06814L295.274 42.1003C302.338 62.0102 298.806 196.955 275.089 204.698C247.639 213.66 245.775 375.881 242.9 377.07C240.026 378.258 240.287 357.457 239.764 355.079C239.241 352.702 233.492 317.637 231.401 366.966C229.31 416.295 208.663 438.88 190.891 448.389C173.119 457.898 169.46 439.474 170.244 438.88C171.028 438.285 183.312 425.21 185.141 418.672C186.971 412.135 182.789 415.106 181.482 418.672C180.175 422.238 177.039 422.833 173.903 422.238C170.767 421.644 170.244 426.399 167.892 428.182C165.539 429.965 158.744 428.182 148.029 437.691C134.7 460.275 125.814 456.709 119.018 444.823C112.223 432.936 110.132 437.097 105.951 437.691C101.769 438.285 82.3262 441.405 78.2892 467.952C75.1354 488.691 52.0492 479.904 52.0492 472.376C52.0492 464.486 55.2083 455.24 61.1323 452.466C63.5716 451.476 67.0164 439.034 47.0031 420.389C26.8185 401.585 13.7527 430.08 12.1846 425.92L10.6708 420.389C12.5525 420.389 9.67963 398.944 9.15692 397.161Z" fill="#5CBCCA"/>
</svg>
