<svg width="318" height="141" viewBox="0 0 318 141" fill="none" xmlns="http://www.w3.org/2000/svg">
<path fill-rule="evenodd" clip-rule="evenodd" d="M22.7347 105.615L11.6247 85.5045C10.9684 85.5045 9.96524 85.167 11.2028 83.8169L2.34319 68.488C1.73378 68.8161 0.43059 69.2755 0.0930726 68.488C-0.328825 67.5035 0.796235 66.941 1.21813 66.8004L8.95268 62.3001C9.65584 62.0189 10.8934 61.9907 10.2184 64.1284L8.95268 64.8315L16.9687 80.0198C17.9063 79.8323 19.5845 79.7948 18.797 81.1449L17.9532 81.8481L30.3288 104.631L36.7979 103.646L38.6261 79.4573C37.6886 79.176 36.0947 78.4729 37.2198 77.9104H39.048C39.273 77.9104 39.7043 67.316 39.8918 62.0189L37.0792 61.8783L36.7979 59.6281H32.4383V57.5187H34.4072L34.6884 50.9089L28.9225 50.487V46.1274H32.4383L45.3765 40.924L50.7205 43.4554L57.7521 43.1741C60.6585 41.4866 68.2433 38.1114 75.3312 38.1114C82.4191 38.1114 92.629 32.0173 96.8479 28.9703L105.427 25.0326L163.226 57.378H165.758V61.7376H159.007V68.488H160.695V70.3162H155.492V71.8632H152.257L151.273 87.3327C152.21 87.6609 153.72 88.4015 152.257 88.739C151.481 88.9182 151.119 88.9468 150.979 88.9132L148.275 126.36C144.926 126.109 141.271 125.866 138.033 125.866L141.288 88.739C140.631 88.4109 139.403 87.5577 139.741 86.7702H141.71L142.694 70.8787H139.741V68.488H136.225V70.5975H132.99L132.006 86.2077C132.569 86.1139 133.666 86.1514 133.553 87.0515C133.178 87.4265 132.344 88.064 132.006 87.614C131.817 87.3618 131.38 94.2508 130.81 103.244C130.362 110.3 129.833 118.652 129.276 125.866C126.16 126.902 125.714 126.902 119.332 126.902L121.881 86.7702C121.271 86.7233 120.109 86.4045 120.334 85.5045H122.162L123.287 69.613L120.334 69.3318V67.2223H117.38V69.0505L113.443 69.3318L112.88 84.6607L114.427 84.942C114.333 85.4107 113.836 86.2639 112.599 85.9264L108.794 128.237C108.13 128.433 107.438 128.69 106.703 128.964C104.642 129.731 102.241 130.625 99.1782 130.625L102.473 85.5045C101.958 85.4107 100.983 84.9701 101.208 83.9575H103.036L103.88 67.7848H101.208V65.6753L91.3633 64.9722V66.8004H87.9881L87.0037 82.4106H88.6913V83.395H87.0037L83.7691 121.366V132.28C73.5755 133.417 63.0523 133.763 43.6364 128.538C27.9035 123.785 13.8196 114.115 9.6475 106.568L22.7347 105.615ZM157.039 126.902L155.492 111.803H157.039L160.133 107.021L169.414 103.646V101.818H173.211L180.384 79.4573C179.915 79.176 179.118 78.4448 179.68 77.7697C180.243 77.0947 180.946 77.4885 181.227 77.7697L186.009 62.8627L184.462 62.3002L185.165 60.7532L194.728 63.8471L194.306 65.3941H191.915L187.134 79.4573L188.4 80.3011C188.118 80.8636 187.359 81.8762 186.571 81.4262L180.384 100.13H182.915V105.052L179.962 105.334L181.087 123.335C187.509 119.303 201.45 107.499 205.838 92.5361L202.885 63.8471H201.619V61.3157L202.182 60.7532C202.275 54.0028 200.663 40.5865 193.462 40.924L192.9 34.4549H191.353V32.0642H198.806C200.916 31.4079 205.782 30.6016 208.369 32.6267H224.402L234.808 27.9858L256.325 25.8764V27.9858H255.341V34.3143C252.95 35.7206 248.562 40.1365 250.137 46.5493L251.122 55.9717H252.387V58.2218H251.122L252.809 76.0821C254.872 77.0197 259.166 79.3729 259.841 81.2855C260.516 83.1981 260.122 45.143 259.841 25.8764C259.56 24.3294 257.76 20.8136 252.809 19.126V12.235H251.122V10.5474H255.341V7.17225H259.841V3.51581H276.014V0L283.327 1.54696C284.592 4.50024 289.233 10.7724 297.671 12.235C306.109 13.6976 309.531 14.157 310.187 14.2039C311.359 12.7507 314.547 9.9849 317.922 10.5474V12.235H316.656V19.126C314.266 20.1104 309.484 23.0356 309.484 26.8608C309.484 30.686 309.859 66.5191 310.047 83.9575L311.782 89.4422C310.996 89.2722 311.13 90.9987 311.314 93.346C311.534 96.1766 311.826 99.91 310.657 102.309C308.001 101.006 301.393 99.4892 294.888 97.9961C289.067 96.6598 283.328 95.3426 280.581 94.2152C281.556 94.9689 282.931 96.1792 284.514 97.573C287.925 100.576 292.304 104.432 295.735 106.406C297.709 106.028 299.573 105.678 301.283 105.363C301.32 104.877 301.306 104.307 301.235 103.646C301.796 104.22 302.342 104.694 302.872 105.072C305.806 104.538 308.183 104.127 309.746 103.879C310.069 103.417 310.373 102.892 310.657 102.309C311.611 102.777 312.055 103.217 311.801 103.618C311.808 103.621 311.809 103.625 311.805 103.63C311.804 103.633 311.801 103.635 311.797 103.638L311.792 103.641C311.789 103.642 311.786 103.644 311.782 103.646C311.181 104.484 309.818 105.153 307.917 105.679C307.195 106.114 306.412 106.301 305.572 106.211C304.919 106.333 304.229 106.444 303.507 106.544C286.52 113.014 249.363 128.317 248.216 131.491C247.098 131.617 244.433 132.281 240.786 133.19C229.449 136.016 208.627 141.206 195.291 139.929C173.72 137.864 166.977 133.465 157.039 126.902ZM54.7988 123.053L57.6115 81.4262C57.1427 81.2386 56.2052 80.723 56.2052 80.1605H58.0334L59.1585 64.1284H56.2052V62.0189H53.1113V63.4252H49.8767L48.611 78.7541H49.8767C50.0173 79.176 49.9048 80.1042 48.3298 80.4417L45.2358 118.131C48.4235 119.491 54.7988 122.378 54.7988 123.053ZM77.0188 83.395L73.9249 121.928L64.0806 123.053C65.2056 109.318 67.5401 81.9606 67.8777 82.4106C68.2996 82.9731 69.8465 81.8481 69.7059 81.4262C69.5934 81.0886 68.4402 80.9105 67.8777 80.8636L68.8621 64.9722H72.3779V63.4252H75.6124V65.6753L78.7064 66.0972L77.0188 81.8481H75.6124V82.9731L77.0188 83.395ZM209.635 63.2846L211.745 83.5356C211.885 81.9887 213.404 79.3729 218.354 81.2855C223.305 83.1981 229.792 81.4262 232.418 80.3011L217.651 52.4559L216.245 53.159L215.26 51.4715L222.433 48.0963L222.995 49.2213L221.448 50.6277L237.058 78.8948C238.521 77.7697 243.481 76.1759 245.778 75.5196L243.949 59.3469H243.106V56.6749H243.949L243.106 50.0651C241.418 45.1899 234.921 35.9456 222.433 37.9707C209.945 39.9959 208.698 53.4403 209.635 59.9094H210.62V62.8627L209.635 63.2846ZM267.435 34.3143V86.6296L269.826 88.1765L277.561 51.8934L276.154 51.6121L276 50L283.327 51.6121V52.5965H282.201L274.326 90.4266L279.108 92.6524C279.214 92.5654 279.302 92.4964 279.373 92.4432L284.03 75.2383H280.655V71.4413L291.905 70.5975V72.9882C296.968 72.9882 300.859 74.4883 302.171 75.2383V35.0175C301.749 29.9547 297.84 19.6885 285.577 19.126C273.314 18.5635 268.373 29.0172 267.435 34.3143ZM246.628 118.248C256.689 103.253 262.66 103.783 264.53 105.334C264.556 106.284 278.183 107.52 290.847 107.353C273.742 110.714 251.617 115.526 246.628 118.248Z" fill="#6FD4E0"/>
</svg>
